<svg xmlns="http://www.w3.org/2000/svg" width="41" height="69" viewBox="0 0 41 69">
    <g fill="none" fill-rule="evenodd">
        <g stroke="#000" stroke-width="2">
            <path d="M20.608 0v8.001M9.102 3.002l3.002 6"/>
        </g>
        <path stroke="#000" stroke-width="2" d="M29.114 10.002l3.001-6"/>
        <path fill="#FFD6BD" d="M19.92 28.831l-6.783 5.592S8.883 37.84 8.64 40.274c-.243 2.433 0 10.578 0 10.578l4.01 3.04.123 12.883 2.25.493 2.43-7.908-.812-4.092 7.675-.04-.482 12.04h4.498V62.4l1.809-9.224 3.507-1.594V40.274l-5.073-8.02S21.73 28.47 19.92 28.83"/>
        <path fill="#FFD6BD" d="M17.453 27.179a3.432 3.432 0 1 1 6.864 0 3.432 3.432 0 0 1-6.864 0"/>
        <path stroke="#000" stroke-linecap="round" stroke-linejoin="round" stroke-width="2.109" d="M25.073 26.29c0 2.947-2.403 5.337-5.366 5.337-2.963 0-5.365-2.39-5.365-5.338s2.402-5.338 5.365-5.338 5.366 2.39 5.366 5.338z"/>
        <path stroke="#000" stroke-linecap="round" stroke-linejoin="round" stroke-width="2.109" d="M9.7 34.423V21.704c0-2.662 2.17-4.82 4.845-4.82h10.751c2.675 0 4.844 2.158 4.844 4.82v11.194"/>
        <path stroke="#000" stroke-linecap="round" stroke-linejoin="round" stroke-width="2.109" d="M14.342 30.61l-3.528 2.765a12.778 12.778 0 0 0-4.905 10.056v6.372a2.932 2.932 0 0 0 2.94 2.923 2.931 2.931 0 0 0 2.938-2.923V38.49M25.216 30.61l3.528 2.765a12.78 12.78 0 0 1 4.904 10.056v6.372a2.931 2.931 0 0 1-2.94 2.923 2.93 2.93 0 0 1-2.937-2.923V38.49M4.888 31.627H1.055V46.37h3.833M25.073 48.15H11.786M10.126 52.726v11.756a3.25 3.25 0 0 0 3.258 3.242 3.25 3.25 0 0 0 3.257-3.242v-9.214h3.28M22.773 55.268v9.215a3.25 3.25 0 0 0 3.258 3.24h.142a3.25 3.25 0 0 0 3.258-3.24V52.726"/>
        <path stroke="#000" stroke-linecap="round" stroke-linejoin="round" stroke-width="2.109" d="M34.782 31.627h4.6V46.37h-5.735M9.7 28.831c-2.658 0-4.812-2.144-4.812-4.788v-.296M5.91 18.918a1.02 1.02 0 0 1-1.022 1.017 1.019 1.019 0 0 1-1.022-1.017c0-.562.457-1.017 1.022-1.017a1.02 1.02 0 0 1 1.022 1.017zM2.972 49.675v7M2.972 60.225v3.265M37.403 49.675v7M37.403 60.225v3.265"/>
        <path stroke="#000" stroke-linecap="round" stroke-linejoin="round" stroke-width="1.091" d="M16.519 36.202h6.255M16.519 38.238h6.255M16.519 40.274h6.255"/>
    </g>
</svg>
