<svg xmlns="http://www.w3.org/2000/svg" width="37" height="48" viewBox="0 0 37 48">
    <g fill="none" fill-rule="evenodd">
        <path fill="#FFFF52" d="M17.787 11.61l-6.057 4.993s-3.799 3.05-4.016 5.224c-.217 2.173 0 9.445 0 9.445l3.582 2.714.108 11.505 2.01.44 2.17-7.061-.725-3.654 6.854-.036-.43 10.75h4.015v-4.346l1.615-8.237 3.132-1.424V21.827l-4.53-7.162s-6.11-3.377-7.728-3.055"/>
        <path fill="#FFFF52" d="M15.585 10.134a3.064 3.064 0 1 1 6.128 0 3.064 3.064 0 0 1-6.128 0"/>
        <path stroke="#000" stroke-linecap="round" stroke-linejoin="round" stroke-width="1.883" d="M22.388 9.34c0 2.632-2.146 4.767-4.79 4.767-2.647 0-4.793-2.135-4.793-4.767 0-2.633 2.146-4.767 4.792-4.767 2.645 0 4.791 2.134 4.791 4.767z"/>
        <path stroke="#000" stroke-linecap="round" stroke-linejoin="round" stroke-width="1.883" d="M8.661 16.603V5.246c0-2.377 1.937-4.304 4.327-4.304h9.6c2.388 0 4.325 1.927 4.325 4.304v9.995"/>
        <path stroke="#000" stroke-linecap="round" stroke-linejoin="round" stroke-width="1.883" d="M12.806 13.198l-3.15 2.47a11.412 11.412 0 0 0-4.38 8.978v5.69a2.618 2.618 0 0 0 2.625 2.61 2.618 2.618 0 0 0 2.624-2.61v-10.1M22.516 13.198l3.15 2.47a11.412 11.412 0 0 1 4.379 8.978v5.69a2.618 2.618 0 0 1-2.624 2.61 2.618 2.618 0 0 1-2.624-2.61v-10.1M4.364 14.106H.941v13.165h3.423M22.388 28.86H10.524M9.042 32.945v10.498a2.901 2.901 0 0 0 2.909 2.894 2.901 2.901 0 0 0 2.908-2.894v-8.227h2.929M20.335 35.215v8.228a2.902 2.902 0 0 0 2.909 2.894h.128a2.901 2.901 0 0 0 2.908-2.894V32.945M31.058 14.106h4.107v13.165h-5.12M8.661 11.61c-2.373 0-4.297-1.915-4.297-4.275V7.07M5.277 2.757a.911.911 0 0 1-.913.908.91.91 0 0 1-.912-.908.91.91 0 0 1 .912-.908c.504 0 .913.407.913.908zM2.653 30.222v6.25M2.653 39.642v2.914M33.398 30.222v6.25M33.398 39.642v2.914"/>
        <path stroke="#000" stroke-linecap="round" stroke-linejoin="round" stroke-width=".974" d="M14.75 18.191h5.584M14.75 20.01h5.584M14.75 21.827h5.584"/>
    </g>
</svg>
