<svg xmlns="http://www.w3.org/2000/svg" width="301" height="320" viewBox="0 0 301 320">
    <g fill="none" fill-rule="evenodd">
        <path fill="#1A1A1A" d="M298.406 117.323a.997.997 0 0 0 .921.258c-.18-.642-.372-1.279-.56-1.918a.997.997 0 0 0-.36.228 1.013 1.013 0 0 0 0 1.432M299.84 129.432a1.013 1.013 0 1 0-1.434 1.431 1.013 1.013 0 0 0 1.433-1.431M299.84 142.974a1.013 1.013 0 1 0-1.434 1.431 1.013 1.013 0 0 0 1.433-1.431M299.84 156.516a1.013 1.013 0 1 0-1.434 1.431 1.013 1.013 0 0 0 1.433-1.431M299.84 170.057a1.013 1.013 0 1 0-1.434 1.431 1.013 1.013 0 0 0 1.433-1.431M299.84 183.599a1.013 1.013 0 1 0-1.434 1.431 1.013 1.013 0 0 0 1.433-1.431M298.406 197.14a1.013 1.013 0 1 0 1.432 1.433 1.013 1.013 0 0 0-1.432-1.433M286.298 88.808a1.013 1.013 0 1 0-1.433 1.431 1.013 1.013 0 0 0 1.433-1.431M286.298 102.349a1.013 1.013 0 1 0-1.433 1.431 1.013 1.013 0 0 0 1.433-1.431M286.298 115.89a1.013 1.013 0 1 0-1.433 1.432 1.013 1.013 0 0 0 1.433-1.431M286.298 129.432a1.013 1.013 0 1 0-1.433 1.431 1.013 1.013 0 0 0 1.433-1.431M286.298 142.974a1.013 1.013 0 1 0-1.433 1.431 1.013 1.013 0 0 0 1.433-1.431M286.298 156.516a1.013 1.013 0 1 0-1.433 1.431 1.013 1.013 0 0 0 1.433-1.431M286.298 170.057a1.013 1.013 0 1 0-1.433 1.431 1.013 1.013 0 0 0 1.433-1.431M286.298 183.599a1.013 1.013 0 1 0-1.433 1.431 1.013 1.013 0 0 0 1.433-1.431M286.298 197.14a1.013 1.013 0 1 0-1.433 1.431 1.013 1.013 0 0 0 1.433-1.431M286.298 210.682a1.013 1.013 0 1 0-1.433 1.431 1.013 1.013 0 0 0 1.433-1.431M284.865 224.223a1.013 1.013 0 1 0 1.432 1.433 1.013 1.013 0 0 0-1.432-1.433M284.572 238.462c.151-.266.297-.534.447-.8-.051.035-.109.057-.154.103a1.004 1.004 0 0 0-.293.697M271.324 63.157c.157.158.356.235.561.268-.279-.358-.56-.712-.842-1.067a.997.997 0 0 0 .28.8M272.756 75.266a1.013 1.013 0 1 0-1.433 1.431 1.013 1.013 0 0 0 1.433-1.431M272.756 88.808a1.013 1.013 0 1 0-1.433 1.431 1.013 1.013 0 0 0 1.433-1.431M272.756 102.349a1.013 1.013 0 1 0-1.433 1.431 1.013 1.013 0 0 0 1.433-1.431M272.756 115.89a1.013 1.013 0 1 0-1.433 1.432 1.013 1.013 0 0 0 1.433-1.431M272.756 129.432a1.013 1.013 0 1 0-1.433 1.431 1.013 1.013 0 0 0 1.433-1.431M272.756 142.974a1.013 1.013 0 1 0-1.433 1.431 1.013 1.013 0 0 0 1.433-1.431M272.756 156.516a1.013 1.013 0 1 0-1.433 1.431 1.013 1.013 0 0 0 1.433-1.431M272.756 170.057a1.013 1.013 0 1 0-1.433 1.431 1.013 1.013 0 0 0 1.433-1.431M272.756 183.599a1.013 1.013 0 1 0-1.433 1.431 1.013 1.013 0 0 0 1.433-1.431M272.756 197.14a1.013 1.013 0 1 0-1.433 1.431 1.013 1.013 0 0 0 1.433-1.431M272.756 210.682a1.013 1.013 0 1 0-1.433 1.431 1.013 1.013 0 0 0 1.433-1.431M272.756 224.223a1.013 1.013 0 1 0-1.433 1.431 1.013 1.013 0 0 0 1.433-1.431M272.756 237.765a1.013 1.013 0 1 0-1.433 1.431 1.013 1.013 0 0 0 1.433-1.431M271.324 251.306a1.013 1.013 0 1 0 1.431 1.433 1.013 1.013 0 0 0-1.431-1.433M257.781 49.615a1.013 1.013 0 0 0 1.65-.327c-.44-.442-.883-.88-1.328-1.319-.117.05-.226.12-.322.213a1.013 1.013 0 0 0 0 1.433M259.215 61.725a1.013 1.013 0 1 0-1.433 1.431 1.013 1.013 0 0 0 1.433-1.431M259.215 75.266a1.013 1.013 0 1 0-1.433 1.431 1.013 1.013 0 0 0 1.433-1.431M259.215 88.808a1.013 1.013 0 1 0-1.433 1.431 1.013 1.013 0 0 0 1.433-1.431M259.215 102.349a1.013 1.013 0 1 0-1.433 1.431 1.013 1.013 0 0 0 1.433-1.431M259.215 115.89a1.013 1.013 0 1 0-1.433 1.432 1.013 1.013 0 0 0 1.433-1.431M259.215 129.432a1.013 1.013 0 1 0-1.433 1.431 1.013 1.013 0 0 0 1.433-1.431M259.215 142.974a1.013 1.013 0 1 0-1.433 1.431 1.013 1.013 0 0 0 1.433-1.431M259.215 156.516a1.013 1.013 0 1 0-1.433 1.431 1.013 1.013 0 0 0 1.433-1.431M259.215 170.057a1.013 1.013 0 1 0-1.433 1.431 1.013 1.013 0 0 0 1.433-1.431M259.215 183.599a1.013 1.013 0 1 0-1.433 1.431 1.013 1.013 0 0 0 1.433-1.431M259.215 197.14a1.013 1.013 0 1 0-1.433 1.431 1.013 1.013 0 0 0 1.433-1.431M259.215 210.682a1.013 1.013 0 1 0-1.433 1.431 1.013 1.013 0 0 0 1.433-1.431M259.215 224.223a1.013 1.013 0 1 0-1.433 1.431 1.013 1.013 0 0 0 1.433-1.431M259.215 237.765a1.013 1.013 0 1 0-1.433 1.431 1.013 1.013 0 0 0 1.433-1.431M259.215 251.306a1.013 1.013 0 1 0-1.433 1.431 1.013 1.013 0 0 0 1.433-1.431M257.781 264.848a1.013 1.013 0 1 0 1.432 1.433 1.013 1.013 0 0 0-1.432-1.433M244.24 36.075c.195.194.449.29.704.293-.312-.245-.631-.483-.946-.729.047.16.117.31.242.435M245.673 48.183a1.013 1.013 0 1 0-1.433 1.431 1.013 1.013 0 0 0 1.433-1.431M245.673 61.725a1.013 1.013 0 1 0-1.433 1.431 1.013 1.013 0 0 0 1.433-1.431M245.673 75.266a1.013 1.013 0 1 0-1.433 1.431 1.013 1.013 0 0 0 1.433-1.431M245.673 88.808a1.013 1.013 0 1 0-1.433 1.431 1.013 1.013 0 0 0 1.433-1.431M245.673 102.349a1.013 1.013 0 1 0-1.433 1.431 1.013 1.013 0 0 0 1.433-1.431M245.673 115.89a1.013 1.013 0 1 0-1.433 1.432 1.013 1.013 0 0 0 1.433-1.431M245.673 129.432a1.013 1.013 0 1 0-1.433 1.431 1.013 1.013 0 0 0 1.433-1.431M245.673 142.974a1.013 1.013 0 1 0-1.433 1.431 1.013 1.013 0 0 0 1.433-1.431M245.673 156.516a1.013 1.013 0 1 0-1.433 1.431 1.013 1.013 0 0 0 1.433-1.431M245.673 170.057a1.013 1.013 0 1 0-1.433 1.431 1.013 1.013 0 0 0 1.433-1.431M245.673 183.599a1.013 1.013 0 1 0-1.433 1.431 1.013 1.013 0 0 0 1.433-1.431M245.673 197.14a1.013 1.013 0 1 0-1.433 1.431 1.013 1.013 0 0 0 1.433-1.431M245.673 210.682a1.013 1.013 0 1 0-1.433 1.431 1.013 1.013 0 0 0 1.433-1.431M245.673 224.223a1.013 1.013 0 1 0-1.433 1.431 1.013 1.013 0 0 0 1.433-1.431M245.673 237.765a1.013 1.013 0 1 0-1.433 1.431 1.013 1.013 0 0 0 1.433-1.431M245.673 251.306a1.013 1.013 0 1 0-1.433 1.431 1.013 1.013 0 0 0 1.433-1.431M245.673 264.848a1.013 1.013 0 1 0-1.433 1.431 1.013 1.013 0 0 0 1.433-1.431M244.24 278.389a1.013 1.013 0 1 0 1.432 1.433 1.013 1.013 0 0 0-1.432-1.433M232.132 34.642a1.013 1.013 0 1 0-1.433 1.431 1.013 1.013 0 0 0 1.433-1.431M232.132 48.183a1.013 1.013 0 1 0-1.433 1.431 1.013 1.013 0 0 0 1.433-1.431M232.132 61.725a1.013 1.013 0 1 0-1.433 1.431 1.013 1.013 0 0 0 1.433-1.431M232.132 75.266a1.013 1.013 0 1 0-1.433 1.431 1.013 1.013 0 0 0 1.433-1.431M232.132 88.808a1.013 1.013 0 1 0-1.433 1.431 1.013 1.013 0 0 0 1.433-1.431M232.132 102.349a1.013 1.013 0 1 0-1.433 1.431 1.013 1.013 0 0 0 1.433-1.431M232.132 115.89a1.013 1.013 0 1 0-1.433 1.432 1.013 1.013 0 0 0 1.433-1.431M232.132 129.432a1.013 1.013 0 1 0-1.433 1.431 1.013 1.013 0 0 0 1.433-1.431M232.132 142.974a1.013 1.013 0 1 0-1.433 1.431 1.013 1.013 0 0 0 1.433-1.431M232.132 156.516a1.013 1.013 0 1 0-1.433 1.431 1.013 1.013 0 0 0 1.433-1.431M232.132 170.057a1.013 1.013 0 1 0-1.433 1.431 1.013 1.013 0 0 0 1.433-1.431M232.132 183.599a1.013 1.013 0 1 0-1.433 1.431 1.013 1.013 0 0 0 1.433-1.431M232.132 197.14a1.013 1.013 0 1 0-1.433 1.431 1.013 1.013 0 0 0 1.433-1.431M232.132 210.682a1.013 1.013 0 1 0-1.433 1.431 1.013 1.013 0 0 0 1.433-1.431M232.132 224.223a1.013 1.013 0 1 0-1.433 1.431 1.013 1.013 0 0 0 1.433-1.431M232.132 237.765a1.013 1.013 0 1 0-1.433 1.431 1.013 1.013 0 0 0 1.433-1.431M232.132 251.306a1.013 1.013 0 1 0-1.433 1.431 1.013 1.013 0 0 0 1.433-1.431M232.132 264.848a1.013 1.013 0 1 0-1.433 1.431 1.013 1.013 0 0 0 1.433-1.431M232.132 278.389a1.013 1.013 0 1 0-1.433 1.431 1.013 1.013 0 0 0 1.433-1.431M230.698 291.93a1.013 1.013 0 1 0 1.432 1.434 1.013 1.013 0 0 0-1.431-1.433M218.59 21.1a1.013 1.013 0 1 0-1.433 1.431 1.013 1.013 0 0 0 1.433-1.431M218.59 34.642a1.013 1.013 0 1 0-1.433 1.431 1.013 1.013 0 0 0 1.433-1.431M218.59 48.183a1.013 1.013 0 1 0-1.433 1.431 1.013 1.013 0 0 0 1.433-1.431M218.59 61.725a1.013 1.013 0 1 0-1.433 1.431 1.013 1.013 0 0 0 1.433-1.431M218.59 75.266a1.013 1.013 0 1 0-1.433 1.431 1.013 1.013 0 0 0 1.433-1.431M218.59 88.808a1.013 1.013 0 1 0-1.433 1.431 1.013 1.013 0 0 0 1.433-1.431M218.59 102.349a1.013 1.013 0 1 0-1.433 1.431 1.013 1.013 0 0 0 1.433-1.431M218.59 115.89a1.013 1.013 0 1 0-1.433 1.432 1.013 1.013 0 0 0 1.433-1.431M218.59 129.432a1.013 1.013 0 1 0-1.433 1.431 1.013 1.013 0 0 0 1.433-1.431M218.59 142.974a1.013 1.013 0 1 0-1.433 1.431 1.013 1.013 0 0 0 1.433-1.431M218.59 156.516a1.013 1.013 0 1 0-1.433 1.431 1.013 1.013 0 0 0 1.433-1.431M218.59 170.057a1.013 1.013 0 1 0-1.433 1.431 1.013 1.013 0 0 0 1.433-1.431M218.59 183.599a1.013 1.013 0 1 0-1.433 1.431 1.013 1.013 0 0 0 1.433-1.431M218.59 197.14a1.013 1.013 0 1 0-1.433 1.431 1.013 1.013 0 0 0 1.433-1.431M218.59 210.682a1.013 1.013 0 1 0-1.433 1.431 1.013 1.013 0 0 0 1.433-1.431M218.59 224.223a1.013 1.013 0 1 0-1.433 1.431 1.013 1.013 0 0 0 1.433-1.431M218.59 237.765a1.013 1.013 0 1 0-1.433 1.431 1.013 1.013 0 0 0 1.433-1.431M218.59 251.306a1.013 1.013 0 1 0-1.433 1.431 1.013 1.013 0 0 0 1.433-1.431M218.59 264.848a1.013 1.013 0 1 0-1.433 1.431 1.013 1.013 0 0 0 1.433-1.431M218.59 278.389a1.013 1.013 0 1 0-1.433 1.431 1.013 1.013 0 0 0 1.433-1.431M217.157 291.93a1.013 1.013 0 1 0 1.432 1.434 1.013 1.013 0 0 0-1.432-1.433M205.049 21.1a1.013 1.013 0 1 0-1.433 1.431 1.013 1.013 0 0 0 1.433-1.431M205.049 34.642a1.013 1.013 0 1 0-1.433 1.431 1.013 1.013 0 0 0 1.433-1.431M205.049 48.183a1.013 1.013 0 1 0-1.433 1.431 1.013 1.013 0 0 0 1.433-1.431M205.049 61.725a1.013 1.013 0 1 0-1.433 1.431 1.013 1.013 0 0 0 1.433-1.431M205.049 75.266a1.013 1.013 0 1 0-1.433 1.431 1.013 1.013 0 0 0 1.433-1.431M205.049 88.808a1.013 1.013 0 1 0-1.433 1.431 1.013 1.013 0 0 0 1.433-1.431M205.049 102.349a1.013 1.013 0 1 0-1.433 1.431 1.013 1.013 0 0 0 1.433-1.431M205.049 115.89a1.013 1.013 0 1 0-1.433 1.432 1.013 1.013 0 0 0 1.433-1.431M205.049 129.432a1.013 1.013 0 1 0-1.433 1.431 1.013 1.013 0 0 0 1.433-1.431M205.049 142.974a1.013 1.013 0 1 0-1.433 1.431 1.013 1.013 0 0 0 1.433-1.431M205.049 156.516a1.013 1.013 0 1 0-1.433 1.431 1.013 1.013 0 0 0 1.433-1.431M205.049 170.057a1.013 1.013 0 1 0-1.433 1.431 1.013 1.013 0 0 0 1.433-1.431M205.049 183.599a1.013 1.013 0 1 0-1.433 1.431 1.013 1.013 0 0 0 1.433-1.431M205.049 197.14a1.013 1.013 0 1 0-1.433 1.431 1.013 1.013 0 0 0 1.433-1.431M205.049 210.682a1.013 1.013 0 1 0-1.433 1.431 1.013 1.013 0 0 0 1.433-1.431M205.049 224.223a1.013 1.013 0 1 0-1.433 1.431 1.013 1.013 0 0 0 1.433-1.431M205.049 237.765a1.013 1.013 0 1 0-1.433 1.431 1.013 1.013 0 0 0 1.433-1.431M205.049 251.306a1.013 1.013 0 1 0-1.433 1.431 1.013 1.013 0 0 0 1.433-1.431M205.049 264.848a1.013 1.013 0 1 0-1.433 1.431 1.013 1.013 0 0 0 1.433-1.431M205.049 278.389a1.013 1.013 0 1 0-1.433 1.431 1.013 1.013 0 0 0 1.433-1.431M205.049 291.93a1.013 1.013 0 1 0-1.433 1.432 1.013 1.013 0 0 0 1.433-1.431M203.615 305.472a1.014 1.014 0 1 0 1.434 1.434 1.014 1.014 0 0 0-1.434-1.434M190.074 8.992a1.013 1.013 0 0 0 1.433 0c.025-.026.034-.059.056-.085-.586-.17-1.172-.338-1.76-.5a.989.989 0 0 0 .271.585M191.507 21.1a1.013 1.013 0 1 0-1.433 1.431 1.013 1.013 0 0 0 1.433-1.431M191.507 34.642a1.013 1.013 0 1 0-1.433 1.431 1.013 1.013 0 0 0 1.433-1.431M191.507 48.183a1.013 1.013 0 1 0-1.433 1.431 1.013 1.013 0 0 0 1.433-1.431M191.507 61.725a1.013 1.013 0 1 0-1.433 1.431 1.013 1.013 0 0 0 1.433-1.431M191.507 75.266a1.013 1.013 0 1 0-1.433 1.431 1.013 1.013 0 0 0 1.433-1.431M191.507 88.808a1.013 1.013 0 1 0-1.433 1.431 1.013 1.013 0 0 0 1.433-1.431M191.507 102.349a1.013 1.013 0 1 0-1.433 1.431 1.013 1.013 0 0 0 1.433-1.431M191.507 115.89a1.013 1.013 0 1 0-1.433 1.432 1.013 1.013 0 0 0 1.433-1.431M191.507 129.432a1.013 1.013 0 1 0-1.433 1.431 1.013 1.013 0 0 0 1.433-1.431M191.507 142.974a1.013 1.013 0 1 0-1.433 1.431 1.013 1.013 0 0 0 1.433-1.431M191.507 156.516a1.013 1.013 0 1 0-1.433 1.431 1.013 1.013 0 0 0 1.433-1.431M191.507 170.057a1.013 1.013 0 1 0-1.433 1.431 1.013 1.013 0 0 0 1.433-1.431M191.507 183.599a1.013 1.013 0 1 0-1.433 1.431 1.013 1.013 0 0 0 1.433-1.431M191.507 197.14a1.013 1.013 0 1 0-1.433 1.431 1.013 1.013 0 0 0 1.433-1.431M191.507 210.682a1.013 1.013 0 1 0-1.433 1.431 1.013 1.013 0 0 0 1.433-1.431M191.507 224.223a1.013 1.013 0 1 0-1.433 1.431 1.013 1.013 0 0 0 1.433-1.431M191.507 237.765a1.013 1.013 0 1 0-1.433 1.431 1.013 1.013 0 0 0 1.433-1.431M191.507 251.306a1.013 1.013 0 1 0-1.433 1.431 1.013 1.013 0 0 0 1.433-1.431M191.507 264.848a1.013 1.013 0 1 0-1.433 1.431 1.013 1.013 0 0 0 1.433-1.431M191.507 278.389a1.013 1.013 0 1 0-1.433 1.431 1.013 1.013 0 0 0 1.433-1.431M191.507 291.93a1.013 1.013 0 1 0-1.433 1.432 1.013 1.013 0 0 0 1.433-1.431M190.074 305.472a1.014 1.014 0 1 0 1.434 1.434 1.014 1.014 0 0 0-1.434-1.434M177.965 7.559a1.013 1.013 0 1 0-1.433 1.431 1.013 1.013 0 0 0 1.433-1.431M177.965 21.1a1.013 1.013 0 1 0-1.433 1.431 1.013 1.013 0 0 0 1.433-1.431M177.965 34.642a1.013 1.013 0 1 0-1.433 1.431 1.013 1.013 0 0 0 1.433-1.431M177.965 48.183a1.013 1.013 0 1 0-1.433 1.431 1.013 1.013 0 0 0 1.433-1.431M177.965 61.725a1.013 1.013 0 1 0-1.433 1.431 1.013 1.013 0 0 0 1.433-1.431M177.965 75.266a1.013 1.013 0 1 0-1.433 1.431 1.013 1.013 0 0 0 1.433-1.431M177.965 88.808a1.013 1.013 0 1 0-1.433 1.431 1.013 1.013 0 0 0 1.433-1.431M177.965 102.349a1.013 1.013 0 1 0-1.433 1.431 1.013 1.013 0 0 0 1.433-1.431M177.965 115.89a1.013 1.013 0 1 0-1.433 1.432 1.013 1.013 0 0 0 1.433-1.431M177.965 129.432a1.013 1.013 0 1 0-1.433 1.431 1.013 1.013 0 0 0 1.433-1.431M177.965 142.974a1.013 1.013 0 1 0-1.433 1.431 1.013 1.013 0 0 0 1.433-1.431M177.965 156.516a1.013 1.013 0 1 0-1.433 1.431 1.013 1.013 0 0 0 1.433-1.431M177.965 170.057a1.013 1.013 0 1 0-1.433 1.431 1.013 1.013 0 0 0 1.433-1.431M177.965 183.599a1.013 1.013 0 1 0-1.433 1.431 1.013 1.013 0 0 0 1.433-1.431M177.965 197.14a1.013 1.013 0 1 0-1.433 1.431 1.013 1.013 0 0 0 1.433-1.431M177.965 210.682a1.013 1.013 0 1 0-1.433 1.431 1.013 1.013 0 0 0 1.433-1.431M177.965 224.223a1.013 1.013 0 1 0-1.433 1.431 1.013 1.013 0 0 0 1.433-1.431M177.965 237.765a1.013 1.013 0 1 0-1.433 1.431 1.013 1.013 0 0 0 1.433-1.431M177.965 251.306a1.013 1.013 0 1 0-1.433 1.431 1.013 1.013 0 0 0 1.433-1.431M177.965 264.848a1.013 1.013 0 1 0-1.433 1.431 1.013 1.013 0 0 0 1.433-1.431M177.965 278.389a1.013 1.013 0 1 0-1.433 1.431 1.013 1.013 0 0 0 1.433-1.431M177.965 291.93a1.013 1.013 0 1 0-1.433 1.432 1.013 1.013 0 0 0 1.433-1.431M176.532 305.472a1.014 1.014 0 1 0 1.434 1.434 1.014 1.014 0 0 0-1.434-1.434M164.424 7.559a1.013 1.013 0 1 0-1.433 1.431 1.013 1.013 0 0 0 1.433-1.431M164.424 21.1a1.013 1.013 0 1 0-1.433 1.431 1.013 1.013 0 0 0 1.433-1.431M164.424 34.642a1.013 1.013 0 1 0-1.433 1.431 1.013 1.013 0 0 0 1.433-1.431M164.424 48.183a1.013 1.013 0 1 0-1.433 1.431 1.013 1.013 0 0 0 1.433-1.431M164.424 61.725a1.013 1.013 0 1 0-1.433 1.431 1.013 1.013 0 0 0 1.433-1.431M164.424 75.266a1.013 1.013 0 1 0-1.433 1.431 1.013 1.013 0 0 0 1.433-1.431M164.424 88.808a1.013 1.013 0 1 0-1.433 1.431 1.013 1.013 0 0 0 1.433-1.431M164.424 102.349a1.013 1.013 0 1 0-1.433 1.431 1.013 1.013 0 0 0 1.433-1.431M164.424 115.89a1.013 1.013 0 1 0-1.433 1.432 1.013 1.013 0 0 0 1.433-1.431M164.424 129.432a1.013 1.013 0 1 0-1.433 1.431 1.013 1.013 0 0 0 1.433-1.431M164.424 142.974a1.013 1.013 0 1 0-1.433 1.431 1.013 1.013 0 0 0 1.433-1.431M164.424 156.516a1.013 1.013 0 1 0-1.433 1.431 1.013 1.013 0 0 0 1.433-1.431M164.424 170.057a1.013 1.013 0 1 0-1.433 1.431 1.013 1.013 0 0 0 1.433-1.431M164.424 183.599a1.013 1.013 0 1 0-1.433 1.431 1.013 1.013 0 0 0 1.433-1.431M164.424 197.14a1.013 1.013 0 1 0-1.433 1.431 1.013 1.013 0 0 0 1.433-1.431M164.424 210.682a1.013 1.013 0 1 0-1.433 1.431 1.013 1.013 0 0 0 1.433-1.431M164.424 224.223a1.013 1.013 0 1 0-1.433 1.431 1.013 1.013 0 0 0 1.433-1.431M164.424 237.765a1.013 1.013 0 1 0-1.433 1.431 1.013 1.013 0 0 0 1.433-1.431M164.424 251.306a1.013 1.013 0 1 0-1.433 1.431 1.013 1.013 0 0 0 1.433-1.431M164.424 264.848a1.013 1.013 0 1 0-1.433 1.431 1.013 1.013 0 0 0 1.433-1.431M164.424 278.389a1.013 1.013 0 1 0-1.433 1.431 1.013 1.013 0 0 0 1.433-1.431M164.424 291.93a1.013 1.013 0 1 0-1.433 1.432 1.013 1.013 0 0 0 1.433-1.431M162.991 305.472a1.014 1.014 0 1 0 1.434 1.434 1.014 1.014 0 0 0-1.434-1.434M150.882 7.559a1.013 1.013 0 1 0-1.433 1.431 1.013 1.013 0 0 0 1.433-1.431M150.882 21.1a1.013 1.013 0 1 0-1.433 1.431 1.013 1.013 0 0 0 1.433-1.431M150.882 34.642a1.013 1.013 0 1 0-1.433 1.431 1.013 1.013 0 0 0 1.433-1.431M150.882 48.183a1.013 1.013 0 1 0-1.433 1.431 1.013 1.013 0 0 0 1.433-1.431M150.882 61.725a1.013 1.013 0 1 0-1.433 1.431 1.013 1.013 0 0 0 1.433-1.431M150.882 75.266a1.013 1.013 0 1 0-1.433 1.431 1.013 1.013 0 0 0 1.433-1.431M150.882 88.808a1.013 1.013 0 1 0-1.433 1.431 1.013 1.013 0 0 0 1.433-1.431M150.882 102.349a1.013 1.013 0 1 0-1.433 1.431 1.013 1.013 0 0 0 1.433-1.431M150.882 115.89a1.013 1.013 0 1 0-1.433 1.432 1.013 1.013 0 0 0 1.433-1.431M150.882 129.432a1.013 1.013 0 1 0-1.433 1.431 1.013 1.013 0 0 0 1.433-1.431M150.882 142.974a1.013 1.013 0 1 0-1.433 1.431 1.013 1.013 0 0 0 1.433-1.431M150.882 156.516a1.013 1.013 0 1 0-1.433 1.431 1.013 1.013 0 0 0 1.433-1.431M150.882 170.057a1.013 1.013 0 1 0-1.433 1.431 1.013 1.013 0 0 0 1.433-1.431M150.882 183.599a1.013 1.013 0 1 0-1.433 1.431 1.013 1.013 0 0 0 1.433-1.431M150.882 197.14a1.013 1.013 0 1 0-1.433 1.431 1.013 1.013 0 0 0 1.433-1.431M150.882 210.682a1.013 1.013 0 1 0-1.433 1.431 1.013 1.013 0 0 0 1.433-1.431M150.882 224.223a1.013 1.013 0 1 0-1.433 1.431 1.013 1.013 0 0 0 1.433-1.431M150.882 237.765a1.013 1.013 0 1 0-1.433 1.431 1.013 1.013 0 0 0 1.433-1.431M150.882 251.306a1.013 1.013 0 1 0-1.433 1.431 1.013 1.013 0 0 0 1.433-1.431M150.882 264.848a1.013 1.013 0 1 0-1.433 1.431 1.013 1.013 0 0 0 1.433-1.431M150.882 278.389a1.013 1.013 0 1 0-1.433 1.431 1.013 1.013 0 0 0 1.433-1.431M149.45 291.93a1.013 1.013 0 1 0 1.431 1.434 1.013 1.013 0 0 0-1.431-1.433M150.882 306.906a1.014 1.014 0 1 0-1.434-1.435 1.014 1.014 0 0 0 1.434 1.435M135.908 7.559a1.013 1.013 0 1 0 1.432 1.433 1.013 1.013 0 0 0-1.432-1.433M137.34 22.532a1.013 1.013 0 1 0-1.43-1.433 1.013 1.013 0 0 0 1.43 1.433M135.908 36.075a1.013 1.013 0 1 0 1.433-1.432 1.013 1.013 0 0 0-1.433 1.431M135.908 49.615a1.013 1.013 0 1 0 1.433-1.431 1.013 1.013 0 0 0-1.433 1.431M135.908 63.157a1.015 1.015 0 0 0 1.433 0 1.015 1.015 0 0 0 0-1.432 1.013 1.013 0 1 0-1.433 1.433M135.908 76.698a1.013 1.013 0 1 0 1.433-1.431 1.013 1.013 0 0 0-1.433 1.431M135.908 90.24a1.013 1.013 0 1 0 1.433-1.431 1.013 1.013 0 0 0-1.433 1.431M135.908 103.782a1.013 1.013 0 1 0 1.433-1.431 1.013 1.013 0 0 0-1.433 1.431M135.908 117.323a1.013 1.013 0 1 0 1.433-1.431 1.013 1.013 0 0 0-1.433 1.431M135.908 130.865a1.013 1.013 0 1 0 1.433-1.431 1.013 1.013 0 0 0-1.433 1.431M135.908 144.406a1.013 1.013 0 1 0 1.433-1.431 1.013 1.013 0 0 0-1.433 1.431M135.908 157.948a1.013 1.013 0 1 0 1.433-1.431 1.013 1.013 0 0 0-1.433 1.431M135.908 171.49a1.013 1.013 0 1 0 1.433-1.432 1.013 1.013 0 0 0-1.433 1.431M135.908 185.031a1.013 1.013 0 1 0 1.433-1.431 1.013 1.013 0 0 0-1.433 1.431M135.908 198.572a1.013 1.013 0 1 0 1.433-1.431 1.013 1.013 0 0 0-1.433 1.431M135.908 212.114a1.013 1.013 0 1 0 1.433-1.431 1.013 1.013 0 0 0-1.433 1.431M135.908 225.655a1.013 1.013 0 1 0 1.433-1.431 1.013 1.013 0 0 0-1.433 1.431M135.908 239.197a1.013 1.013 0 1 0 1.433-1.431 1.013 1.013 0 0 0-1.433 1.431M135.908 252.738a1.013 1.013 0 1 0 1.433-1.431 1.013 1.013 0 0 0-1.433 1.431M135.908 266.28a1.013 1.013 0 1 0 1.433-1.431 1.013 1.013 0 0 0-1.433 1.432M135.908 279.822a1.013 1.013 0 1 0 1.433-1.432 1.013 1.013 0 0 0-1.433 1.432M135.908 293.363a1.013 1.013 0 1 0 1.433-1.431 1.013 1.013 0 0 0-1.433 1.431M135.908 306.906a1.013 1.013 0 1 0 1.433-1.432 1.013 1.013 0 0 0-1.433 1.432M123.8 8.992a1.013 1.013 0 1 0-1.432-1.434 1.013 1.013 0 0 0 1.431 1.434M122.367 22.532a1.013 1.013 0 1 0 1.432-1.431 1.013 1.013 0 0 0-1.433 1.431M122.367 36.075a1.013 1.013 0 1 0 1.432-1.432 1.013 1.013 0 0 0-1.433 1.431M122.367 49.615a1.013 1.013 0 1 0 1.432-1.431 1.013 1.013 0 0 0-1.433 1.431M122.367 63.157a1.015 1.015 0 0 0 1.432 0 1.015 1.015 0 0 0 0-1.432 1.013 1.013 0 1 0-1.433 1.433M122.367 76.698a1.013 1.013 0 1 0 1.432-1.431 1.013 1.013 0 0 0-1.433 1.431M122.367 90.24a1.013 1.013 0 1 0 1.432-1.431 1.013 1.013 0 0 0-1.433 1.431M122.367 103.782a1.013 1.013 0 1 0 1.432-1.431 1.013 1.013 0 0 0-1.433 1.431M122.367 117.323a1.013 1.013 0 1 0 1.432-1.431 1.013 1.013 0 0 0-1.433 1.431M122.367 130.865a1.013 1.013 0 1 0 1.432-1.431 1.013 1.013 0 0 0-1.433 1.431M122.367 144.406a1.013 1.013 0 1 0 1.432-1.431 1.013 1.013 0 0 0-1.433 1.431M122.367 157.948a1.013 1.013 0 1 0 1.432-1.431 1.013 1.013 0 0 0-1.433 1.431M122.367 171.49a1.013 1.013 0 1 0 1.432-1.432 1.013 1.013 0 0 0-1.433 1.431M122.367 185.031a1.013 1.013 0 1 0 1.432-1.431 1.013 1.013 0 0 0-1.433 1.431M122.367 198.572a1.013 1.013 0 1 0 1.432-1.431 1.013 1.013 0 0 0-1.433 1.431M122.367 212.114a1.013 1.013 0 1 0 1.432-1.431 1.013 1.013 0 0 0-1.433 1.431M122.367 225.655a1.013 1.013 0 1 0 1.432-1.431 1.013 1.013 0 0 0-1.433 1.431M122.367 239.197a1.013 1.013 0 1 0 1.432-1.431 1.013 1.013 0 0 0-1.433 1.431M122.367 252.738a1.013 1.013 0 1 0 1.432-1.431 1.013 1.013 0 0 0-1.433 1.431M122.367 266.28a1.013 1.013 0 1 0 1.432-1.431 1.013 1.013 0 0 0-1.433 1.432M122.367 279.822a1.013 1.013 0 1 0 1.432-1.432 1.013 1.013 0 0 0-1.433 1.432M122.367 293.363a1.013 1.013 0 1 0 1.432-1.431 1.013 1.013 0 0 0-1.433 1.431M122.367 306.906a1.013 1.013 0 1 0 1.432-1.432 1.013 1.013 0 0 0-1.433 1.432M108.825 7.559a1.013 1.013 0 1 0 1.433 0 .996.996 0 0 0-.962-.25c-.051.014-.101.025-.152.038a.988.988 0 0 0-.319.212M110.258 21.1a1.013 1.013 0 1 0-1.433 1.431 1.013 1.013 0 0 0 1.433-1.431M110.258 34.642a1.013 1.013 0 1 0-1.433 1.431 1.013 1.013 0 0 0 1.433-1.431M110.258 48.183a1.013 1.013 0 1 0-1.433 1.431 1.013 1.013 0 0 0 1.433-1.431M110.258 61.725a1.013 1.013 0 1 0-1.433 1.431 1.013 1.013 0 0 0 1.433-1.431M110.258 75.266a1.013 1.013 0 1 0-1.433 1.431 1.013 1.013 0 0 0 1.433-1.431M110.258 88.808a1.013 1.013 0 1 0-1.433 1.431 1.013 1.013 0 0 0 1.433-1.431M110.258 102.349a1.013 1.013 0 1 0-1.433 1.431 1.013 1.013 0 0 0 1.433-1.431M110.258 115.89a1.013 1.013 0 1 0-1.433 1.432 1.013 1.013 0 0 0 1.433-1.431M110.258 129.432a1.013 1.013 0 1 0-1.433 1.431 1.013 1.013 0 0 0 1.433-1.431M110.258 142.974a1.013 1.013 0 1 0-1.433 1.431 1.013 1.013 0 0 0 1.433-1.431M110.258 156.516a1.013 1.013 0 1 0-1.433 1.431 1.013 1.013 0 0 0 1.433-1.431M110.258 170.057a1.013 1.013 0 1 0-1.433 1.431 1.013 1.013 0 0 0 1.433-1.431M110.258 183.599a1.013 1.013 0 1 0-1.433 1.431 1.013 1.013 0 0 0 1.433-1.431M110.258 197.14a1.013 1.013 0 1 0-1.433 1.431 1.013 1.013 0 0 0 1.433-1.431M110.258 210.682a1.013 1.013 0 1 0-1.433 1.431 1.013 1.013 0 0 0 1.433-1.431M110.258 224.223a1.013 1.013 0 1 0-1.433 1.431 1.013 1.013 0 0 0 1.433-1.431M110.258 237.765a1.013 1.013 0 1 0-1.433 1.431 1.013 1.013 0 0 0 1.433-1.431M110.258 251.306a1.013 1.013 0 1 0-1.433 1.431 1.013 1.013 0 0 0 1.433-1.431M110.258 264.848a1.013 1.013 0 1 0-1.433 1.431 1.013 1.013 0 0 0 1.433-1.431M110.258 278.389a1.013 1.013 0 1 0-1.433 1.431 1.013 1.013 0 0 0 1.433-1.431M110.258 291.93a1.013 1.013 0 1 0-1.433 1.432 1.013 1.013 0 0 0 1.433-1.431M108.825 305.472a1.014 1.014 0 1 0 1.434 1.434 1.014 1.014 0 0 0-1.434-1.434M96.716 21.1a1.013 1.013 0 1 0-1.433 1.431 1.013 1.013 0 0 0 1.433-1.431M96.716 34.642a1.013 1.013 0 1 0-1.433 1.431 1.013 1.013 0 0 0 1.433-1.431M96.716 48.183a1.013 1.013 0 1 0-1.433 1.431 1.013 1.013 0 0 0 1.433-1.431M96.716 61.725a1.013 1.013 0 1 0-1.433 1.431 1.013 1.013 0 0 0 1.433-1.431M96.716 75.266a1.013 1.013 0 1 0-1.433 1.431 1.013 1.013 0 0 0 1.433-1.431M96.716 88.808a1.013 1.013 0 1 0-1.433 1.431 1.013 1.013 0 0 0 1.433-1.431M96.716 102.349a1.013 1.013 0 1 0-1.433 1.431 1.013 1.013 0 0 0 1.433-1.431M96.716 115.89a1.013 1.013 0 1 0-1.433 1.432 1.013 1.013 0 0 0 1.433-1.431M96.716 129.432a1.013 1.013 0 1 0-1.433 1.431 1.013 1.013 0 0 0 1.433-1.431M96.716 142.974a1.013 1.013 0 1 0-1.433 1.431 1.013 1.013 0 0 0 1.433-1.431M96.716 156.516a1.013 1.013 0 1 0-1.433 1.431 1.013 1.013 0 0 0 1.433-1.431M96.716 170.057a1.013 1.013 0 1 0-1.433 1.431 1.013 1.013 0 0 0 1.433-1.431M96.716 183.599a1.013 1.013 0 1 0-1.433 1.431 1.013 1.013 0 0 0 1.433-1.431M96.716 197.14a1.013 1.013 0 1 0-1.433 1.431 1.013 1.013 0 0 0 1.433-1.431M96.716 210.682a1.013 1.013 0 1 0-1.433 1.431 1.013 1.013 0 0 0 1.433-1.431M96.716 224.223a1.013 1.013 0 1 0-1.433 1.431 1.013 1.013 0 0 0 1.433-1.431M96.716 237.765a1.013 1.013 0 1 0-1.433 1.431 1.013 1.013 0 0 0 1.433-1.431M96.716 251.306a1.013 1.013 0 1 0-1.433 1.431 1.013 1.013 0 0 0 1.433-1.431M96.716 264.848a1.013 1.013 0 1 0-1.433 1.431 1.013 1.013 0 0 0 1.433-1.431M96.716 278.389a1.013 1.013 0 1 0-1.433 1.431 1.013 1.013 0 0 0 1.433-1.431M96.716 291.93a1.013 1.013 0 1 0-1.433 1.432 1.013 1.013 0 0 0 1.433-1.431M95.283 305.472a1.014 1.014 0 1 0 1.434 1.434 1.014 1.014 0 0 0-1.434-1.434M83.175 21.1a1.013 1.013 0 1 0-1.433 1.431 1.013 1.013 0 0 0 1.433-1.431M83.175 34.642a1.013 1.013 0 1 0-1.433 1.431 1.013 1.013 0 0 0 1.433-1.431M83.175 48.183a1.013 1.013 0 1 0-1.433 1.431 1.013 1.013 0 0 0 1.433-1.431M83.175 61.725a1.013 1.013 0 1 0-1.433 1.431 1.013 1.013 0 0 0 1.433-1.431M83.175 75.266a1.013 1.013 0 1 0-1.433 1.431 1.013 1.013 0 0 0 1.433-1.431M83.175 88.808a1.013 1.013 0 1 0-1.433 1.431 1.013 1.013 0 0 0 1.433-1.431M83.175 102.349a1.013 1.013 0 1 0-1.433 1.431 1.013 1.013 0 0 0 1.433-1.431M83.175 115.89a1.013 1.013 0 1 0-1.433 1.432 1.013 1.013 0 0 0 1.433-1.431M83.175 129.432a1.013 1.013 0 1 0-1.433 1.431 1.013 1.013 0 0 0 1.433-1.431M83.175 142.974a1.013 1.013 0 1 0-1.433 1.431 1.013 1.013 0 0 0 1.433-1.431M83.175 156.516a1.013 1.013 0 1 0-1.433 1.431 1.013 1.013 0 0 0 1.433-1.431M83.175 170.057a1.013 1.013 0 1 0-1.433 1.431 1.013 1.013 0 0 0 1.433-1.431M83.175 183.599a1.013 1.013 0 1 0-1.433 1.431 1.013 1.013 0 0 0 1.433-1.431M83.175 197.14a1.013 1.013 0 1 0-1.433 1.431 1.013 1.013 0 0 0 1.433-1.431M83.175 210.682a1.013 1.013 0 1 0-1.433 1.431 1.013 1.013 0 0 0 1.433-1.431M83.175 224.223a1.013 1.013 0 1 0-1.433 1.431 1.013 1.013 0 0 0 1.433-1.431M83.175 237.765a1.013 1.013 0 1 0-1.433 1.431 1.013 1.013 0 0 0 1.433-1.431M83.175 251.306a1.013 1.013 0 1 0-1.433 1.431 1.013 1.013 0 0 0 1.433-1.431M83.175 264.848a1.013 1.013 0 1 0-1.433 1.431 1.013 1.013 0 0 0 1.433-1.431M83.175 278.389a1.013 1.013 0 1 0-1.433 1.431 1.013 1.013 0 0 0 1.433-1.431M81.742 291.93a1.013 1.013 0 1 0 1.431 1.434 1.013 1.013 0 0 0-1.431-1.433M69.633 34.642a1.013 1.013 0 1 0-1.433 1.431 1.013 1.013 0 0 0 1.433-1.431M69.633 48.183a1.013 1.013 0 1 0-1.433 1.431 1.013 1.013 0 0 0 1.433-1.431M69.633 61.725a1.013 1.013 0 1 0-1.433 1.431 1.013 1.013 0 0 0 1.433-1.431M69.633 75.266a1.013 1.013 0 1 0-1.433 1.431 1.013 1.013 0 0 0 1.433-1.431M69.633 88.808a1.013 1.013 0 1 0-1.433 1.431 1.013 1.013 0 0 0 1.433-1.431M69.633 102.349a1.013 1.013 0 1 0-1.433 1.431 1.013 1.013 0 0 0 1.433-1.431M69.633 115.89a1.013 1.013 0 1 0-1.433 1.432 1.013 1.013 0 0 0 1.433-1.431M69.633 129.432a1.013 1.013 0 1 0-1.433 1.431 1.013 1.013 0 0 0 1.433-1.431M69.633 142.974a1.013 1.013 0 1 0-1.433 1.431 1.013 1.013 0 0 0 1.433-1.431M69.633 156.516a1.013 1.013 0 1 0-1.433 1.431 1.013 1.013 0 0 0 1.433-1.431M69.633 170.057a1.013 1.013 0 1 0-1.433 1.431 1.013 1.013 0 0 0 1.433-1.431M69.633 183.599a1.013 1.013 0 1 0-1.433 1.431 1.013 1.013 0 0 0 1.433-1.431M69.633 197.14a1.013 1.013 0 1 0-1.433 1.431 1.013 1.013 0 0 0 1.433-1.431M69.633 210.682a1.013 1.013 0 1 0-1.433 1.431 1.013 1.013 0 0 0 1.433-1.431M69.633 224.223a1.013 1.013 0 1 0-1.433 1.431 1.013 1.013 0 0 0 1.433-1.431M69.633 237.765a1.013 1.013 0 1 0-1.433 1.431 1.013 1.013 0 0 0 1.433-1.431M69.633 251.306a1.013 1.013 0 1 0-1.433 1.431 1.013 1.013 0 0 0 1.433-1.431M69.633 264.848a1.013 1.013 0 1 0-1.433 1.431 1.013 1.013 0 0 0 1.433-1.431M69.633 278.389a1.013 1.013 0 1 0-1.433 1.431 1.013 1.013 0 0 0 1.433-1.431M68.2 291.93a1.013 1.013 0 1 0 1.432 1.434 1.013 1.013 0 0 0-1.432-1.433M56.092 34.642a1.013 1.013 0 1 0-1.433 1.431 1.013 1.013 0 0 0 1.433-1.431M56.092 48.183a1.013 1.013 0 1 0-1.433 1.431 1.013 1.013 0 0 0 1.433-1.431M56.092 61.725a1.013 1.013 0 1 0-1.433 1.431 1.013 1.013 0 0 0 1.433-1.431M56.092 75.266a1.013 1.013 0 1 0-1.433 1.431 1.013 1.013 0 0 0 1.433-1.431M56.092 88.808a1.013 1.013 0 1 0-1.433 1.431 1.013 1.013 0 0 0 1.433-1.431M56.092 102.349a1.013 1.013 0 1 0-1.433 1.431 1.013 1.013 0 0 0 1.433-1.431M56.092 115.89a1.013 1.013 0 1 0-1.433 1.432 1.013 1.013 0 0 0 1.433-1.431M56.092 129.432a1.013 1.013 0 1 0-1.433 1.431 1.013 1.013 0 0 0 1.433-1.431M56.092 142.974a1.013 1.013 0 1 0-1.433 1.431 1.013 1.013 0 0 0 1.433-1.431M56.092 156.516a1.013 1.013 0 1 0-1.433 1.431 1.013 1.013 0 0 0 1.433-1.431M56.092 170.057a1.013 1.013 0 1 0-1.433 1.431 1.013 1.013 0 0 0 1.433-1.431M56.092 183.599a1.013 1.013 0 1 0-1.433 1.431 1.013 1.013 0 0 0 1.433-1.431M56.092 197.14a1.013 1.013 0 1 0-1.433 1.431 1.013 1.013 0 0 0 1.433-1.431M56.092 210.682a1.013 1.013 0 1 0-1.433 1.431 1.013 1.013 0 0 0 1.433-1.431M56.092 224.223a1.013 1.013 0 1 0-1.433 1.431 1.013 1.013 0 0 0 1.433-1.431M56.092 237.765a1.013 1.013 0 1 0-1.433 1.431 1.013 1.013 0 0 0 1.433-1.431M56.092 251.306a1.013 1.013 0 1 0-1.433 1.431 1.013 1.013 0 0 0 1.433-1.431M56.092 264.848a1.013 1.013 0 1 0-1.433 1.431 1.013 1.013 0 0 0 1.433-1.431M54.659 278.389a1.013 1.013 0 1 0 1.431 1.433 1.013 1.013 0 0 0-1.431-1.433M42.55 48.183a1.013 1.013 0 1 0-1.433 1.431 1.013 1.013 0 0 0 1.433-1.431M42.55 61.725a1.013 1.013 0 1 0-1.433 1.431 1.013 1.013 0 0 0 1.433-1.431M42.55 75.266a1.013 1.013 0 1 0-1.433 1.431 1.013 1.013 0 0 0 1.433-1.431M42.55 88.808a1.013 1.013 0 1 0-1.433 1.431 1.013 1.013 0 0 0 1.433-1.431M42.55 102.349a1.013 1.013 0 1 0-1.433 1.431 1.013 1.013 0 0 0 1.433-1.431M42.55 115.89a1.013 1.013 0 1 0-1.433 1.432 1.013 1.013 0 0 0 1.433-1.431M42.55 129.432a1.013 1.013 0 1 0-1.433 1.431 1.013 1.013 0 0 0 1.433-1.431M42.55 142.974a1.013 1.013 0 1 0-1.433 1.431 1.013 1.013 0 0 0 1.433-1.431M42.55 156.516a1.013 1.013 0 1 0-1.433 1.431 1.013 1.013 0 0 0 1.433-1.431M42.55 170.057a1.013 1.013 0 1 0-1.433 1.431 1.013 1.013 0 0 0 1.433-1.431M42.55 183.599a1.013 1.013 0 1 0-1.433 1.431 1.013 1.013 0 0 0 1.433-1.431M42.55 197.14a1.013 1.013 0 1 0-1.433 1.431 1.013 1.013 0 0 0 1.433-1.431M42.55 210.682a1.013 1.013 0 1 0-1.433 1.431 1.013 1.013 0 0 0 1.433-1.431M42.55 224.223a1.013 1.013 0 1 0-1.433 1.431 1.013 1.013 0 0 0 1.433-1.431M42.55 237.765a1.013 1.013 0 1 0-1.433 1.431 1.013 1.013 0 0 0 1.433-1.431M41.117 251.306a1.013 1.013 0 1 0 1.431 1.433 1.013 1.013 0 0 0-1.431-1.433M42.55 266.28a1.013 1.013 0 1 0-1.432-1.432 1.013 1.013 0 0 0 1.432 1.433M27.575 61.725a1.013 1.013 0 1 0 1.432 1.433 1.013 1.013 0 0 0-1.432-1.433M29.009 76.698a1.013 1.013 0 1 0-1.432-1.432 1.013 1.013 0 0 0 1.431 1.432M27.575 90.24a1.013 1.013 0 1 0 1.433-1.431 1.013 1.013 0 0 0-1.433 1.431M27.575 103.782a1.013 1.013 0 1 0 1.433-1.431 1.013 1.013 0 0 0-1.433 1.431M27.575 117.323a1.013 1.013 0 1 0 1.433-1.431 1.013 1.013 0 0 0-1.433 1.431M27.575 130.865a1.013 1.013 0 1 0 1.433-1.431 1.013 1.013 0 0 0-1.433 1.431M27.575 144.406a1.013 1.013 0 1 0 1.433-1.431 1.013 1.013 0 0 0-1.433 1.431M27.575 157.948a1.013 1.013 0 1 0 1.433-1.431 1.013 1.013 0 0 0-1.433 1.431M27.575 171.49a1.013 1.013 0 1 0 1.433-1.432 1.013 1.013 0 0 0-1.433 1.431M27.575 185.031a1.013 1.013 0 1 0 1.433-1.431 1.013 1.013 0 0 0-1.433 1.431M27.575 198.572a1.013 1.013 0 1 0 1.433-1.431 1.013 1.013 0 0 0-1.433 1.431M27.575 212.114a1.013 1.013 0 1 0 1.433-1.431 1.013 1.013 0 0 0-1.433 1.431M27.575 225.655a1.013 1.013 0 1 0 1.433-1.431 1.013 1.013 0 0 0-1.433 1.431M27.575 239.197a1.013 1.013 0 1 0 1.433-1.431 1.013 1.013 0 0 0-1.433 1.431M27.575 252.738a1.013 1.013 0 1 0 1.433-1.431 1.013 1.013 0 0 0-1.433 1.431M14.034 76.698a1.013 1.013 0 1 0 1.433-1.432 1.007 1.007 0 0 0-.647-.284c-.318.493-.628.989-.94 1.486.045.08.086.162.154.23M15.467 88.808a1.013 1.013 0 1 0-1.433 1.431 1.013 1.013 0 0 0 1.433-1.431M15.467 102.349a1.013 1.013 0 1 0-1.433 1.431 1.013 1.013 0 0 0 1.433-1.431M15.467 115.89a1.013 1.013 0 1 0-1.433 1.432 1.013 1.013 0 0 0 1.433-1.431M15.467 129.432a1.013 1.013 0 1 0-1.433 1.431 1.013 1.013 0 0 0 1.433-1.431M15.467 142.974a1.013 1.013 0 1 0-1.433 1.431 1.013 1.013 0 0 0 1.433-1.431M15.467 156.516a1.013 1.013 0 1 0-1.433 1.431 1.013 1.013 0 0 0 1.433-1.431M15.467 170.057a1.013 1.013 0 1 0-1.433 1.431 1.013 1.013 0 0 0 1.433-1.431M15.467 183.599a1.013 1.013 0 1 0-1.433 1.431 1.013 1.013 0 0 0 1.433-1.431M15.467 197.14a1.013 1.013 0 1 0-1.433 1.431 1.013 1.013 0 0 0 1.433-1.431M15.467 210.682a1.013 1.013 0 1 0-1.433 1.431 1.013 1.013 0 0 0 1.433-1.431M15.467 224.223a1.013 1.013 0 1 0-1.433 1.431 1.013 1.013 0 0 0 1.433-1.431M14.034 237.765a1.013 1.013 0 1 0 1.431 1.433 1.013 1.013 0 0 0-1.431-1.433M.492 103.782a1.013 1.013 0 1 0 .334-1.654c-.179.451-.354.906-.529 1.36.05.106.11.207.195.294M1.925 115.89a1.013 1.013 0 1 0-1.432 1.432 1.013 1.013 0 0 0 1.433-1.431M1.925 129.432a1.013 1.013 0 1 0-1.432 1.431 1.013 1.013 0 0 0 1.433-1.431M1.925 142.974a1.013 1.013 0 1 0-1.433 1.431 1.013 1.013 0 0 0 1.433-1.431M1.925 156.516a1.013 1.013 0 1 0-1.433 1.431 1.013 1.013 0 0 0 1.433-1.431M1.925 170.057a1.013 1.013 0 1 0-1.432 1.431 1.013 1.013 0 0 0 1.433-1.431M1.925 183.599a1.013 1.013 0 1 0-1.433 1.431 1.013 1.013 0 0 0 1.433-1.431M.492 197.14a1.013 1.013 0 1 0 1.432 1.433 1.013 1.013 0 0 0-1.432-1.433M1.925 212.114a1.013 1.013 0 1 0-1.431-1.433 1.013 1.013 0 0 0 1.431 1.433"/>
        <path fill="#000" d="M9.543 36.129c0 .447.293.766.778.766.498 0 .792-.32.792-.766v-1.48c0-.446-.294-.752-.792-.752-.485 0-.778.306-.778.753v1.479zm2.82.04c0 1.122-.868 1.95-2.042 1.95-1.16 0-2.028-.828-2.028-1.95v-1.557c0-1.123.868-1.94 2.028-1.94 1.174 0 2.042.817 2.042 1.94v1.557zM8.46 29.304H9.76l-3.864 8.675h-1.29l3.853-8.675zm-5.28 3.33c0 .447.293.766.79.766.498 0 .791-.32.791-.766v-1.48c0-.446-.293-.765-.79-.765-.498 0-.79.319-.79.766v1.479zm2.831.026c0 1.136-.867 1.952-2.04 1.952-1.174 0-2.042-.816-2.042-1.952v-1.543c0-1.136.868-1.94 2.041-1.94 1.174 0 2.041.804 2.041 1.94v1.543zM287 9.801h2.705V7h1.809v2.801h2.737v1.696h-2.737v2.802h-1.809v-2.802H287zM30.537 162.18h2.705v-2.8h1.81v2.8h2.736v1.697h-2.737v2.802h-1.809v-2.802h-2.705zM155.448 3.609V.203h1.344v3.406l2.936-1.72.688 1.189-2.968 1.718 2.968 1.655-.688 1.187-2.936-1.686v3.343h-1.344V5.983l-2.906 1.655-.686-1.155 2.905-1.687-2.905-1.687.655-1.188z"/>
        <path stroke="#000" stroke-width="2" d="M57.38 303.392c0-5.523-4.477-10-10-10-5.52 0-10 4.477-10 10 0 5.52 4.48 10 10 10 5.523 0 10-4.48 10-10z"/>
        <path stroke="#000" stroke-width="2" d="M54.931 292.138c3.738-2.861 6.508-4.299 7.254-3.551 1.324 1.324-4.233 9.026-12.408 17.201-8.176 8.176-15.877 13.733-17.2 12.409-.739-.739.655-3.45 3.446-7.12"/>
    </g>
</svg>
