<svg xmlns="http://www.w3.org/2000/svg" xmlns:xlink="http://www.w3.org/1999/xlink" width="300" height="300" viewBox="0 0 300 300">
    <defs>
        <path id="a" d="M2.94.641v2.027H.913V.64H2.94z"/>
        <path id="c" d="M2.15 3H.122V.974H2.15V3z"/>
        <path id="e" d="M2.607 3H.581V.974h2.026V3z"/>
        <path id="g" d="M.04.06h2.027v2.026H.04V.06z"/>
        <path id="i" d="M2.066 3H.04V.974h2.027z"/>
        <path id="k" d="M.499.06h2.026v2.026H.499V.06z"/>
        <path id="m" d="M2.524 3H.498V.974h2.026V3z"/>
        <path id="o" d="M.957.06h2.027v2.026H.957V.06z"/>
        <path id="q" d="M2.984 3H.957V.974h2.027V3z"/>
        <path id="s" d="M.415.06h2.026v2.026H.415V.06z"/>
        <path id="u" d="M2.441 3H.415V.974h2.026z"/>
        <path id="w" d="M.874.06H2.9v2.026H.874V.06z"/>
        <path id="y" d="M2.9 3H.873V.974H2.9V3z"/>
        <path id="A" d="M2.358 3H.332V.974h2.026V3z"/>
        <path id="C" d="M2.817 3H.79V.974h2.027z"/>
        <path id="E" d="M0 2.419V.392h2.027v2.027H0z"/>
        <path id="G" d="M0 2.96V.933h2.027V2.96H0z"/>
        <path id="I" d="M0 2.502V.475h2.027v2.027H0z"/>
        <path id="K" d="M0 2.043V.016h2.027v2.027H0z"/>
        <path id="M" d="M0 2.585V.558h2.027v2.027H0z"/>
        <path id="O" d="M0 2.126V.1h2.027v2.026H0z"/>
        <path id="Q" d="M0 2.21V.183h2.027V2.21H0z"/>
    </defs>
    <g fill="none" fill-rule="evenodd">
        <path fill="#1A1A1A" d="M298.21 110.061a.997.997 0 0 0 .921.257c-.18-.641-.372-1.278-.56-1.916a.997.997 0 0 0-.36.227 1.013 1.013 0 0 0 0 1.432M299.643 122.17a1.013 1.013 0 1 0-1.433 1.432 1.013 1.013 0 0 0 1.433-1.432M299.643 135.712a1.013 1.013 0 1 0-1.433 1.431 1.013 1.013 0 0 0 1.433-1.431M299.643 149.253a1.013 1.013 0 1 0-1.433 1.432 1.013 1.013 0 0 0 1.433-1.432M299.643 162.795a1.013 1.013 0 1 0-1.433 1.431 1.013 1.013 0 0 0 1.433-1.431M299.643 176.337a1.013 1.013 0 1 0-1.433 1.431 1.013 1.013 0 0 0 1.433-1.431"/>
        <g transform="translate(297 188.94)">
            <mask id="b" fill="#fff">
                <use xlink:href="#a"/>
            </mask>
            <path fill="#1A1A1A" d="M1.21.938a1.013 1.013 0 1 0 1.432 1.433A1.013 1.013 0 0 0 1.21.938" mask="url(#b)"/>
        </g>
        <path fill="#1A1A1A" d="M286.102 81.546a1.013 1.013 0 1 0-1.433 1.431 1.013 1.013 0 0 0 1.433-1.431M286.102 95.087a1.013 1.013 0 1 0-1.433 1.432 1.013 1.013 0 0 0 1.433-1.432M286.102 108.629a1.013 1.013 0 1 0-1.433 1.431 1.013 1.013 0 0 0 1.433-1.431M286.102 122.17a1.013 1.013 0 1 0-1.433 1.432 1.013 1.013 0 0 0 1.433-1.432M286.102 135.712a1.013 1.013 0 1 0-1.433 1.431 1.013 1.013 0 0 0 1.433-1.431M286.102 149.253a1.013 1.013 0 1 0-1.433 1.432 1.013 1.013 0 0 0 1.433-1.432M286.102 162.795a1.013 1.013 0 1 0-1.433 1.431 1.013 1.013 0 0 0 1.433-1.431M286.102 176.337a1.013 1.013 0 1 0-1.433 1.431 1.013 1.013 0 0 0 1.433-1.431M286.102 189.878a1.013 1.013 0 1 0-1.433 1.432 1.013 1.013 0 0 0 1.433-1.432M286.102 203.42a1.013 1.013 0 1 0-1.433 1.431 1.013 1.013 0 0 0 1.433-1.431M284.67 216.961a1.013 1.013 0 1 0 1.43 1.433 1.013 1.013 0 0 0-1.43-1.433M284.376 231.2c.151-.265.297-.533.446-.8-.05.036-.108.058-.153.103a1.008 1.008 0 0 0-.293.697M271.127 55.895a.988.988 0 0 0 .562.267c-.279-.356-.56-.712-.842-1.066a.997.997 0 0 0 .28.8M272.56 68.004a1.013 1.013 0 1 0-1.433 1.432 1.013 1.013 0 0 0 1.433-1.432M272.56 81.546a1.013 1.013 0 1 0-1.433 1.431 1.013 1.013 0 0 0 1.433-1.431M272.56 95.087a1.013 1.013 0 1 0-1.433 1.432 1.013 1.013 0 0 0 1.433-1.432M272.56 108.629a1.013 1.013 0 1 0-1.433 1.431 1.013 1.013 0 0 0 1.433-1.431M272.56 122.17a1.013 1.013 0 1 0-1.433 1.432 1.013 1.013 0 0 0 1.433-1.432M272.56 135.712a1.013 1.013 0 1 0-1.433 1.431 1.013 1.013 0 0 0 1.433-1.431M272.56 149.253a1.013 1.013 0 1 0-1.433 1.432 1.013 1.013 0 0 0 1.433-1.432M272.56 162.795a1.013 1.013 0 1 0-1.433 1.431 1.013 1.013 0 0 0 1.433-1.431M272.56 176.337a1.013 1.013 0 1 0-1.433 1.431 1.013 1.013 0 0 0 1.433-1.431M272.56 189.878a1.013 1.013 0 1 0-1.433 1.432 1.013 1.013 0 0 0 1.433-1.432M272.56 203.42a1.013 1.013 0 1 0-1.433 1.431 1.013 1.013 0 0 0 1.433-1.431M272.56 216.961a1.013 1.013 0 1 0-1.433 1.432 1.013 1.013 0 0 0 1.433-1.432M272.56 230.503a1.013 1.013 0 1 0-1.433 1.431 1.013 1.013 0 0 0 1.433-1.431M271.127 244.044a1.013 1.013 0 1 0 1.432 1.433 1.013 1.013 0 0 0-1.432-1.433M257.586 42.354a1.013 1.013 0 0 0 1.65-.327c-.44-.443-.885-.881-1.33-1.319a1.03 1.03 0 0 0-.32.213 1.013 1.013 0 0 0 0 1.433M259.019 54.463a1.013 1.013 0 1 0-1.433 1.431 1.013 1.013 0 0 0 1.433-1.431M259.019 68.004a1.013 1.013 0 1 0-1.433 1.432 1.013 1.013 0 0 0 1.433-1.432M259.019 81.546a1.013 1.013 0 1 0-1.433 1.431 1.013 1.013 0 0 0 1.433-1.431M259.019 95.087a1.013 1.013 0 1 0-1.433 1.432 1.013 1.013 0 0 0 1.433-1.432M259.019 108.629a1.013 1.013 0 1 0-1.433 1.431 1.013 1.013 0 0 0 1.433-1.431M259.019 122.17a1.013 1.013 0 1 0-1.433 1.432 1.013 1.013 0 0 0 1.433-1.432M259.019 135.712a1.013 1.013 0 1 0-1.433 1.431 1.013 1.013 0 0 0 1.433-1.431M259.019 149.253a1.013 1.013 0 1 0-1.433 1.432 1.013 1.013 0 0 0 1.433-1.432M259.019 162.795a1.013 1.013 0 1 0-1.433 1.431 1.013 1.013 0 0 0 1.433-1.431M259.019 176.337a1.013 1.013 0 1 0-1.433 1.431 1.013 1.013 0 0 0 1.433-1.431M259.019 189.878a1.013 1.013 0 1 0-1.433 1.432 1.013 1.013 0 0 0 1.433-1.432M259.019 203.42a1.013 1.013 0 1 0-1.433 1.431 1.013 1.013 0 0 0 1.433-1.431M259.019 216.961a1.013 1.013 0 1 0-1.433 1.432 1.013 1.013 0 0 0 1.433-1.432M259.019 230.503a1.013 1.013 0 1 0-1.433 1.431 1.013 1.013 0 0 0 1.433-1.431M259.019 244.044a1.013 1.013 0 1 0-1.433 1.432 1.013 1.013 0 0 0 1.433-1.432M257.586 257.586a1.013 1.013 0 1 0 1.432 1.433 1.013 1.013 0 0 0-1.432-1.433M244.044 28.813c.194.195.45.29.704.294-.312-.247-.63-.485-.945-.729a.991.991 0 0 0 .241.434M245.477 40.921a1.013 1.013 0 1 0-1.433 1.432 1.013 1.013 0 0 0 1.433-1.432M245.477 54.463a1.013 1.013 0 1 0-1.433 1.431 1.013 1.013 0 0 0 1.433-1.431M245.477 68.004a1.013 1.013 0 1 0-1.433 1.432 1.013 1.013 0 0 0 1.433-1.432M245.477 81.546a1.013 1.013 0 1 0-1.433 1.431 1.013 1.013 0 0 0 1.433-1.431M245.477 95.087a1.013 1.013 0 1 0-1.433 1.432 1.013 1.013 0 0 0 1.433-1.432M245.477 108.629a1.013 1.013 0 1 0-1.433 1.431 1.013 1.013 0 0 0 1.433-1.431M245.477 122.17a1.013 1.013 0 1 0-1.433 1.432 1.013 1.013 0 0 0 1.433-1.432M245.477 135.712a1.013 1.013 0 1 0-1.433 1.431 1.013 1.013 0 0 0 1.433-1.431M245.477 149.253a1.013 1.013 0 1 0-1.433 1.432 1.013 1.013 0 0 0 1.433-1.432M245.477 162.795a1.013 1.013 0 1 0-1.433 1.431 1.013 1.013 0 0 0 1.433-1.431M245.477 176.337a1.013 1.013 0 1 0-1.433 1.431 1.013 1.013 0 0 0 1.433-1.431M245.477 189.878a1.013 1.013 0 1 0-1.433 1.432 1.013 1.013 0 0 0 1.433-1.432M245.477 203.42a1.013 1.013 0 1 0-1.433 1.431 1.013 1.013 0 0 0 1.433-1.431M245.477 216.961a1.013 1.013 0 1 0-1.433 1.432 1.013 1.013 0 0 0 1.433-1.432M245.477 230.503a1.013 1.013 0 1 0-1.433 1.431 1.013 1.013 0 0 0 1.433-1.431M245.477 244.044a1.013 1.013 0 1 0-1.433 1.432 1.013 1.013 0 0 0 1.433-1.432M245.477 257.586a1.013 1.013 0 1 0-1.433 1.432 1.013 1.013 0 0 0 1.433-1.432M244.044 271.127a1.013 1.013 0 1 0 1.432 1.433 1.013 1.013 0 0 0-1.432-1.433M231.936 27.38a1.013 1.013 0 1 0-1.433 1.431 1.013 1.013 0 0 0 1.433-1.431M231.936 40.921a1.013 1.013 0 1 0-1.433 1.432 1.013 1.013 0 0 0 1.433-1.432M231.936 54.463a1.013 1.013 0 1 0-1.433 1.431 1.013 1.013 0 0 0 1.433-1.431M231.936 68.004a1.013 1.013 0 1 0-1.433 1.432 1.013 1.013 0 0 0 1.433-1.432M231.936 81.546a1.013 1.013 0 1 0-1.433 1.431 1.013 1.013 0 0 0 1.433-1.431M231.936 95.087a1.013 1.013 0 1 0-1.433 1.432 1.013 1.013 0 0 0 1.433-1.432M231.936 108.629a1.013 1.013 0 1 0-1.433 1.431 1.013 1.013 0 0 0 1.433-1.431M231.936 122.17a1.013 1.013 0 1 0-1.433 1.432 1.013 1.013 0 0 0 1.433-1.432M231.936 135.712a1.013 1.013 0 1 0-1.433 1.431 1.013 1.013 0 0 0 1.433-1.431M231.936 149.253a1.013 1.013 0 1 0-1.433 1.432 1.013 1.013 0 0 0 1.433-1.432M231.936 162.795a1.013 1.013 0 1 0-1.433 1.431 1.013 1.013 0 0 0 1.433-1.431M231.936 176.337a1.013 1.013 0 1 0-1.433 1.431 1.013 1.013 0 0 0 1.433-1.431M231.936 189.878a1.013 1.013 0 1 0-1.433 1.432 1.013 1.013 0 0 0 1.433-1.432M231.936 203.42a1.013 1.013 0 1 0-1.433 1.431 1.013 1.013 0 0 0 1.433-1.431M231.936 216.961a1.013 1.013 0 1 0-1.433 1.432 1.013 1.013 0 0 0 1.433-1.432M231.936 230.503a1.013 1.013 0 1 0-1.433 1.431 1.013 1.013 0 0 0 1.433-1.431M231.936 244.044a1.013 1.013 0 1 0-1.433 1.432 1.013 1.013 0 0 0 1.433-1.432M231.936 257.586a1.013 1.013 0 1 0-1.433 1.432 1.013 1.013 0 0 0 1.433-1.432M231.936 271.127a1.013 1.013 0 1 0-1.433 1.432 1.013 1.013 0 0 0 1.433-1.432M230.503 284.669a1.013 1.013 0 1 0 1.432 1.433 1.013 1.013 0 0 0-1.432-1.433M218.394 13.838a1.013 1.013 0 1 0-1.433 1.432 1.013 1.013 0 0 0 1.433-1.432M218.394 27.38a1.013 1.013 0 1 0-1.433 1.431 1.013 1.013 0 0 0 1.433-1.431M218.394 40.921a1.013 1.013 0 1 0-1.433 1.432 1.013 1.013 0 0 0 1.433-1.432M218.394 54.463a1.013 1.013 0 1 0-1.433 1.431 1.013 1.013 0 0 0 1.433-1.431M218.394 68.004a1.013 1.013 0 1 0-1.433 1.432 1.013 1.013 0 0 0 1.433-1.432M218.394 81.546a1.013 1.013 0 1 0-1.433 1.431 1.013 1.013 0 0 0 1.433-1.431M218.394 95.087a1.013 1.013 0 1 0-1.433 1.432 1.013 1.013 0 0 0 1.433-1.432M218.394 108.629a1.013 1.013 0 1 0-1.433 1.431 1.013 1.013 0 0 0 1.433-1.431M218.394 122.17a1.013 1.013 0 1 0-1.433 1.432 1.013 1.013 0 0 0 1.433-1.432M218.394 135.712a1.013 1.013 0 1 0-1.433 1.431 1.013 1.013 0 0 0 1.433-1.431M218.394 149.253a1.013 1.013 0 1 0-1.433 1.432 1.013 1.013 0 0 0 1.433-1.432M218.394 162.795a1.013 1.013 0 1 0-1.433 1.431 1.013 1.013 0 0 0 1.433-1.431M218.394 176.337a1.013 1.013 0 1 0-1.433 1.431 1.013 1.013 0 0 0 1.433-1.431M218.394 189.878a1.013 1.013 0 1 0-1.433 1.432 1.013 1.013 0 0 0 1.433-1.432M218.394 203.42a1.013 1.013 0 1 0-1.433 1.431 1.013 1.013 0 0 0 1.433-1.431M218.394 216.961a1.013 1.013 0 1 0-1.433 1.432 1.013 1.013 0 0 0 1.433-1.432M218.394 230.503a1.013 1.013 0 1 0-1.433 1.431 1.013 1.013 0 0 0 1.433-1.431M218.394 244.044a1.013 1.013 0 1 0-1.433 1.432 1.013 1.013 0 0 0 1.433-1.432M218.394 257.586a1.013 1.013 0 1 0-1.433 1.432 1.013 1.013 0 0 0 1.433-1.432M218.394 271.127a1.013 1.013 0 1 0-1.433 1.432 1.013 1.013 0 0 0 1.433-1.432M216.961 284.669a1.013 1.013 0 1 0 1.432 1.433 1.013 1.013 0 0 0-1.432-1.433M204.853 13.838a1.013 1.013 0 1 0-1.433 1.432 1.013 1.013 0 0 0 1.433-1.432M204.853 27.38a1.013 1.013 0 1 0-1.433 1.431 1.013 1.013 0 0 0 1.433-1.431M204.853 40.921a1.013 1.013 0 1 0-1.433 1.432 1.013 1.013 0 0 0 1.433-1.432M204.853 54.463a1.013 1.013 0 1 0-1.433 1.431 1.013 1.013 0 0 0 1.433-1.431M204.853 68.004a1.013 1.013 0 1 0-1.433 1.432 1.013 1.013 0 0 0 1.433-1.432M204.853 81.546a1.013 1.013 0 1 0-1.433 1.431 1.013 1.013 0 0 0 1.433-1.431M204.853 95.087a1.013 1.013 0 1 0-1.433 1.432 1.013 1.013 0 0 0 1.433-1.432M204.853 108.629a1.013 1.013 0 1 0-1.433 1.431 1.013 1.013 0 0 0 1.433-1.431M204.853 122.17a1.013 1.013 0 1 0-1.433 1.432 1.013 1.013 0 0 0 1.433-1.432M204.853 135.712a1.013 1.013 0 1 0-1.433 1.431 1.013 1.013 0 0 0 1.433-1.431M204.853 149.253a1.013 1.013 0 1 0-1.433 1.432 1.013 1.013 0 0 0 1.433-1.432M204.853 162.795a1.013 1.013 0 1 0-1.433 1.431 1.013 1.013 0 0 0 1.433-1.431M204.853 176.337a1.013 1.013 0 1 0-1.433 1.431 1.013 1.013 0 0 0 1.433-1.431M204.853 189.878a1.013 1.013 0 1 0-1.433 1.432 1.013 1.013 0 0 0 1.433-1.432M204.853 203.42a1.013 1.013 0 1 0-1.433 1.431 1.013 1.013 0 0 0 1.433-1.431M204.853 216.961a1.013 1.013 0 1 0-1.433 1.432 1.013 1.013 0 0 0 1.433-1.432M204.853 230.503a1.013 1.013 0 1 0-1.433 1.431 1.013 1.013 0 0 0 1.433-1.431M204.853 244.044a1.013 1.013 0 1 0-1.433 1.432 1.013 1.013 0 0 0 1.433-1.432M204.853 257.586a1.013 1.013 0 1 0-1.433 1.432 1.013 1.013 0 0 0 1.433-1.432M204.853 271.127a1.013 1.013 0 1 0-1.433 1.432 1.013 1.013 0 0 0 1.433-1.432M204.853 284.669a1.013 1.013 0 1 0-1.433 1.432 1.013 1.013 0 0 0 1.433-1.432"/>
        <g transform="translate(203 296.94)">
            <mask id="d" fill="#fff">
                <use xlink:href="#c"/>
            </mask>
            <path fill="#1A1A1A" d="M.42 1.27a1.013 1.013 0 1 0 1.432 1.433A1.013 1.013 0 0 0 .42 1.272" mask="url(#d)"/>
        </g>
        <path fill="#1A1A1A" d="M189.878 1.73a1.013 1.013 0 0 0 1.433 0c.025-.026.034-.058.055-.084-.585-.17-1.17-.337-1.759-.502a.989.989 0 0 0 .271.585M191.31 13.838a1.013 1.013 0 1 0-1.432 1.432 1.013 1.013 0 0 0 1.433-1.432M191.31 27.38a1.013 1.013 0 1 0-1.432 1.431 1.013 1.013 0 0 0 1.433-1.431M191.31 40.921a1.013 1.013 0 1 0-1.432 1.432 1.013 1.013 0 0 0 1.433-1.432M191.31 54.463a1.013 1.013 0 1 0-1.432 1.431 1.013 1.013 0 0 0 1.433-1.431M191.31 68.004a1.013 1.013 0 1 0-1.432 1.432 1.013 1.013 0 0 0 1.433-1.432M191.31 81.546a1.013 1.013 0 1 0-1.432 1.431 1.013 1.013 0 0 0 1.433-1.431M191.31 95.087a1.013 1.013 0 1 0-1.432 1.432 1.013 1.013 0 0 0 1.433-1.432M191.31 108.629a1.013 1.013 0 1 0-1.432 1.431 1.013 1.013 0 0 0 1.433-1.431M191.31 122.17a1.013 1.013 0 1 0-1.432 1.432 1.013 1.013 0 0 0 1.433-1.432M191.31 135.712a1.013 1.013 0 1 0-1.432 1.431 1.013 1.013 0 0 0 1.433-1.431M191.31 149.253a1.013 1.013 0 1 0-1.432 1.432 1.013 1.013 0 0 0 1.433-1.432M191.31 162.795a1.013 1.013 0 1 0-1.432 1.431 1.013 1.013 0 0 0 1.433-1.431M191.31 176.337a1.013 1.013 0 1 0-1.432 1.431 1.013 1.013 0 0 0 1.433-1.431M191.31 189.878a1.013 1.013 0 1 0-1.432 1.432 1.013 1.013 0 0 0 1.433-1.432M191.31 203.42a1.013 1.013 0 1 0-1.432 1.431 1.013 1.013 0 0 0 1.433-1.431M191.31 216.961a1.013 1.013 0 1 0-1.432 1.432 1.013 1.013 0 0 0 1.433-1.432M191.31 230.503a1.013 1.013 0 1 0-1.432 1.431 1.013 1.013 0 0 0 1.433-1.431M191.31 244.044a1.013 1.013 0 1 0-1.432 1.432 1.013 1.013 0 0 0 1.433-1.432M191.31 257.586a1.013 1.013 0 1 0-1.432 1.432 1.013 1.013 0 0 0 1.433-1.432M191.31 271.127a1.013 1.013 0 1 0-1.432 1.432 1.013 1.013 0 0 0 1.433-1.432M191.31 284.669a1.013 1.013 0 1 0-1.432 1.432 1.013 1.013 0 0 0 1.433-1.432"/>
        <g transform="translate(189 296.94)">
            <mask id="f" fill="#fff">
                <use xlink:href="#e"/>
            </mask>
            <path fill="#1A1A1A" d="M.878 1.27A1.013 1.013 0 1 0 2.31 2.704 1.013 1.013 0 0 0 .878 1.272" mask="url(#f)"/>
        </g>
        <g transform="translate(176 -.06)">
            <mask id="h" fill="#fff">
                <use xlink:href="#g"/>
            </mask>
            <path fill="#1A1A1A" d="M1.77.357A1.014 1.014 0 1 0 .336 1.79 1.014 1.014 0 0 0 1.77.357" mask="url(#h)"/>
        </g>
        <path fill="#1A1A1A" d="M177.77 13.838a1.014 1.014 0 1 0-1.434 1.434 1.014 1.014 0 0 0 1.434-1.434M177.77 27.38a1.014 1.014 0 1 0-1.434 1.434 1.014 1.014 0 0 0 1.434-1.434M177.77 40.921a1.014 1.014 0 1 0-1.434 1.434 1.014 1.014 0 0 0 1.434-1.434M177.77 54.463a1.014 1.014 0 1 0-1.434 1.434 1.014 1.014 0 0 0 1.434-1.434M177.77 68.004a1.014 1.014 0 1 0-1.434 1.434 1.014 1.014 0 0 0 1.434-1.434M177.77 81.546a1.014 1.014 0 1 0-1.434 1.434 1.014 1.014 0 0 0 1.434-1.434M177.77 95.087a1.014 1.014 0 1 0-1.434 1.434 1.014 1.014 0 0 0 1.434-1.434M177.77 108.629a1.014 1.014 0 1 0-1.434 1.434 1.014 1.014 0 0 0 1.434-1.434M177.77 122.17a1.014 1.014 0 1 0-1.434 1.434 1.014 1.014 0 0 0 1.434-1.434M177.77 135.712a1.014 1.014 0 1 0-1.434 1.434 1.014 1.014 0 0 0 1.434-1.434M177.77 149.253a1.014 1.014 0 1 0-1.434 1.434 1.014 1.014 0 0 0 1.434-1.434M177.77 162.795a1.014 1.014 0 1 0-1.434 1.434 1.014 1.014 0 0 0 1.434-1.434M177.77 176.337a1.014 1.014 0 1 0-1.434 1.434 1.014 1.014 0 0 0 1.434-1.434M177.77 189.878a1.014 1.014 0 1 0-1.434 1.434 1.014 1.014 0 0 0 1.434-1.434M177.77 203.42a1.014 1.014 0 1 0-1.434 1.434 1.014 1.014 0 0 0 1.434-1.434M177.77 216.961a1.014 1.014 0 1 0-1.434 1.434 1.014 1.014 0 0 0 1.434-1.434M177.77 230.503a1.014 1.014 0 1 0-1.434 1.434 1.014 1.014 0 0 0 1.434-1.434M177.77 244.044a1.014 1.014 0 1 0-1.434 1.434 1.014 1.014 0 0 0 1.434-1.434M177.77 257.586a1.014 1.014 0 1 0-1.434 1.434 1.014 1.014 0 0 0 1.434-1.434M177.77 271.127a1.014 1.014 0 1 0-1.434 1.434 1.014 1.014 0 0 0 1.434-1.433M177.77 284.669a1.014 1.014 0 1 0-1.434 1.434 1.014 1.014 0 0 0 1.434-1.434"/>
        <g transform="translate(176 296.94)">
            <mask id="j" fill="#fff">
                <use xlink:href="#i"/>
            </mask>
            <path fill="#1A1A1A" d="M.336 1.27a1.013 1.013 0 1 0 1.432 1.433A1.013 1.013 0 0 0 .336 1.272" mask="url(#j)"/>
        </g>
        <g transform="translate(162 -.06)">
            <mask id="l" fill="#fff">
                <use xlink:href="#k"/>
            </mask>
            <path fill="#1A1A1A" d="M2.228.357A1.013 1.013 0 1 0 .795 1.788 1.013 1.013 0 0 0 2.228.357" mask="url(#l)"/>
        </g>
        <path fill="#1A1A1A" d="M164.228 13.838a1.013 1.013 0 1 0-1.433 1.432 1.013 1.013 0 0 0 1.433-1.432M164.228 27.38a1.013 1.013 0 1 0-1.433 1.431 1.013 1.013 0 0 0 1.433-1.431M164.228 40.921a1.013 1.013 0 1 0-1.433 1.432 1.013 1.013 0 0 0 1.433-1.432M164.228 54.463a1.013 1.013 0 1 0-1.433 1.431 1.013 1.013 0 0 0 1.433-1.431M164.228 68.004a1.013 1.013 0 1 0-1.433 1.432 1.013 1.013 0 0 0 1.433-1.432M164.228 81.546a1.013 1.013 0 1 0-1.433 1.431 1.013 1.013 0 0 0 1.433-1.431M164.228 95.087a1.013 1.013 0 1 0-1.433 1.432 1.013 1.013 0 0 0 1.433-1.432M164.228 108.629a1.013 1.013 0 1 0-1.433 1.431 1.013 1.013 0 0 0 1.433-1.431M164.228 122.17a1.013 1.013 0 1 0-1.433 1.432 1.013 1.013 0 0 0 1.433-1.432M164.228 135.712a1.013 1.013 0 1 0-1.433 1.431 1.013 1.013 0 0 0 1.433-1.431M164.228 149.253a1.013 1.013 0 1 0-1.433 1.432 1.013 1.013 0 0 0 1.433-1.432M164.228 162.795a1.013 1.013 0 1 0-1.433 1.431 1.013 1.013 0 0 0 1.433-1.431M164.228 176.337a1.013 1.013 0 1 0-1.433 1.431 1.013 1.013 0 0 0 1.433-1.431M164.228 189.878a1.013 1.013 0 1 0-1.433 1.432 1.013 1.013 0 0 0 1.433-1.432M164.228 203.42a1.013 1.013 0 1 0-1.433 1.431 1.013 1.013 0 0 0 1.433-1.431M164.228 216.961a1.013 1.013 0 1 0-1.433 1.432 1.013 1.013 0 0 0 1.433-1.432M164.228 230.503a1.013 1.013 0 1 0-1.433 1.431 1.013 1.013 0 0 0 1.433-1.431M164.228 244.044a1.013 1.013 0 1 0-1.433 1.432 1.013 1.013 0 0 0 1.433-1.432M164.228 257.586a1.013 1.013 0 1 0-1.433 1.432 1.013 1.013 0 0 0 1.433-1.432M164.228 271.127a1.013 1.013 0 1 0-1.433 1.432 1.013 1.013 0 0 0 1.433-1.432M164.228 284.669a1.013 1.013 0 1 0-1.433 1.432 1.013 1.013 0 0 0 1.433-1.432"/>
        <g transform="translate(162 296.94)">
            <mask id="n" fill="#fff">
                <use xlink:href="#m"/>
            </mask>
            <path fill="#1A1A1A" d="M.795 1.27a1.013 1.013 0 1 0 1.432 1.433A1.013 1.013 0 0 0 .795 1.272" mask="url(#n)"/>
        </g>
        <g transform="translate(148 -.06)">
            <mask id="p" fill="#fff">
                <use xlink:href="#o"/>
            </mask>
            <path fill="#1A1A1A" d="M2.687.357A1.014 1.014 0 1 0 1.253 1.79 1.014 1.014 0 0 0 2.687.357" mask="url(#p)"/>
        </g>
        <path fill="#1A1A1A" d="M150.687 13.838a1.014 1.014 0 1 0-1.434 1.434 1.014 1.014 0 0 0 1.434-1.434M150.687 27.38a1.014 1.014 0 1 0-1.434 1.434 1.014 1.014 0 0 0 1.434-1.434M150.687 40.921a1.014 1.014 0 1 0-1.434 1.434 1.014 1.014 0 0 0 1.434-1.434M150.687 54.463a1.014 1.014 0 1 0-1.434 1.434 1.014 1.014 0 0 0 1.434-1.434M150.687 68.004a1.014 1.014 0 1 0-1.434 1.434 1.014 1.014 0 0 0 1.434-1.434M150.687 81.546a1.014 1.014 0 1 0-1.434 1.434 1.014 1.014 0 0 0 1.434-1.434M150.687 95.087a1.014 1.014 0 1 0-1.434 1.434 1.014 1.014 0 0 0 1.434-1.434M150.687 108.629a1.014 1.014 0 1 0-1.434 1.434 1.014 1.014 0 0 0 1.434-1.434M150.687 122.17a1.014 1.014 0 1 0-1.434 1.434 1.014 1.014 0 0 0 1.434-1.434M150.687 135.712a1.014 1.014 0 1 0-1.434 1.434 1.014 1.014 0 0 0 1.434-1.434M150.687 149.253a1.014 1.014 0 1 0-1.434 1.434 1.014 1.014 0 0 0 1.434-1.434M150.687 162.795a1.014 1.014 0 1 0-1.434 1.434 1.014 1.014 0 0 0 1.434-1.434M150.687 176.337a1.014 1.014 0 1 0-1.434 1.434 1.014 1.014 0 0 0 1.434-1.434M150.687 189.878a1.014 1.014 0 1 0-1.434 1.434 1.014 1.014 0 0 0 1.434-1.434M150.687 203.42a1.014 1.014 0 1 0-1.434 1.434 1.014 1.014 0 0 0 1.434-1.434M150.687 216.961a1.014 1.014 0 1 0-1.434 1.434 1.014 1.014 0 0 0 1.434-1.434M150.687 230.503a1.014 1.014 0 1 0-1.434 1.434 1.014 1.014 0 0 0 1.434-1.434M150.687 244.044a1.014 1.014 0 1 0-1.434 1.434 1.014 1.014 0 0 0 1.434-1.434M150.687 257.586a1.014 1.014 0 1 0-1.434 1.434 1.014 1.014 0 0 0 1.434-1.434M150.687 271.127a1.014 1.014 0 1 0-1.434 1.434 1.014 1.014 0 0 0 1.434-1.433M149.253 284.669a1.013 1.013 0 1 0 1.432 1.433 1.013 1.013 0 0 0-1.432-1.433"/>
        <g transform="translate(148 296.94)">
            <mask id="r" fill="#fff">
                <use xlink:href="#q"/>
            </mask>
            <path fill="#1A1A1A" d="M2.687 2.703A1.013 1.013 0 1 0 1.255 1.27a1.013 1.013 0 0 0 1.432 1.433" mask="url(#r)"/>
        </g>
        <g transform="translate(135 -.06)">
            <mask id="t" fill="#fff">
                <use xlink:href="#s"/>
            </mask>
            <path fill="#1A1A1A" d="M.712.357A1.013 1.013 0 1 0 2.144 1.79 1.013 1.013 0 0 0 .712.357" mask="url(#t)"/>
        </g>
        <path fill="#1A1A1A" d="M137.145 15.271a1.013 1.013 0 1 0-1.432-1.433 1.013 1.013 0 0 0 1.432 1.433M135.712 28.813a1.013 1.013 0 1 0 1.433-1.432 1.013 1.013 0 0 0-1.433 1.431M135.712 42.354a1.013 1.013 0 1 0 1.433-1.432 1.013 1.013 0 0 0-1.433 1.432M135.712 55.895a1.013 1.013 0 1 0 1.433-1.431 1.013 1.013 0 0 0-1.433 1.431M135.712 69.437a1.013 1.013 0 1 0 1.433-1.432 1.013 1.013 0 0 0-1.433 1.432M135.712 82.978a1.013 1.013 0 1 0 1.433-1.431 1.013 1.013 0 0 0-1.433 1.431M135.712 96.52a1.013 1.013 0 1 0 1.433-1.432 1.013 1.013 0 0 0-1.433 1.432M135.712 110.061a1.013 1.013 0 1 0 1.433-1.431 1.013 1.013 0 0 0-1.433 1.431M135.712 123.603a1.013 1.013 0 1 0 1.433-1.431 1.013 1.013 0 0 0-1.433 1.431M135.712 137.145a1.013 1.013 0 1 0 1.433-1.432 1.013 1.013 0 0 0-1.433 1.432M135.712 150.686a1.013 1.013 0 1 0 1.433-1.431 1.013 1.013 0 0 0-1.433 1.431M135.712 164.228a1.013 1.013 0 1 0 1.433-1.432 1.013 1.013 0 0 0-1.433 1.432M135.712 177.77a1.013 1.013 0 1 0 1.433-1.432 1.013 1.013 0 0 0-1.433 1.431M135.712 191.311a1.013 1.013 0 1 0 1.433-1.432 1.013 1.013 0 0 0-1.433 1.432M135.712 204.853a1.013 1.013 0 1 0 1.433-1.432 1.013 1.013 0 0 0-1.433 1.432M135.712 218.394a1.013 1.013 0 1 0 1.433-1.431 1.013 1.013 0 0 0-1.433 1.431M135.712 231.936a1.013 1.013 0 1 0 1.433-1.432 1.013 1.013 0 0 0-1.433 1.432M135.712 245.477a1.013 1.013 0 1 0 1.433-1.431 1.013 1.013 0 0 0-1.433 1.431M135.712 259.019a1.013 1.013 0 1 0 1.433-1.432 1.013 1.013 0 0 0-1.433 1.432M135.712 272.56a1.013 1.013 0 1 0 1.433-1.431 1.013 1.013 0 0 0-1.433 1.431M135.712 286.102a1.013 1.013 0 1 0 1.433-1.432 1.013 1.013 0 0 0-1.433 1.432"/>
        <g transform="translate(135 296.94)">
            <mask id="v" fill="#fff">
                <use xlink:href="#u"/>
            </mask>
            <path fill="#1A1A1A" d="M.712 2.703a1.013 1.013 0 1 0 1.433-1.431A1.013 1.013 0 0 0 .712 2.703" mask="url(#v)"/>
        </g>
        <g transform="translate(121 -.06)">
            <mask id="x" fill="#fff">
                <use xlink:href="#w"/>
            </mask>
            <path fill="#1A1A1A" d="M2.603 1.79A1.013 1.013 0 1 0 1.17.357 1.013 1.013 0 0 0 2.603 1.79" mask="url(#x)"/>
        </g>
        <path fill="#1A1A1A" d="M122.17 15.271a1.013 1.013 0 1 0 1.433-1.432 1.013 1.013 0 0 0-1.433 1.432M122.17 28.813a1.013 1.013 0 1 0 1.433-1.432 1.013 1.013 0 0 0-1.433 1.431M122.17 42.354a1.013 1.013 0 1 0 1.433-1.432 1.013 1.013 0 0 0-1.433 1.432M122.17 55.895a1.013 1.013 0 1 0 1.433-1.431 1.013 1.013 0 0 0-1.433 1.431M122.17 69.437a1.013 1.013 0 1 0 1.433-1.432 1.013 1.013 0 0 0-1.433 1.432M122.17 82.978a1.013 1.013 0 1 0 1.433-1.431 1.013 1.013 0 0 0-1.433 1.431M122.17 96.52a1.013 1.013 0 1 0 1.433-1.432 1.013 1.013 0 0 0-1.433 1.432M122.17 110.061a1.013 1.013 0 1 0 1.433-1.431 1.013 1.013 0 0 0-1.433 1.431M122.17 123.603a1.013 1.013 0 1 0 1.433-1.431 1.013 1.013 0 0 0-1.433 1.431M122.17 137.145a1.013 1.013 0 1 0 1.433-1.432 1.013 1.013 0 0 0-1.433 1.432M122.17 150.686a1.013 1.013 0 1 0 1.433-1.431 1.013 1.013 0 0 0-1.433 1.431M122.17 164.228a1.013 1.013 0 1 0 1.433-1.432 1.013 1.013 0 0 0-1.433 1.432M122.17 177.77a1.013 1.013 0 1 0 1.433-1.432 1.013 1.013 0 0 0-1.433 1.431M122.17 191.311a1.013 1.013 0 1 0 1.433-1.432 1.013 1.013 0 0 0-1.433 1.432M122.17 204.853a1.013 1.013 0 1 0 1.433-1.432 1.013 1.013 0 0 0-1.433 1.432M122.17 218.394a1.013 1.013 0 1 0 1.433-1.431 1.013 1.013 0 0 0-1.433 1.431M122.17 231.936a1.013 1.013 0 1 0 1.433-1.432 1.013 1.013 0 0 0-1.433 1.432M122.17 245.477a1.013 1.013 0 1 0 1.433-1.431 1.013 1.013 0 0 0-1.433 1.431M122.17 259.019a1.013 1.013 0 1 0 1.433-1.432 1.013 1.013 0 0 0-1.433 1.432M122.17 272.56a1.013 1.013 0 1 0 1.433-1.431 1.013 1.013 0 0 0-1.433 1.431M122.17 286.102a1.013 1.013 0 1 0 1.433-1.432 1.013 1.013 0 0 0-1.433 1.432"/>
        <g transform="translate(121 296.94)">
            <mask id="z" fill="#fff">
                <use xlink:href="#y"/>
            </mask>
            <path fill="#1A1A1A" d="M1.17 2.703a1.013 1.013 0 1 0 1.433-1.431A1.013 1.013 0 0 0 1.17 2.703" mask="url(#z)"/>
        </g>
        <path fill="#1A1A1A" d="M108.63.297a1.013 1.013 0 1 0 1.432 0 .998.998 0 0 0-.962-.25l-.152.038a.994.994 0 0 0-.319.212M110.062 13.838a1.013 1.013 0 1 0-1.433 1.432 1.013 1.013 0 0 0 1.433-1.432M110.062 27.38a1.013 1.013 0 1 0-1.433 1.431 1.013 1.013 0 0 0 1.433-1.431M110.062 40.921a1.013 1.013 0 1 0-1.433 1.432 1.013 1.013 0 0 0 1.433-1.432M110.062 54.463a1.013 1.013 0 1 0-1.433 1.431 1.013 1.013 0 0 0 1.433-1.431M110.062 68.004a1.013 1.013 0 1 0-1.433 1.432 1.013 1.013 0 0 0 1.433-1.432M110.062 81.546a1.013 1.013 0 1 0-1.433 1.431 1.013 1.013 0 0 0 1.433-1.431M110.062 95.087a1.013 1.013 0 1 0-1.433 1.432 1.013 1.013 0 0 0 1.433-1.432M110.062 108.629a1.013 1.013 0 1 0-1.433 1.431 1.013 1.013 0 0 0 1.433-1.431M110.062 122.17a1.013 1.013 0 1 0-1.433 1.432 1.013 1.013 0 0 0 1.433-1.432M110.062 135.712a1.013 1.013 0 1 0-1.433 1.431 1.013 1.013 0 0 0 1.433-1.431M110.062 149.253a1.013 1.013 0 1 0-1.433 1.432 1.013 1.013 0 0 0 1.433-1.432M110.062 162.795a1.013 1.013 0 1 0-1.433 1.431 1.013 1.013 0 0 0 1.433-1.431M110.062 176.337a1.013 1.013 0 1 0-1.433 1.431 1.013 1.013 0 0 0 1.433-1.431M110.062 189.878a1.013 1.013 0 1 0-1.433 1.432 1.013 1.013 0 0 0 1.433-1.432M110.062 203.42a1.013 1.013 0 1 0-1.433 1.431 1.013 1.013 0 0 0 1.433-1.431M110.062 216.961a1.013 1.013 0 1 0-1.433 1.432 1.013 1.013 0 0 0 1.433-1.432M110.062 230.503a1.013 1.013 0 1 0-1.433 1.431 1.013 1.013 0 0 0 1.433-1.431M110.062 244.044a1.013 1.013 0 1 0-1.433 1.432 1.013 1.013 0 0 0 1.433-1.432M110.062 257.586a1.013 1.013 0 1 0-1.433 1.432 1.013 1.013 0 0 0 1.433-1.432M110.062 271.127a1.013 1.013 0 1 0-1.433 1.432 1.013 1.013 0 0 0 1.433-1.432M110.062 284.669a1.013 1.013 0 1 0-1.433 1.432 1.013 1.013 0 0 0 1.433-1.432"/>
        <g transform="translate(108 296.94)">
            <mask id="B" fill="#fff">
                <use xlink:href="#A"/>
            </mask>
            <path fill="#1A1A1A" d="M.63 1.27a1.013 1.013 0 1 0 1.43 1.433A1.013 1.013 0 0 0 .63 1.272" mask="url(#B)"/>
        </g>
        <path fill="#1A1A1A" d="M96.52 13.838a1.013 1.013 0 1 0-1.433 1.432 1.013 1.013 0 0 0 1.433-1.432M96.52 27.38a1.013 1.013 0 1 0-1.433 1.431 1.013 1.013 0 0 0 1.433-1.431M96.52 40.921a1.013 1.013 0 1 0-1.433 1.432 1.013 1.013 0 0 0 1.433-1.432M96.52 54.463a1.013 1.013 0 1 0-1.433 1.431 1.013 1.013 0 0 0 1.433-1.431M96.52 68.004a1.013 1.013 0 1 0-1.433 1.432 1.013 1.013 0 0 0 1.433-1.432M96.52 81.546a1.013 1.013 0 1 0-1.433 1.431 1.013 1.013 0 0 0 1.433-1.431M96.52 95.087a1.013 1.013 0 1 0-1.433 1.432 1.013 1.013 0 0 0 1.433-1.432M96.52 108.629a1.013 1.013 0 1 0-1.433 1.431 1.013 1.013 0 0 0 1.433-1.431M96.52 122.17a1.013 1.013 0 1 0-1.433 1.432 1.013 1.013 0 0 0 1.433-1.432M96.52 135.712a1.013 1.013 0 1 0-1.433 1.431 1.013 1.013 0 0 0 1.433-1.431M96.52 149.253a1.013 1.013 0 1 0-1.433 1.432 1.013 1.013 0 0 0 1.433-1.432M96.52 162.795a1.013 1.013 0 1 0-1.433 1.431 1.013 1.013 0 0 0 1.433-1.431M96.52 176.337a1.013 1.013 0 1 0-1.433 1.431 1.013 1.013 0 0 0 1.433-1.431M96.52 189.878a1.013 1.013 0 1 0-1.433 1.432 1.013 1.013 0 0 0 1.433-1.432M96.52 203.42a1.013 1.013 0 1 0-1.433 1.431 1.013 1.013 0 0 0 1.433-1.431M96.52 216.961a1.013 1.013 0 1 0-1.433 1.432 1.013 1.013 0 0 0 1.433-1.432M96.52 230.503a1.013 1.013 0 1 0-1.433 1.431 1.013 1.013 0 0 0 1.433-1.431M96.52 244.044a1.013 1.013 0 1 0-1.433 1.432 1.013 1.013 0 0 0 1.433-1.432M96.52 257.586a1.013 1.013 0 1 0-1.433 1.432 1.013 1.013 0 0 0 1.433-1.432M96.52 271.127a1.013 1.013 0 1 0-1.433 1.432 1.013 1.013 0 0 0 1.433-1.432M96.52 284.669a1.013 1.013 0 1 0-1.433 1.432 1.013 1.013 0 0 0 1.433-1.432"/>
        <g transform="translate(94 296.94)">
            <mask id="D" fill="#fff">
                <use xlink:href="#C"/>
            </mask>
            <path fill="#1A1A1A" d="M1.087 1.27A1.013 1.013 0 1 0 2.52 2.704a1.013 1.013 0 0 0-1.432-1.432" mask="url(#D)"/>
        </g>
        <path fill="#1A1A1A" d="M82.979 13.838a1.013 1.013 0 1 0-1.433 1.432 1.013 1.013 0 0 0 1.433-1.432M82.979 27.38a1.013 1.013 0 1 0-1.433 1.431 1.013 1.013 0 0 0 1.433-1.431M82.979 40.921a1.013 1.013 0 1 0-1.433 1.432 1.013 1.013 0 0 0 1.433-1.432M82.979 54.463a1.013 1.013 0 1 0-1.433 1.431 1.013 1.013 0 0 0 1.433-1.431M82.979 68.004a1.013 1.013 0 1 0-1.433 1.432 1.013 1.013 0 0 0 1.433-1.432M82.979 81.546a1.013 1.013 0 1 0-1.433 1.431 1.013 1.013 0 0 0 1.433-1.431M82.979 95.087a1.013 1.013 0 1 0-1.433 1.432 1.013 1.013 0 0 0 1.433-1.432M82.979 108.629a1.013 1.013 0 1 0-1.433 1.431 1.013 1.013 0 0 0 1.433-1.431M82.979 122.17a1.013 1.013 0 1 0-1.433 1.432 1.013 1.013 0 0 0 1.433-1.432M82.979 135.712a1.013 1.013 0 1 0-1.433 1.431 1.013 1.013 0 0 0 1.433-1.431M82.979 149.253a1.013 1.013 0 1 0-1.433 1.432 1.013 1.013 0 0 0 1.433-1.432M82.979 162.795a1.013 1.013 0 1 0-1.433 1.431 1.013 1.013 0 0 0 1.433-1.431M82.979 176.337a1.013 1.013 0 1 0-1.433 1.431 1.013 1.013 0 0 0 1.433-1.431M82.979 189.878a1.013 1.013 0 1 0-1.433 1.432 1.013 1.013 0 0 0 1.433-1.432M82.979 203.42a1.013 1.013 0 1 0-1.433 1.431 1.013 1.013 0 0 0 1.433-1.431M82.979 216.961a1.013 1.013 0 1 0-1.433 1.432 1.013 1.013 0 0 0 1.433-1.432M82.979 230.503a1.013 1.013 0 1 0-1.433 1.431 1.013 1.013 0 0 0 1.433-1.431M82.979 244.044a1.013 1.013 0 1 0-1.433 1.432 1.013 1.013 0 0 0 1.433-1.432M82.979 257.586a1.013 1.013 0 1 0-1.433 1.432 1.013 1.013 0 0 0 1.433-1.432M82.979 271.127a1.013 1.013 0 1 0-1.433 1.432 1.013 1.013 0 0 0 1.433-1.432M81.546 284.669a1.013 1.013 0 1 0 1.432 1.433 1.013 1.013 0 0 0-1.432-1.433M69.437 27.38a1.013 1.013 0 1 0-1.433 1.431 1.013 1.013 0 0 0 1.433-1.431M69.437 40.921a1.013 1.013 0 1 0-1.433 1.432 1.013 1.013 0 0 0 1.433-1.432M69.437 54.463a1.013 1.013 0 1 0-1.433 1.431 1.013 1.013 0 0 0 1.433-1.431M69.437 68.004a1.013 1.013 0 1 0-1.433 1.432 1.013 1.013 0 0 0 1.433-1.432M69.437 81.546a1.013 1.013 0 1 0-1.433 1.431 1.013 1.013 0 0 0 1.433-1.431M69.437 95.087a1.013 1.013 0 1 0-1.433 1.432 1.013 1.013 0 0 0 1.433-1.432M69.437 108.629a1.013 1.013 0 1 0-1.433 1.431 1.013 1.013 0 0 0 1.433-1.431M69.437 122.17a1.013 1.013 0 1 0-1.433 1.432 1.013 1.013 0 0 0 1.433-1.432M69.437 135.712a1.013 1.013 0 1 0-1.433 1.431 1.013 1.013 0 0 0 1.433-1.431M69.437 149.253a1.013 1.013 0 1 0-1.433 1.432 1.013 1.013 0 0 0 1.433-1.432M69.437 162.795a1.013 1.013 0 1 0-1.433 1.431 1.013 1.013 0 0 0 1.433-1.431M69.437 176.337a1.013 1.013 0 1 0-1.433 1.431 1.013 1.013 0 0 0 1.433-1.431M69.437 189.878a1.013 1.013 0 1 0-1.433 1.432 1.013 1.013 0 0 0 1.433-1.432M69.437 203.42a1.013 1.013 0 1 0-1.433 1.431 1.013 1.013 0 0 0 1.433-1.431M69.437 216.961a1.013 1.013 0 1 0-1.433 1.432 1.013 1.013 0 0 0 1.433-1.432M69.437 230.503a1.013 1.013 0 1 0-1.433 1.431 1.013 1.013 0 0 0 1.433-1.431M69.437 244.044a1.013 1.013 0 1 0-1.433 1.432 1.013 1.013 0 0 0 1.433-1.432M69.437 257.586a1.013 1.013 0 1 0-1.433 1.432 1.013 1.013 0 0 0 1.433-1.432M69.437 271.127a1.013 1.013 0 1 0-1.433 1.432 1.013 1.013 0 0 0 1.433-1.432M68.004 284.669a1.013 1.013 0 1 0 1.432 1.433 1.013 1.013 0 0 0-1.432-1.433M55.896 27.38a1.013 1.013 0 1 0-1.433 1.431 1.013 1.013 0 0 0 1.433-1.431M55.896 40.921a1.013 1.013 0 1 0-1.433 1.432 1.013 1.013 0 0 0 1.433-1.432M55.896 54.463a1.013 1.013 0 1 0-1.433 1.431 1.013 1.013 0 0 0 1.433-1.431M55.896 68.004a1.013 1.013 0 1 0-1.433 1.432 1.013 1.013 0 0 0 1.433-1.432M55.896 81.546a1.013 1.013 0 1 0-1.433 1.431 1.013 1.013 0 0 0 1.433-1.431M55.896 95.087a1.013 1.013 0 1 0-1.433 1.432 1.013 1.013 0 0 0 1.433-1.432M55.896 108.629a1.013 1.013 0 1 0-1.433 1.431 1.013 1.013 0 0 0 1.433-1.431M55.896 122.17a1.013 1.013 0 1 0-1.433 1.432 1.013 1.013 0 0 0 1.433-1.432M55.896 135.712a1.013 1.013 0 1 0-1.433 1.431 1.013 1.013 0 0 0 1.433-1.431M55.896 149.253a1.013 1.013 0 1 0-1.433 1.432 1.013 1.013 0 0 0 1.433-1.432M55.896 162.795a1.013 1.013 0 1 0-1.433 1.431 1.013 1.013 0 0 0 1.433-1.431M55.896 176.337a1.013 1.013 0 1 0-1.433 1.431 1.013 1.013 0 0 0 1.433-1.431M55.896 189.878a1.013 1.013 0 1 0-1.433 1.432 1.013 1.013 0 0 0 1.433-1.432M55.896 203.42a1.013 1.013 0 1 0-1.433 1.431 1.013 1.013 0 0 0 1.433-1.431M55.896 216.961a1.013 1.013 0 1 0-1.433 1.432 1.013 1.013 0 0 0 1.433-1.432M55.896 230.503a1.013 1.013 0 1 0-1.433 1.431 1.013 1.013 0 0 0 1.433-1.431M55.896 244.044a1.013 1.013 0 1 0-1.433 1.432 1.013 1.013 0 0 0 1.433-1.432M55.896 257.586a1.013 1.013 0 1 0-1.433 1.432 1.013 1.013 0 0 0 1.433-1.432M54.463 271.127a1.013 1.013 0 1 0 1.432 1.433 1.013 1.013 0 0 0-1.432-1.433M42.354 40.921a1.013 1.013 0 1 0-1.433 1.432 1.013 1.013 0 0 0 1.433-1.432M42.354 54.463a1.013 1.013 0 1 0-1.433 1.431 1.013 1.013 0 0 0 1.433-1.431M42.354 68.004a1.013 1.013 0 1 0-1.433 1.432 1.013 1.013 0 0 0 1.433-1.432M42.354 81.546a1.013 1.013 0 1 0-1.433 1.431 1.013 1.013 0 0 0 1.433-1.431M42.354 95.087a1.013 1.013 0 1 0-1.433 1.432 1.013 1.013 0 0 0 1.433-1.432M42.354 108.629a1.013 1.013 0 1 0-1.433 1.431 1.013 1.013 0 0 0 1.433-1.431M42.354 122.17a1.013 1.013 0 1 0-1.433 1.432 1.013 1.013 0 0 0 1.433-1.432M42.354 135.712a1.013 1.013 0 1 0-1.433 1.431 1.013 1.013 0 0 0 1.433-1.431M42.354 149.253a1.013 1.013 0 1 0-1.433 1.432 1.013 1.013 0 0 0 1.433-1.432M42.354 162.795a1.013 1.013 0 1 0-1.433 1.431 1.013 1.013 0 0 0 1.433-1.431M42.354 176.337a1.013 1.013 0 1 0-1.433 1.431 1.013 1.013 0 0 0 1.433-1.431M42.354 189.878a1.013 1.013 0 1 0-1.433 1.432 1.013 1.013 0 0 0 1.433-1.432M42.354 203.42a1.013 1.013 0 1 0-1.433 1.431 1.013 1.013 0 0 0 1.433-1.431M42.354 216.961a1.013 1.013 0 1 0-1.433 1.432 1.013 1.013 0 0 0 1.433-1.432M42.354 230.503a1.013 1.013 0 1 0-1.433 1.431 1.013 1.013 0 0 0 1.433-1.431M40.921 244.044a1.013 1.013 0 1 0 1.432 1.433 1.013 1.013 0 0 0-1.432-1.433M42.354 259.019a1.013 1.013 0 1 0-1.432-1.433 1.013 1.013 0 0 0 1.432 1.433M27.38 54.463a1.013 1.013 0 1 0 1.432 1.433 1.013 1.013 0 0 0-1.432-1.433M28.813 69.437a1.013 1.013 0 1 0-1.432-1.433 1.013 1.013 0 0 0 1.432 1.433M27.38 82.978a1.013 1.013 0 1 0 1.433-1.431 1.013 1.013 0 0 0-1.433 1.431M27.38 96.52a1.013 1.013 0 1 0 1.433-1.432 1.013 1.013 0 0 0-1.433 1.432M27.38 110.061a1.013 1.013 0 1 0 1.433-1.431 1.013 1.013 0 0 0-1.433 1.431M27.38 123.603a1.013 1.013 0 1 0 1.433-1.431 1.013 1.013 0 0 0-1.433 1.431M27.38 137.145a1.013 1.013 0 1 0 1.433-1.432 1.013 1.013 0 0 0-1.433 1.432M27.38 150.686a1.013 1.013 0 1 0 1.433-1.431 1.013 1.013 0 0 0-1.433 1.431M27.38 164.228a1.013 1.013 0 1 0 1.433-1.432 1.013 1.013 0 0 0-1.433 1.432M27.38 177.77a1.013 1.013 0 1 0 1.433-1.432 1.013 1.013 0 0 0-1.433 1.431M27.38 191.311a1.013 1.013 0 1 0 1.433-1.432 1.013 1.013 0 0 0-1.433 1.432M27.38 204.853a1.013 1.013 0 1 0 1.433-1.432 1.013 1.013 0 0 0-1.433 1.432M27.38 218.394a1.013 1.013 0 1 0 1.433-1.431 1.013 1.013 0 0 0-1.433 1.431M27.38 231.936a1.013 1.013 0 1 0 1.433-1.432 1.013 1.013 0 0 0-1.433 1.432M27.38 245.477a1.013 1.013 0 1 0 1.433-1.431 1.013 1.013 0 0 0-1.433 1.431M13.838 69.437a1.013 1.013 0 1 0 1.433-1.433 1.002 1.002 0 0 0-.648-.283c-.317.492-.627.988-.939 1.484.045.081.086.164.154.232M15.27 81.546a1.013 1.013 0 1 0-1.432 1.431 1.013 1.013 0 0 0 1.433-1.431M15.27 95.087a1.013 1.013 0 1 0-1.432 1.432 1.013 1.013 0 0 0 1.433-1.432M15.27 108.629a1.013 1.013 0 1 0-1.432 1.431 1.013 1.013 0 0 0 1.433-1.431M15.27 122.17a1.013 1.013 0 1 0-1.432 1.432 1.013 1.013 0 0 0 1.433-1.432M15.27 135.712a1.013 1.013 0 1 0-1.432 1.431 1.013 1.013 0 0 0 1.433-1.431M15.27 149.253a1.013 1.013 0 1 0-1.432 1.432 1.013 1.013 0 0 0 1.433-1.432M15.27 162.795a1.013 1.013 0 1 0-1.432 1.431 1.013 1.013 0 0 0 1.433-1.431M15.27 176.337a1.013 1.013 0 1 0-1.432 1.431 1.013 1.013 0 0 0 1.433-1.431M15.27 189.878a1.013 1.013 0 1 0-1.432 1.432 1.013 1.013 0 0 0 1.433-1.432M15.27 203.42a1.013 1.013 0 1 0-1.432 1.431 1.013 1.013 0 0 0 1.433-1.431M15.27 216.961a1.013 1.013 0 1 0-1.432 1.432 1.013 1.013 0 0 0 1.433-1.432M13.838 230.503a1.013 1.013 0 1 0 1.432 1.433 1.013 1.013 0 0 0-1.432-1.433M.297 96.52a1.013 1.013 0 1 0 .334-1.655c-.18.452-.354.907-.529 1.361a.979.979 0 0 0 .195.294"/>
        <g transform="translate(0 107.94)">
            <mask id="F" fill="#fff">
                <use xlink:href="#E"/>
            </mask>
            <path fill="#1A1A1A" d="M1.73.689A1.013 1.013 0 1 0 .297 2.12 1.013 1.013 0 0 0 1.73.69" mask="url(#F)"/>
        </g>
        <g transform="translate(0 120.94)">
            <mask id="H" fill="#fff">
                <use xlink:href="#G"/>
            </mask>
            <path fill="#1A1A1A" d="M1.73 1.23A1.013 1.013 0 1 0 .297 2.662 1.013 1.013 0 0 0 1.73 1.23" mask="url(#H)"/>
        </g>
        <g transform="translate(0 134.94)">
            <mask id="J" fill="#fff">
                <use xlink:href="#I"/>
            </mask>
            <path fill="#1A1A1A" d="M1.73.772A1.013 1.013 0 1 0 .297 2.203 1.013 1.013 0 0 0 1.73.772" mask="url(#J)"/>
        </g>
        <g transform="translate(0 148.94)">
            <mask id="L" fill="#fff">
                <use xlink:href="#K"/>
            </mask>
            <path fill="#1A1A1A" d="M1.73.313A1.013 1.013 0 1 0 .297 1.745 1.013 1.013 0 0 0 1.73.313" mask="url(#L)"/>
        </g>
        <g transform="translate(0 161.94)">
            <mask id="N" fill="#fff">
                <use xlink:href="#M"/>
            </mask>
            <path fill="#1A1A1A" d="M1.73.855A1.013 1.013 0 1 0 .297 2.286 1.013 1.013 0 0 0 1.73.855" mask="url(#N)"/>
        </g>
        <g transform="translate(0 175.94)">
            <mask id="P" fill="#fff">
                <use xlink:href="#O"/>
            </mask>
            <path fill="#1A1A1A" d="M1.73.397A1.013 1.013 0 1 0 .297 1.828 1.013 1.013 0 0 0 1.73.397" mask="url(#P)"/>
        </g>
        <path fill="#1A1A1A" d="M.297 189.878a1.013 1.013 0 1 0 1.432 1.433 1.013 1.013 0 0 0-1.432-1.433"/>
        <g transform="translate(0 202.94)">
            <mask id="R" fill="#fff">
                <use xlink:href="#Q"/>
            </mask>
            <path fill="#1A1A1A" d="M1.73 1.913A1.013 1.013 0 1 0 .298.48 1.013 1.013 0 0 0 1.73 1.913" mask="url(#R)"/>
        </g>
    </g>
</svg>
