<svg xmlns="http://www.w3.org/2000/svg" width="100" height="119" viewBox="0 0 100 119">
    <g fill="none" fill-rule="evenodd">
        <path fill="#000" d="M96 116.746c0-1.009.764-1.746 1.827-1.746 1.064 0 1.827.737 1.827 1.746 0 .995-.763 1.745-1.827 1.745-1.063 0-1.827-.75-1.827-1.745"/>
        <path fill="#5896EC" d="M52.947 37.384A5.914 5.914 0 1 1 41.193 38.7a5.914 5.914 0 0 1 11.754-1.316"/>
        <path stroke="#000" stroke-width="2.223" d="M41.484 32.07a7.317 7.317 0 1 1 7.87 12.337 7.317 7.317 0 0 1-11.253-6.17M41.484 32.07L18.13 46.963M49.353 44.407L20.995 62.493M38.767 41.416l-8.625 5.502M27.32 48.717l-5.503 3.51M15.377 48.719L2.121 57.174M14.432 49.322l-12.31 7.851M17.994 64.407l-6.017 3.837M8.975 70.158L.971 75.263"/>
        <path fill="#000" d="M81 2.801h2.705V0h1.809v2.801h2.737v1.696h-2.737v2.802h-1.809V4.497H81z"/>
    </g>
</svg>
