<svg xmlns="http://www.w3.org/2000/svg" width="63" height="50" viewBox="0 0 63 50">
    <g fill="none" fill-rule="evenodd" stroke="#000" stroke-width="2.672">
        <path d="M36.212 32.072c0 8.933-7.25 16.174-16.192 16.174-8.943 0-16.192-7.241-16.192-16.174s7.25-16.175 16.192-16.175 16.192 7.242 16.192 16.175z"/>
        <path d="M20.02 15.897V32.07L8.57 43.51M36.212 32.072H20.02M20.02 32.072l7.242 14.468M30.327 4.512h9.218M30.327 9.115h9.218M25.719 4.512h2.304M25.719 9.115h2.304M4.98 4.512h9.218M4.98 9.115h9.218M.371 4.512h2.305M.371 9.115h2.305M49.653 48.247V.907M55.466 48.247V19.473M61.278 48.247V10.989"/>
    </g>
</svg>
