<svg xmlns="http://www.w3.org/2000/svg" width="56" height="57" viewBox="0 0 56 57">
    <g fill="none" fill-rule="evenodd" stroke="#000" stroke-width="2">
        <path d="M3.689 6.816H1.964a.862.862 0 0 1-.863-.862V2.508c0-.476.386-.861.863-.861h1.725c.476 0 .862.385.862.861v3.446a.862.862 0 0 1-.862.862zM8.001.785v6.893M14.901.785v3.534M48.539 6.816h-1.725a.862.862 0 0 1-.863-.862V2.508c0-.476.386-.861.863-.861h1.725c.476 0 .862.385.862.861v3.446a.862.862 0 0 1-.862.862zM52.851.785v6.893M42.501.785v3.534M51.989 15.432h1.725a.862.862 0 0 0 .862-.862v-3.446a.862.862 0 0 0-.862-.862h-1.725a.861.861 0 0 0-.863.862v3.446c0 .476.386.862.863.862zM47.676 9.4v6.894M5.414 15.432h1.725A.862.862 0 0 0 8 14.57v-3.446a.862.862 0 0 0-.862-.862H5.414a.861.861 0 0 0-.863.862v3.446c0 .476.386.862.863.862zM1.101 9.4v6.894M3.689 24.048H1.964a.862.862 0 0 1-.863-.862V19.74c0-.477.386-.862.863-.862h1.725c.476 0 .862.385.862.862v3.446a.862.862 0 0 1-.862.862zM8.001 18.017v6.892M51.989 32.664h1.725a.862.862 0 0 0 .862-.862v-3.446a.862.862 0 0 0-.862-.862h-1.725a.861.861 0 0 0-.863.862v3.446c0 .476.386.862.863.862zM47.676 26.633v6.892M5.414 32.664h1.725A.862.862 0 0 0 8 31.802v-3.446a.862.862 0 0 0-.862-.862H5.414a.861.861 0 0 0-.863.862v3.446c0 .476.386.862.863.862zM1.101 26.633v6.892M11.451 28.336v5.189M3.689 41.28H1.964a.862.862 0 0 1-.863-.862v-3.446c0-.477.386-.862.863-.862h1.725c.476 0 .862.385.862.862v3.446a.862.862 0 0 1-.862.862zM8.001 35.249v6.892M14.039 41.28h-1.725a.862.862 0 0 1-.863-.862v-3.446c0-.477.386-.862.863-.862h1.725c.476 0 .862.385.862.862v3.446a.862.862 0 0 1-.862.862zM36.464 41.28h-1.725a.862.862 0 0 1-.863-.862v-3.446c0-.477.386-.862.863-.862h1.725c.476 0 .862.385.862.862v3.446a.862.862 0 0 1-.862.862zM46.814 41.28h-1.725a.862.862 0 0 1-.863-.862v-3.446c0-.477.386-.862.863-.862h1.725c.476 0 .862.385.862.862v3.446a.862.862 0 0 1-.862.862zM51.126 35.249v6.892M21.801 40.418v-3.446a.862.862 0 0 0-.862-.862h-1.725a.861.861 0 0 0-.863.862v3.446c0 .476.386.862.863.862h1.725a.862.862 0 0 0 .862-.862zM40.776 35.249v6.892M50.264 24.048h-1.725a.862.862 0 0 1-.863-.862V19.74c0-.477.386-.862.863-.862h1.725c.476 0 .862.385.862.862v3.446a.862.862 0 0 1-.862.862zM54.576 18.017v6.892M44.226 28.336v5.189M54.576 35.249v6.892M11.451.785v6.893M26.114 39.557h3.45M11.451 18.017c0 9.04 7.337 16.37 16.388 16.37 9.05 0 16.387-7.33 16.387-16.37 0-9.04-7.337-16.37-16.387-16.37-9.051 0-16.388 7.33-16.388 16.37zM29.564 34.387v18.955a1.724 1.724 0 0 1-3.45 0V34.387"/>
        <path d="M14.901 18.017c0 7.137 5.792 12.924 12.938 12.924 7.145 0 12.937-5.787 12.937-12.924 0-7.138-5.792-12.924-12.937-12.924-7.146 0-12.938 5.786-12.938 12.924z"/>
        <path d="M27.839 24.317c3.92 0 7.267-2.434 8.625-5.869-1.358-3.436-4.704-5.87-8.625-5.87-3.922 0-7.268 2.434-8.625 5.87 1.357 3.435 4.703 5.87 8.625 5.87z"/>
        <path d="M25.251 18.448a2.587 2.587 0 0 0 2.588 2.584 2.586 2.586 0 0 0 0-5.17 2.586 2.586 0 0 0-2.588 2.586z"/>
    </g>
</svg>
