<svg xmlns="http://www.w3.org/2000/svg" xmlns:xlink="http://www.w3.org/1999/xlink" width="586" height="292" viewBox="0 0 586 292">
    <defs>
        <path id="a" d="M0 .144v5.378h15.552V.144H0z"/>
        <path id="c" d="M8.353 15.786V.616h-7.7v15.17h7.7z"/>
        <path id="e" d="M.968.182h48.796V49H.968V.182z"/>
    </defs>
    <g fill="none" fill-rule="evenodd">
        <path fill="#000" d="M582.615 279.473v1.479c0 .447.293.767.778.767.498 0 .791-.32.791-.767v-1.479c0-.446-.293-.752-.791-.752-.485 0-.778.306-.778.752zm2.819-.038v1.557c0 1.122-.867 1.951-2.041 1.951-1.16 0-2.028-.829-2.028-1.951v-1.557c0-1.123.868-1.939 2.028-1.939 1.174 0 2.041.816 2.041 1.939zm-3.903-5.307h1.301l-3.865 8.675h-1.289l3.853-8.675zm-5.281 1.85v1.479c0 .447.294.766.791.766.497 0 .791-.319.791-.766v-1.479c0-.447-.294-.765-.791-.765-.497 0-.791.318-.791.765zm2.831-.038v1.543c0 1.136-.866 1.952-2.04 1.952s-2.041-.816-2.041-1.952v-1.543c0-1.135.867-1.94 2.041-1.94s2.04.805 2.04 1.94z"/>
        <g transform="translate(559 107)">
            <mask id="b" fill="#fff">
                <use xlink:href="#a"/>
            </mask>
            <path fill="#000" d="M7.189 5.522l-.013-.521c-.028-1.162-.867-1.385-1.683-1.365l-2.776.067C.6 3.755.06 2.97.02 1.356L0 .523 1.406.488l.012.47c.019.797.324 1.206 1.382 1.181l3.019-.075C6.929 2.038 7.6 2.49 7.847 3.3c.205-.821.853-1.306 1.963-1.332l2.968-.072c1.093-.028 1.377-.452 1.358-1.249l-.011-.469L15.53.144l.019.798c.04 1.648-.461 2.459-2.631 2.513l-2.707.066c-.815.02-1.658.283-1.63 1.446l.013.52-1.406.035z" mask="url(#b)"/>
        </g>
        <g transform="translate(480 226)">
            <mask id="d" fill="#fff">
                <use xlink:href="#c"/>
            </mask>
            <path fill="#000" d="M.653 9l.49-.174c1.098-.386 1.049-1.254.777-2.023L.995 4.184C.289 2.188.868 1.431 2.39.894l.785-.278.469 1.326-.442.156c-.752.266-1.046.683-.694 1.68l1.007 2.847c.369 1.048.148 1.826-.546 2.312.844-.06 1.506.405 1.876 1.454l.99 2.797c.364 1.031.855 1.17 1.607.904l.442-.155.47 1.325-.754.266c-1.554.55-2.48.325-3.204-1.72l-.902-2.554c-.273-.77-.784-1.489-1.881-1.101l-.491.173-.47-1.325z" mask="url(#d)"/>
        </g>
        <path fill="#05131E" d="M290.914 284.907a7.5 7.5 0 0 0-1.698-.193c-.579 0-1.148.065-1.699.193a7.576 7.576 0 0 0 0-3.383c.551.129 1.12.194 1.7.194.577 0 1.146-.065 1.697-.194a7.547 7.547 0 0 0 0 3.383zm2.946 1.554a5.399 5.399 0 0 1 0-6.491l.38-.503c.498-.664-.057-1.467-.728-1.467a.9.9 0 0 0-.547.192l-.504.379a5.392 5.392 0 0 1-6.49 0l-.504-.379a.905.905 0 0 0-.548-.192c-.67 0-1.227.803-.727 1.467l.378.503a5.396 5.396 0 0 1 0 6.491l-.378.504c-.5.664.057 1.466.727 1.466a.9.9 0 0 0 .548-.192l.503-.378a5.384 5.384 0 0 1 3.246-1.085c1.141 0 2.284.361 3.245 1.085l.504.378a.894.894 0 0 0 .547.192c.671 0 1.226-.802.727-1.466l-.379-.504z"/>
        <path fill="#000" d="M267 73.801h2.705V71h1.809v2.801h2.737v1.696h-2.737v2.802h-1.809v-2.802H267zM210 185.801h2.705V183h1.809v2.801h2.737v1.696h-2.737v2.802h-1.809v-2.802H210zM370.593 46.406V43h1.343v3.406l2.937-1.718.687 1.187-2.967 1.718 2.967 1.656-.687 1.187-2.937-1.687v3.343h-1.343V48.78l-2.906 1.656L367 49.28l2.905-1.687L367 45.906l.655-1.187zM476 28.746c0-1.009.764-1.746 1.827-1.746 1.064 0 1.827.737 1.827 1.746 0 .995-.763 1.745-1.827 1.745-1.063 0-1.827-.75-1.827-1.745"/>
        <path fill="#FFF" d="M94.499 193.688l-1.851-2.422-50.38 7.989-8.166 10.637 50.425 65.998 12.138-5.481 21.09-46.282-1.969-2.577"/>
        <path stroke="#00003A" stroke-width="2.815" d="M94.499 193.688l-1.851-2.422-50.38 7.989-8.166 10.637 50.425 65.998 12.138-5.481 21.09-46.282-1.969-2.577"/>
        <path fill="#C5DEE4" d="M84.845 274.16l10.571-4.563-51.876-69.516-8.009 10.094z"/>
        <path fill="#4B7983" d="M38.822 247.909a8.648 8.648 0 0 1 12.122 1.621 8.648 8.648 0 0 1-1.62 12.123l-10.502-13.744z"/>
        <path stroke="#00003A" stroke-width="2.8" d="M38.822 247.909a8.648 8.648 0 0 1 12.122 1.621 8.648 8.648 0 0 1-1.62 12.123l-10.502-13.744z"/>
        <path stroke="#000" stroke-linecap="round" stroke-linejoin="round" stroke-width="2.032" d="M42.269 199.255l54.019 70.7"/>
        <path fill="#FFF" d="M88.21 205.734l-5.45-7.132 26.509-11.4 16.465 21.549-17.76 22.85-5.23-6.843"/>
        <path stroke="#000" stroke-linejoin="round" stroke-width="2.032" d="M88.21 205.734l-5.45-7.132 26.509-11.4 16.465 21.549-17.76 22.85-5.23-6.843"/>
        <path fill="#4B7983" d="M42.806 244.866a8.648 8.648 0 0 1 10.5 13.743l-10.5-13.743z"/>
        <path stroke="#00003A" stroke-width="2.8" d="M42.806 244.866a8.648 8.648 0 0 1 10.5 13.743l-10.5-13.743z"/>
        <path fill="#FFF" d="M46.364 240.575l5.175-7.862 64.56-47.498a42.653 42.653 0 0 1 9.547-5.29l14.67-5.819c5.274-2.092 9.953 4.09 6.509 8.599l-9.759 12.767a42.644 42.644 0 0 1-7.08 7.273l-62.66 50.632-8.71 3.235-12.252-16.037z"/>
        <path stroke="#00003A" stroke-width="2.815" d="M46.364 240.575l5.175-7.862 64.56-47.498a42.653 42.653 0 0 1 9.547-5.29l14.67-5.819c5.274-2.092 9.953 4.09 6.509 8.599l-9.759 12.767a42.644 42.644 0 0 1-7.08 7.273l-62.66 50.632-8.71 3.235-12.252-16.037z"/>
        <path stroke="#000" stroke-linecap="round" stroke-linejoin="round" stroke-width="2.032" d="M142.866 187.884l-8.672-11.35"/>
        <path fill="#FF9274" d="M52.775 223.465l-7.54-9.869-5.242 4.006 7.54 9.869z"/>
        <path stroke="#000" stroke-linecap="round" stroke-linejoin="round" stroke-width="2.032" d="M52.775 223.465l-7.54-9.869-5.242 4.006 7.54 9.869z"/>
        <path fill="#FF9274" d="M84.115 264.482l-7.54-9.868-5.243 4.006 7.54 9.868z"/>
        <path stroke="#000" stroke-linecap="round" stroke-linejoin="round" stroke-width="2.032" d="M84.115 264.482l-7.54-9.868-5.243 4.006 7.54 9.868z"/>
        <path fill="#000" d="M51.284 251.559l-2.443-3.199 17.942-13.707a2.01 2.01 0 1 1 2.442 3.198l-17.941 13.708z"/>
        <path stroke="#000" stroke-linecap="round" stroke-linejoin="round" stroke-width="2.032" d="M51.284 251.559l-2.443-3.199 17.942-13.707a2.01 2.01 0 1 1 2.442 3.198l-17.941 13.708z"/>
        <path fill="#000" d="M121.648 190.865l-2.947-3.857c3.389-2.587 8.25-1.938 10.839 1.45l-3.858 2.947a2.883 2.883 0 0 0-4.034-.54M128.966 200.442l-2.948-3.856a2.883 2.883 0 0 0 .54-4.036l3.858-2.945c2.587 3.387 1.937 8.248-1.45 10.837"/>
        <path stroke="#000" stroke-linecap="round" stroke-linejoin="round" stroke-width="2.032" d="M54.73 214.158l8.815-6.737M86.068 255.175l8.817-6.736M110.144 194.027l9.932 13M67.033 226.262l10.57 13.834M106.645 206.815l-27.229 20.804M97.327 200.287l2.35 3.074M86.234 208.762l2.35 3.074M74.545 216.457l2.946 3.855M110.436 217.445l-2.349-3.075M99.344 225.92l-2.35-3.075M88.848 235.176l-2.946-3.856"/>
        <path fill="#FFFF52" d="M35.416 268.284l1 1.333-15.62 11.719-1-1.333zM31.246 264.537l1 1.333-21.585 16.194-1-1.333zM35.813 249.016l1 1.332-26.022 19.525-1-1.333zM46.622 265.336l1.001 1.333-21.647 16.242-1-1.334zM30.156 247.153l1 1.333-11.264 8.451-1-1.333zM34.823 261.852l1.001 1.333-2.245 1.685-1-1.334zM33.952 240.118l1 1.332-2.525 1.895-1-1.333zM12.471 285.5l1 1.332-5.678 4.26-1-1.333zM3.203 278.7l1.001 1.334-3.013 2.26-1-1.333zM16.064 282.803l1 1.334-2.259 1.695-1-1.333zM15.502 269.472l1 1.334-10.966 8.227-1-1.332zM54.51 266.898l1 1.333-6.103 4.58-1-1.335zM46.177 273.149l1 1.333-1.769 1.328-1-1.334z"/>
        <g>
            <path fill="#FFC793" d="M355.9 160.071c0-11.226 9.1-20.327 20.327-20.327 11.227 0 20.328 9.101 20.328 20.327 0 11.227-9.101 20.328-20.328 20.328-11.226 0-20.327-9.1-20.327-20.328"/>
            <g transform="translate(348 133.818)">
                <mask id="f" fill="#fff">
                    <use xlink:href="#e"/>
                </mask>
                <path fill="#000" d="M41.612 40.836a22.953 22.953 0 0 1-7.167 4.871 41.973 41.973 0 0 0 8.71-7.699.716.716 0 1 0-1.09-.934c-3.628 4.227-8.623 8.011-13.56 10.278a23.321 23.321 0 0 1-5.355.107 40.872 40.872 0 0 0 9.125-4.577.719.719 0 0 0 .197-.996.719.719 0 0 0-.996-.196 39.426 39.426 0 0 1-11.456 5.251 22.485 22.485 0 0 1-2.654-.803c.73-.174 1.457-.373 2.176-.594a.717.717 0 1 0-.423-1.37 33.637 33.637 0 0 1-4.038.972 23.01 23.01 0 0 1-5.74-4.095c.816-.16 1.63-.343 2.432-.552a.718.718 0 0 0-.362-1.389 40.292 40.292 0 0 1-3.253.7 22.81 22.81 0 0 1-4.233-6.973 40.758 40.758 0 0 0 4.17-1.307.718.718 0 0 0-.502-1.344 39.9 39.9 0 0 1-4.14 1.292 23.001 23.001 0 0 1-.715-2.97 41.089 41.089 0 0 0 8.88-4.087.717.717 0 1 0-.751-1.222 39.683 39.683 0 0 1-8.33 3.866 23.1 23.1 0 0 1-.083-3.988 37.427 37.427 0 0 0 4.297-2.19.716.716 0 0 0 .248-.983.715.715 0 0 0-.982-.25 35.344 35.344 0 0 1-3.397 1.78c.2-1.459.54-2.9 1.022-4.305 2.317-1.363 4.724-3.172 6.669-4.95a.718.718 0 1 0-.968-1.06 39.854 39.854 0 0 1-4.794 3.752A22.903 22.903 0 0 1 9.12 8.345a22.827 22.827 0 0 1 16.246-6.729c.835 0 1.662.046 2.48.133a40.474 40.474 0 0 1-.786 2.173.716.716 0 1 0 1.334.528c.325-.822.625-1.66.898-2.5a22.75 22.75 0 0 1 2.963.713 39.48 39.48 0 0 1-5.248 11.981.717.717 0 1 0 1.2.785 40.866 40.866 0 0 0 5.408-12.294 22.849 22.849 0 0 1 6.972 4.248 38.81 38.81 0 0 1-1.635 6.327.718.718 0 1 0 1.353.475A40.366 40.366 0 0 0 41.83 8.57a22.837 22.837 0 0 1 5.88 10.704c-1.22 4.278-3.055 8.23-5.46 11.746a.718.718 0 0 0 1.184.81 41.15 41.15 0 0 0 4.79-9.458c.635 6.6-1.57 13.422-6.612 18.465m1.015-33.505c-4.61-4.61-10.74-7.15-17.261-7.15-6.52 0-12.65 2.54-17.26 7.15-9.517 9.517-9.517 25.003 0 34.52a24.248 24.248 0 0 0 17.26 7.15c6.52 0 12.65-2.54 17.26-7.15 9.518-9.517 9.518-25.004 0-34.52" mask="url(#f)"/>
            </g>
            <path fill="#000" d="M341.239 152.42a2.808 2.808 0 0 1-2.805-2.805 2.809 2.809 0 0 1 2.805-2.804 2.808 2.808 0 0 1 2.804 2.804 2.808 2.808 0 0 1-2.804 2.805m0-7.043a4.243 4.243 0 0 0-4.239 4.238 4.244 4.244 0 0 0 4.239 4.24 4.245 4.245 0 0 0 4.239-4.24 4.243 4.243 0 0 0-4.239-4.238M372.384 166.89a.718.718 0 0 0 .822 1.176c4.105-2.87 7.633-6.509 10.49-10.812a42.114 42.114 0 0 0 2.204-3.722.718.718 0 0 0-1.271-.666 40.936 40.936 0 0 1-2.128 3.595c-2.757 4.152-6.161 7.661-10.117 10.43M366.534 170.344c-.865.411-1.756.792-2.646 1.132a.717.717 0 1 0 .512 1.34c.926-.353 1.85-.749 2.75-1.177a.718.718 0 1 0-.616-1.295M380.124 154.315a.717.717 0 0 0-1.172-.828c-5.39 7.625-12.97 13.222-21.344 15.76a.718.718 0 0 0 .416 1.374c8.679-2.63 16.527-8.422 22.1-16.306M360.5 150.467c4.066-3.389 7.502-7.614 9.936-12.219a.717.717 0 0 0-1.268-.67c-2.35 4.441-5.663 8.516-9.585 11.786a.716.716 0 1 0 .918 1.103M391.633 157.215a.719.719 0 0 0 .949-.355c.151-.332.298-.667.438-.999a.716.716 0 0 0-.38-.939.716.716 0 0 0-.942.38c-.134.32-.277.644-.42.964a.715.715 0 0 0 .355.95M391.004 158.493a.717.717 0 0 0-.975.278 43.147 43.147 0 0 1-3.333 5.112c-4.525 5.971-10.338 10.508-16.807 13.123a.718.718 0 0 0 .536 1.33c6.711-2.71 12.733-7.409 17.414-13.587a44.562 44.562 0 0 0 3.444-5.281.716.716 0 0 0-.279-.975M371.249 153.338a38.346 38.346 0 0 1-2.301 2.372.718.718 0 0 0 .986 1.042 39.24 39.24 0 0 0 2.388-2.46.718.718 0 1 0-1.073-.954M365.936 151.472a.717.717 0 0 0 .982 1.047c3.373-3.171 5.763-6.322 7.307-9.63a.717.717 0 1 0-1.3-.607c-1.466 3.14-3.752 6.148-6.989 9.19M363.586 153.559a86.993 86.993 0 0 1-1.91 1.562.716.716 0 1 0 .894 1.122c.7-.557 1.335-1.076 1.94-1.587a.717.717 0 1 0-.924-1.097"/>
        </g>
        <g>
            <path fill="#000" d="M149.046 27.487l1.018 1.304-2.607 2.035-1.018-1.303z"/>
            <path fill="#000" d="M144.545 25.755l-18.252 14.254 6.11 7.823 18.25-14.256-6.108-7.821zm-.285 2.32l4.072 5.215-15.644 12.219-4.072-5.215 15.644-12.218z"/>
            <path fill="#000" d="M132.343 36.333l5.091 6.519-1.304 1.018-5.09-6.52zM136.58 33.025l5.09 6.519-1.303 1.017-5.09-6.519zM140.817 29.715l5.09 6.52-1.303 1.017-5.09-6.52zM161.432 17.814l1.017 1.303-2.607 2.037-1.018-1.304z"/>
            <path fill="#000" d="M182.595 8.631L176.486.809l-18.252 14.255 6.11 7.821 18.251-14.254zm-6.394-5.5l4.073 5.215-15.645 12.218-4.073-5.216 15.645-12.217z"/>
            <path fill="#000" d="M172.758 4.77l5.091 6.519-1.304 1.018-5.09-6.52zM168.521 8.079l5.09 6.519-1.303 1.017-5.091-6.518zM164.284 11.388l5.091 6.519-1.304 1.018-5.09-6.52z"/>
            <path fill="#FFF" d="M140.714 15.475l2.392 3.062 8.474-6.62-2.391-3.062z"/>
            <path fill="#000" d="M150.419 11.775l-1.373-1.758-7.17 5.6 1.372 1.758 7.17-5.6zm-1.087-4.08l3.409 4.366-9.778 7.636-3.41-4.366 9.779-7.636z"/>
            <path fill="#FFF" d="M143.673 18.093l1.357 1.738 7.34-5.733-1.357-1.737z"/>
            <path fill="#000" d="M151.209 13.956l-.339-.433-6.036 4.712.339.435 6.036-4.714zm-.054-2.756l2.376 3.042-8.643 6.75-2.376-3.042 8.643-6.75z"/>
            <path fill="#FFF" d="M156.145 35.407l1.867 2.392 8.644-6.752-1.866-2.39z"/>
            <path fill="#000" d="M165.495 30.905l-.849-1.087-7.34 5.732.849 1.087 7.34-5.732zm-.564-3.409l2.886 3.694-9.947 7.768-2.886-3.693 9.947-7.769z"/>
            <path fill="#FFF" d="M143.81 20.783l11.768 15.068 9.779-7.636-11.768-15.068z"/>
            <path fill="#000" d="M164.195 28.071l-10.75-13.763-8.473 6.617 10.749 13.764 8.474-6.618zm-10.463-16.085l12.785 16.371-11.082 8.654-12.785-16.37 11.082-8.655z"/>
            <path fill="#FFF" d="M168.325 43.438l1.304-1.018-1.452-1.858-1.303 1.018z"/>
            <path fill="#000" d="M161.682 34.932l1.608 2.058 1.303-1.019-1.608-2.057z"/>
            <path fill="#FFF" d="M162.887 44.537a5.79 5.79 0 1 1 9.126-7.128l-9.126 7.128z"/>
            <path fill="#000" d="M163.084 43.333l7.714-6.024a4.971 4.971 0 0 0-6.403-.247 4.971 4.971 0 0 0-1.311 6.27m9.58-6.432l.51.653-10.43 8.145-.509-.652a6.623 6.623 0 0 1 1.142-9.287 6.623 6.623 0 0 1 9.287 1.141M152.374 25.7l3.563 4.563-1.304 1.018-3.563-4.563zM157.589 21.627l3.563 4.564-1.304 1.019-3.564-4.565zM154.981 23.664l3.564 4.562-1.304 1.019-3.564-4.564z"/>
            <path stroke="#FF0" d="M178.633 41.012c-1.085 6.336-7.101 10.592-13.438 9.507M184.685 41.059c-1.781 10.398-11.655 17.385-22.053 15.602"/>
        </g>
    </g>
</svg>
