<svg xmlns="http://www.w3.org/2000/svg" xmlns:xlink="http://www.w3.org/1999/xlink" width="615" height="290" viewBox="0 0 615 290">
    <defs>
        <path id="a" d="M0 .144v5.378h15.552V.144H0z"/>
        <path id="c" d="M8.353 15.786V.616h-7.7v15.17h7.7z"/>
        <path id="e" d="M3.654 0H0v3.49h3.654V0z"/>
        <path id="g" d="M0 4.24v4.238h8.478V0H0v4.24z"/>
    </defs>
    <g fill="none" fill-rule="evenodd">
        <path fill="#000" d="M132.842 62.828v1.479c0 .447.293.767.778.767.498 0 .79-.32.79-.767v-1.48c0-.445-.292-.751-.79-.751-.485 0-.778.306-.778.752zm2.819-.038v1.557c0 1.122-.867 1.95-2.041 1.95-1.16 0-2.028-.828-2.028-1.95V62.79c0-1.123.868-1.94 2.028-1.94 1.174 0 2.04.817 2.04 1.94zm-3.903-5.307h1.3l-3.864 8.675h-1.29l3.854-8.675zm-5.281 1.85v1.479c0 .447.294.766.79.766.498 0 .792-.32.792-.766v-1.48c0-.446-.294-.764-.791-.764-.497 0-.791.318-.791.765zm2.83-.038v1.543c0 1.136-.865 1.952-2.04 1.952-1.173 0-2.04-.816-2.04-1.952v-1.543c0-1.135.867-1.94 2.04-1.94 1.175 0 2.04.805 2.04 1.94z"/>
        <g transform="translate(0 -.143)">
            <mask id="b" fill="#fff">
                <use xlink:href="#a"/>
            </mask>
            <path fill="#000" d="M7.189 5.522l-.013-.521c-.028-1.162-.867-1.385-1.683-1.365l-2.776.067C.6 3.755.06 2.97.02 1.356L0 .523 1.406.488l.012.47c.019.797.324 1.206 1.382 1.181l3.019-.075C6.929 2.038 7.6 2.49 7.847 3.3c.205-.821.853-1.306 1.963-1.332l2.968-.072c1.093-.028 1.377-.452 1.358-1.249l-.011-.469L15.53.144l.019.798c.04 1.648-.461 2.459-2.631 2.513l-2.707.066c-.815.02-1.658.283-1.63 1.446l.013.52-1.406.035z" mask="url(#b)"/>
        </g>
        <g transform="translate(450 162)">
            <mask id="d" fill="#fff">
                <use xlink:href="#c"/>
            </mask>
            <path fill="#000" d="M.653 9l.49-.174c1.098-.386 1.049-1.254.777-2.023L.995 4.184C.289 2.188.868 1.431 2.39.894l.785-.278.469 1.326-.442.156c-.752.266-1.046.683-.694 1.68l1.007 2.847c.369 1.048.148 1.826-.546 2.312.844-.06 1.506.405 1.876 1.454l.99 2.797c.364 1.031.855 1.17 1.607.904l.442-.155.47 1.325-.754.266c-1.554.55-2.48.325-3.204-1.72l-.902-2.554c-.273-.77-.784-1.489-1.881-1.101l-.491.173-.47-1.325z" mask="url(#d)"/>
        </g>
        <path fill="#05131E" d="M508.712 29.68a7.5 7.5 0 0 0-1.698-.192c-.579 0-1.148.065-1.699.193a7.576 7.576 0 0 0 0-3.383c.551.129 1.12.194 1.7.194.577 0 1.146-.065 1.697-.194a7.547 7.547 0 0 0 0 3.383zm2.946 1.555a5.399 5.399 0 0 1 0-6.491l.38-.503c.498-.664-.057-1.467-.728-1.467a.9.9 0 0 0-.547.192l-.504.379a5.392 5.392 0 0 1-6.49 0l-.504-.38a.905.905 0 0 0-.548-.191c-.67 0-1.227.803-.727 1.467l.378.503a5.396 5.396 0 0 1 0 6.49l-.378.505c-.5.664.057 1.466.727 1.466a.9.9 0 0 0 .548-.192l.503-.378a5.384 5.384 0 0 1 3.246-1.085c1.141 0 2.284.36 3.245 1.085l.504.378a.894.894 0 0 0 .547.192c.671 0 1.226-.802.727-1.466l-.379-.504z"/>
        <path fill="#5896EC" d="M129.592 145.457a5.914 5.914 0 1 1-11.828 0 5.914 5.914 0 0 1 11.828 0"/>
        <path stroke="#000" stroke-width="2.223" d="M128.583 142.244a7.316 7.316 0 0 1-3.343 9.792 7.316 7.316 0 0 1-9.793-3.343 7.316 7.316 0 0 1 3.344-9.792 7.316 7.316 0 0 1 9.792 3.343zM118.79 138.901l-24.865 12.208M125.24 152.037L95.048 166.86"/>
        <path stroke="#F6F6F6" stroke-width="2.223" d="M119.195 141.21l-17.928 8.801"/>
        <path stroke="#000" stroke-width="2.223" d="M115.053 147.889l-9.183 4.508M102.864 153.873l-5.858 2.876M90.996 152.548l-14.114 6.929M89.99 153.042l-13.108 6.435M91.853 168.429l-6.406 3.145M82.251 173.143l-8.52 4.184"/>
        <path fill="#000" d="M280.906 13.98h2.705v-2.802h1.81v2.801h2.737v1.696h-2.738v2.802h-1.809v-2.802h-2.704zM140.835 254.359h2.705v-2.801h1.81v2.801h2.736v1.696h-2.737v2.802h-1.809v-2.802h-2.705zM237.593 97.406V94h1.343v3.406l2.937-1.718.687 1.187-2.967 1.718 2.967 1.656-.687 1.187-2.937-1.687v3.343h-1.343V99.78l-2.906 1.656-.687-1.156 2.905-1.687L234 96.906l.655-1.187zM374 67.746c0-1.009.764-1.746 1.827-1.746 1.064 0 1.827.737 1.827 1.746 0 .995-.763 1.745-1.827 1.745-1.063 0-1.827-.75-1.827-1.745"/>
        <g transform="translate(598 101)">
            <mask id="f" fill="#fff">
                <use xlink:href="#e"/>
            </mask>
            <path fill="#000" d="M0 1.745C0 .736.764 0 1.827 0c1.065 0 1.827.737 1.827 1.746 0 .995-.762 1.746-1.827 1.746C.764 3.491 0 2.741 0 1.745" mask="url(#f)"/>
        </g>
        <g>
            <path fill="#C5ECD6" d="M576.313 234.746c0-10.216 8.282-18.497 18.497-18.497 10.216 0 18.497 8.281 18.497 18.497s-8.281 18.497-18.497 18.497c-10.215 0-18.497-8.281-18.497-18.497"/>
            <path fill="#000" d="M604.818 247.346c.112-.454.414-.952.83-1.367.532-.533 1.204-.876 1.714-.876.187 0 .326.044.416.134.32.32.067 1.322-.742 2.129-.532.533-1.206.877-1.715.877-.187 0-.326-.046-.415-.135-.142-.14-.174-.418-.088-.762m-31.574-14.182c0-10.984 8.936-19.92 19.92-19.92 2.86 0 5.58.606 8.04 1.696-.019.65-.35 1.271-.949 1.758-.668.544-1.572.852-2.546.868-1.956.033-3.56-1.133-3.584-2.596a.621.621 0 0 0-.632-.611.624.624 0 0 0-.613.632c.035 2.123 2.157 3.82 4.752 3.82l.098-.001c1.251-.02 2.426-.427 3.31-1.147.728-.592 1.191-1.339 1.35-2.15 6.351 3.334 10.694 9.994 10.694 17.65 0 4.484-1.49 8.625-3.999 11.958a1.649 1.649 0 0 0-.428-.764c-.326-.327-.774-.499-1.295-.499-.847 0-1.817.465-2.594 1.24-.58.58-.992 1.273-1.158 1.95-.192.776-.04 1.484.416 1.94.189.187.418.323.677.405a19.814 19.814 0 0 1-11.54 3.691c-10.983 0-19.919-8.936-19.919-19.92M593.164 212c-11.67 0-21.163 9.495-21.163 21.164 0 11.67 9.494 21.164 21.163 21.164 11.67 0 21.164-9.494 21.164-21.164 0-11.67-9.494-21.164-21.164-21.164"/>
            <path fill="#000" d="M583.306 221.523c.274-.844.168-1.564-.297-2.03-.539-.538-1.42-.59-2.422-.145a.623.623 0 0 0 .507 1.137c.52-.232.915-.232 1.035-.112.23.23.007 1.295-1.046 2.348s-2.119 1.277-2.349 1.048c-.09-.091-.124-.363.007-.766a.623.623 0 0 0-1.183-.383c-.273.843-.168 1.563.297 2.028.295.296.694.445 1.162.445.269 0 .559-.049.867-.148.7-.227 1.44-.705 2.078-1.344.64-.638 1.116-1.377 1.344-2.078M583.717 236.284a.625.625 0 0 0 .208-.855.62.62 0 0 0-.854-.208 4.78 4.78 0 0 0-2.208 4.94.622.622 0 1 0 1.223-.23 3.526 3.526 0 0 1 1.63-3.647M589.603 236.817a4.764 4.764 0 0 0-2.548-2.04.623.623 0 0 0-.397 1.181 3.51 3.51 0 0 1 .702 6.328 3.505 3.505 0 0 1-3.88-.154.622.622 0 1 0-.727 1.01 4.758 4.758 0 0 0 5.252.208 4.761 4.761 0 0 0 1.598-6.533M605.453 231.702c.175 0 .351-.019.53-.058 1.028-.23 1.801-1.092 1.969-2.197a.623.623 0 0 0-1.231-.186c-.089.594-.486 1.052-1.01 1.168-.726.162-1.469-.379-1.654-1.205-.09-.411-.032-.828.166-1.172.188-.325.48-.547.82-.623.343-.077.7.001 1.008.216a.622.622 0 1 0 .714-1.019 2.49 2.49 0 0 0-1.992-.411 2.495 2.495 0 0 0-1.63 1.218 2.878 2.878 0 0 0-.3 2.061c.292 1.307 1.402 2.208 2.61 2.208M576.362 238.29a.622.622 0 1 0 .32 1.203c.17-.045.511.218.644.717.067.254.063.513-.012.711-.047.125-.118.212-.19.231a.622.622 0 0 0 .32 1.201c.466-.123.843-.485 1.034-.992.168-.442.184-.965.051-1.472-.305-1.139-1.256-1.842-2.167-1.599M599.576 228.749a.623.623 0 0 0 .881-.88 5.504 5.504 0 0 0-7.772 0 5.504 5.504 0 0 0 0 7.772 5.482 5.482 0 0 0 3.886 1.607 5.48 5.48 0 0 0 3.886-1.607.624.624 0 0 0-.88-.88 4.256 4.256 0 0 1-6.013 0 4.257 4.257 0 0 1 0-6.012 4.256 4.256 0 0 1 6.012 0M601.444 231.132a.622.622 0 0 0-.622.622c0 .254-.023.509-.067.757a.622.622 0 0 0 1.224.22c.059-.32.088-.65.088-.977a.622.622 0 0 0-.623-.622M590.34 250.825a.623.623 0 0 0 .768.98 1.847 1.847 0 0 1 2.59.315.623.623 0 0 0 .873.106.62.62 0 0 0 .106-.872 3.093 3.093 0 0 0-4.336-.53"/>
        </g>
        <g stroke="#000" stroke-width="2">
            <path d="M385 274c0-5.522-4.478-10-10-10-5.52 0-10 4.478-10 10s4.48 10 10 10c5.522 0 10-4.478 10-10z"/>
            <path d="M382.551 262.747c3.738-2.861 6.508-4.3 7.254-3.551 1.324 1.324-4.233 9.026-12.408 17.2-8.176 8.177-15.877 13.734-17.2 12.41-.739-.74.655-3.45 3.446-7.12"/>
        </g>
        <g transform="translate(288 190)">
            <mask id="h" fill="#fff">
                <use xlink:href="#g"/>
            </mask>
            <path fill="#000" d="M4.239 7.043A2.808 2.808 0 0 1 1.434 4.24a2.808 2.808 0 0 1 2.805-2.804A2.807 2.807 0 0 1 7.043 4.24a2.807 2.807 0 0 1-2.804 2.804m0-7.043A4.243 4.243 0 0 0 0 4.24a4.244 4.244 0 0 0 4.239 4.238A4.244 4.244 0 0 0 8.478 4.24 4.244 4.244 0 0 0 4.239 0" mask="url(#h)"/>
        </g>
    </g>
</svg>
