<svg xmlns="http://www.w3.org/2000/svg" xmlns:xlink="http://www.w3.org/1999/xlink" width="798" height="375" viewBox="0 0 798 375">
    <defs>
        <path id="a" d="M0 .144v5.378h15.552V.144H0z"/>
        <path id="c" d="M0 4.24v4.238h8.478V0H0v4.24z"/>
    </defs>
    <g fill="none" fill-rule="evenodd">
        <path fill="#000" d="M7.615 351.473v1.479c0 .447.293.767.778.767.498 0 .791-.32.791-.767v-1.479c0-.446-.293-.752-.791-.752-.485 0-.778.306-.778.752zm2.819-.038v1.557c0 1.122-.867 1.951-2.041 1.951-1.16 0-2.028-.829-2.028-1.951v-1.557c0-1.123.868-1.939 2.028-1.939 1.174 0 2.041.816 2.041 1.939zm-3.903-5.307h1.301l-3.865 8.675H2.678l3.853-8.675zm-5.281 1.85v1.479c0 .447.294.766.791.766.497 0 .791-.319.791-.766v-1.479c0-.447-.294-.765-.791-.765-.497 0-.791.318-.791.765zm2.831-.038v1.543c0 1.136-.866 1.952-2.04 1.952S0 350.619 0 349.483v-1.543c0-1.135.867-1.94 2.041-1.94s2.04.805 2.04 1.94z"/>
        <g transform="translate(337 11)">
            <mask id="b" fill="#fff">
                <use xlink:href="#a"/>
            </mask>
            <path fill="#000" d="M7.189 5.522l-.013-.521c-.028-1.162-.867-1.385-1.683-1.365l-2.776.067C.6 3.755.06 2.97.02 1.356L0 .523 1.406.488l.012.47c.019.797.324 1.206 1.382 1.181l3.019-.075C6.929 2.038 7.6 2.49 7.847 3.3c.205-.821.853-1.306 1.963-1.332l2.968-.072c1.093-.028 1.377-.452 1.358-1.249l-.011-.469L15.53.144l.019.798c.04 1.648-.461 2.459-2.631 2.513l-2.707.066c-.815.02-1.658.283-1.63 1.446l.013.52-1.406.035z" mask="url(#b)"/>
        </g>
        <path fill="#000" d="M100 260.801h2.705V258h1.809v2.801h2.737v1.696h-2.737v2.802h-1.809v-2.802H100zM792.593 83.406V80h1.343v3.406l2.937-1.718.687 1.187-2.967 1.718 2.967 1.656-.687 1.187-2.937-1.687v3.343h-1.343V85.78l-2.906 1.656L789 86.28l2.905-1.687L789 82.906l.655-1.187zM608 1.746C608 .737 608.764 0 609.827 0c1.064 0 1.827.737 1.827 1.746 0 .995-.763 1.745-1.827 1.745-1.063 0-1.827-.75-1.827-1.745M113.762 350.426l1.433-.827 1.653 2.865-1.432.827z"/>
        <path fill="#000" d="M111.42 354.642l11.576 20.058 8.597-4.962-11.577-20.057-8.595 4.96zm2.26.605l5.73-3.307 9.922 17.193-5.73 3.307-9.923-17.193z"/>
        <path fill="#000" d="M120.197 368.198l7.165-4.135.826 1.433-7.164 4.134zM117.51 363.541l7.165-4.134.827 1.432-7.165 4.134zM114.823 358.884l7.164-4.133.827 1.433-7.164 4.133zM105.907 336.814l1.432-.826 1.654 2.865-1.433.826z"/>
        <path fill="#000" d="M99.759 314.578l-8.596 4.961 11.576 20.059 8.595-4.961-11.575-20.059zm-6.337 5.567l5.731-3.307 9.922 17.193-5.732 3.307-9.92-17.193z"/>
        <path fill="#000" d="M94.566 323.783l7.164-4.135.827 1.433-7.164 4.134zM97.253 328.439l7.164-4.134.827 1.432-7.164 4.135zM99.94 333.096l7.165-4.135.826 1.433-7.164 4.134z"/>
        <path fill="#FFF" d="M100.707 357.004l3.365-1.941-5.375-9.313-3.365 1.941z"/>
        <path fill="#000" d="M98.394 346.88l-1.932 1.115 4.548 7.88 1.932-1.115-4.548-7.88zm-4.191.508L99 344.62l6.2 10.745-4.798 2.77-6.2-10.747z"/>
        <path fill="#FFF" d="M103.712 354.44l1.91-1.103-4.655-8.066-1.91 1.102z"/>
        <path fill="#000" d="M100.664 346.4l-.477.276 3.827 6.633.478-.275-3.828-6.633zm-2.737-.33l3.344-1.929 5.48 9.499-3.342 1.928-5.482-9.498z"/>
        <path fill="#FFF" d="M122.594 344.498l2.627-1.516-5.483-9.5-2.625 1.516z"/>
        <path fill="#000" d="M119.436 334.612l-1.195.69 4.655 8.066 1.194-.69-4.654-8.066zm-3.454.084l4.06-2.343 6.308 10.931-4.059 2.343-6.31-10.931z"/>
        <path fill="#FFF" d="M106.395 354.677l16.559-9.556-6.201-10.746-16.559 9.556z"/>
        <path fill="#000" d="M116.449 335.505l-15.126 8.73 5.375 9.312 15.125-8.729-5.374-9.313zm-17.385 8.123l17.991-10.382 7.028 12.178-17.991 10.382-7.028-12.178z"/>
        <path fill="#FFF" d="M132.241 333.554l-.827-1.433-2.042 1.179.827 1.432z"/>
        <path fill="#000" d="M122.893 338.948l2.262-1.305-.827-1.432-2.261 1.305z"/>
        <path fill="#FFF" d="M132.572 339.092a5.79 5.79 0 1 1-5.788-10.029l5.788 10.03z"/>
        <path fill="#000" d="M131.407 338.73l-4.891-8.478a4.971 4.971 0 0 0-1.136 6.307c1.227 2.125 3.8 3 6.027 2.17m-5.036-10.382l.717-.413 6.614 11.461-.716.413a6.623 6.623 0 0 1-9.038-2.423 6.623 6.623 0 0 1 2.423-9.038M112.456 346.882l5.014-2.894.827 1.433-5.015 2.894zM109.148 341.15l5.015-2.893.828 1.433-5.016 2.894zM110.802 344.016l5.014-2.894.828 1.433-5.016 2.894z"/>
        <path stroke="#FF0" d="M131.274 323.009c6.123 1.956 9.5 8.506 7.544 14.63M132.162 317.022c10.05 3.211 15.594 13.961 12.381 24.01"/>
        <g transform="translate(126 35)">
            <mask id="d" fill="#fff">
                <use xlink:href="#c"/>
            </mask>
            <path fill="#000" d="M4.239 7.043A2.808 2.808 0 0 1 1.434 4.24a2.808 2.808 0 0 1 2.805-2.804A2.807 2.807 0 0 1 7.043 4.24a2.807 2.807 0 0 1-2.804 2.804m0-7.043A4.243 4.243 0 0 0 0 4.24a4.244 4.244 0 0 0 4.239 4.238A4.244 4.244 0 0 0 8.478 4.24 4.244 4.244 0 0 0 4.239 0" mask="url(#d)"/>
        </g>
        <g>
            <path fill="#FFFF52" d="M211.638 43.075a7.987 7.987 0 1 1 15.974 0 7.987 7.987 0 0 1-15.974 0"/>
            <path stroke="#000" stroke-width="2" d="M228 42c0-5.522-4.478-10-10-10-5.52 0-10 4.478-10 10s4.48 10 10 10c5.522 0 10-4.478 10-10z"/>
            <path stroke="#000" stroke-width="2" d="M225.551 30.747c3.738-2.861 6.508-4.3 7.254-3.551 1.324 1.324-4.233 9.026-12.408 17.2-8.176 8.177-15.877 13.734-17.2 12.41-.739-.74.655-3.45 3.446-7.12"/>
        </g>
        <g>
            <path fill="#5896EC" d="M731.451 70.568a5.914 5.914 0 1 1-1.928-11.669 5.914 5.914 0 0 1 1.928 11.669"/>
            <path stroke="#000" stroke-width="2.223" d="M736.16 58.843a7.317 7.317 0 1 1-11.91 8.504 7.317 7.317 0 0 1 5.572-11.56M736.16 58.843l-16.098-22.544M724.25 67.347l-19.545-27.373M726.683 56.619l-5.945-8.326M718.793 45.569L715 40.257M718.166 33.643l-9.137-12.796M717.515 32.73l-8.485-11.882M702.637 37.077l-4.147-5.808M696.421 28.372l-5.517-7.726"/>
        </g>
    </g>
</svg>
