<svg xmlns="http://www.w3.org/2000/svg" xmlns:xlink="http://www.w3.org/1999/xlink" width="231" height="59" viewBox="0 0 231 59">
    <defs>
        <path id="a" d="M0 .409v52.586h197.439V.409H0z"/>
        <path id="c" d="M9.11 9H.592V.482H9.11V9z"/>
        <path id="e" d="M17.538.561H.242v17.295h17.296V.56z"/>
    </defs>
    <g fill="none" fill-rule="evenodd">
        <g transform="translate(0 5.439)">
            <mask id="b" fill="#fff">
                <use xlink:href="#a"/>
            </mask>
            <path fill="#FFFF52" d="M147.694 34.158c0-5.696 4.634-10.33 10.33-10.33 1.214 0 2.399.21 3.512.612l-12.872 14.086a10.267 10.267 0 0 1-.97-4.368zm-89.442 10.33c-5.696 0-10.33-4.634-10.33-10.33s4.634-10.33 10.33-10.33c5.695 0 10.33 4.634 10.33 10.33s-4.635 10.33-10.33 10.33zM187.11.408h-8.507v26.157L165.37 41.419a10.235 10.235 0 0 1-7.347 3.069c-1.008 0-1.983-.145-2.905-.415l18.908-20.69-3.021-2.873a18.752 18.752 0 0 0-12.982-5.19c-5.686 0-10.78 2.544-14.236 6.54l-.057-.051-3.071 3.372c-2.232-5.76-7.817-9.86-14.354-9.86-4.19 0-8.253 1.739-11.145 4.77l.716.736-.755-.688-4.595 5.046c-2.231-5.761-7.817-9.864-14.356-9.864-4.25 0-8.208 1.694-11.145 4.77l.722.742-.762-.694-8.508 9.344C74.39 21.355 67.023 15.32 58.252 15.32c-5.75 0-10.897 2.596-14.355 6.67l-.011-.011-2.484 2.728.007.006L28.136 39.29l-.007-.007-1.922 2.11h.002a10.237 10.237 0 0 1-7.372 3.095c-5.696 0-10.33-4.634-10.33-10.33s4.634-10.33 10.33-10.33a10.381 10.381 0 0 1 9.485 6.232l6.008-6.596c-3.482-5.022-9.276-8.143-15.493-8.143C8.45 15.32 0 23.77 0 34.158s8.45 18.837 18.837 18.837c5.198 0 10.039-2.072 13.629-5.835l-.591-.606.622.566 7.533-8.272c2.093 8.12 9.457 14.147 18.222 14.147 5.522 0 10.482-2.403 13.93-6.202l.02.019 19.075-20.945-.001-.001a6.839 6.839 0 0 1 4.895-2.038c3.803 0 6.897 3.094 6.897 6.896v2.652L85.685 52.464H97.19l24.22-26.597v-.001a6.835 6.835 0 0 1 4.895-2.038 6.904 6.904 0 0 1 6.896 6.896v2.647l-17.387 19.093h11.51l5.054-5.547-.004-.003 7.409-8.136c2.068 8.156 9.45 14.217 18.24 14.217 5.198 0 10.039-2.072 13.629-5.835l-1.023-1.041 1.086.967 7.465-8.38c2.043 8.193 9.442 14.289 18.258 14.289v-8.507c-5.696 0-10.33-4.634-10.33-10.33V23.484h10.33v-8.507h-10.33V.409z" mask="url(#b)"/>
        </g>
        <g transform="translate(201 49.439)">
            <mask id="d" fill="#fff">
                <use xlink:href="#c"/>
            </mask>
            <path fill="#FFFF52" d="M4.85.482a4.26 4.26 0 1 0 .001 8.519 4.26 4.26 0 0 0 0-8.519" mask="url(#d)"/>
        </g>
        <path fill="#FFFF52" d="M221.573 14.553a12.445 12.445 0 0 0-2.816-.32c-.96 0-1.903.108-2.816.32a12.526 12.526 0 0 0 0-5.609c.913.213 1.856.321 2.816.321.96 0 1.902-.108 2.816-.32a12.526 12.526 0 0 0 0 5.608zm4.885 2.576a8.95 8.95 0 0 1 0-10.762l.628-.834c.828-1.1-.095-2.432-1.206-2.432-.299 0-.612.096-.908.32l-.834.627a8.935 8.935 0 0 1-5.38 1.798 8.935 8.935 0 0 1-5.382-1.798l-.835-.628a1.493 1.493 0 0 0-.907-.319c-1.112 0-2.034 1.331-1.206 2.432l.628.834a8.95 8.95 0 0 1 0 10.762l-.628.835c-.829 1.101.094 2.432 1.206 2.432.3 0 .611-.096.907-.319l.835-.628a8.935 8.935 0 0 1 5.381-1.798c1.894 0 3.788.6 5.381 1.798l.834.628c.296.223.61.32.908.32 1.111 0 2.034-1.332 1.206-2.433l-.628-.835z"/>
        <path fill="#05131E" d="M150.827 37.495c0-5.696 4.634-10.33 10.33-10.33 1.214 0 2.399.21 3.513.612l-12.873 14.086a10.267 10.267 0 0 1-.97-4.368zM61.385 47.826c-5.696 0-10.33-4.635-10.33-10.33 0-5.697 4.634-10.33 10.33-10.33s10.33 4.633 10.33 10.33c0 5.695-4.634 10.33-10.33 10.33zm128.858-44.08h-8.507v26.156l-13.232 14.855a10.239 10.239 0 0 1-7.347 3.07c-1.008 0-1.983-.147-2.905-.417l18.908-20.689-3.021-2.874a18.751 18.751 0 0 0-12.982-5.188c-5.686 0-10.78 2.543-14.236 6.538l-.057-.05-3.071 3.371c-2.232-5.758-7.817-9.859-14.354-9.859-4.19 0-8.253 1.738-11.145 4.77l.716.735-.755-.687-4.595 5.045c-2.231-5.76-7.817-9.863-14.356-9.863-4.25 0-8.208 1.694-11.145 4.77l.722.741-.762-.693-8.508 9.343c-2.088-8.128-9.455-14.16-18.226-14.16-5.75 0-10.897 2.594-14.355 6.668l-.011-.01-2.484 2.727.007.007-13.273 14.575-.007-.007-1.922 2.11.002.001a10.238 10.238 0 0 1-7.372 3.095c-5.696 0-10.33-4.635-10.33-10.33 0-5.697 4.634-10.33 10.33-10.33a10.383 10.383 0 0 1 9.485 6.231l6.008-6.596C33.98 21.78 28.187 18.66 21.97 18.66c-10.387 0-18.837 8.45-18.837 18.836 0 10.387 8.45 18.837 18.837 18.837 5.198 0 10.039-2.072 13.629-5.835l-.591-.606.622.566 7.533-8.27c2.093 8.12 9.457 14.145 18.222 14.145 5.522 0 10.482-2.403 13.93-6.202l.02.02L94.41 29.203h-.001a6.839 6.839 0 0 1 4.895-2.039 6.905 6.905 0 0 1 6.897 6.897v2.651L88.818 55.801h11.506l24.22-26.597a6.835 6.835 0 0 1 4.895-2.039 6.904 6.904 0 0 1 6.896 6.897v2.646l-17.387 19.093h11.51l5.054-5.547-.004-.003 7.409-8.136c2.068 8.156 9.45 14.217 18.24 14.217 5.198 0 10.039-2.072 13.629-5.835l-1.023-1.04 1.086.966 7.465-8.38c2.043 8.193 9.442 14.29 18.258 14.29v-8.507c-5.696 0-10.33-4.635-10.33-10.33V26.82h10.33v-8.507h-10.33V3.746zM208.983 47.82a4.26 4.26 0 1 0 0 8.518 4.26 4.26 0 0 0 0-8.518"/>
        <g transform="translate(213 .439)">
            <mask id="f" fill="#fff">
                <use xlink:href="#e"/>
            </mask>
            <path fill="#05131E" d="M11.706 12.013a12.445 12.445 0 0 0-2.816-.321c-.96 0-1.903.109-2.816.32a12.521 12.521 0 0 0 0-5.607c.914.212 1.856.32 2.816.32.96 0 1.902-.108 2.816-.32a12.521 12.521 0 0 0 0 5.608zm4.885 2.577a8.95 8.95 0 0 1 0-10.762l.628-.835C18.047 1.892 17.124.56 16.013.56c-.299 0-.612.096-.908.319l-.834.628a8.935 8.935 0 0 1-5.38 1.798 8.935 8.935 0 0 1-5.382-1.798L2.674.88a1.493 1.493 0 0 0-.907-.32C.655.56-.267 1.893.561 2.994l.628.835a8.95 8.95 0 0 1 0 10.762l-.628.835c-.829 1.1.094 2.43 1.206 2.43.3 0 .611-.095.907-.318l.835-.628A8.941 8.941 0 0 1 8.89 15.11c1.894 0 3.788.6 5.381 1.798l.834.628c.296.223.61.319.908.319 1.111 0 2.034-1.331 1.206-2.431l-.628-.835z" mask="url(#f)"/>
        </g>
    </g>
</svg>
