<svg xmlns="http://www.w3.org/2000/svg" xmlns:xlink="http://www.w3.org/1999/xlink" width="393" height="334" viewBox="0 0 393 334">
    <defs>
        <path id="a" d="M0 .144v5.378h15.552V.144H0z"/>
        <path id="c" d="M0 4.24v4.238h8.478V0H0v4.24z"/>
    </defs>
    <g fill="none" fill-rule="evenodd">
        <path fill="#FFFF52" d="M175.187 157.619h24.329v-7.292h-24.329z"/>
        <path fill="#83B1F0" d="M149.162 52.86l-10.49 4.86-.359 21.711 17.37 2.738 14.044-4.847 1.054-1.242-5.73 2.856-.006-15.219 5.404-.005-.184-5.823-12.72-6.866-5.002 4.086z"/>
        <path fill="#FFD6BD" d="M151.977 29.661l-4.091 3.621v16.816l3.157 4.152 6.501-4.152 3.673-7.805V31.27l-6.665-2.816z"/>
        <path fill="#8CCFAD" d="M214.131 52.292l-9.215 5.428-.357 21.711 17.37 2.737 14.043-4.846 1.055-1.242-.596-20.972-12.643-5.01-5 5.01z"/>
        <path fill="#FFD6BD" d="M218.222 29.661l-4.09 3.621v16.816l3.156 4.152 6.5-4.152 3.673-7.805V31.27l-6.665-2.816z"/>
        <path stroke="#000" stroke-width="2" d="M212.987 49.24l5.452 5.01 5.568-5.01"/>
        <path stroke="#000" stroke-width="2" d="M200.15 76.08V57.038c0-1.555.98-2.941 2.446-3.461l10.39-4.336v-3.674l-3.73-4.132v-8.116c0-1.066.464-2.08 1.27-2.777l3.398-2.942a3.672 3.672 0 0 1 2.405-.896h4.232a3.67 3.67 0 0 1 2.39.884l3.445 2.953a3.672 3.672 0 0 1 1.283 2.789v8.105l-3.673 4.132v3.674l8.449 4.332c1.46.522 4.272 1.907 4.272 3.459V76.08M146.525 50.098l5.452 5.01 5.568-5.01"/>
        <path stroke="#000" stroke-width="2" d="M133.689 76.08V57.896c0-1.555.979-2.942 2.445-3.462l10.39-4.336v-3.673l-3.73-4.132v-8.116a3.67 3.67 0 0 1 1.27-2.777l3.398-2.943a3.677 3.677 0 0 1 2.404-.896h4.232c.877 0 1.726.314 2.39.885l3.446 2.953a3.672 3.672 0 0 1 1.283 2.789v8.105l-3.673 4.132v3.673l8.449 4.333c1.46.522 4.272 1.906 4.272 3.459v5.618"/>
        <path stroke="#000" stroke-width="2" d="M191.86 27.268l2.579-2.579c12.994-12.994 34.147-12.908 47.246.191 13.1 13.1 13.186 34.253.192 47.247-12.995 12.994-34.148 12.91-47.247-.19a33.57 33.57 0 0 1-9.877-23.3l-.011-.053c-.086-8.48-3.391-16.855-9.888-23.352-13.1-13.1-34.088-13.02-47.082-.026s-13.073 33.982.026 47.082c13.1 13.1 34.253 13.185 47.248.19l3.58-3.58"/>
        <path stroke="#000" stroke-width="2" d="M168.199 68.86h10.389v10.39M191.898 16.917v10.389h10.389M171.293 135.456h6.237v-9.355h-6.237zM182.21 126.1h4.678v10.916M151.011 135.456h6.236v-9.355h-6.236zM160.367 126.1h4.679v10.916M193.136 135.456h6.237v-9.355h-6.237zM205.618 135.456h6.237v-9.355h-6.237zM161.932 119.854h6.237v-9.355h-6.237zM172.848 110.498h4.68v10.916M141.65 119.854h6.236v-9.355h-6.236zM151.005 110.498h4.68v10.916M183.775 119.854h6.237v-9.355h-6.237zM196.256 119.854h6.237v-9.355h-6.237zM207.172 110.498h4.68v10.916M218.099 119.854h6.237v-9.355h-6.237zM180.655 104.252h6.237v-9.355h-6.237zM191.57 94.896h4.68v10.916M160.372 104.252h6.237v-9.355h-6.237zM169.728 94.896h4.679v10.916M200.932 94.896h4.68v10.916M211.859 104.252h6.237v-9.355h-6.237zM149.445 94.896h4.679v10.916M135.24 214.553v-1.837l1.313-1.284"/>
        <path stroke="#000" stroke-dasharray="3.865,3.865" stroke-width="2" d="M139.315 208.73l42.817-41.89"/>
        <path stroke="#000" stroke-width="2" d="M183.513 165.488l1.313-1.284 1.313 1.284"/>
        <path stroke="#000" stroke-dasharray="3.864,3.864" stroke-width="2" d="M188.9 168.19l42.816 41.89"/>
        <path stroke="#000" stroke-width="2" d="M233.097 211.432l1.313 1.284v1.837M170.132 157.619h29.384V146.6h-29.384z"/>
        <path stroke="#000" stroke-dasharray="3.673" stroke-width="2" d="M184.824 216.038v-43.42"/>
        <g>
            <path fill="#FF9274" d="M181.974 286.592l-14.735 6.487s8.448 8.29 16.945 8.29c8.498 0 19.006-9.504 19.006-9.504l-13.545-8.626-5.412 4.872-2.26-1.519z"/>
            <path fill="#FFD6BD" d="M184.352 261.327l-4.755 5.518v8.584l2.377 1.953v9.21l2.259 1.519 5.828-5.956-.416-2.487 4.25-4.95-.711-9.421-4.564-3.11z"/>
            <path fill="#FFFF52" d="M142.096 279.157a3.728 3.728 0 1 1 7.458 0 3.729 3.729 0 1 1-7.458 0M231.404 295.7a3.729 3.729 0 1 1 7.458 0 3.729 3.729 0 0 1-7.458 0"/>
            <path stroke="#000" stroke-width="2" d="M139.319 269.562c-10.841-18.474-13.725-35.167-5.838-43.052M179.597 313.953c-5.73-4.308-11.481-9.29-17.058-14.863a164.801 164.801 0 0 1-11.3-12.497M235.139 328.14c-8.172 8.17-25.806 4.778-45.078-7.045M207.37 277.381c0 12.78-10.359 23.138-23.138 23.138-12.779 0-23.138-10.359-23.138-23.138 0-12.779 10.36-23.139 23.138-23.139 12.78 0 23.138 10.36 23.138 23.14zM189.403 233.939c19.526-12.158 37.468-15.725 45.73-7.458M151.415 267.847a165.11 165.11 0 0 1 11.14-12.307c5.496-5.497 11.162-10.418 16.81-14.685M133.505 328.14c-7.708-7.71-5.125-23.842 5.12-41.826"/>
            <path stroke="#000" stroke-width="2" d="M220.896 282.09c-4.297 5.709-9.26 11.437-14.812 16.99-28.064 28.073-60.558 41.084-72.58 29.06M235.134 226.48c8.144 8.146 4.8 25.693-6.932 44.894M237.817 304.137c3 10.368 2.351 18.976-2.679 24.003M133.48 226.51c12.023-12.02 44.528.987 72.6 29.05 9.759 9.758 17.699 20.05 23.398 29.83M239.613 294.272a5.357 5.357 0 1 1-10.714-.002 5.357 5.357 0 0 1 10.714.002zM178.932 283.24l5.3 4.871 5.413-4.872"/>
            <path stroke="#000" stroke-width="2" d="M165.305 289.762l13.627-6.523v-3.57l-3.627-4.019v-7.89a3.57 3.57 0 0 1 1.233-2.7l3.304-2.862a3.576 3.576 0 0 1 2.338-.872h4.115c.853 0 1.677.306 2.324.86l3.35 2.872a3.57 3.57 0 0 1 1.247 2.711v7.881l-3.571 4.018v3.571l13.754 6.821M150.453 277.309a5.357 5.357 0 1 1-10.714 0 5.357 5.357 0 0 1 10.714 0z"/>
        </g>
        <path fill="#000" d="M46.615 28.952c0 .447.293.766.778.766.498 0 .792-.319.792-.766v-1.479c0-.447-.294-.753-.792-.753-.485 0-.778.306-.778.753v1.479zm2.82.04c0 1.122-.868 1.95-2.042 1.95-1.16 0-2.028-.828-2.028-1.95v-1.557c0-1.123.868-1.939 2.028-1.939 1.174 0 2.042.816 2.042 1.939v1.557zm-3.904-6.865h1.301l-3.864 8.675h-1.29l3.853-8.675zm-5.28 3.33c0 .447.293.766.79.766.498 0 .791-.319.791-.766v-1.479c0-.447-.293-.766-.791-.766-.497 0-.79.319-.79.766v1.479zm2.831.026c0 1.136-.867 1.952-2.041 1.952-1.173 0-2.041-.816-2.041-1.952V23.94c0-1.136.868-1.94 2.041-1.94 1.174 0 2.041.804 2.041 1.94v1.543zM324 2.801h2.705V0h1.809v2.801h2.737v1.696h-2.737v2.802h-1.809V4.497H324zM54.18 182.98l1.913 1.913 1.98-1.98 1.28 1.279-1.98 1.98 1.935 1.936-1.2 1.2-1.935-1.936-1.981 1.981-1.28-1.28 1.982-1.98-1.913-1.913zM327.593 146.406V143h1.343v3.406l2.937-1.719.687 1.188-2.967 1.718 2.967 1.655-.687 1.187-2.937-1.686v3.343h-1.343v-3.312l-2.906 1.655-.687-1.155 2.905-1.687-2.905-1.687.655-1.188z"/>
        <g transform="translate(320 308)">
            <mask id="b" fill="#fff">
                <use xlink:href="#a"/>
            </mask>
            <path fill="#000" d="M7.189 5.522l-.013-.521c-.028-1.162-.867-1.385-1.683-1.365l-2.776.067C.6 3.755.06 2.97.02 1.356L0 .523 1.406.488l.012.47c.019.797.324 1.206 1.382 1.181l3.019-.075C6.929 2.038 7.6 2.49 7.847 3.3c.205-.821.853-1.306 1.963-1.332l2.968-.072c1.093-.028 1.377-.452 1.358-1.249l-.011-.469L15.53.144l.019.798c.04 1.648-.461 2.459-2.631 2.513l-2.707.066c-.815.02-1.658.283-1.63 1.446l.013.52-1.406.035z" mask="url(#b)"/>
        </g>
        <path fill="#000" d="M0 135.746C0 134.737.764 134 1.827 134c1.064 0 1.827.737 1.827 1.746 0 .995-.763 1.745-1.827 1.745-1.063 0-1.827-.75-1.827-1.745M389 239.746c0-1.009.764-1.746 1.827-1.746 1.064 0 1.827.737 1.827 1.746 0 .995-.763 1.745-1.827 1.745-1.063 0-1.827-.75-1.827-1.745"/>
        <g transform="translate(4 307)">
            <mask id="d" fill="#fff">
                <use xlink:href="#c"/>
            </mask>
            <path fill="#000" d="M4.239 7.043A2.808 2.808 0 0 1 1.434 4.24a2.808 2.808 0 0 1 2.805-2.804A2.807 2.807 0 0 1 7.043 4.24a2.807 2.807 0 0 1-2.804 2.804m0-7.043A4.243 4.243 0 0 0 0 4.24a4.244 4.244 0 0 0 4.239 4.238A4.244 4.244 0 0 0 8.478 4.24 4.244 4.244 0 0 0 4.239 0" mask="url(#d)"/>
        </g>
    </g>
</svg>
