<svg xmlns="http://www.w3.org/2000/svg" xmlns:xlink="http://www.w3.org/1999/xlink" width="1440" height="434" viewBox="0 0 1440 434">
    <defs>
        <path id="a" d="M.169.822v254.997h1440V.821H.169z"/>
        <path id="c" d="M1440.169 0v293.819H.169V0h1440z"/>
    </defs>
    <g fill="none" fill-rule="evenodd">
        <g transform="translate(0 177.18)">
            <mask id="b" fill="#fff">
                <use xlink:href="#a"/>
            </mask>
            <path fill="#FFF" d="M1758.67 201.16c0 110.645-432.98 200.34-967.086 200.34S-175.5 311.805-175.5 201.16C-175.5 90.517 257.48.822 791.584.822c534.106 0 967.085 89.695 967.085 200.34" mask="url(#b)"/>
        </g>
        <g transform="translate(0 139.18)">
            <mask id="d" fill="#fff">
                <use xlink:href="#c"/>
            </mask>
            <path stroke="#000" stroke-width="3" d="M1758.67 239.16c0 110.645-432.98 200.34-967.086 200.34S-175.5 349.805-175.5 239.16c0-110.644 432.98-200.338 967.085-200.338 534.106 0 967.085 89.694 967.085 200.339z" mask="url(#d)"/>
        </g>
        <g>
            <path fill="#FFF" d="M1294.402 272.74c-15.433-2.418-25.494-5.872-25.358-9.335.217-5.561 26.644-9.042 59.026-7.774 5.312.208 10.456.53 15.34.95 3.236.278 6.358.597 9.343.954 19.965 2.386 33.713 6.417 33.555 10.462-.218 5.56-26.645 9.04-59.026 7.773"/>
            <path stroke="#000" stroke-linecap="round" stroke-width="3" d="M1294.402 272.74c-15.433-2.418-25.494-5.872-25.358-9.335.217-5.561 26.644-9.042 59.026-7.774 5.312.208 10.456.53 15.34.95 3.236.278 6.358.597 9.343.954 19.965 2.386 33.713 6.417 33.555 10.462-.218 5.56-26.645 9.04-59.026 7.773"/>
            <path fill="#F1F1F1" d="M1166.93 44.139s-23.055-31.86-64.128-39.54-99.884-2.587-131.43 47.558l-7.852.597-24.959 21.527-8.607 98.793 28.832 54.909-26.174 27.699-.614 18.949-12.79-10.7-8.034 16.728 6.732 6.775-15.376 18.61 21.4 49.734-18.599-12.201a1.689 1.689 0 0 0-2.603 1.218l-.456 3.955c-.05.438.072.879.343 1.228l13.883 17.906c1.675 2.255-1.325 5.004-3.425 3.139l-7.614-6.758c-1.042-.924-2.688-.198-2.707 1.195l-.058 4.284a3.584 3.584 0 0 0 .447 1.784l23.371 42.32c.617 1.118-.817 2.232-1.748 1.358l-15.916-14.953c-2.522-2.37-6.6-.094-5.899 3.296 2.762 13.375 5.541 28.6 6.18 28.6h330.915l12.6-39.54-2.604-91.272 3.302-1.747s-11.107-18.232-17.36-19.367l7.463-3.87-23.668-24.664-28.396-23.706 22.37-54.874v-95.74l-24.743-30.467h-18.422l-3.656-2.763z"/>
            <path stroke="#000" stroke-linecap="round" stroke-linejoin="round" stroke-width="2.27" d="M966.373 74.28c0-40.165 47.456-72.726 105.995-72.726s105.994 32.561 105.994 72.726"/>
            <path stroke="#000" stroke-linecap="round" stroke-linejoin="round" stroke-width="2.27" d="M963.52 105.236c0-40.166 48.503-72.727 108.333-72.727 59.831 0 108.333 32.56 108.333 72.727"/>
            <path stroke="#000" stroke-linecap="round" stroke-linejoin="round" stroke-width="2.27" d="M963.52 119.628c0-40.166 48.503-72.726 108.333-72.726 59.831 0 108.333 32.56 108.333 72.726M1198.05 174.01c0 40.166-56.27 72.727-125.683 72.727-69.413 0-125.682-32.561-125.682-72.726"/>
            <path fill="#000" d="M1091.353 227.809h-39.227c-46.935 0-84.985-38.05-84.985-84.986 0-46.937 38.05-84.986 84.985-84.986h39.227c46.937 0 84.986 38.049 84.986 84.986 0 46.936-38.049 84.986-84.986 84.986"/>
            <path stroke="#000" stroke-linecap="round" stroke-linejoin="round" stroke-width="2.27" d="M938.561 128.319h24.959V89.59h-24.959zM938.561 158.012h24.959v-29.693h-24.959zM938.561 89.59l6.455-6.325h23.119"/>
            <path stroke="#000" stroke-linecap="round" stroke-linejoin="round" stroke-width="2.27" d="M966.373 74.28h-36.418v98.793l23.668 58.095M929.955 74.28l29.263-32.888h18.59"/>
            <path stroke="#000" stroke-linecap="round" stroke-linejoin="round" stroke-width="2.27" d="M952.326 227.983s-38.293 29.865-52.063 47.51c0 0 30.983 18.073 46.475 40.02M938.561 267.746l24.959 63.689"/>
            <path stroke="#000" stroke-linecap="round" stroke-linejoin="round" stroke-width="2.27" d="M907.724 280.223s-12.626 6.458-17.359 19.367c0 0 34.944 14.632 63.516 53.792"/>
            <path stroke="#000" stroke-linecap="round" stroke-linejoin="round" stroke-width="2.27" d="M893.672 301.147l-3.16 88.586 6.307 32.932M900.262 320.676l38.3 38.73M919.412 301.147s22.593 22.542 25.175 30.288M917.906 271.748l12.049 13.21M977.81 315.512l-11.438 40.266-5.003 20.841v46.045M935.119 369.089s21.086 25.603 26.25 39.805M958.787 112.397a7.746 7.746 0 1 1-15.492 0 7.746 7.746 0 0 1 15.492 0z"/>
            <path stroke="#000" stroke-linecap="round" stroke-linejoin="round" stroke-width="2.27" d="M954.699 112.397a3.658 3.658 0 1 1-7.317 0 3.658 3.658 0 0 1 7.317 0zM958.787 143.531a7.746 7.746 0 1 1-15.492 0 7.746 7.746 0 0 1 15.492 0z"/>
            <path stroke="#000" stroke-linecap="round" stroke-linejoin="round" stroke-width="2.27" d="M954.699 143.531a3.658 3.658 0 1 1-7.317 0 3.658 3.658 0 0 1 7.317 0zM1009.996 241.496l-11.618 11.619 21.946 14.63 22.808-13.124 56.972.366 17.475 10.929 30.297-10.851-11.361-11.417M1043.131 254.62v20.01M1047.865 254.62v20.01M1034.956 282.1v-5.748h17.644v5.056M1137.804 307.336v-24.098l-107.583-.088.02 62.055h53.772v33.135h49.487v-53.79h21.517l10.881-9.038"/>
            <path stroke="#000" stroke-linecap="round" stroke-linejoin="round" stroke-width="2.27" d="M1137.804 289.262h24.31l4.45 28.592M1140.816 303.236h23.34M1137.804 299.59h-45.185M1030.924 297.91h33.146"/>
            <path fill="#FFF" d="M1069.596 292.705l-5.526 2.582v44.754h20.803v-24.528l7.746-4.304v-18.504z"/>
            <path stroke="#000" stroke-linecap="round" stroke-linejoin="round" stroke-width="2.27" d="M1069.596 292.705l-5.526 2.582v44.754h20.803v-24.528l7.746-4.304v-18.504zM1064.07 303.236h8.298M1064.07 310.348h8.298M1064.07 317.461h8.298M1064.07 324.573h8.298"/>
            <path stroke="#000" stroke-linecap="round" stroke-linejoin="round" stroke-width="2.27" d="M1075.406 329.282v-31.373h12.479v8.997l-6.24 3.442M1092.62 378.34v41.743M1110.263 378.34v41.743M1137.804 324.55v-10.954"/>
            <path fill="#FFF" d="M1102.947 340.041h22.378v-33.996h-22.378z"/>
            <path stroke="#000" stroke-linecap="round" stroke-linejoin="round" stroke-width="2.27" d="M1102.947 340.041h22.378v-33.996h-22.378z"/>
            <path fill="#FFF" d="M1092.62 355.778h34.856v-7.13h-34.856z"/>
            <path stroke="#000" stroke-linecap="round" stroke-linejoin="round" stroke-width="2.27" d="M1092.62 355.778h34.856v-7.13h-34.856zM1025.223 357.266c0 10.182-8.352 18.437-18.654 18.437-10.303 0-18.655-8.255-18.655-18.437s8.352-18.437 18.655-18.437c10.302 0 18.654 8.255 18.654 18.437z"/>
            <path stroke="#000" stroke-linecap="round" stroke-linejoin="round" stroke-width="2.27" d="M1020.157 357.266c0 7.417-6.084 13.43-13.588 13.43-7.505 0-13.588-6.013-13.588-13.43s6.083-13.429 13.588-13.429c7.504 0 13.588 6.012 13.588 13.43z"/>
            <path fill="#FFF" d="M986.87 432.15l.109-16.745c0-36.577 14.643-47.019 21.1-49.845 3.059-1.339 5.332-4.146 5.586-7.474a8.076 8.076 0 0 0-.597-3.778c-1.802-4.305-6.97-5.987-11.247-4.12-13.76 6.005-28.182 28.02-28.182 65.217v16.744"/>
            <path stroke="#000" stroke-linecap="round" stroke-linejoin="round" stroke-width="2.27" d="M986.87 432.15l.109-16.745c0-36.577 14.643-47.019 21.1-49.845 3.059-1.339 5.332-4.146 5.586-7.474a8.076 8.076 0 0 0-.597-3.778c-1.802-4.305-6.97-5.987-11.247-4.12-13.76 6.005-28.182 28.02-28.182 65.217v16.744M1061.006 386.007c0 10.182-8.352 18.437-18.654 18.437-10.303 0-18.655-8.255-18.655-18.437s8.352-18.437 18.655-18.437c10.302 0 18.654 8.255 18.654 18.437z"/>
            <path stroke="#000" stroke-linecap="round" stroke-linejoin="round" stroke-width="2.27" d="M1055.94 386.007c0 7.417-6.084 13.429-13.588 13.429s-13.588-6.012-13.588-13.429c0-7.417 6.084-13.429 13.588-13.429s13.588 6.012 13.588 13.429z"/>
            <path fill="#FFF" d="M1023.351 432.113c2.796-26.933 14.826-35.325 20.512-37.813 3.057-1.338 5.331-4.146 5.585-7.474a8.078 8.078 0 0 0-.597-3.778c-1.802-4.305-6.97-5.986-11.246-4.12-12.209 5.33-24.94 23.261-27.655 53.22"/>
            <path stroke="#000" stroke-linecap="round" stroke-linejoin="round" stroke-width="2.27" d="M1023.351 432.113c2.796-26.933 14.826-35.325 20.512-37.813 3.057-1.338 5.331-4.146 5.585-7.474a8.078 8.078 0 0 0-.597-3.778c-1.802-4.305-6.97-5.986-11.246-4.12-12.209 5.33-24.94 23.261-27.655 53.22"/>
            <path fill="#FFF" d="M977.81 315.512l-14.182-157.5H951.04l17.644 190.033z"/>
            <path stroke="#000" stroke-linecap="round" stroke-linejoin="round" stroke-width="2.27" d="M977.81 315.512l-14.182-157.5H951.04l17.644 190.033zM966.373 355.778l21.542-24.343M1180.186 158.012h24.959v-29.693h-24.959zM1205.145 89.59l-6.455-6.325h-23.119"/>
            <path stroke="#000" stroke-linecap="round" stroke-linejoin="round" stroke-width="2.27" d="M1178.362 74.28h35.39v98.793l-23.668 58.095M1213.752 74.28l-29.262-32.888h-17.56"/>
            <path stroke="#000" stroke-linecap="round" stroke-linejoin="round" stroke-width="2.27" d="M1191.381 227.983s38.293 29.865 52.063 47.51c0 0-30.984 18.073-46.475 40.02M1205.145 267.746l-24.959 63.689"/>
            <path stroke="#000" stroke-linecap="round" stroke-linejoin="round" stroke-width="2.27" d="M1235.983 280.223s12.626 6.458 17.359 19.367c0 0-34.944 14.632-63.517 53.792"/>
            <path stroke="#000" stroke-linecap="round" stroke-linejoin="round" stroke-width="2.27" d="M1250.034 301.147l3.16 88.586-6.306 32.932M1243.445 320.676l-38.3 38.73M1224.295 301.147s-22.593 22.542-25.175 30.288M1225.801 271.748l-12.05 13.21M1165.898 315.512l11.436 40.266 5.003 20.841v46.045M1208.588 369.089s-21.087 25.603-26.25 39.805M1184.92 112.397a7.747 7.747 0 1 0 15.493-.001 7.747 7.747 0 0 0-15.494.001z"/>
            <path stroke="#000" stroke-linecap="round" stroke-linejoin="round" stroke-width="2.27" d="M1189.008 112.397a3.658 3.658 0 1 0 7.317 0 3.658 3.658 0 0 0-7.317 0zM1184.92 143.531a7.747 7.747 0 1 0 15.493 0 7.747 7.747 0 0 0-15.494 0z"/>
            <path stroke="#000" stroke-linecap="round" stroke-linejoin="round" stroke-width="2.27" d="M1189.008 143.531a3.658 3.658 0 1 0 7.317 0 3.658 3.658 0 0 0-7.317 0z"/>
            <path fill="#FFF" d="M1165.898 315.512l14.18-157.5h12.588l-17.644 190.033z"/>
            <path stroke="#000" stroke-linecap="round" stroke-linejoin="round" stroke-width="2.27" d="M1165.898 315.512l14.18-157.5h12.588l-17.644 190.033zM1177.333 355.778l-21.54-24.343M987.915 316.29l18.654-23.585M1118.522 316.29a4.386 4.386 0 1 1-8.773 0 4.386 4.386 0 0 1 8.773 0zM1115.6 329.282a1.464 1.464 0 1 1-2.929 0 1.464 1.464 0 0 1 2.928 0zM1101.394 348.648v7.13M1110.047 348.648v7.13M1118.702 348.648v7.13M1182.337 376.62l-20.225-14.715M1151.902 386.007l20.323 13.205M907.011 391.966l12.4 12.478M1243.445 378.34l-6.801 7.668M981.594 246.737l11.387 17.89M1165.898 241.496l-3.835 17.644M1178.362 359.406l11.463-26.414M980.84 289.262l-3.03 26.25M968.684 348.046l-14.803-16.611"/>
            <path fill="#FFF" d="M1096.576 139.658c0-3.995 3.25-7.246 7.245-7.246a7.24 7.24 0 0 1 2.464.43l-9.028 9.88a7.194 7.194 0 0 1-.681-3.064zm-62.736 7.246c-3.995 0-7.245-3.25-7.245-7.246 0-3.995 3.25-7.246 7.245-7.246s7.246 3.251 7.246 7.246c0 3.996-3.251 7.246-7.246 7.246zm90.382-30.917h-5.966v18.345l-9.282 10.42a7.175 7.175 0 0 1-5.153 2.152 7.21 7.21 0 0 1-2.037-.292l13.263-14.51-2.12-2.017a13.155 13.155 0 0 0-9.106-3.639c-3.987 0-7.56 1.783-9.985 4.586l-.04-.036-2.154 2.366c-1.565-4.039-5.483-6.916-10.068-6.916a10.853 10.853 0 0 0-7.817 3.346l.502.516-.53-.483-3.222 3.54c-1.566-4.04-5.484-6.919-10.07-6.919a10.712 10.712 0 0 0-7.817 3.346l.506.52-.534-.487-5.968 6.554c-1.464-5.7-6.632-9.933-12.784-9.933-4.033 0-7.644 1.82-10.07 4.678l-.007-.008-1.742 1.914.005.004-9.31 10.224-.005-.005-1.348 1.48v.001a7.181 7.181 0 0 1-5.17 2.17c-3.994 0-7.245-3.25-7.245-7.246 0-3.995 3.25-7.246 7.245-7.246a7.283 7.283 0 0 1 6.56 4.163c.025.053.059.13.094.21l4.214-4.628c-2.443-3.522-6.506-5.71-10.868-5.71-7.285 0-13.212 5.926-13.212 13.211 0 7.286 5.927 13.212 13.212 13.212a13.1 13.1 0 0 0 9.56-4.092l-.414-.425.436.397 5.283-5.802c1.469 5.696 6.634 9.922 12.782 9.922 3.874 0 7.352-1.685 9.77-4.349l.015.013 13.379-14.69a4.795 4.795 0 0 1 3.433-1.432 4.844 4.844 0 0 1 4.837 4.838v1.86l-12.192 13.388h8.07l16.988-18.655a4.794 4.794 0 0 1 3.434-1.43 4.844 4.844 0 0 1 4.837 4.837v1.856l-12.195 13.392h8.073l3.545-3.89-.003-.003 5.197-5.707c1.45 5.721 6.628 9.972 12.793 9.972a13.1 13.1 0 0 0 9.56-4.092l-.717-.73.762.678 5.235-5.878c1.434 5.747 6.623 10.022 12.807 10.022v-5.966a7.254 7.254 0 0 1-7.246-7.246v-7.487h7.246v-5.967h-7.246v-10.217zM1137.368 146.9a2.987 2.987 0 1 0 0 5.975 2.987 2.987 0 0 0 0-5.975M1148.396 122.092a8.721 8.721 0 0 0-1.976-.225c-.672 0-1.334.076-1.975.225a8.767 8.767 0 0 0 0-3.934 8.719 8.719 0 0 0 1.975.225c.673 0 1.335-.076 1.976-.225a8.767 8.767 0 0 0 0 3.934zm3.426 1.807a6.276 6.276 0 0 1 0-7.548l.44-.586c.581-.772-.065-1.705-.845-1.705-.209 0-.429.067-.637.223l-.585.441a6.267 6.267 0 0 1-3.775 1.261 6.268 6.268 0 0 1-3.774-1.26l-.585-.442a1.045 1.045 0 0 0-.637-.223c-.78 0-1.426.933-.845 1.705l.44.586a6.276 6.276 0 0 1 0 7.548l-.44.586c-.581.772.065 1.706.845 1.706.21 0 .429-.068.637-.224l.585-.44a6.27 6.27 0 0 1 3.774-1.262c1.329 0 2.658.421 3.775 1.262l.585.44c.208.156.427.224.637.224.78 0 1.426-.934.845-1.706l-.44-.586zM265.508 295.939c-13.13-3.231-20.759-7.313-20.945-11.99-.552-13.854 64.392-27.688 145.057-30.9 80.665-3.212 146.504 5.414 147.056 19.268.552 13.853-64.394 27.687-145.058 30.899"/>
            <path stroke="#000" stroke-linecap="round" stroke-width="3" d="M265.508 295.939c-13.13-3.231-20.759-7.313-20.945-11.99-.552-13.854 64.392-27.688 145.057-30.9 80.665-3.212 146.504 5.414 147.056 19.268.552 13.853-64.394 27.687-145.058 30.899"/>
            <path fill="#FFF" d="M283.99 299.423a247.48 247.48 0 0 1-7.284-1.163"/>
            <path stroke="#000" stroke-linecap="round" stroke-width="3" d="M283.99 299.423a247.48 247.48 0 0 1-7.284-1.163"/>
            <path fill="#FFF" d="M340.472 303.673c-13.087-.317-25.302-.981-36.336-1.951"/>
            <path stroke="#000" stroke-linecap="round" stroke-width="3" d="M340.472 303.673c-13.087-.317-25.302-.981-36.336-1.951"/>
            <path fill="#FFF" d="M629.899 234.594c-16.559-2.703-26.921-6.513-26.901-10.689.02-4.22 10.628-7.965 27.505-10.515"/>
            <path stroke="#000" stroke-linecap="round" stroke-width="3" d="M629.899 234.594c-16.559-2.703-26.921-6.513-26.901-10.689.02-4.22 10.628-7.965 27.505-10.515"/>
            <path fill="#FFF" d="M715.446 237.923c-8.995.525-18.714.79-28.853.742-14.961-.07-29.003-.81-41.151-2.05"/>
            <path stroke="#000" stroke-linecap="round" stroke-width="3" d="M715.446 237.923c-8.995.525-18.714.79-28.853.742-14.961-.07-29.003-.81-41.151-2.05"/>
            <path fill="#FFF" d="M767.21 220.765c2.035 1.252 3.12 2.568 3.113 3.923-.024 5.374-17.224 9.978-42.676 12.324"/>
            <path stroke="#000" stroke-linecap="round" stroke-width="3" d="M767.21 220.765c2.035 1.252 3.12 2.568 3.113 3.923-.024 5.374-17.224 9.978-42.676 12.324"/>
            <path fill="#FFF" d="M747.192 214.653c5.461 1.007 10.118 2.144 13.792 3.377"/>
            <path stroke="#000" stroke-linecap="round" stroke-width="3" d="M747.192 214.653c5.461 1.007 10.118 2.144 13.792 3.377"/>
            <path fill="#FFF" d="M648.232 211.356c11.526-.973 24.618-1.492 38.496-1.427a475.8 475.8 0 0 1 19.995.506"/>
            <path stroke="#000" stroke-linecap="round" stroke-width="3" d="M648.232 211.356c11.526-.973 24.618-1.492 38.496-1.427a475.8 475.8 0 0 1 19.995.506M630.503 319.072h17.728M775.841 267.746h33.82M809.66 284.96h3.469M840.878 271.748h1.733M846.08 213.39h5.204M356.14 228.889h7.804M169.702 267.746h10.406M189.646 311.904h4.336M510.06 337.563h4.335M512.227 218.03H523.5M575.529 255.681h27.469M613.964 271.748h-5.483M1327.675 303.673h19.62M1250.04 234.594h3.154M1292.507 355.778h7.303M1405.754 294.181h3"/>
        </g>
    </g>
</svg>
