<svg xmlns="http://www.w3.org/2000/svg" xmlns:xlink="http://www.w3.org/1999/xlink" width="396" height="287" viewBox="0 0 396 287">
    <defs>
        <path id="a" d="M8.353 15.786V.616h-7.7v15.17h7.7z"/>
        <path id="c" d="M.037.057h1.924v1.926H.037V.057z"/>
        <path id="e" d="M.473.057h1.923v1.926H.473V.057z"/>
        <path id="g" d="M.908.057H2.83v1.926H.908V.057z"/>
        <path id="i" d="M2.83 2.85H.909V.925H2.83z"/>
        <path id="k" d="M.394.057h1.923v1.926H.394V.057z"/>
        <path id="m" d="M2.317 2.85H.394V.925h1.923z"/>
        <path id="o" d="M2.752 2.85H.829V.925h1.923V2.85z"/>
        <path id="q" d="M0 2.535V.609h1.922v1.926H0z"/>
        <path id="s" d="M0 285.914h370.294V.95H0z"/>
    </defs>
    <g fill="none" fill-rule="evenodd">
        <path fill="#000" d="M392.615 21.473v1.479c0 .447.293.767.778.767.498 0 .791-.32.791-.767v-1.479c0-.446-.293-.752-.791-.752-.485 0-.778.306-.778.752zm2.819-.038v1.557c0 1.122-.867 1.951-2.041 1.951-1.16 0-2.028-.829-2.028-1.951v-1.557c0-1.123.868-1.939 2.028-1.939 1.174 0 2.041.816 2.041 1.939zm-3.903-5.307h1.301l-3.865 8.675h-1.289l3.853-8.675zm-5.281 1.85v1.479c0 .447.294.766.791.766.497 0 .791-.319.791-.766v-1.479c0-.447-.294-.765-.791-.765-.497 0-.791.318-.791.765zm2.831-.038v1.543c0 1.136-.866 1.952-2.04 1.952S385 20.619 385 19.483V17.94c0-1.135.867-1.94 2.041-1.94s2.04.805 2.04 1.94z"/>
        <g transform="translate(62 271)">
            <mask id="b" fill="#fff">
                <use xlink:href="#a"/>
            </mask>
            <path fill="#000" d="M.653 9l.49-.174c1.098-.386 1.049-1.254.777-2.023L.995 4.184C.289 2.188.868 1.431 2.39.894l.785-.278.469 1.326-.442.156c-.752.266-1.046.683-.694 1.68l1.007 2.847c.369 1.048.148 1.826-.546 2.312.844-.06 1.506.405 1.876 1.454l.99 2.797c.364 1.031.855 1.17 1.607.904l.442-.155.47 1.325-.754.266c-1.554.55-2.48.325-3.204-1.72l-.902-2.554c-.273-.77-.784-1.489-1.881-1.101l-.491.173-.47-1.325z" mask="url(#b)"/>
        </g>
        <g transform="matrix(-1 0 0 1 371 0)">
            <path fill="#FFD6BD" d="M368.929 124.346s-7.983-3.004-12.317-1.764c-4.334 1.24-26.316 14.57-26.316 14.57l-40.897.135.404-5.757 23.106-2.007 3.144-7.163s-37.675-.397-42.938 1.462c-5.263 1.86-25.308 21.919-25.308 21.919v12.695l16.91.404 66.743-11.515 37.469-22.979z"/>
            <path fill="#1A1A1A" d="M282.957 105.517a.945.945 0 0 0 .874.244c-.172-.61-.353-1.215-.533-1.822a.946.946 0 0 0-.341.216.963.963 0 0 0 0 1.362M284.316 117.02a.963.963 0 1 0 0 1.361.963.963 0 0 0 0-1.36M284.316 129.886a.963.963 0 1 0 0 1.361.963.963 0 0 0 0-1.36M284.316 142.752a.963.963 0 1 0 0 1.361.963.963 0 0 0 0-1.361M284.316 155.617a.963.963 0 1 0 0 1.361.963.963 0 0 0 0-1.361M284.316 168.482a.963.963 0 1 0 0 1.361.963.963 0 0 0 0-1.36M282.957 181.348a.963.963 0 0 0 1.36 1.361.963.963 0 0 0-1.36-1.361M271.468 78.424a.963.963 0 1 0 0 1.361.963.963 0 0 0 0-1.36M271.468 91.29a.963.963 0 1 0 0 1.361.963.963 0 0 0 0-1.36M271.468 104.156a.963.963 0 1 0 0 1.361.963.963 0 0 0 0-1.361M271.468 117.02a.963.963 0 1 0 0 1.361.963.963 0 0 0 0-1.36M271.468 129.886a.963.963 0 1 0 0 1.361.963.963 0 0 0 0-1.36M271.468 142.752a.963.963 0 1 0 0 1.361.963.963 0 0 0 0-1.361M271.468 155.617a.963.963 0 1 0 0 1.361.963.963 0 0 0 0-1.361M271.468 168.482a.963.963 0 1 0 0 1.361.963.963 0 0 0 0-1.36M271.468 181.348a.963.963 0 1 0 0 1.361.963.963 0 0 0 0-1.361M271.468 194.213a.963.963 0 1 0 0 1.361.963.963 0 0 0 0-1.36M270.108 207.079a.963.963 0 0 0 1.36 1.361.963.963 0 0 0-1.36-1.361M269.83 220.606c.143-.251.282-.506.424-.759-.048.034-.103.054-.146.097a.956.956 0 0 0-.278.662M257.259 54.055c.15.15.339.222.533.254-.264-.34-.532-.677-.799-1.013a.95.95 0 0 0 .266.759M258.618 65.559a.96.96 0 0 0-1.36 0 .965.965 0 0 0 0 1.361.963.963 0 0 0 1.36-1.361M258.618 78.424a.96.96 0 0 0-1.36 0 .965.965 0 0 0 0 1.362.963.963 0 0 0 1.36-1.361M258.618 91.29a.96.96 0 0 0-1.36 0 .962.962 0 1 0 1.36 0M258.618 104.156a.96.96 0 0 0-1.36 0 .962.962 0 1 0 1.36 0M258.618 117.02a.96.96 0 0 0-1.36 0 .962.962 0 1 0 1.36 0M258.618 129.886a.96.96 0 0 0-1.36 0 .962.962 0 1 0 1.36 0M258.618 142.752a.96.96 0 0 0-1.36 0 .962.962 0 1 0 1.36 0M258.618 155.617a.96.96 0 0 0-1.36 0 .962.962 0 1 0 1.36 0M258.618 168.482a.96.96 0 0 0-1.36 0 .962.962 0 1 0 1.36 0M258.618 181.348a.96.96 0 0 0-1.36 0 .965.965 0 0 0 0 1.361.963.963 0 0 0 1.36-1.361M258.618 194.213a.96.96 0 0 0-1.36 0 .965.965 0 0 0 0 1.362.963.963 0 0 0 1.36-1.361M258.618 207.079a.96.96 0 0 0-1.36 0 .965.965 0 0 0 0 1.361.963.963 0 0 0 1.36-1.361M258.618 219.944a.96.96 0 0 0-1.36 0 .965.965 0 0 0 0 1.361.963.963 0 0 0 1.36-1.361M257.259 232.81a.963.963 0 0 0 1.36 1.36.963.963 0 0 0-1.36-1.36M244.41 41.19a.96.96 0 0 0 1.566-.312c-.418-.42-.839-.836-1.262-1.252a.971.971 0 0 0-.304.202.963.963 0 0 0 0 1.362M245.77 52.693a.96.96 0 0 0-1.36 0 .965.965 0 0 0 0 1.362.963.963 0 0 0 1.36-1.361M245.77 65.559a.96.96 0 0 0-1.36 0 .965.965 0 0 0 0 1.361.963.963 0 0 0 1.36-1.361M245.77 78.424a.96.96 0 0 0-1.36 0 .965.965 0 0 0 0 1.362.963.963 0 0 0 1.36-1.361M245.77 91.29a.96.96 0 0 0-1.36 0 .962.962 0 1 0 1.36 0M245.77 104.156a.96.96 0 0 0-1.36 0 .962.962 0 1 0 1.36 0M245.77 117.02a.96.96 0 0 0-1.36 0 .962.962 0 1 0 1.36 0M245.77 129.886a.96.96 0 0 0-1.36 0 .962.962 0 1 0 1.36 0M245.77 142.752a.96.96 0 0 0-1.36 0 .962.962 0 1 0 1.36 0M245.77 155.617a.96.96 0 0 0-1.36 0 .962.962 0 1 0 1.36 0M245.77 168.482a.96.96 0 0 0-1.36 0 .962.962 0 1 0 1.36 0M245.77 181.348a.96.96 0 0 0-1.36 0 .965.965 0 0 0 0 1.361.963.963 0 0 0 1.36-1.361M245.77 194.213a.96.96 0 0 0-1.36 0 .965.965 0 0 0 0 1.362.963.963 0 0 0 1.36-1.361M245.77 207.079a.96.96 0 0 0-1.36 0 .965.965 0 0 0 0 1.361.963.963 0 0 0 1.36-1.361M245.77 219.944a.96.96 0 0 0-1.36 0 .965.965 0 0 0 0 1.361.963.963 0 0 0 1.36-1.361M245.77 232.81a.96.96 0 0 0-1.36 0 .965.965 0 0 0 0 1.36.963.963 0 0 0 1.36-1.361M244.41 245.675a.963.963 0 0 0 1.36 1.361.963.963 0 0 0-1.36-1.361M231.561 28.324a.952.952 0 0 0 .668.28c-.297-.235-.598-.46-.897-.693.043.15.11.294.23.413M232.92 39.828a.96.96 0 0 0-1.36 0 .965.965 0 0 0 0 1.362.963.963 0 0 0 1.36-1.361M232.92 52.693a.96.96 0 0 0-1.36 0 .965.965 0 0 0 0 1.362.963.963 0 0 0 1.36-1.361M232.92 65.559a.96.96 0 0 0-1.36 0 .965.965 0 0 0 0 1.361.963.963 0 0 0 1.36-1.361M232.92 78.424a.96.96 0 0 0-1.36 0 .965.965 0 0 0 0 1.362.963.963 0 0 0 1.36-1.361M232.92 91.29a.96.96 0 0 0-1.36 0 .962.962 0 1 0 1.36 0M232.92 104.156a.96.96 0 0 0-1.36 0 .962.962 0 1 0 1.36 0M232.92 117.02a.96.96 0 0 0-1.36 0 .962.962 0 1 0 1.36 0M232.92 129.886a.96.96 0 0 0-1.36 0 .962.962 0 1 0 1.36 0M232.92 142.752a.96.96 0 0 0-1.36 0 .962.962 0 1 0 1.36 0M232.92 155.617a.96.96 0 0 0-1.36 0 .962.962 0 1 0 1.36 0M232.92 168.482a.96.96 0 0 0-1.36 0 .962.962 0 1 0 1.36 0M232.92 181.348a.96.96 0 0 0-1.36 0 .965.965 0 0 0 0 1.361.963.963 0 0 0 1.36-1.361M232.92 194.213a.96.96 0 0 0-1.36 0 .965.965 0 0 0 0 1.362.963.963 0 0 0 1.36-1.361M232.92 207.079a.96.96 0 0 0-1.36 0 .965.965 0 0 0 0 1.361.963.963 0 0 0 1.36-1.361M232.92 219.944a.96.96 0 0 0-1.36 0 .965.965 0 0 0 0 1.361.963.963 0 0 0 1.36-1.361M232.92 232.81a.96.96 0 0 0-1.36 0 .965.965 0 0 0 0 1.36.963.963 0 0 0 1.36-1.361M232.92 245.675a.96.96 0 0 0-1.36 0 .965.965 0 0 0 0 1.361.963.963 0 0 0 1.36-1.361M231.561 258.54a.963.963 0 0 0 1.36 1.362.963.963 0 0 0-1.36-1.362M220.072 26.963a.96.96 0 0 0-1.36 0 .965.965 0 0 0 0 1.361.963.963 0 0 0 1.36-1.361M220.072 39.828a.96.96 0 0 0-1.36 0 .965.965 0 0 0 0 1.362.963.963 0 0 0 1.36-1.361M220.072 52.693a.96.96 0 0 0-1.36 0 .965.965 0 0 0 0 1.362.963.963 0 0 0 1.36-1.361M220.072 65.559a.96.96 0 0 0-1.36 0 .965.965 0 0 0 0 1.361.963.963 0 0 0 1.36-1.361M220.072 78.424a.96.96 0 0 0-1.36 0 .965.965 0 0 0 0 1.362.963.963 0 0 0 1.36-1.361M220.072 91.29a.96.96 0 0 0-1.36 0 .962.962 0 1 0 1.36 0M220.072 104.156a.96.96 0 0 0-1.36 0 .962.962 0 1 0 1.36 0M220.072 117.02a.96.96 0 0 0-1.36 0 .962.962 0 1 0 1.36 0M220.072 129.886a.96.96 0 0 0-1.36 0 .962.962 0 1 0 1.36 0M220.072 142.752a.96.96 0 0 0-1.36 0 .962.962 0 1 0 1.36 0M220.072 155.617a.96.96 0 0 0-1.36 0 .962.962 0 1 0 1.36 0M220.072 168.482a.96.96 0 0 0-1.36 0 .962.962 0 1 0 1.36 0M220.072 181.348a.96.96 0 0 0-1.36 0 .965.965 0 0 0 0 1.361.963.963 0 0 0 1.36-1.361M220.072 194.213a.96.96 0 0 0-1.36 0 .965.965 0 0 0 0 1.362.963.963 0 0 0 1.36-1.361M220.072 207.079a.96.96 0 0 0-1.36 0 .965.965 0 0 0 0 1.361.963.963 0 0 0 1.36-1.361M220.072 219.944a.96.96 0 0 0-1.36 0 .965.965 0 0 0 0 1.361.963.963 0 0 0 1.36-1.361M220.072 232.81a.96.96 0 0 0-1.36 0 .965.965 0 0 0 0 1.36.963.963 0 0 0 1.36-1.361M220.072 245.675a.96.96 0 0 0-1.36 0 .965.965 0 0 0 0 1.361.963.963 0 0 0 1.36-1.361M220.072 258.54a.96.96 0 0 0-1.36 0 .965.965 0 0 0 0 1.362.963.963 0 0 0 1.36-1.361M218.712 271.406a.963.963 0 0 0 1.36 1.361.963.963 0 0 0-1.36-1.361M207.223 14.097a.96.96 0 0 0-1.36 0 .965.965 0 0 0 0 1.362.963.963 0 0 0 1.36-1.361M207.223 26.963a.96.96 0 0 0-1.36 0 .965.965 0 0 0 0 1.361.963.963 0 0 0 1.36-1.361M207.223 39.828a.96.96 0 0 0-1.36 0 .965.965 0 0 0 0 1.362.963.963 0 0 0 1.36-1.361M207.223 52.693a.96.96 0 0 0-1.36 0 .965.965 0 0 0 0 1.362.963.963 0 0 0 1.36-1.361M207.223 65.559a.96.96 0 0 0-1.36 0 .965.965 0 0 0 0 1.361.963.963 0 0 0 1.36-1.361M207.223 78.424a.96.96 0 0 0-1.36 0 .965.965 0 0 0 0 1.362.963.963 0 0 0 1.36-1.361M207.223 91.29a.96.96 0 0 0-1.36 0 .962.962 0 1 0 1.36 0M207.223 104.156a.96.96 0 0 0-1.36 0 .962.962 0 1 0 1.36 0M207.223 117.02a.96.96 0 0 0-1.36 0 .962.962 0 1 0 1.36 0M207.223 129.886a.96.96 0 0 0-1.36 0 .962.962 0 1 0 1.36 0M207.223 142.752a.96.96 0 0 0-1.36 0 .962.962 0 1 0 1.36 0M207.223 155.617a.96.96 0 0 0-1.36 0 .962.962 0 1 0 1.36 0M207.223 168.482a.96.96 0 0 0-1.36 0 .962.962 0 1 0 1.36 0M207.223 181.348a.96.96 0 0 0-1.36 0 .965.965 0 0 0 0 1.361.963.963 0 0 0 1.36-1.361M207.223 194.213a.96.96 0 0 0-1.36 0 .965.965 0 0 0 0 1.362.963.963 0 0 0 1.36-1.361M207.223 207.079a.96.96 0 0 0-1.36 0 .965.965 0 0 0 0 1.361.963.963 0 0 0 1.36-1.361M207.223 219.944a.96.96 0 0 0-1.36 0 .965.965 0 0 0 0 1.361.963.963 0 0 0 1.36-1.361M207.223 232.81a.96.96 0 0 0-1.36 0 .965.965 0 0 0 0 1.36.963.963 0 0 0 1.36-1.361M207.223 245.675a.96.96 0 0 0-1.36 0 .965.965 0 0 0 0 1.361.963.963 0 0 0 1.36-1.361M207.223 258.54a.96.96 0 0 0-1.36 0 .965.965 0 0 0 0 1.362.963.963 0 0 0 1.36-1.361M205.864 271.406a.963.963 0 0 0 1.36 1.361.965.965 0 0 0 0-1.361.96.96 0 0 0-1.36 0M194.374 14.097a.96.96 0 0 0-1.36 0 .965.965 0 0 0 0 1.362.963.963 0 0 0 1.36-1.361M194.374 26.963a.96.96 0 0 0-1.36 0 .965.965 0 0 0 0 1.361.963.963 0 0 0 1.36-1.361M194.374 39.828a.96.96 0 0 0-1.36 0 .965.965 0 0 0 0 1.362.963.963 0 0 0 1.36-1.361M194.374 52.693a.96.96 0 0 0-1.36 0 .965.965 0 0 0 0 1.362.963.963 0 0 0 1.36-1.361M194.374 65.559a.96.96 0 0 0-1.36 0 .965.965 0 0 0 0 1.361.963.963 0 0 0 1.36-1.361M194.374 78.424a.96.96 0 0 0-1.36 0 .965.965 0 0 0 0 1.362.963.963 0 0 0 1.36-1.361M194.374 91.29a.96.96 0 0 0-1.36 0 .962.962 0 1 0 1.36 0M194.374 104.156a.96.96 0 0 0-1.36 0 .962.962 0 1 0 1.36 0M194.374 117.02a.96.96 0 0 0-1.36 0 .962.962 0 1 0 1.36 0M194.374 129.886a.96.96 0 0 0-1.36 0 .962.962 0 1 0 1.36 0M194.374 142.752a.96.96 0 0 0-1.36 0 .962.962 0 1 0 1.36 0M194.374 155.617a.96.96 0 0 0-1.36 0 .962.962 0 1 0 1.36 0M194.374 168.482a.96.96 0 0 0-1.36 0 .962.962 0 1 0 1.36 0M194.374 181.348a.96.96 0 0 0-1.36 0 .965.965 0 0 0 0 1.361.963.963 0 0 0 1.36-1.361M194.374 194.213a.96.96 0 0 0-1.36 0 .965.965 0 0 0 0 1.362.963.963 0 0 0 1.36-1.361M194.374 207.079a.96.96 0 0 0-1.36 0 .965.965 0 0 0 0 1.361.963.963 0 0 0 1.36-1.361M194.374 219.944a.96.96 0 0 0-1.36 0 .965.965 0 0 0 0 1.361.963.963 0 0 0 1.36-1.361M194.374 232.81a.96.96 0 0 0-1.36 0 .965.965 0 0 0 0 1.36.963.963 0 0 0 1.36-1.361M194.374 245.675a.96.96 0 0 0-1.36 0 .965.965 0 0 0 0 1.361.963.963 0 0 0 1.36-1.361M194.374 258.54a.96.96 0 0 0-1.36 0 .965.965 0 0 0 0 1.362.963.963 0 0 0 1.36-1.361M194.374 271.406a.96.96 0 0 0-1.36 0 .965.965 0 0 0 0 1.361.963.963 0 0 0 1.36-1.361M193.015 284.271a.963.963 0 0 0 1.36 1.362.965.965 0 0 0 0-1.362.96.96 0 0 0-1.36 0M180.166 2.593a.96.96 0 0 0 1.36 0c.023-.023.032-.054.052-.08-.555-.161-1.111-.32-1.67-.475a.94.94 0 0 0 .258.555M181.525 14.097a.96.96 0 0 0-1.36 0 .965.965 0 0 0 0 1.362.963.963 0 0 0 1.36-1.361M181.525 26.963a.96.96 0 0 0-1.36 0 .965.965 0 0 0 0 1.361.963.963 0 0 0 1.36-1.361M181.525 39.828a.96.96 0 0 0-1.36 0 .965.965 0 0 0 0 1.362.963.963 0 0 0 1.36-1.361M181.525 52.693a.96.96 0 0 0-1.36 0 .965.965 0 0 0 0 1.362.963.963 0 0 0 1.36-1.361M181.525 65.559a.96.96 0 0 0-1.36 0 .965.965 0 0 0 0 1.361.963.963 0 0 0 1.36-1.361M181.525 78.424a.96.96 0 0 0-1.36 0 .965.965 0 0 0 0 1.362.963.963 0 0 0 1.36-1.361M181.525 91.29a.96.96 0 0 0-1.36 0 .962.962 0 1 0 1.36 0M181.525 104.156a.96.96 0 0 0-1.36 0 .962.962 0 1 0 1.36 0M181.525 117.02a.96.96 0 0 0-1.36 0 .962.962 0 1 0 1.36 0M181.525 129.886a.96.96 0 0 0-1.36 0 .962.962 0 1 0 1.36 0M181.525 142.752a.96.96 0 0 0-1.36 0 .962.962 0 1 0 1.36 0M181.525 155.617a.96.96 0 0 0-1.36 0 .962.962 0 1 0 1.36 0M181.525 168.482a.96.96 0 0 0-1.36 0 .962.962 0 1 0 1.36 0M181.525 181.348a.96.96 0 0 0-1.36 0 .965.965 0 0 0 0 1.361.963.963 0 0 0 1.36-1.361M181.525 194.213a.96.96 0 0 0-1.36 0 .965.965 0 0 0 0 1.362.963.963 0 0 0 1.36-1.361M181.525 207.079a.96.96 0 0 0-1.36 0 .965.965 0 0 0 0 1.361.963.963 0 0 0 1.36-1.361M181.525 219.944a.96.96 0 0 0-1.36 0 .965.965 0 0 0 0 1.361.963.963 0 0 0 1.36-1.361M181.525 232.81a.96.96 0 0 0-1.36 0 .965.965 0 0 0 0 1.36.963.963 0 0 0 1.36-1.361M181.525 245.675a.96.96 0 0 0-1.36 0 .965.965 0 0 0 0 1.361.963.963 0 0 0 1.36-1.361M181.525 258.54a.96.96 0 0 0-1.36 0 .965.965 0 0 0 0 1.362.963.963 0 0 0 1.36-1.361M181.525 271.406a.96.96 0 0 0-1.36 0 .965.965 0 0 0 0 1.361.963.963 0 0 0 1.36-1.361M180.166 284.271a.963.963 0 0 0 1.36 1.362.965.965 0 0 0 0-1.362.96.96 0 0 0-1.36 0"/>
            <g transform="translate(166.997 .893)">
                <mask id="d" fill="#fff">
                    <use xlink:href="#c"/>
                </mask>
                <path fill="#1A1A1A" d="M1.679.339a.963.963 0 1 0 0 1.361.963.963 0 0 0 0-1.361" mask="url(#d)"/>
            </g>
            <path fill="#1A1A1A" d="M168.676 14.097a.963.963 0 1 0 0 1.361.963.963 0 0 0 0-1.36M168.676 26.963a.963.963 0 1 0 0 1.361.963.963 0 0 0 0-1.361M168.676 39.828a.963.963 0 1 0 0 1.361.963.963 0 0 0 0-1.36M168.676 52.693a.963.963 0 1 0 0 1.361.963.963 0 0 0 0-1.36M168.676 65.559a.963.963 0 1 0 0 1.361.963.963 0 0 0 0-1.361M168.676 78.424a.963.963 0 1 0 0 1.361.963.963 0 0 0 0-1.36M168.676 91.29a.963.963 0 1 0 0 1.361.963.963 0 0 0 0-1.36M168.676 104.156a.963.963 0 1 0 0 1.361.963.963 0 0 0 0-1.361M168.676 117.02a.963.963 0 1 0 0 1.361.963.963 0 0 0 0-1.36M168.676 129.886a.963.963 0 1 0 0 1.361.963.963 0 0 0 0-1.36M168.676 142.752a.963.963 0 1 0 0 1.361.963.963 0 0 0 0-1.361M168.676 155.617a.963.963 0 1 0 0 1.361.963.963 0 0 0 0-1.361M168.676 168.482a.963.963 0 1 0 0 1.361.963.963 0 0 0 0-1.36M168.676 181.348a.963.963 0 1 0 0 1.361.963.963 0 0 0 0-1.361M168.676 194.213a.963.963 0 1 0 0 1.361.963.963 0 0 0 0-1.36M168.676 207.079a.963.963 0 1 0 0 1.361.963.963 0 0 0 0-1.361M168.676 219.944a.963.963 0 1 0 0 1.361.963.963 0 0 0 0-1.361M168.676 232.81a.963.963 0 1 0 0 1.361.963.963 0 0 0 0-1.362M168.676 245.675a.963.963 0 1 0 0 1.361.963.963 0 0 0 0-1.361M168.676 258.54a.963.963 0 1 0 0 1.361.963.963 0 0 0 0-1.36M168.676 271.406a.963.963 0 1 0 0 1.361.963.963 0 0 0 0-1.361M167.317 284.271a.963.963 0 0 0 1.36 1.362.965.965 0 0 0 0-1.362.96.96 0 0 0-1.36 0"/>
            <g transform="translate(153.714 .893)">
                <mask id="f" fill="#fff">
                    <use xlink:href="#e"/>
                </mask>
                <path fill="#1A1A1A" d="M2.114.339a.963.963 0 1 0 0 1.361.963.963 0 0 0 0-1.361" mask="url(#f)"/>
            </g>
            <path fill="#1A1A1A" d="M155.828 14.097a.963.963 0 1 0 0 1.361.963.963 0 0 0 0-1.36M155.828 26.963a.963.963 0 1 0 0 1.361.963.963 0 0 0 0-1.361M155.828 39.828a.963.963 0 1 0 0 1.361.963.963 0 0 0 0-1.36M155.828 52.693a.963.963 0 1 0 0 1.361.963.963 0 0 0 0-1.36M155.828 65.559a.963.963 0 1 0 0 1.361.963.963 0 0 0 0-1.361M155.828 78.424a.963.963 0 1 0 0 1.361.963.963 0 0 0 0-1.36M155.828 91.29a.963.963 0 1 0 0 1.361.963.963 0 0 0 0-1.36M155.828 104.156a.963.963 0 1 0 0 1.361.963.963 0 0 0 0-1.361M155.828 117.02a.963.963 0 1 0 0 1.361.963.963 0 0 0 0-1.36M155.828 129.886a.963.963 0 1 0 0 1.361.963.963 0 0 0 0-1.36M155.828 142.752a.963.963 0 1 0 0 1.361.963.963 0 0 0 0-1.361M155.828 155.617a.963.963 0 1 0 0 1.361.963.963 0 0 0 0-1.361M155.828 168.482a.963.963 0 1 0 0 1.361.963.963 0 0 0 0-1.36M155.828 181.348a.963.963 0 1 0 0 1.361.963.963 0 0 0 0-1.361M155.828 194.213a.963.963 0 1 0 0 1.361.963.963 0 0 0 0-1.36M155.828 207.079a.963.963 0 1 0 0 1.361.963.963 0 0 0 0-1.361M155.828 219.944a.963.963 0 1 0 0 1.361.963.963 0 0 0 0-1.361M155.828 232.81a.963.963 0 1 0 0 1.361.963.963 0 0 0 0-1.362M155.828 245.675a.963.963 0 1 0 0 1.361.963.963 0 0 0 0-1.361M155.828 258.54a.963.963 0 1 0 0 1.361.963.963 0 0 0 0-1.36M155.828 271.406a.963.963 0 1 0 0 1.361.963.963 0 0 0 0-1.361M154.468 284.271a.963.963 0 0 0 1.36 1.362.965.965 0 0 0 0-1.362.96.96 0 0 0-1.36 0"/>
            <g transform="translate(140.43 .893)">
                <mask id="h" fill="#fff">
                    <use xlink:href="#g"/>
                </mask>
                <path fill="#1A1A1A" d="M2.55.339a.963.963 0 1 0 0 1.361.963.963 0 0 0 0-1.361" mask="url(#h)"/>
            </g>
            <path fill="#1A1A1A" d="M142.979 14.097a.963.963 0 1 0 0 1.361.963.963 0 0 0 0-1.36M142.979 26.963a.963.963 0 1 0 0 1.361.963.963 0 0 0 0-1.361M142.979 39.828a.963.963 0 1 0 0 1.361.963.963 0 0 0 0-1.36M142.979 52.693a.963.963 0 1 0 0 1.361.963.963 0 0 0 0-1.36M142.979 65.559a.963.963 0 1 0 0 1.361.963.963 0 0 0 0-1.361M142.979 78.424a.963.963 0 1 0 0 1.361.963.963 0 0 0 0-1.36M142.979 91.29a.963.963 0 1 0 0 1.361.963.963 0 0 0 0-1.36M142.979 104.156a.963.963 0 1 0 0 1.361.963.963 0 0 0 0-1.361M142.979 117.02a.963.963 0 1 0 0 1.361.963.963 0 0 0 0-1.36M142.979 129.886a.963.963 0 1 0 0 1.361.963.963 0 0 0 0-1.36M142.979 142.752a.963.963 0 1 0 0 1.361.963.963 0 0 0 0-1.361M142.979 155.617a.963.963 0 1 0 0 1.361.963.963 0 0 0 0-1.361M142.979 168.482a.963.963 0 1 0 0 1.361.963.963 0 0 0 0-1.36M142.979 181.348a.963.963 0 1 0 0 1.361.963.963 0 0 0 0-1.361M142.979 194.213a.963.963 0 1 0 0 1.361.963.963 0 0 0 0-1.36M142.979 207.079a.963.963 0 1 0 0 1.361.963.963 0 0 0 0-1.361M142.979 219.944a.963.963 0 1 0 0 1.361.963.963 0 0 0 0-1.361M142.979 232.81a.963.963 0 1 0 0 1.361.963.963 0 0 0 0-1.362M142.979 245.675a.963.963 0 1 0 0 1.361.963.963 0 0 0 0-1.361M142.979 258.54a.963.963 0 1 0 0 1.361.963.963 0 0 0 0-1.36M141.62 271.406a.963.963 0 0 0 1.359 1.361.965.965 0 0 0 0-1.361.96.96 0 0 0-1.36 0"/>
            <g transform="translate(140.43 283.064)">
                <mask id="j" fill="#fff">
                    <use xlink:href="#i"/>
                </mask>
                <path fill="#1A1A1A" d="M2.55 2.568a.963.963 0 0 0-1.36-1.361.963.963 0 0 0 1.36 1.361" mask="url(#j)"/>
            </g>
            <g transform="translate(128.095 .893)">
                <mask id="l" fill="#fff">
                    <use xlink:href="#k"/>
                </mask>
                <path fill="#1A1A1A" d="M.675.339A.963.963 0 0 0 2.035 1.7.963.963 0 0 0 .675.34" mask="url(#l)"/>
            </g>
            <path fill="#1A1A1A" d="M130.13 15.458a.963.963 0 0 0-1.36-1.361.963.963 0 0 0 1.36 1.361M128.77 28.324a.963.963 0 1 0 0-1.361.963.963 0 0 0 0 1.36M128.77 41.19a.963.963 0 1 0 0-1.361.963.963 0 0 0 0 1.36M128.77 54.055a.963.963 0 1 0 0-1.361.963.963 0 0 0 0 1.361M128.77 66.92a.963.963 0 1 0 0-1.361.963.963 0 0 0 0 1.361M128.77 79.786a.963.963 0 1 0 0-1.361.963.963 0 0 0 0 1.36M128.77 92.651a.963.963 0 1 0 0-1.361.963.963 0 0 0 0 1.361M128.77 105.517a.963.963 0 1 0 0-1.361.963.963 0 0 0 0 1.36M128.77 118.382a.963.963 0 1 0 0-1.361.963.963 0 0 0 0 1.361M128.77 131.247a.963.963 0 1 0 0-1.361.963.963 0 0 0 0 1.361M128.77 144.113a.963.963 0 1 0 0-1.361.963.963 0 0 0 0 1.36M128.77 156.978a.963.963 0 1 0 0-1.361.963.963 0 0 0 0 1.361M128.77 169.844a.963.963 0 1 0 0-1.361.963.963 0 0 0 0 1.36M128.77 182.709a.963.963 0 1 0 0-1.361.963.963 0 0 0 0 1.36M128.77 195.574a.963.963 0 1 0 0-1.361.963.963 0 0 0 0 1.361M128.77 208.44a.963.963 0 1 0 0-1.361.963.963 0 0 0 0 1.36M128.77 221.306a.963.963 0 1 0 0-1.361.963.963 0 0 0 0 1.36M128.77 234.17a.963.963 0 1 0 0-1.361.963.963 0 0 0 0 1.362M128.77 247.036a.963.963 0 1 0 0-1.361.963.963 0 0 0 0 1.361M128.77 259.902a.963.963 0 1 0 0-1.361.963.963 0 0 0 0 1.36M128.77 272.767a.963.963 0 1 0 0-1.361.963.963 0 0 0 0 1.361"/>
            <g transform="translate(128.095 283.064)">
                <mask id="n" fill="#fff">
                    <use xlink:href="#m"/>
                </mask>
                <path fill="#1A1A1A" d="M.675 2.568a.963.963 0 1 0 0-1.361.963.963 0 0 0 0 1.361" mask="url(#n)"/>
            </g>
            <path fill="#1A1A1A" d="M117.281 2.593a.963.963 0 0 0-1.36-1.361.963.963 0 0 0 1.36 1.361M115.921 15.458a.963.963 0 1 0 0-1.361.963.963 0 0 0 0 1.361M115.921 28.324a.963.963 0 1 0 0-1.361.963.963 0 0 0 0 1.36M115.921 41.19a.963.963 0 1 0 0-1.361.963.963 0 0 0 0 1.36M115.921 54.055a.963.963 0 1 0 0-1.361.963.963 0 0 0 0 1.361M115.921 66.92a.963.963 0 1 0 0-1.361.963.963 0 0 0 0 1.361M115.921 79.786a.963.963 0 1 0 0-1.361.963.963 0 0 0 0 1.36M115.921 92.651a.963.963 0 1 0 0-1.361.963.963 0 0 0 0 1.361M115.921 105.517a.963.963 0 1 0 0-1.361.963.963 0 0 0 0 1.36M115.921 118.382a.963.963 0 1 0 0-1.361.963.963 0 0 0 0 1.361M115.921 131.247a.963.963 0 1 0 0-1.361.963.963 0 0 0 0 1.361M115.921 144.113a.963.963 0 1 0 0-1.361.963.963 0 0 0 0 1.36M115.921 156.978a.963.963 0 1 0 0-1.361.963.963 0 0 0 0 1.361M115.921 169.844a.963.963 0 1 0 0-1.361.963.963 0 0 0 0 1.36M115.921 182.709a.963.963 0 1 0 0-1.361.963.963 0 0 0 0 1.36M115.921 195.574a.963.963 0 1 0 0-1.361.963.963 0 0 0 0 1.361M115.921 208.44a.963.963 0 1 0 0-1.361.963.963 0 0 0 0 1.36M115.921 221.306a.963.963 0 1 0 0-1.361.963.963 0 0 0 0 1.36M115.921 234.17a.963.963 0 1 0 0-1.361.963.963 0 0 0 0 1.362M115.921 247.036a.963.963 0 1 0 0-1.361.963.963 0 0 0 0 1.361M115.921 259.902a.963.963 0 1 0 0-1.361.963.963 0 0 0 0 1.36M115.921 272.767a.963.963 0 1 0 0-1.361.963.963 0 0 0 0 1.361"/>
            <g transform="translate(114.81 283.064)">
                <mask id="p" fill="#fff">
                    <use xlink:href="#o"/>
                </mask>
                <path fill="#1A1A1A" d="M1.11 2.568a.963.963 0 1 0 0-1.361.963.963 0 0 0 0 1.361" mask="url(#p)"/>
            </g>
            <path fill="#1A1A1A" d="M103.072 1.232a.963.963 0 0 0 1.36 1.361.963.963 0 0 0 0-1.361.947.947 0 0 0-.913-.237l-.144.036a.953.953 0 0 0-.303.201M104.432 14.097a.963.963 0 1 0 0 1.361.963.963 0 0 0 0-1.36M104.432 26.963a.963.963 0 1 0 0 1.361.963.963 0 0 0 0-1.361M104.432 39.828a.963.963 0 1 0 0 1.361.963.963 0 0 0 0-1.36M104.432 52.693a.963.963 0 1 0 0 1.361.963.963 0 0 0 0-1.36M104.432 65.559a.963.963 0 1 0 0 1.361.963.963 0 0 0 0-1.361M104.432 78.424a.963.963 0 1 0 0 1.361.963.963 0 0 0 0-1.36M104.432 91.29a.963.963 0 1 0 0 1.361.963.963 0 0 0 0-1.36M104.432 104.156a.963.963 0 1 0 0 1.361.963.963 0 0 0 0-1.361M104.432 117.02a.963.963 0 1 0 0 1.361.963.963 0 0 0 0-1.36M104.432 129.886a.963.963 0 1 0 0 1.361.963.963 0 0 0 0-1.36M104.432 142.752a.963.963 0 1 0 0 1.361.963.963 0 0 0 0-1.361M104.432 155.617a.963.963 0 1 0 0 1.361.963.963 0 0 0 0-1.361M104.432 168.482a.963.963 0 1 0 0 1.361.963.963 0 0 0 0-1.36M104.432 181.348a.963.963 0 1 0 0 1.361.963.963 0 0 0 0-1.361M104.432 194.213a.963.963 0 1 0 0 1.361.963.963 0 0 0 0-1.36M104.432 207.079a.963.963 0 1 0 0 1.361.963.963 0 0 0 0-1.361M104.432 219.944a.963.963 0 1 0 0 1.361.963.963 0 0 0 0-1.361M104.432 232.81a.963.963 0 1 0 0 1.361.963.963 0 0 0 0-1.362M104.432 245.675a.963.963 0 1 0 0 1.361.963.963 0 0 0 0-1.361M104.432 258.54a.963.963 0 1 0 0 1.361.963.963 0 0 0 0-1.36M104.432 271.406a.963.963 0 1 0 0 1.361.963.963 0 0 0 0-1.361M103.072 284.271a.963.963 0 0 0 1.36 1.362.963.963 0 0 0-1.36-1.362M91.583 14.097a.963.963 0 1 0 0 1.361.963.963 0 0 0 0-1.36M91.583 26.963a.963.963 0 1 0 0 1.361.963.963 0 0 0 0-1.361M91.583 39.828a.963.963 0 1 0 0 1.361.963.963 0 0 0 0-1.36M91.583 52.693a.963.963 0 1 0 0 1.361.963.963 0 0 0 0-1.36M91.583 65.559a.963.963 0 1 0 0 1.361.963.963 0 0 0 0-1.361M91.583 78.424a.963.963 0 1 0 0 1.361.963.963 0 0 0 0-1.36M91.583 91.29a.963.963 0 1 0 0 1.361.963.963 0 0 0 0-1.36M91.583 104.156a.963.963 0 1 0 0 1.361.963.963 0 0 0 0-1.361M91.583 117.02a.963.963 0 1 0 0 1.361.963.963 0 0 0 0-1.36M91.583 129.886a.963.963 0 1 0 0 1.361.963.963 0 0 0 0-1.36M91.583 142.752a.963.963 0 1 0 0 1.361.963.963 0 0 0 0-1.361M91.583 155.617a.963.963 0 1 0 0 1.361.963.963 0 0 0 0-1.361M91.583 168.482a.963.963 0 1 0 0 1.361.963.963 0 0 0 0-1.36M91.583 181.348a.963.963 0 1 0 0 1.361.963.963 0 0 0 0-1.361M91.583 194.213a.963.963 0 1 0 0 1.361.963.963 0 0 0 0-1.36M91.583 207.079a.963.963 0 1 0 0 1.361.963.963 0 0 0 0-1.361M91.583 219.944a.963.963 0 1 0 0 1.361.963.963 0 0 0 0-1.361M91.583 232.81a.963.963 0 1 0 0 1.361.963.963 0 0 0 0-1.362M91.583 245.675a.963.963 0 1 0 0 1.361.963.963 0 0 0 0-1.361M91.583 258.54a.963.963 0 1 0 0 1.361.963.963 0 0 0 0-1.36M91.583 271.406a.963.963 0 1 0 0 1.361.963.963 0 0 0 0-1.361M90.223 284.271a.963.963 0 0 0 1.36 1.362.963.963 0 0 0-1.36-1.362M78.734 14.097a.96.96 0 0 0-1.36 0 .965.965 0 0 0 0 1.362.963.963 0 0 0 1.36-1.361M78.734 26.963a.96.96 0 0 0-1.36 0 .965.965 0 0 0 0 1.361.963.963 0 0 0 1.36-1.361M78.734 39.828a.96.96 0 0 0-1.36 0 .965.965 0 0 0 0 1.362.963.963 0 0 0 1.36-1.361M78.734 52.693a.96.96 0 0 0-1.36 0 .965.965 0 0 0 0 1.362.963.963 0 0 0 1.36-1.361M78.734 65.559a.96.96 0 0 0-1.36 0 .965.965 0 0 0 0 1.361.963.963 0 0 0 1.36-1.361M78.734 78.424a.96.96 0 0 0-1.36 0 .965.965 0 0 0 0 1.362.963.963 0 0 0 1.36-1.361M78.734 91.29a.96.96 0 0 0-1.36 0 .962.962 0 1 0 1.36 0M78.734 104.156a.96.96 0 0 0-1.36 0 .962.962 0 1 0 1.36 0M78.734 117.02a.96.96 0 0 0-1.36 0 .962.962 0 1 0 1.36 0M78.734 129.886a.96.96 0 0 0-1.36 0 .962.962 0 1 0 1.36 0M78.734 142.752a.96.96 0 0 0-1.36 0 .962.962 0 1 0 1.36 0M78.734 155.617a.96.96 0 0 0-1.36 0 .962.962 0 1 0 1.36 0M78.734 168.482a.96.96 0 0 0-1.36 0 .962.962 0 1 0 1.36 0M78.734 181.348a.96.96 0 0 0-1.36 0 .965.965 0 0 0 0 1.361.963.963 0 0 0 1.36-1.361M78.734 194.213a.96.96 0 0 0-1.36 0 .965.965 0 0 0 0 1.362.963.963 0 0 0 1.36-1.361M78.734 207.079a.96.96 0 0 0-1.36 0 .965.965 0 0 0 0 1.361.963.963 0 0 0 1.36-1.361M78.734 219.944a.96.96 0 0 0-1.36 0 .965.965 0 0 0 0 1.361.963.963 0 0 0 1.36-1.361M78.734 232.81a.96.96 0 0 0-1.36 0 .965.965 0 0 0 0 1.36.963.963 0 0 0 1.36-1.361M78.734 245.675a.96.96 0 0 0-1.36 0 .965.965 0 0 0 0 1.361.963.963 0 0 0 1.36-1.361M78.734 258.54a.96.96 0 0 0-1.36 0 .965.965 0 0 0 0 1.362.963.963 0 0 0 1.36-1.361M77.375 271.406a.963.963 0 0 0 1.36 1.361.963.963 0 0 0-1.36-1.361M65.885 26.963a.96.96 0 0 0-1.36 0 .965.965 0 0 0 0 1.361.963.963 0 0 0 1.36-1.361M65.885 39.828a.96.96 0 0 0-1.36 0 .965.965 0 0 0 0 1.362.963.963 0 0 0 1.36-1.361M65.885 52.693a.96.96 0 0 0-1.36 0 .965.965 0 0 0 0 1.362.963.963 0 0 0 1.36-1.361M65.885 65.559a.96.96 0 0 0-1.36 0 .965.965 0 0 0 0 1.361.963.963 0 0 0 1.36-1.361M65.885 78.424a.96.96 0 0 0-1.36 0 .965.965 0 0 0 0 1.362.963.963 0 0 0 1.36-1.361M65.885 91.29a.96.96 0 0 0-1.36 0 .962.962 0 1 0 1.36 0M65.885 104.156a.96.96 0 0 0-1.36 0 .962.962 0 1 0 1.36 0M65.885 117.02a.96.96 0 0 0-1.36 0 .962.962 0 1 0 1.36 0M65.885 129.886a.96.96 0 0 0-1.36 0 .962.962 0 1 0 1.36 0M65.885 142.752a.96.96 0 0 0-1.36 0 .962.962 0 1 0 1.36 0M65.885 155.617a.96.96 0 0 0-1.36 0 .962.962 0 1 0 1.36 0M65.885 168.482a.96.96 0 0 0-1.36 0 .962.962 0 1 0 1.36 0M65.885 181.348a.96.96 0 0 0-1.36 0 .965.965 0 0 0 0 1.361.963.963 0 0 0 1.36-1.361M65.885 194.213a.96.96 0 0 0-1.36 0 .965.965 0 0 0 0 1.362.963.963 0 0 0 1.36-1.361M65.885 207.079a.96.96 0 0 0-1.36 0 .965.965 0 0 0 0 1.361.963.963 0 0 0 1.36-1.361M65.885 219.944a.96.96 0 0 0-1.36 0 .965.965 0 0 0 0 1.361.963.963 0 0 0 1.36-1.361M65.885 232.81a.96.96 0 0 0-1.36 0 .965.965 0 0 0 0 1.36.963.963 0 0 0 1.36-1.361M65.885 245.675a.96.96 0 0 0-1.36 0 .965.965 0 0 0 0 1.361.963.963 0 0 0 1.36-1.361M65.885 258.54a.96.96 0 0 0-1.36 0 .965.965 0 0 0 0 1.362.963.963 0 0 0 1.36-1.361M64.526 271.406a.963.963 0 0 0 1.36 1.361.963.963 0 0 0-1.36-1.361M53.036 26.963a.96.96 0 0 0-1.36 0 .965.965 0 0 0 0 1.361.963.963 0 0 0 1.36-1.361M53.036 39.828a.96.96 0 0 0-1.36 0 .965.965 0 0 0 0 1.362.963.963 0 0 0 1.36-1.361M53.036 52.693a.96.96 0 0 0-1.36 0 .965.965 0 0 0 0 1.362.963.963 0 0 0 1.36-1.361M53.036 65.559a.96.96 0 0 0-1.36 0 .965.965 0 0 0 0 1.361.963.963 0 0 0 1.36-1.361M53.036 78.424a.96.96 0 0 0-1.36 0 .965.965 0 0 0 0 1.362.963.963 0 0 0 1.36-1.361M53.036 91.29a.96.96 0 0 0-1.36 0 .962.962 0 1 0 1.36 0M53.036 104.156a.96.96 0 0 0-1.36 0 .962.962 0 1 0 1.36 0M53.036 117.02a.96.96 0 0 0-1.36 0 .962.962 0 1 0 1.36 0M53.036 129.886a.96.96 0 0 0-1.36 0 .962.962 0 1 0 1.36 0M53.036 142.752a.96.96 0 0 0-1.36 0 .962.962 0 1 0 1.36 0M53.036 155.617a.96.96 0 0 0-1.36 0 .962.962 0 1 0 1.36 0M53.036 168.482a.96.96 0 0 0-1.36 0 .962.962 0 1 0 1.36 0M53.036 181.348a.96.96 0 0 0-1.36 0 .965.965 0 0 0 0 1.361.963.963 0 0 0 1.36-1.361M53.036 194.213a.96.96 0 0 0-1.36 0 .965.965 0 0 0 0 1.362.963.963 0 0 0 1.36-1.361M53.036 207.079a.96.96 0 0 0-1.36 0 .965.965 0 0 0 0 1.361.963.963 0 0 0 1.36-1.361M53.036 219.944a.96.96 0 0 0-1.36 0 .965.965 0 0 0 0 1.361.963.963 0 0 0 1.36-1.361M53.036 232.81a.96.96 0 0 0-1.36 0 .965.965 0 0 0 0 1.36.963.963 0 0 0 1.36-1.361M53.036 245.675a.96.96 0 0 0-1.36 0 .965.965 0 0 0 0 1.361.963.963 0 0 0 1.36-1.361M51.677 258.54a.963.963 0 0 0 1.36 1.362.963.963 0 0 0-1.36-1.362M40.187 39.828a.96.96 0 0 0-1.36 0 .965.965 0 0 0 0 1.362.963.963 0 0 0 1.36-1.361M40.187 52.693a.96.96 0 0 0-1.36 0 .965.965 0 0 0 0 1.362.963.963 0 0 0 1.36-1.361M40.187 65.559a.96.96 0 0 0-1.36 0 .965.965 0 0 0 0 1.361.963.963 0 0 0 1.36-1.361M40.187 78.424a.96.96 0 0 0-1.36 0 .965.965 0 0 0 0 1.362.963.963 0 0 0 1.36-1.361M40.187 91.29a.96.96 0 0 0-1.36 0 .962.962 0 1 0 1.36 0M40.187 104.156a.96.96 0 0 0-1.36 0 .962.962 0 1 0 1.36 0M40.187 117.02a.96.96 0 0 0-1.36 0 .962.962 0 1 0 1.36 0M40.187 129.886a.96.96 0 0 0-1.36 0 .962.962 0 1 0 1.36 0M40.187 142.752a.96.96 0 0 0-1.36 0 .962.962 0 1 0 1.36 0M40.187 155.617a.96.96 0 0 0-1.36 0 .962.962 0 1 0 1.36 0M40.187 168.482a.96.96 0 0 0-1.36 0 .962.962 0 1 0 1.36 0M40.187 181.348a.96.96 0 0 0-1.36 0 .965.965 0 0 0 0 1.361.963.963 0 0 0 1.36-1.361M40.187 194.213a.96.96 0 0 0-1.36 0 .965.965 0 0 0 0 1.362.963.963 0 0 0 1.36-1.361M40.187 207.079a.96.96 0 0 0-1.36 0 .965.965 0 0 0 0 1.361.963.963 0 0 0 1.36-1.361M40.187 219.944a.96.96 0 0 0-1.36 0 .965.965 0 0 0 0 1.361.963.963 0 0 0 1.36-1.361M38.828 232.81a.963.963 0 0 0 1.36 1.36.963.963 0 0 0-1.36-1.36M40.187 247.036a.963.963 0 0 0-1.36-1.361.965.965 0 0 0 0 1.361.96.96 0 0 0 1.36 0M25.98 52.693a.963.963 0 0 0 1.359 1.362.963.963 0 0 0-1.36-1.362M27.339 66.92a.963.963 0 0 0-1.36-1.361.965.965 0 0 0 0 1.361.96.96 0 0 0 1.36 0M25.98 79.786a.963.963 0 1 0 0-1.361.963.963 0 0 0 0 1.36M25.98 92.651a.963.963 0 1 0 0-1.361.963.963 0 0 0 0 1.361M25.98 105.517a.963.963 0 1 0 0-1.361.963.963 0 0 0 0 1.36M25.98 118.382a.963.963 0 1 0 0-1.361.963.963 0 0 0 0 1.361M25.98 131.247a.963.963 0 1 0 0-1.361.963.963 0 0 0 0 1.361M25.98 144.113a.963.963 0 1 0 0-1.361.963.963 0 0 0 0 1.36M25.98 156.978a.963.963 0 1 0 0-1.361.963.963 0 0 0 0 1.361M25.98 169.844a.963.963 0 1 0 0-1.361.963.963 0 0 0 0 1.36M25.98 182.709a.963.963 0 1 0 0-1.361.963.963 0 0 0 0 1.36M25.98 195.574a.963.963 0 1 0 0-1.361.963.963 0 0 0 0 1.361M25.98 208.44a.963.963 0 1 0 0-1.361.963.963 0 0 0 0 1.36M25.98 221.306a.963.963 0 1 0 0-1.361.963.963 0 0 0 0 1.36M25.98 234.17a.963.963 0 1 0 0-1.361.963.963 0 0 0 0 1.362M13.13 66.92a.96.96 0 0 0 1.36 0 .965.965 0 0 0 0-1.361.946.946 0 0 0-.615-.269c-.3.467-.595.939-.89 1.41.042.076.08.155.145.22M14.49 78.424a.96.96 0 0 0-1.36 0 .965.965 0 0 0 0 1.362.963.963 0 0 0 1.36-1.361M14.49 91.29a.96.96 0 0 0-1.36 0 .962.962 0 1 0 1.36 0M14.49 104.156a.96.96 0 0 0-1.36 0 .962.962 0 1 0 1.36 0M14.49 117.02a.96.96 0 0 0-1.36 0 .962.962 0 1 0 1.36 0M14.49 129.886a.96.96 0 0 0-1.36 0 .962.962 0 1 0 1.36 0M14.49 142.752a.96.96 0 0 0-1.36 0 .962.962 0 1 0 1.36 0M14.49 155.617a.96.96 0 0 0-1.36 0 .962.962 0 1 0 1.36 0M14.49 168.482a.96.96 0 0 0-1.36 0 .962.962 0 1 0 1.36 0M14.49 181.348a.96.96 0 0 0-1.36 0 .965.965 0 0 0 0 1.361.963.963 0 0 0 1.36-1.361M14.49 194.213a.96.96 0 0 0-1.36 0 .965.965 0 0 0 0 1.362.963.963 0 0 0 1.36-1.361M14.49 207.079a.96.96 0 0 0-1.36 0 .965.965 0 0 0 0 1.361.963.963 0 0 0 1.36-1.361M13.13 219.944a.963.963 0 0 0 1.36 1.361.965.965 0 0 0 0-1.361.96.96 0 0 0-1.36 0M.282 92.651a.96.96 0 0 0 1.36 0A.961.961 0 1 0 .598 91.08c-.17.43-.336.862-.502 1.293.046.1.102.197.185.28M1.64 104.156a.96.96 0 0 0-1.359 0 .962.962 0 1 0 1.36 0M1.64 117.02a.96.96 0 0 0-1.359 0 .962.962 0 1 0 1.36 0M1.64 129.886a.96.96 0 0 0-1.359 0 .962.962 0 1 0 1.36 0M1.64 142.752a.96.96 0 0 0-1.359 0 .962.962 0 1 0 1.36 0M1.64 155.617a.96.96 0 0 0-1.359 0 .962.962 0 1 0 1.36 0M1.64 168.482a.96.96 0 0 0-1.359 0 .962.962 0 1 0 1.36 0"/>
            <g transform="translate(0 180.456)">
                <mask id="r" fill="#fff">
                    <use xlink:href="#q"/>
                </mask>
                <path fill="#1A1A1A" d="M.282.891a.963.963 0 0 0 1.36 1.362.965.965 0 0 0 0-1.362.96.96 0 0 0-1.36 0" mask="url(#r)"/>
            </g>
            <path fill="#1A1A1A" d="M1.64 195.574a.963.963 0 0 0-1.359-1.361.965.965 0 0 0 0 1.361.96.96 0 0 0 1.36 0"/>
            <mask id="t" fill="#fff">
                <use xlink:href="#s"/>
            </mask>
            <path fill="#CFECDD" d="M255.973 94.317h50.07V67.216h-50.07z" mask="url(#t)"/>
            <path fill="#FFFF52" d="M323.5 41.536c0-4.007-3.31-7.255-7.392-7.255-4.082 0-7.391 3.248-7.391 7.255 0 4.008 3.31 7.256 7.391 7.256 4.082 0 7.392-3.248 7.392-7.256M346.7 95.96c0-4.008-3.31-7.256-7.392-7.256-4.082 0-7.392 3.248-7.392 7.256 0 4.007 3.31 7.255 7.392 7.255 4.082 0 7.391-3.248 7.391-7.255" mask="url(#t)"/>
            <path fill="#000" d="M247.808 157.116h16.128l66.343-12.84 36.559-22.422c-4.572-3.63-9.91-4.112-14.708-1.313l-23.704 12.2h-38.622v-3.218h14.129c5.81 0 10.792-4.715 11.572-10.613h-41.142c-3.438 0-6.67 1.34-9.1 3.775l-17.455 17.477v16.954zm16.435 3.218h-19.65v-21.506l18.396-18.419a15.973 15.973 0 0 1 11.374-4.717h44.461v1.61c0 4.909-2.345 9.371-5.915 12.221h14.74l22.937-11.803c5.994-3.502 13-2.788 18.663 1.951a2.919 2.919 0 0 1 1.038 2.444 2.87 2.87 0 0 1-1.358 2.232l-37.47 22.977-67.216 13.01z" mask="url(#t)"/>
            <path fill="#000" d="M235.633 174.13v-3.217c4.941 0 8.96-4.025 8.96-8.972v-24.6h-8.96v-3.219h12.175v27.819c0 6.721-5.462 12.19-12.175 12.19M337.854 86.29c-4.34 0-7.872 3.536-7.872 7.883 0 4.347 3.531 7.884 7.872 7.884 4.341 0 7.873-3.537 7.873-7.884s-3.532-7.883-7.873-7.883m0 18.984c-6.113 0-11.086-4.98-11.086-11.101s4.973-11.1 11.086-11.1c6.114 0 11.086 4.979 11.086 11.1 0 6.121-4.972 11.1-11.086 11.1M315.075 31.417c-4.341 0-7.873 3.536-7.873 7.883 0 4.347 3.532 7.884 7.873 7.884 4.34 0 7.872-3.537 7.872-7.884s-3.531-7.883-7.872-7.883m0 18.983c-6.114 0-11.087-4.979-11.087-11.1 0-6.121 4.973-11.1 11.087-11.1 6.113 0 11.086 4.979 11.086 11.1 0 6.121-4.973 11.1-11.086 11.1M276.82 36.57h3.214v-4.6h-3.214v4.6zm0 9.197h3.214v-4.599h-3.214v4.599zm0 9.197h3.214v-4.598h-3.214v4.598zM336.247 59.683h3.214v-4.599h-3.214v4.6zm0 9.198h3.214v-4.598h-3.214v4.598zm0 9.198h3.214V73.48h-3.214v4.599zM252.418 92.709h52.018V63.735h-52.018v28.974zm-3.213 3.218h58.445v-35.41h-58.445v35.41z" mask="url(#t)"/>
            <path fill="#000" d="M278.512 72.909a5.292 5.292 0 0 0-5.282 5.289c0 2.917 2.37 5.29 5.282 5.29a5.292 5.292 0 0 0 5.282-5.29 5.292 5.292 0 0 0-5.282-5.29m0 13.797c-4.684 0-8.496-3.816-8.496-8.507 0-4.69 3.812-8.507 8.496-8.507 4.685 0 8.496 3.816 8.496 8.507s-3.811 8.507-8.496 8.507M292.219 79.687h6.804V76.47h-6.804zM257.687 79.832h6.975v-3.218h-6.975zM223.512 181.883H207.03v-3.218h16.483c7.421 0 13.459-6.045 13.459-13.476v-20.5c0-7.43-6.038-13.476-13.459-13.476H207.03v-3.218h16.483c9.193 0 16.673 7.49 16.673 16.694v20.5c0 9.206-7.48 16.694-16.673 16.694" mask="url(#t)"/>
            <path fill="#000" d="M220.353 180.274h3.214v-50.67h-3.214z" mask="url(#t)"/>
        </g>
    </g>
</svg>
