<svg xmlns="http://www.w3.org/2000/svg" xmlns:xlink="http://www.w3.org/1999/xlink" width="681" height="452" viewBox="0 0 681 452">
    <defs>
        <path id="a" d="M625.637 436.296H.686V.795h624.95z"/>
        <path id="c" d="M0 465.296h665V0H0v465.296z"/>
    </defs>
    <g fill="none" fill-rule="evenodd">
        <g transform="translate(50 15.705)">
            <mask id="b" fill="#fff">
                <use xlink:href="#a"/>
            </mask>
            <path fill="#FFC793" d="M625.637 318.897C625.637 143.214 485.737.796 313.16.796 140.586.795.686 143.215.686 318.897.686 494.58 140.586 637 313.16 637c172.576 0 312.476-142.42 312.476-318.103" mask="url(#b)"/>
        </g>
        <path stroke="#000" stroke-linecap="round" stroke-width="3" d="M498.203 33.98c0 10.141-18.126 19.242-46.855 25.456M406.344 65.942c-14.441 1.26-29.987 1.944-46.186 1.944-76.241 0-138.045-15.18-138.045-33.906M578.91 93.744c0 29.878-98.612 54.099-220.258 54.099M637.133 166.658c0 9.725-8.263 18.975-23.157 27.352-23.903 13.44-64.884 24.63-116.208 31.914M149.765 211.893c-43.313-12.057-69.593-27.892-69.593-45.235M358.652 235.057c-27.734 0-54.522-.996-79.803-2.85M358.652 329.495c-56.493 0-109.458-3.71-155.074-10.194M637.133 286.867c-15.785 7.894-36.97 15.02-62.372 21.083"/>
        <path stroke="#000" stroke-width="3" d="M182.99 413.453C96.851 399.446 40.046 375.43 40.046 348.158"/>
        <path stroke="#000" stroke-linecap="round" stroke-width="3" d="M400.3 425.748c-13.631.438-27.532.663-41.647.663M677.258 348.157c0 16.381-20.493 31.586-55.525 44.154M233.462 294.335c-55.316-6.116-101.88-16.161-133.797-28.687M295.959 146.116c-27.75-2.068-51.195-6.255-67.368-11.944M510.894 290.935c-34.52 4.887-73.294 8.163-114.626 9.41-12.326.372-24.88.564-37.615.564M663.957 225.922c0 13.898-15.396 26.914-42.226 38.074M158.846 125.8c.605-2.473 1.824-4.663 3.494-6.49M176.13 113.319a24.073 24.073 0 0 1 6.71.684c9.405 2.302 15.95 9.692 16.238 17.544a14.569 14.569 0 0 1-2.42 8.597c-1.173 1.775-2.722 3.3-4.546 4.523-4.614 3.096-10.981 4.263-17.437 2.683-7.577-1.856-13.298-7.013-15.386-13.053M162.64 350.111c.8 1.831 1.17 3.74 1.154 5.606M139.634 347.708a12.835 12.835 0 0 1 5.58-4.687c4.58-2 9.709-1.115 13.43 1.86M159.622 365.328a12.842 12.842 0 0 1-3.63 2.383c-6.647 2.902-14.449-.272-17.426-7.09a13.658 13.658 0 0 1-.978-7.678M579.487 260.394a13.723 13.723 0 0 1 1.154 5.606M557.144 257.08a12.818 12.818 0 0 1 4.917-3.776c4.58-2 9.71-1.114 13.43 1.86M558.948 275.747a13.706 13.706 0 0 1-3.535-4.844 13.723 13.723 0 0 1-1.152-5.255M576.47 275.61a12.842 12.842 0 0 1-3.63 2.383 12.841 12.841 0 0 1-7.481.862M206.054 223.383l5.154.736M334.91 147.842h2.21M520.464 289.284l4.786-.368M515.31 204.606l-17.542 2.945M361.418 219.333l7.731-.368M419.22 263.995h15.554M63.208 314.319l6.626 1.104M422.901 383.533l4.095-.368M624.653 353.344l-2.922.368M472.234 99.68l-3.453.737M267.905 93.744h2.21M127.268 143.124l1.473.368M240.293 370.234h1.473M627.23 432.498l-4.038.368M111.519 439.862l3.449.736"/>
        <g transform="translate(24 -13.295)">
            <mask id="d" fill="#fff">
                <use xlink:href="#c"/>
            </mask>
            <path stroke="#000" stroke-width="5" d="M653.69 335.032c0-176.26-142.888-319.147-319.147-319.147-176.26 0-319.147 142.887-319.147 319.147s142.887 319.146 319.147 319.146S653.69 511.292 653.69 335.032z" mask="url(#d)"/>
        </g>
        <g>
            <path fill="#FFF" d="M122.112 140.645l1.598-2.596-25.513-44.17-12.857-3.813-43.543 70.728 9.466 9.367 50.766 3.104 1.7-2.762"/>
            <path stroke="#00003A" stroke-width="2.815" d="M122.112 140.645l1.598-2.596-25.513-44.17-12.857-3.813-43.543 70.728 9.466 9.367 50.766 3.104 1.7-2.762"/>
            <path fill="#C5DEE4" d="M43.526 160.47l8.047 8.235 46.309-73.343-12.294-3.86z"/>
            <path fill="#4B7983" d="M51.54 108.097a8.648 8.648 0 0 1 2.83 11.898 8.648 8.648 0 0 1-11.898 2.832l9.068-14.73z"/>
            <path stroke="#00003A" stroke-width="2.8" d="M51.54 108.097a8.648 8.648 0 0 1 2.83 11.898 8.648 8.648 0 0 1-11.898 2.832l9.068-14.73z"/>
            <path stroke="#000" stroke-linecap="round" stroke-linejoin="round" stroke-width="2.032" d="M98.197 93.88l-46.646 75.767"/>
            <path fill="#FFF" d="M108.612 139.09l4.706-7.643 20.143 20.663-14.218 23.093-27.697-8.392 4.515-7.334"/>
            <path stroke="#000" stroke-linejoin="round" stroke-width="2.032" d="M108.612 139.09l4.706-7.643 20.143 20.663-14.218 23.093-27.697-8.392 4.515-7.334"/>
            <path fill="#4B7983" d="M55.809 110.726a8.648 8.648 0 0 1-9.068 14.728l9.068-14.728z"/>
            <path stroke="#00003A" stroke-width="2.8" d="M55.809 110.726a8.648 8.648 0 0 1-9.068 14.728l9.068-14.728z"/>
            <path fill="#FFF" d="M61.09 112.51l9.193 2.014 67.48 43.25a42.653 42.653 0 0 1 8.36 7.017l10.69 11.61c3.843 4.174-.252 10.758-5.695 9.158l-15.417-4.534a42.644 42.644 0 0 1-9.327-4.004L56.65 136.668l-6.142-6.972L61.09 112.51z"/>
            <path stroke="#00003A" stroke-width="2.815" d="M61.09 112.51l9.193 2.014 67.48 43.25a42.653 42.653 0 0 1 8.36 7.017l10.69 11.61c3.843 4.174-.252 10.758-5.695 9.158l-15.417-4.534a42.644 42.644 0 0 1-9.327-4.004L56.65 136.668l-6.142-6.972L61.09 112.51z"/>
            <path stroke="#000" stroke-linecap="round" stroke-linejoin="round" stroke-width="2.032" d="M144.863 183.72l7.489-12.164"/>
            <path fill="#FF9274" d="M79.36 112.364l6.512-10.576-5.619-3.459-6.511 10.576z"/>
            <path stroke="#000" stroke-linecap="round" stroke-linejoin="round" stroke-width="2.032" d="M79.36 112.364l6.512-10.576-5.619-3.459-6.511 10.576z"/>
            <path fill="#FF9274" d="M52.299 156.321l6.51-10.576-5.618-3.458-6.511 10.575z"/>
            <path stroke="#000" stroke-linecap="round" stroke-linejoin="round" stroke-width="2.032" d="M52.299 156.321l6.51-10.576-5.618-3.458-6.511 10.575z"/>
            <path fill="#000" d="M52.598 121.04l2.11-3.428 19.227 11.838a2.01 2.01 0 1 1-2.11 3.426L52.598 121.04z"/>
            <path stroke="#000" stroke-linecap="round" stroke-linejoin="round" stroke-width="2.032" d="M52.598 121.04l2.11-3.428 19.227 11.838a2.01 2.01 0 1 1-2.11 3.426L52.598 121.04z"/>
            <path fill="#000" d="M134.477 164.98l2.545-4.134c3.63 2.236 4.766 7.008 2.53 10.638l-4.133-2.545a2.883 2.883 0 0 0-.942-3.96M128.158 175.243l2.544-4.133c1.352.832 3.13.409 3.961-.942l4.133 2.545c-2.235 3.629-7.007 4.765-10.638 2.53"/>
            <path stroke="#000" stroke-linecap="round" stroke-linejoin="round" stroke-width="2.032" d="M88.75 110.852l9.448 5.817M61.688 154.81l9.448 5.816M127.402 155.372l-8.576 13.931M81.859 126.677l-9.127 14.825M114.21 156.688l-29.18-17.965M116.965 145.65l-2.028 3.295M105.078 138.331l-2.029 3.295M93.705 130.176l-2.544 4.132M105.645 164.038l2.028-3.296M93.757 156.719l2.029-3.295M81.355 150.237l2.544-4.132"/>
            <path fill="#FFFF52" d="M31.297 112.219l-.886 1.412-16.538-10.383.886-1.411zM33.301 106.983l-.886 1.411L9.561 94.047l.886-1.412zM49.428 105.685l-.886 1.411L20.99 89.8l.886-1.41zM38.066 121.624l-.886 1.413-22.92-14.389.885-1.412zM49.14 99.736l-.886 1.411-11.927-7.487.886-1.412zM37.09 109.36l-.887 1.413-2.376-1.493.886-1.412zM57.068 100.759l-.885 1.411-2.675-1.679.886-1.412zM7.003 96.968l-.886 1.412-6.013-3.775.886-1.412zM10.029 85.879l-.886 1.412-3.19-2.003.886-1.411zM10.807 99.355l-.887 1.412-2.391-1.501.886-1.412zM23.051 94.054l-.886 1.412-11.611-7.29.886-1.411zM39.434 129.548l-.886 1.41-6.463-4.055.887-1.412zM30.612 124.009l-.886 1.412-1.874-1.177.886-1.412z"/>
        </g>
    </g>
</svg>
