<svg xmlns="http://www.w3.org/2000/svg" xmlns:xlink="http://www.w3.org/1999/xlink" width="61" height="49" viewBox="0 0 61 49">
    <defs>
        <path id="a" d="M.968.182h48.796V49H.968V.182z"/>
    </defs>
    <g fill="none" fill-rule="evenodd">
        <path fill="#FFC793" d="M18.9 26.071c0-11.226 9.1-20.327 20.327-20.327 11.227 0 20.328 9.101 20.328 20.327 0 11.227-9.101 20.328-20.328 20.328C28 46.4 18.9 37.3 18.9 26.071"/>
        <g transform="translate(11 -.182)">
            <mask id="b" fill="#fff">
                <use xlink:href="#a"/>
            </mask>
            <path fill="#000" d="M41.612 40.836a22.953 22.953 0 0 1-7.167 4.871 41.973 41.973 0 0 0 8.71-7.699.716.716 0 1 0-1.09-.934c-3.628 4.227-8.623 8.011-13.56 10.278a23.321 23.321 0 0 1-5.355.107 40.872 40.872 0 0 0 9.125-4.577.719.719 0 0 0 .197-.996.719.719 0 0 0-.996-.196 39.426 39.426 0 0 1-11.456 5.251 22.485 22.485 0 0 1-2.654-.803c.73-.174 1.457-.373 2.176-.594a.717.717 0 1 0-.423-1.37 33.637 33.637 0 0 1-4.038.972 23.01 23.01 0 0 1-5.74-4.095c.816-.16 1.63-.343 2.432-.552a.718.718 0 0 0-.362-1.389 40.292 40.292 0 0 1-3.253.7 22.81 22.81 0 0 1-4.233-6.973 40.758 40.758 0 0 0 4.17-1.307.718.718 0 0 0-.502-1.344 39.9 39.9 0 0 1-4.14 1.292 23.001 23.001 0 0 1-.715-2.97 41.089 41.089 0 0 0 8.88-4.087.717.717 0 1 0-.751-1.222 39.683 39.683 0 0 1-8.33 3.866 23.1 23.1 0 0 1-.083-3.988 37.427 37.427 0 0 0 4.297-2.19.716.716 0 0 0 .248-.983.715.715 0 0 0-.982-.25 35.344 35.344 0 0 1-3.397 1.78c.2-1.459.54-2.9 1.022-4.305 2.317-1.363 4.724-3.172 6.669-4.95a.718.718 0 1 0-.968-1.06 39.854 39.854 0 0 1-4.794 3.752A22.903 22.903 0 0 1 9.12 8.345a22.827 22.827 0 0 1 16.246-6.729c.835 0 1.662.046 2.48.133a40.474 40.474 0 0 1-.786 2.173.716.716 0 1 0 1.334.528c.325-.822.625-1.66.898-2.5a22.75 22.75 0 0 1 2.963.713 39.48 39.48 0 0 1-5.248 11.981.717.717 0 1 0 1.2.785 40.866 40.866 0 0 0 5.408-12.294 22.849 22.849 0 0 1 6.972 4.248 38.81 38.81 0 0 1-1.635 6.327.718.718 0 1 0 1.353.475A40.366 40.366 0 0 0 41.83 8.57a22.837 22.837 0 0 1 5.88 10.704c-1.22 4.278-3.055 8.23-5.46 11.746a.718.718 0 0 0 1.184.81 41.15 41.15 0 0 0 4.79-9.458c.635 6.6-1.57 13.422-6.612 18.465m1.015-33.505c-4.61-4.61-10.74-7.15-17.261-7.15-6.52 0-12.65 2.54-17.26 7.15-9.517 9.517-9.517 25.003 0 34.52a24.248 24.248 0 0 0 17.26 7.15c6.52 0 12.65-2.54 17.26-7.15 9.518-9.517 9.518-25.004 0-34.52" mask="url(#b)"/>
        </g>
        <path fill="#000" d="M4.239 18.42a2.808 2.808 0 0 1-2.805-2.805 2.809 2.809 0 0 1 2.805-2.804 2.808 2.808 0 0 1 2.804 2.804 2.808 2.808 0 0 1-2.804 2.805m0-7.043A4.243 4.243 0 0 0 0 15.615a4.244 4.244 0 0 0 4.239 4.24 4.245 4.245 0 0 0 4.239-4.24 4.243 4.243 0 0 0-4.239-4.238M35.384 32.89a.718.718 0 0 0 .822 1.176c4.105-2.87 7.633-6.509 10.49-10.812a42.114 42.114 0 0 0 2.204-3.722.718.718 0 0 0-1.271-.666 40.936 40.936 0 0 1-2.128 3.595c-2.757 4.152-6.161 7.661-10.117 10.43M29.534 36.344c-.865.411-1.756.792-2.646 1.132a.717.717 0 1 0 .512 1.34c.926-.353 1.85-.749 2.75-1.177a.718.718 0 1 0-.616-1.295M43.124 20.315a.717.717 0 0 0-1.172-.828c-5.39 7.625-12.97 13.222-21.344 15.76a.718.718 0 0 0 .416 1.374c8.679-2.63 16.527-8.422 22.1-16.306M23.5 16.467c4.066-3.389 7.502-7.614 9.936-12.219a.717.717 0 0 0-1.268-.67c-2.35 4.441-5.663 8.516-9.585 11.786a.716.716 0 1 0 .918 1.103M54.633 23.215a.719.719 0 0 0 .949-.355c.151-.332.298-.667.438-.999a.716.716 0 0 0-.38-.939.716.716 0 0 0-.942.38c-.134.32-.277.644-.42.964a.715.715 0 0 0 .355.95M54.004 24.492a.717.717 0 0 0-.975.278 43.147 43.147 0 0 1-3.333 5.113c-4.525 5.972-10.338 10.509-16.807 13.124a.718.718 0 0 0 .536 1.33c6.711-2.712 12.733-7.41 17.414-13.588a44.562 44.562 0 0 0 3.444-5.281.716.716 0 0 0-.279-.976M34.249 19.338a38.346 38.346 0 0 1-2.301 2.372.718.718 0 0 0 .986 1.042 39.24 39.24 0 0 0 2.388-2.46.718.718 0 1 0-1.073-.954M28.936 17.473a.717.717 0 0 0 .982 1.046c3.373-3.171 5.763-6.322 7.307-9.63a.717.717 0 1 0-1.3-.607c-1.466 3.14-3.752 6.148-6.989 9.19M26.586 19.559a86.993 86.993 0 0 1-1.91 1.562.716.716 0 1 0 .894 1.122c.7-.557 1.335-1.076 1.94-1.587a.717.717 0 1 0-.924-1.097"/>
    </g>
</svg>
