<svg xmlns="http://www.w3.org/2000/svg" xmlns:xlink="http://www.w3.org/1999/xlink" width="357" height="300" viewBox="0 0 357 300">
    <defs>
        <path id="a" d="M.04.06h2.027v2.027H.04V.06z"/>
        <path id="c" d="M.498.06h2.027v2.027H.498V.06z"/>
        <path id="e" d="M.957.06h2.027v2.027H.957V.06z"/>
        <path id="g" d="M2.984 3H.957V.973h2.027V3z"/>
        <path id="i" d="M.415.06h2.027v2.027H.415V.06z"/>
        <path id="k" d="M2.442 3H.415V.973h2.027V3z"/>
        <path id="m" d="M2.9 3H.875V.973H2.9V3z"/>
        <path id="o" d="M0 2.418V.392h2.026v2.026H0z"/>
        <path id="q" d="M0 2.96V.934h2.026V2.96H0z"/>
        <path id="s" d="M0 2.501V.475h2.026v2.026H0z"/>
        <path id="u" d="M0 2.043V.017h2.026v2.026H0z"/>
        <path id="w" d="M0 2.584V.558h2.026v2.026H0z"/>
        <path id="y" d="M0 2.126V.1h2.026v2.026H0z"/>
        <path id="A" d="M0 2.668V.641h2.026v2.027H0z"/>
        <path id="C" d="M0 2.21V.182h2.026v2.026H0z"/>
    </defs>
    <g fill="none" fill-rule="evenodd">
        <path fill="#000" d="M349 13.801h2.705V11h1.809v2.801h2.737v1.696h-2.737v2.802h-1.809v-2.802H349z"/>
        <path fill="#83B1F0" d="M269.796 153.75l-18.57 8.176s10.646 10.446 21.355 10.446c10.708 0 23.95-11.975 23.95-11.975l-17.068-10.871-6.82 6.139-2.847-1.914z"/>
        <path fill="#FFD6BD" d="M272.793 121.912l-5.993 6.953v10.818l2.996 2.46v11.608l2.846 1.914 7.344-7.506-.524-3.134 5.356-6.237-.895-11.874-5.752-3.92z"/>
        <path fill="#1A1A1A" d="M298.21 110.062a.997.997 0 0 0 .922.257c-.182-.642-.373-1.28-.562-1.917a.997.997 0 0 0-.36.227 1.013 1.013 0 0 0 0 1.433M299.643 122.17a1.013 1.013 0 1 0-1.433 1.432 1.013 1.013 0 0 0 1.433-1.431M299.643 135.712a1.013 1.013 0 1 0-1.433 1.432 1.013 1.013 0 0 0 1.433-1.432M299.643 149.254a1.013 1.013 0 1 0-1.433 1.431 1.013 1.013 0 0 0 1.433-1.431M299.643 162.795a1.013 1.013 0 1 0-1.433 1.432 1.013 1.013 0 0 0 1.433-1.432M299.643 176.337a1.013 1.013 0 1 0-1.433 1.431 1.013 1.013 0 0 0 1.433-1.431M298.21 189.878a1.013 1.013 0 1 0 1.432 1.433 1.013 1.013 0 0 0-1.431-1.433M286.102 81.546a1.013 1.013 0 1 0-1.433 1.431 1.013 1.013 0 0 0 1.433-1.431M286.102 95.088a1.013 1.013 0 1 0-1.433 1.431 1.013 1.013 0 0 0 1.433-1.431M286.102 108.63a1.013 1.013 0 1 0-1.433 1.43 1.013 1.013 0 0 0 1.433-1.43M286.102 122.17a1.013 1.013 0 1 0-1.433 1.432 1.013 1.013 0 0 0 1.433-1.431M286.102 135.712a1.013 1.013 0 1 0-1.433 1.432 1.013 1.013 0 0 0 1.433-1.432M286.102 149.254a1.013 1.013 0 1 0-1.433 1.431 1.013 1.013 0 0 0 1.433-1.431M286.102 162.795a1.013 1.013 0 1 0-1.433 1.432 1.013 1.013 0 0 0 1.433-1.432M286.102 176.337a1.013 1.013 0 1 0-1.433 1.431 1.013 1.013 0 0 0 1.433-1.431M286.102 189.878a1.013 1.013 0 1 0-1.433 1.432 1.013 1.013 0 0 0 1.433-1.432M286.102 203.42a1.013 1.013 0 1 0-1.433 1.431 1.013 1.013 0 0 0 1.433-1.431M284.669 216.961a1.013 1.013 0 1 0 1.432 1.433 1.013 1.013 0 0 0-1.432-1.433M284.376 231.2c.151-.265.297-.533.447-.799-.051.035-.109.056-.154.102a1.006 1.006 0 0 0-.293.697M271.127 55.896a.994.994 0 0 0 .563.267c-.28-.358-.562-.712-.844-1.066-.022.286.063.579.281.799M272.56 68.004a1.013 1.013 0 1 0-1.433 1.432 1.013 1.013 0 0 0 1.433-1.432M272.56 81.546a1.013 1.013 0 1 0-1.433 1.431 1.013 1.013 0 0 0 1.433-1.431M272.56 95.088a1.013 1.013 0 1 0-1.433 1.431 1.013 1.013 0 0 0 1.433-1.431M272.56 108.63a1.013 1.013 0 1 0-1.433 1.43 1.013 1.013 0 0 0 1.433-1.43M272.56 122.17a1.013 1.013 0 1 0-1.433 1.432 1.013 1.013 0 0 0 1.433-1.431M272.56 135.712a1.013 1.013 0 1 0-1.433 1.432 1.013 1.013 0 0 0 1.433-1.432M272.56 149.254a1.013 1.013 0 1 0-1.433 1.431 1.013 1.013 0 0 0 1.433-1.431M272.56 162.795a1.013 1.013 0 1 0-1.433 1.432 1.013 1.013 0 0 0 1.433-1.432M272.56 176.337a1.013 1.013 0 1 0-1.433 1.431 1.013 1.013 0 0 0 1.433-1.431M272.56 189.878a1.013 1.013 0 1 0-1.433 1.432 1.013 1.013 0 0 0 1.433-1.432M272.56 203.42a1.013 1.013 0 1 0-1.433 1.431 1.013 1.013 0 0 0 1.433-1.431M272.56 216.961a1.013 1.013 0 1 0-1.433 1.432 1.013 1.013 0 0 0 1.433-1.432M272.56 230.503a1.013 1.013 0 1 0-1.433 1.431 1.013 1.013 0 0 0 1.433-1.431M271.127 244.044a1.013 1.013 0 1 0 1.432 1.433 1.013 1.013 0 0 0-1.432-1.433M257.586 42.354a1.013 1.013 0 0 0 1.65-.328c-.44-.443-.885-.88-1.33-1.318a1.024 1.024 0 0 0-.32.213 1.013 1.013 0 0 0 0 1.433M259.019 54.463a1.013 1.013 0 1 0-1.433 1.431 1.013 1.013 0 0 0 1.433-1.431M259.019 68.004a1.013 1.013 0 1 0-1.433 1.432 1.013 1.013 0 0 0 1.433-1.432M259.019 81.546a1.013 1.013 0 1 0-1.433 1.431 1.013 1.013 0 0 0 1.433-1.431M259.019 95.088a1.013 1.013 0 1 0-1.433 1.431 1.013 1.013 0 0 0 1.433-1.431M259.019 108.63a1.013 1.013 0 1 0-1.433 1.43 1.013 1.013 0 0 0 1.433-1.43M259.019 122.17a1.013 1.013 0 1 0-1.433 1.432 1.013 1.013 0 0 0 1.433-1.431M259.019 135.712a1.013 1.013 0 1 0-1.433 1.432 1.013 1.013 0 0 0 1.433-1.432M259.019 149.254a1.013 1.013 0 1 0-1.433 1.431 1.013 1.013 0 0 0 1.433-1.431M259.019 162.795a1.013 1.013 0 1 0-1.433 1.432 1.013 1.013 0 0 0 1.433-1.432M259.019 176.337a1.013 1.013 0 1 0-1.433 1.431 1.013 1.013 0 0 0 1.433-1.431M259.019 189.878a1.013 1.013 0 1 0-1.433 1.432 1.013 1.013 0 0 0 1.433-1.432M259.019 203.42a1.013 1.013 0 1 0-1.433 1.431 1.013 1.013 0 0 0 1.433-1.431M259.019 216.961a1.013 1.013 0 1 0-1.433 1.432 1.013 1.013 0 0 0 1.433-1.432M259.019 230.503a1.013 1.013 0 1 0-1.433 1.431 1.013 1.013 0 0 0 1.433-1.431M259.019 244.044a1.013 1.013 0 1 0-1.433 1.432 1.013 1.013 0 0 0 1.433-1.432M257.586 257.586a1.013 1.013 0 1 0 1.432 1.433 1.013 1.013 0 0 0-1.432-1.433M244.044 28.812c.194.195.45.291.704.294-.313-.246-.63-.484-.945-.728a.983.983 0 0 0 .242.434M245.477 40.921a1.013 1.013 0 1 0-1.433 1.432 1.013 1.013 0 0 0 1.433-1.432M245.477 54.463a1.013 1.013 0 1 0-1.433 1.431 1.013 1.013 0 0 0 1.433-1.431M245.477 68.004a1.013 1.013 0 1 0-1.433 1.432 1.013 1.013 0 0 0 1.433-1.432M245.477 81.546a1.013 1.013 0 1 0-1.433 1.431 1.013 1.013 0 0 0 1.433-1.431M245.477 95.088a1.013 1.013 0 1 0-1.433 1.431 1.013 1.013 0 0 0 1.433-1.431M245.477 108.63a1.013 1.013 0 1 0-1.433 1.43 1.013 1.013 0 0 0 1.433-1.43M245.477 122.17a1.013 1.013 0 1 0-1.433 1.432 1.013 1.013 0 0 0 1.433-1.431M245.477 135.712a1.013 1.013 0 1 0-1.433 1.432 1.013 1.013 0 0 0 1.433-1.432M245.477 149.254a1.013 1.013 0 1 0-1.433 1.431 1.013 1.013 0 0 0 1.433-1.431M245.477 162.795a1.013 1.013 0 1 0-1.433 1.432 1.013 1.013 0 0 0 1.433-1.432M245.477 176.337a1.013 1.013 0 1 0-1.433 1.431 1.013 1.013 0 0 0 1.433-1.431M245.477 189.878a1.013 1.013 0 1 0-1.433 1.432 1.013 1.013 0 0 0 1.433-1.432M245.477 203.42a1.013 1.013 0 1 0-1.433 1.431 1.013 1.013 0 0 0 1.433-1.431M245.477 216.961a1.013 1.013 0 1 0-1.433 1.432 1.013 1.013 0 0 0 1.433-1.432M245.477 230.503a1.013 1.013 0 1 0-1.433 1.431 1.013 1.013 0 0 0 1.433-1.431M245.477 244.044a1.013 1.013 0 1 0-1.433 1.432 1.013 1.013 0 0 0 1.433-1.432M245.477 257.586a1.013 1.013 0 1 0-1.433 1.431 1.013 1.013 0 0 0 1.433-1.431M244.044 271.127a1.013 1.013 0 1 0 1.432 1.433 1.013 1.013 0 0 0-1.431-1.433M231.936 27.38a1.013 1.013 0 1 0-1.433 1.431 1.013 1.013 0 0 0 1.433-1.431M231.936 40.921a1.013 1.013 0 1 0-1.433 1.432 1.013 1.013 0 0 0 1.433-1.432M231.936 54.463a1.013 1.013 0 1 0-1.433 1.431 1.013 1.013 0 0 0 1.433-1.431M231.936 68.004a1.013 1.013 0 1 0-1.433 1.432 1.013 1.013 0 0 0 1.433-1.432M231.936 81.546a1.013 1.013 0 1 0-1.433 1.431 1.013 1.013 0 0 0 1.433-1.431M231.936 95.088a1.013 1.013 0 1 0-1.433 1.431 1.013 1.013 0 0 0 1.433-1.431M231.936 108.63a1.013 1.013 0 1 0-1.433 1.43 1.013 1.013 0 0 0 1.433-1.43M231.936 122.17a1.013 1.013 0 1 0-1.433 1.432 1.013 1.013 0 0 0 1.433-1.431M231.936 135.712a1.013 1.013 0 1 0-1.433 1.432 1.013 1.013 0 0 0 1.433-1.432M231.936 149.254a1.013 1.013 0 1 0-1.433 1.431 1.013 1.013 0 0 0 1.433-1.431M231.936 162.795a1.013 1.013 0 1 0-1.433 1.432 1.013 1.013 0 0 0 1.433-1.432M231.936 176.337a1.013 1.013 0 1 0-1.433 1.431 1.013 1.013 0 0 0 1.433-1.431M231.936 189.878a1.013 1.013 0 1 0-1.433 1.432 1.013 1.013 0 0 0 1.433-1.432M231.936 203.42a1.013 1.013 0 1 0-1.433 1.431 1.013 1.013 0 0 0 1.433-1.431M231.936 216.961a1.013 1.013 0 1 0-1.433 1.432 1.013 1.013 0 0 0 1.433-1.432M231.936 230.503a1.013 1.013 0 1 0-1.433 1.431 1.013 1.013 0 0 0 1.433-1.431M231.936 244.044a1.013 1.013 0 1 0-1.433 1.432 1.013 1.013 0 0 0 1.433-1.432M231.936 257.586a1.013 1.013 0 1 0-1.433 1.431 1.013 1.013 0 0 0 1.433-1.431M231.936 271.127a1.013 1.013 0 1 0-1.433 1.432 1.013 1.013 0 0 0 1.433-1.432M230.503 284.669a1.013 1.013 0 1 0 1.432 1.433 1.013 1.013 0 0 0-1.432-1.433M218.394 13.838a1.013 1.013 0 1 0-1.433 1.432 1.013 1.013 0 0 0 1.433-1.432M218.394 27.38a1.013 1.013 0 1 0-1.433 1.431 1.013 1.013 0 0 0 1.433-1.431M218.394 40.921a1.013 1.013 0 1 0-1.433 1.432 1.013 1.013 0 0 0 1.433-1.432M218.394 54.463a1.013 1.013 0 1 0-1.433 1.431 1.013 1.013 0 0 0 1.433-1.431M218.394 68.004a1.013 1.013 0 1 0-1.433 1.432 1.013 1.013 0 0 0 1.433-1.432M218.394 81.546a1.013 1.013 0 1 0-1.433 1.431 1.013 1.013 0 0 0 1.433-1.431M218.394 95.088a1.013 1.013 0 1 0-1.433 1.431 1.013 1.013 0 0 0 1.433-1.431M218.394 108.63a1.013 1.013 0 1 0-1.433 1.43 1.013 1.013 0 0 0 1.433-1.43M218.394 122.17a1.013 1.013 0 1 0-1.433 1.432 1.013 1.013 0 0 0 1.433-1.431M218.394 135.712a1.013 1.013 0 1 0-1.433 1.432 1.013 1.013 0 0 0 1.433-1.432M218.394 149.254a1.013 1.013 0 1 0-1.433 1.431 1.013 1.013 0 0 0 1.433-1.431M218.394 162.795a1.013 1.013 0 1 0-1.433 1.432 1.013 1.013 0 0 0 1.433-1.432M218.394 176.337a1.013 1.013 0 1 0-1.433 1.431 1.013 1.013 0 0 0 1.433-1.431M218.394 189.878a1.013 1.013 0 1 0-1.433 1.432 1.013 1.013 0 0 0 1.433-1.432M218.394 203.42a1.013 1.013 0 1 0-1.433 1.431 1.013 1.013 0 0 0 1.433-1.431M218.394 216.961a1.013 1.013 0 1 0-1.433 1.432 1.013 1.013 0 0 0 1.433-1.432M218.394 230.503a1.013 1.013 0 1 0-1.433 1.431 1.013 1.013 0 0 0 1.433-1.431M218.394 244.044a1.013 1.013 0 1 0-1.433 1.432 1.013 1.013 0 0 0 1.433-1.432M218.394 257.586a1.013 1.013 0 1 0-1.433 1.431 1.013 1.013 0 0 0 1.433-1.431M218.394 271.127a1.013 1.013 0 1 0-1.433 1.432 1.013 1.013 0 0 0 1.433-1.432M216.962 284.669a1.013 1.013 0 1 0 1.431 1.433 1.013 1.013 0 0 0-1.431-1.433M204.853 13.838a1.013 1.013 0 1 0-1.433 1.432 1.013 1.013 0 0 0 1.433-1.432M204.853 27.38a1.013 1.013 0 1 0-1.433 1.431 1.013 1.013 0 0 0 1.433-1.431M204.853 40.921a1.013 1.013 0 1 0-1.433 1.432 1.013 1.013 0 0 0 1.433-1.432M204.853 54.463a1.013 1.013 0 1 0-1.433 1.431 1.013 1.013 0 0 0 1.433-1.431M204.853 68.004a1.013 1.013 0 1 0-1.433 1.432 1.013 1.013 0 0 0 1.433-1.432M204.853 81.546a1.013 1.013 0 1 0-1.433 1.431 1.013 1.013 0 0 0 1.433-1.431M204.853 95.088a1.013 1.013 0 1 0-1.433 1.431 1.013 1.013 0 0 0 1.433-1.431M204.853 108.63a1.013 1.013 0 1 0-1.433 1.43 1.013 1.013 0 0 0 1.433-1.43M204.853 122.17a1.013 1.013 0 1 0-1.433 1.432 1.013 1.013 0 0 0 1.433-1.431M204.853 135.712a1.013 1.013 0 1 0-1.433 1.432 1.013 1.013 0 0 0 1.433-1.432M204.853 149.254a1.013 1.013 0 1 0-1.433 1.431 1.013 1.013 0 0 0 1.433-1.431M204.853 162.795a1.013 1.013 0 1 0-1.433 1.432 1.013 1.013 0 0 0 1.433-1.432M204.853 176.337a1.013 1.013 0 1 0-1.433 1.431 1.013 1.013 0 0 0 1.433-1.431M204.853 189.878a1.013 1.013 0 1 0-1.433 1.432 1.013 1.013 0 0 0 1.433-1.432M204.853 203.42a1.013 1.013 0 1 0-1.433 1.431 1.013 1.013 0 0 0 1.433-1.431M204.853 216.961a1.013 1.013 0 1 0-1.433 1.432 1.013 1.013 0 0 0 1.433-1.432M204.853 230.503a1.013 1.013 0 1 0-1.433 1.431 1.013 1.013 0 0 0 1.433-1.431M204.853 244.044a1.013 1.013 0 1 0-1.433 1.432 1.013 1.013 0 0 0 1.433-1.432M204.853 257.586a1.013 1.013 0 1 0-1.433 1.431 1.013 1.013 0 0 0 1.433-1.431M204.853 271.127a1.013 1.013 0 1 0-1.433 1.432 1.013 1.013 0 0 0 1.433-1.432M204.853 284.669a1.013 1.013 0 1 0-1.433 1.431 1.013 1.013 0 0 0 1.433-1.431M203.42 298.21a1.013 1.013 0 1 0 1.432 1.434 1.013 1.013 0 0 0-1.432-1.433M189.879 1.73a1.013 1.013 0 0 0 1.433 0c.024-.025.033-.058.054-.085-.585-.17-1.17-.337-1.759-.5.029.212.107.42.272.584M191.311 13.838a1.013 1.013 0 1 0-1.433 1.432 1.013 1.013 0 0 0 1.433-1.432M191.311 27.38a1.013 1.013 0 1 0-1.433 1.431 1.013 1.013 0 0 0 1.433-1.431M191.311 40.921a1.013 1.013 0 1 0-1.433 1.432 1.013 1.013 0 0 0 1.433-1.432M191.311 54.463a1.013 1.013 0 1 0-1.433 1.431 1.013 1.013 0 0 0 1.433-1.431M191.311 68.004a1.013 1.013 0 1 0-1.433 1.432 1.013 1.013 0 0 0 1.433-1.432M191.311 81.546a1.013 1.013 0 1 0-1.433 1.431 1.013 1.013 0 0 0 1.433-1.431M191.311 95.088a1.013 1.013 0 1 0-1.433 1.431 1.013 1.013 0 0 0 1.433-1.431M191.311 108.63a1.013 1.013 0 1 0-1.433 1.43 1.013 1.013 0 0 0 1.433-1.43M191.311 122.17a1.013 1.013 0 1 0-1.433 1.432 1.013 1.013 0 0 0 1.433-1.431M191.311 135.712a1.013 1.013 0 1 0-1.433 1.432 1.013 1.013 0 0 0 1.433-1.432M191.311 149.254a1.013 1.013 0 1 0-1.433 1.431 1.013 1.013 0 0 0 1.433-1.431M191.311 162.795a1.013 1.013 0 1 0-1.433 1.432 1.013 1.013 0 0 0 1.433-1.432M191.311 176.337a1.013 1.013 0 1 0-1.433 1.431 1.013 1.013 0 0 0 1.433-1.431M191.311 189.878a1.013 1.013 0 1 0-1.433 1.432 1.013 1.013 0 0 0 1.433-1.432M191.311 203.42a1.013 1.013 0 1 0-1.433 1.431 1.013 1.013 0 0 0 1.433-1.431M191.311 216.961a1.013 1.013 0 1 0-1.433 1.432 1.013 1.013 0 0 0 1.433-1.432M191.311 230.503a1.013 1.013 0 1 0-1.433 1.431 1.013 1.013 0 0 0 1.433-1.431M191.311 244.044a1.013 1.013 0 1 0-1.433 1.432 1.013 1.013 0 0 0 1.433-1.432M191.311 257.586a1.013 1.013 0 1 0-1.433 1.431 1.013 1.013 0 0 0 1.433-1.431M191.311 271.127a1.013 1.013 0 1 0-1.433 1.432 1.013 1.013 0 0 0 1.433-1.432M191.311 284.669a1.013 1.013 0 1 0-1.433 1.431 1.013 1.013 0 0 0 1.433-1.431M189.879 298.21a1.013 1.013 0 1 0 1.431 1.434 1.013 1.013 0 0 0-1.431-1.433"/>
        <g transform="translate(176 -.06)">
            <mask id="b" fill="#fff">
                <use xlink:href="#a"/>
            </mask>
            <path fill="#1A1A1A" d="M1.77.357A1.013 1.013 0 1 0 .337 1.788 1.013 1.013 0 0 0 1.77.357" mask="url(#b)"/>
        </g>
        <path fill="#1A1A1A" d="M177.77 13.838a1.013 1.013 0 1 0-1.433 1.432 1.013 1.013 0 0 0 1.433-1.432M177.77 27.38a1.013 1.013 0 1 0-1.433 1.431 1.013 1.013 0 0 0 1.433-1.431M177.77 40.921a1.013 1.013 0 1 0-1.433 1.432 1.013 1.013 0 0 0 1.433-1.432M177.77 54.463a1.013 1.013 0 1 0-1.433 1.431 1.013 1.013 0 0 0 1.433-1.431M177.77 68.004a1.013 1.013 0 1 0-1.433 1.432 1.013 1.013 0 0 0 1.433-1.432M177.77 81.546a1.013 1.013 0 1 0-1.433 1.431 1.013 1.013 0 0 0 1.433-1.431M177.77 95.088a1.013 1.013 0 1 0-1.433 1.431 1.013 1.013 0 0 0 1.433-1.431M177.77 108.63a1.013 1.013 0 1 0-1.433 1.43 1.013 1.013 0 0 0 1.433-1.43M177.77 122.17a1.013 1.013 0 1 0-1.433 1.432 1.013 1.013 0 0 0 1.433-1.431M177.77 135.712a1.013 1.013 0 1 0-1.433 1.432 1.013 1.013 0 0 0 1.433-1.432M177.77 149.254a1.013 1.013 0 1 0-1.433 1.431 1.013 1.013 0 0 0 1.433-1.431M177.77 162.795a1.013 1.013 0 1 0-1.433 1.432 1.013 1.013 0 0 0 1.433-1.432M177.77 176.337a1.013 1.013 0 1 0-1.433 1.431 1.013 1.013 0 0 0 1.433-1.431M177.77 189.878a1.013 1.013 0 1 0-1.433 1.432 1.013 1.013 0 0 0 1.433-1.432M177.77 203.42a1.013 1.013 0 1 0-1.433 1.431 1.013 1.013 0 0 0 1.433-1.431M177.77 216.961a1.013 1.013 0 1 0-1.433 1.432 1.013 1.013 0 0 0 1.433-1.432M177.77 230.503a1.013 1.013 0 1 0-1.433 1.431 1.013 1.013 0 0 0 1.433-1.431M177.77 244.044a1.013 1.013 0 1 0-1.433 1.432 1.013 1.013 0 0 0 1.433-1.432M177.77 257.586a1.013 1.013 0 1 0-1.433 1.431 1.013 1.013 0 0 0 1.433-1.431M177.77 271.127a1.013 1.013 0 1 0-1.433 1.432 1.013 1.013 0 0 0 1.433-1.432M177.77 284.669a1.013 1.013 0 1 0-1.433 1.431 1.013 1.013 0 0 0 1.433-1.431M176.337 298.21a1.013 1.013 0 1 0 1.431 1.434 1.013 1.013 0 0 0-1.431-1.433"/>
        <g transform="translate(162 -.06)">
            <mask id="d" fill="#fff">
                <use xlink:href="#c"/>
            </mask>
            <path fill="#1A1A1A" d="M2.228.357A1.013 1.013 0 1 0 .795 1.788 1.013 1.013 0 0 0 2.228.357" mask="url(#d)"/>
        </g>
        <path fill="#1A1A1A" d="M164.228 13.838a1.013 1.013 0 1 0-1.433 1.432 1.013 1.013 0 0 0 1.433-1.432M164.228 27.38a1.013 1.013 0 1 0-1.433 1.431 1.013 1.013 0 0 0 1.433-1.431M164.228 40.921a1.013 1.013 0 1 0-1.433 1.432 1.013 1.013 0 0 0 1.433-1.432M164.228 54.463a1.013 1.013 0 1 0-1.433 1.431 1.013 1.013 0 0 0 1.433-1.431M164.228 68.004a1.013 1.013 0 1 0-1.433 1.432 1.013 1.013 0 0 0 1.433-1.432M164.228 81.546a1.013 1.013 0 1 0-1.433 1.431 1.013 1.013 0 0 0 1.433-1.431M164.228 95.088a1.013 1.013 0 1 0-1.433 1.431 1.013 1.013 0 0 0 1.433-1.431M164.228 108.63a1.013 1.013 0 1 0-1.433 1.43 1.013 1.013 0 0 0 1.433-1.43M164.228 122.17a1.013 1.013 0 1 0-1.433 1.432 1.013 1.013 0 0 0 1.433-1.431M164.228 135.712a1.013 1.013 0 1 0-1.433 1.432 1.013 1.013 0 0 0 1.433-1.432M164.228 149.254a1.013 1.013 0 1 0-1.433 1.431 1.013 1.013 0 0 0 1.433-1.431M164.228 162.795a1.013 1.013 0 1 0-1.433 1.432 1.013 1.013 0 0 0 1.433-1.432M164.228 176.337a1.013 1.013 0 1 0-1.433 1.431 1.013 1.013 0 0 0 1.433-1.431M164.228 189.878a1.013 1.013 0 1 0-1.433 1.432 1.013 1.013 0 0 0 1.433-1.432M164.228 203.42a1.013 1.013 0 1 0-1.433 1.431 1.013 1.013 0 0 0 1.433-1.431M164.228 216.961a1.013 1.013 0 1 0-1.433 1.432 1.013 1.013 0 0 0 1.433-1.432M164.228 230.503a1.013 1.013 0 1 0-1.433 1.431 1.013 1.013 0 0 0 1.433-1.431M164.228 244.044a1.013 1.013 0 1 0-1.433 1.432 1.013 1.013 0 0 0 1.433-1.432M164.228 257.586a1.013 1.013 0 1 0-1.433 1.431 1.013 1.013 0 0 0 1.433-1.431M164.228 271.127a1.013 1.013 0 1 0-1.433 1.432 1.013 1.013 0 0 0 1.433-1.432M164.228 284.669a1.013 1.013 0 1 0-1.433 1.431 1.013 1.013 0 0 0 1.433-1.431M162.795 298.21a1.013 1.013 0 1 0 1.432 1.434 1.013 1.013 0 0 0-1.432-1.433"/>
        <g transform="translate(148 -.06)">
            <mask id="f" fill="#fff">
                <use xlink:href="#e"/>
            </mask>
            <path fill="#1A1A1A" d="M2.687.357a1.013 1.013 0 1 0-1.433 1.431A1.013 1.013 0 0 0 2.687.357" mask="url(#f)"/>
        </g>
        <path fill="#1A1A1A" d="M150.687 13.838a1.013 1.013 0 1 0-1.433 1.432 1.013 1.013 0 0 0 1.433-1.432M150.687 27.38a1.013 1.013 0 1 0-1.433 1.431 1.013 1.013 0 0 0 1.433-1.431M150.687 40.921a1.013 1.013 0 1 0-1.433 1.432 1.013 1.013 0 0 0 1.433-1.432M150.687 54.463a1.013 1.013 0 1 0-1.433 1.431 1.013 1.013 0 0 0 1.433-1.431M150.687 68.004a1.013 1.013 0 1 0-1.433 1.432 1.013 1.013 0 0 0 1.433-1.432M150.687 81.546a1.013 1.013 0 1 0-1.433 1.431 1.013 1.013 0 0 0 1.433-1.431M150.687 95.088a1.013 1.013 0 1 0-1.433 1.431 1.013 1.013 0 0 0 1.433-1.431M150.687 108.63a1.013 1.013 0 1 0-1.433 1.43 1.013 1.013 0 0 0 1.433-1.43M150.687 122.17a1.013 1.013 0 1 0-1.433 1.432 1.013 1.013 0 0 0 1.433-1.431M150.687 135.712a1.013 1.013 0 1 0-1.433 1.432 1.013 1.013 0 0 0 1.433-1.432M150.687 149.254a1.013 1.013 0 1 0-1.433 1.431 1.013 1.013 0 0 0 1.433-1.431M150.687 162.795a1.013 1.013 0 1 0-1.433 1.432 1.013 1.013 0 0 0 1.433-1.432M150.687 176.337a1.013 1.013 0 1 0-1.433 1.431 1.013 1.013 0 0 0 1.433-1.431M150.687 189.878a1.013 1.013 0 1 0-1.433 1.432 1.013 1.013 0 0 0 1.433-1.432M150.687 203.42a1.013 1.013 0 1 0-1.433 1.431 1.013 1.013 0 0 0 1.433-1.431M150.687 216.961a1.013 1.013 0 1 0-1.433 1.432 1.013 1.013 0 0 0 1.433-1.432M150.687 230.503a1.013 1.013 0 1 0-1.433 1.431 1.013 1.013 0 0 0 1.433-1.431M150.687 244.044a1.013 1.013 0 1 0-1.433 1.432 1.013 1.013 0 0 0 1.433-1.432M150.687 257.586a1.013 1.013 0 1 0-1.433 1.431 1.013 1.013 0 0 0 1.433-1.431M150.687 271.127a1.013 1.013 0 1 0-1.433 1.432 1.013 1.013 0 0 0 1.433-1.432M149.254 284.669a1.013 1.013 0 1 0 1.431 1.433 1.013 1.013 0 0 0-1.431-1.433"/>
        <g transform="translate(148 296.94)">
            <mask id="h" fill="#fff">
                <use xlink:href="#g"/>
            </mask>
            <path fill="#1A1A1A" d="M2.687 2.703A1.013 1.013 0 1 0 1.255 1.27a1.013 1.013 0 0 0 1.432 1.433" mask="url(#h)"/>
        </g>
        <g transform="translate(135 -.06)">
            <mask id="j" fill="#fff">
                <use xlink:href="#i"/>
            </mask>
            <path fill="#1A1A1A" d="M.712.357A1.013 1.013 0 1 0 2.144 1.79 1.013 1.013 0 0 0 .712.357" mask="url(#j)"/>
        </g>
        <path fill="#1A1A1A" d="M137.145 15.27a1.013 1.013 0 1 0-1.431-1.432 1.013 1.013 0 0 0 1.431 1.433M135.712 28.812a1.013 1.013 0 1 0 1.433-1.431 1.013 1.013 0 0 0-1.433 1.431M135.712 42.354a1.013 1.013 0 1 0 1.433-1.431 1.013 1.013 0 0 0-1.433 1.431M135.712 55.896a1.013 1.013 0 1 0 1.433-1.432 1.013 1.013 0 0 0-1.433 1.432M135.712 69.437a1.013 1.013 0 1 0 1.433-1.431 1.013 1.013 0 0 0-1.433 1.431M135.712 82.979a1.013 1.013 0 1 0 1.433-1.432 1.013 1.013 0 0 0-1.433 1.432M135.712 96.52a1.013 1.013 0 1 0 1.433-1.431 1.013 1.013 0 0 0-1.433 1.431M135.712 110.062a1.013 1.013 0 1 0 1.433-1.432 1.013 1.013 0 0 0-1.433 1.432M135.712 123.603a1.013 1.013 0 1 0 1.433-1.431 1.013 1.013 0 0 0-1.433 1.431M135.712 137.145a1.013 1.013 0 1 0 1.433-1.432 1.013 1.013 0 0 0-1.433 1.432M135.712 150.686a1.013 1.013 0 1 0 1.433-1.431 1.013 1.013 0 0 0-1.433 1.431M135.712 164.228a1.013 1.013 0 1 0 1.433-1.432 1.013 1.013 0 0 0-1.433 1.432M135.712 177.77a1.013 1.013 0 1 0 1.433-1.432 1.013 1.013 0 0 0-1.433 1.431M135.712 191.31a1.013 1.013 0 1 0 1.433-1.43 1.013 1.013 0 0 0-1.433 1.43M135.712 204.852a1.013 1.013 0 1 0 1.433-1.431 1.013 1.013 0 0 0-1.433 1.431M135.712 218.394a1.013 1.013 0 1 0 1.433-1.432 1.013 1.013 0 0 0-1.433 1.432M135.712 231.936a1.013 1.013 0 1 0 1.433-1.432 1.013 1.013 0 0 0-1.433 1.432M135.712 245.477a1.013 1.013 0 1 0 1.433-1.431 1.013 1.013 0 0 0-1.433 1.431M135.712 259.019a1.013 1.013 0 1 0 1.433-1.432 1.013 1.013 0 0 0-1.433 1.432M135.712 272.56a1.013 1.013 0 1 0 1.433-1.431 1.013 1.013 0 0 0-1.433 1.431M135.712 286.102a1.013 1.013 0 1 0 1.433-1.432 1.013 1.013 0 0 0-1.433 1.432"/>
        <g transform="translate(135 296.94)">
            <mask id="l" fill="#fff">
                <use xlink:href="#k"/>
            </mask>
            <path fill="#1A1A1A" d="M.712 2.703a1.013 1.013 0 1 0 1.433-1.431A1.013 1.013 0 0 0 .712 2.703" mask="url(#l)"/>
        </g>
        <path fill="#1A1A1A" d="M123.603 1.73a1.013 1.013 0 1 0-1.431-1.434 1.013 1.013 0 0 0 1.431 1.433M122.17 15.27a1.013 1.013 0 1 0 1.433-1.43 1.013 1.013 0 0 0-1.432 1.43M122.17 28.812a1.013 1.013 0 1 0 1.433-1.431 1.013 1.013 0 0 0-1.432 1.431M122.17 42.354a1.013 1.013 0 1 0 1.433-1.431 1.013 1.013 0 0 0-1.432 1.431M122.17 55.896a1.013 1.013 0 1 0 1.433-1.432 1.013 1.013 0 0 0-1.432 1.432M122.17 69.437a1.013 1.013 0 1 0 1.433-1.431 1.013 1.013 0 0 0-1.432 1.431M122.17 82.979a1.013 1.013 0 1 0 1.433-1.432 1.013 1.013 0 0 0-1.432 1.432M122.17 96.52a1.013 1.013 0 1 0 1.433-1.431 1.013 1.013 0 0 0-1.432 1.431M122.17 110.062a1.013 1.013 0 1 0 1.433-1.432 1.013 1.013 0 0 0-1.432 1.432M122.17 123.603a1.013 1.013 0 1 0 1.433-1.431 1.013 1.013 0 0 0-1.432 1.431M122.17 137.145a1.013 1.013 0 1 0 1.433-1.432 1.013 1.013 0 0 0-1.432 1.432M122.17 150.686a1.013 1.013 0 1 0 1.433-1.431 1.013 1.013 0 0 0-1.432 1.431M122.17 164.228a1.013 1.013 0 1 0 1.433-1.432 1.013 1.013 0 0 0-1.432 1.432M122.17 177.77a1.013 1.013 0 1 0 1.433-1.432 1.013 1.013 0 0 0-1.432 1.431M122.17 191.31a1.013 1.013 0 1 0 1.433-1.43 1.013 1.013 0 0 0-1.432 1.43M122.17 204.852a1.013 1.013 0 1 0 1.433-1.431 1.013 1.013 0 0 0-1.432 1.431M122.17 218.394a1.013 1.013 0 1 0 1.433-1.432 1.013 1.013 0 0 0-1.432 1.432M122.17 231.936a1.013 1.013 0 1 0 1.433-1.432 1.013 1.013 0 0 0-1.432 1.432M122.17 245.477a1.013 1.013 0 1 0 1.433-1.431 1.013 1.013 0 0 0-1.432 1.431M122.17 259.019a1.013 1.013 0 1 0 1.433-1.432 1.013 1.013 0 0 0-1.432 1.432M122.17 272.56a1.013 1.013 0 1 0 1.433-1.431 1.013 1.013 0 0 0-1.432 1.431M122.17 286.102a1.013 1.013 0 1 0 1.433-1.432 1.013 1.013 0 0 0-1.432 1.432"/>
        <g transform="translate(121 296.94)">
            <mask id="n" fill="#fff">
                <use xlink:href="#m"/>
            </mask>
            <path fill="#1A1A1A" d="M1.17 2.703a1.013 1.013 0 1 0 1.433-1.431A1.013 1.013 0 0 0 1.17 2.703" mask="url(#n)"/>
        </g>
        <path fill="#1A1A1A" d="M108.629.297a1.013 1.013 0 1 0 1.433 0 .998.998 0 0 0-.962-.25c-.051.014-.101.025-.152.038a1.005 1.005 0 0 0-.319.212M110.062 13.838a1.013 1.013 0 1 0-1.433 1.432 1.013 1.013 0 0 0 1.433-1.432M110.062 27.38a1.013 1.013 0 1 0-1.433 1.431 1.013 1.013 0 0 0 1.433-1.431M110.062 40.921a1.013 1.013 0 1 0-1.433 1.432 1.013 1.013 0 0 0 1.433-1.432M110.062 54.463a1.013 1.013 0 1 0-1.433 1.431 1.013 1.013 0 0 0 1.433-1.431M110.062 68.004a1.013 1.013 0 1 0-1.433 1.432 1.013 1.013 0 0 0 1.433-1.432M110.062 81.546a1.013 1.013 0 1 0-1.433 1.431 1.013 1.013 0 0 0 1.433-1.431M110.062 95.088a1.013 1.013 0 1 0-1.433 1.431 1.013 1.013 0 0 0 1.433-1.431M110.062 108.63a1.013 1.013 0 1 0-1.433 1.43 1.013 1.013 0 0 0 1.433-1.43M110.062 122.17a1.013 1.013 0 1 0-1.433 1.432 1.013 1.013 0 0 0 1.433-1.431M110.062 135.712a1.013 1.013 0 1 0-1.433 1.432 1.013 1.013 0 0 0 1.433-1.432M110.062 149.254a1.013 1.013 0 1 0-1.433 1.431 1.013 1.013 0 0 0 1.433-1.431M110.062 162.795a1.013 1.013 0 1 0-1.433 1.432 1.013 1.013 0 0 0 1.433-1.432M110.062 176.337a1.013 1.013 0 1 0-1.433 1.431 1.013 1.013 0 0 0 1.433-1.431M110.062 189.878a1.013 1.013 0 1 0-1.433 1.432 1.013 1.013 0 0 0 1.433-1.432M110.062 203.42a1.013 1.013 0 1 0-1.433 1.431 1.013 1.013 0 0 0 1.433-1.431M110.062 216.961a1.013 1.013 0 1 0-1.433 1.432 1.013 1.013 0 0 0 1.433-1.432M110.062 230.503a1.013 1.013 0 1 0-1.433 1.431 1.013 1.013 0 0 0 1.433-1.431M110.062 244.044a1.013 1.013 0 1 0-1.433 1.432 1.013 1.013 0 0 0 1.433-1.432M110.062 257.586a1.013 1.013 0 1 0-1.433 1.431 1.013 1.013 0 0 0 1.433-1.431M110.062 271.127a1.013 1.013 0 1 0-1.433 1.432 1.013 1.013 0 0 0 1.433-1.432M110.062 284.669a1.013 1.013 0 1 0-1.433 1.431 1.013 1.013 0 0 0 1.433-1.431M108.629 298.21a1.013 1.013 0 1 0 1.432 1.434 1.013 1.013 0 0 0-1.432-1.433M96.52 13.838a1.013 1.013 0 1 0-1.433 1.432 1.013 1.013 0 0 0 1.433-1.432M96.52 27.38a1.013 1.013 0 1 0-1.433 1.431 1.013 1.013 0 0 0 1.433-1.431M96.52 40.921a1.013 1.013 0 1 0-1.433 1.432 1.013 1.013 0 0 0 1.433-1.432M96.52 54.463a1.013 1.013 0 1 0-1.433 1.431 1.013 1.013 0 0 0 1.433-1.431M96.52 68.004a1.013 1.013 0 1 0-1.433 1.432 1.013 1.013 0 0 0 1.433-1.432M96.52 81.546a1.013 1.013 0 1 0-1.433 1.431 1.013 1.013 0 0 0 1.433-1.431M96.52 95.088a1.013 1.013 0 1 0-1.433 1.431 1.013 1.013 0 0 0 1.433-1.431M96.52 108.63a1.013 1.013 0 1 0-1.433 1.43 1.013 1.013 0 0 0 1.433-1.43M96.52 122.17a1.013 1.013 0 1 0-1.433 1.432 1.013 1.013 0 0 0 1.433-1.431M96.52 135.712a1.013 1.013 0 1 0-1.433 1.432 1.013 1.013 0 0 0 1.433-1.432M96.52 149.254a1.013 1.013 0 1 0-1.433 1.431 1.013 1.013 0 0 0 1.433-1.431M96.52 162.795a1.013 1.013 0 1 0-1.433 1.432 1.013 1.013 0 0 0 1.433-1.432M96.52 176.337a1.013 1.013 0 1 0-1.433 1.431 1.013 1.013 0 0 0 1.433-1.431M96.52 189.878a1.013 1.013 0 1 0-1.433 1.432 1.013 1.013 0 0 0 1.433-1.432M96.52 203.42a1.013 1.013 0 1 0-1.433 1.431 1.013 1.013 0 0 0 1.433-1.431M96.52 216.961a1.013 1.013 0 1 0-1.433 1.432 1.013 1.013 0 0 0 1.433-1.432M96.52 230.503a1.013 1.013 0 1 0-1.433 1.431 1.013 1.013 0 0 0 1.433-1.431M96.52 244.044a1.013 1.013 0 1 0-1.433 1.432 1.013 1.013 0 0 0 1.433-1.432M96.52 257.586a1.013 1.013 0 1 0-1.433 1.431 1.013 1.013 0 0 0 1.433-1.431M96.52 271.127a1.013 1.013 0 1 0-1.433 1.432 1.013 1.013 0 0 0 1.433-1.432M96.52 284.669a1.013 1.013 0 1 0-1.433 1.431 1.013 1.013 0 0 0 1.433-1.431M95.087 298.21a1.013 1.013 0 1 0 1.432 1.434 1.013 1.013 0 0 0-1.432-1.433M82.979 13.838a1.013 1.013 0 1 0-1.433 1.432 1.013 1.013 0 0 0 1.433-1.432M82.979 27.38a1.013 1.013 0 1 0-1.433 1.431 1.013 1.013 0 0 0 1.433-1.431M82.979 40.921a1.013 1.013 0 1 0-1.433 1.432 1.013 1.013 0 0 0 1.433-1.432M82.979 54.463a1.013 1.013 0 1 0-1.433 1.431 1.013 1.013 0 0 0 1.433-1.431M82.979 68.004a1.013 1.013 0 1 0-1.433 1.432 1.013 1.013 0 0 0 1.433-1.432M82.979 81.546a1.013 1.013 0 1 0-1.433 1.431 1.013 1.013 0 0 0 1.433-1.431M82.979 95.088a1.013 1.013 0 1 0-1.433 1.431 1.013 1.013 0 0 0 1.433-1.431M82.979 108.63a1.013 1.013 0 1 0-1.433 1.43 1.013 1.013 0 0 0 1.433-1.43M82.979 122.17a1.013 1.013 0 1 0-1.433 1.432 1.013 1.013 0 0 0 1.433-1.431M82.979 135.712a1.013 1.013 0 1 0-1.433 1.432 1.013 1.013 0 0 0 1.433-1.432M82.979 149.254a1.013 1.013 0 1 0-1.433 1.431 1.013 1.013 0 0 0 1.433-1.431M82.979 162.795a1.013 1.013 0 1 0-1.433 1.432 1.013 1.013 0 0 0 1.433-1.432M82.979 176.337a1.013 1.013 0 1 0-1.433 1.431 1.013 1.013 0 0 0 1.433-1.431M82.979 189.878a1.013 1.013 0 1 0-1.433 1.432 1.013 1.013 0 0 0 1.433-1.432M82.979 203.42a1.013 1.013 0 1 0-1.433 1.431 1.013 1.013 0 0 0 1.433-1.431M82.979 216.961a1.013 1.013 0 1 0-1.433 1.432 1.013 1.013 0 0 0 1.433-1.432M82.979 230.503a1.013 1.013 0 1 0-1.433 1.431 1.013 1.013 0 0 0 1.433-1.431M82.979 244.044a1.013 1.013 0 1 0-1.433 1.432 1.013 1.013 0 0 0 1.433-1.432M82.979 257.586a1.013 1.013 0 1 0-1.433 1.431 1.013 1.013 0 0 0 1.433-1.431M82.979 271.127a1.013 1.013 0 1 0-1.433 1.432 1.013 1.013 0 0 0 1.433-1.432M81.546 284.669a1.013 1.013 0 1 0 1.431 1.433 1.013 1.013 0 0 0-1.431-1.433M69.437 27.38a1.013 1.013 0 1 0-1.433 1.431 1.013 1.013 0 0 0 1.433-1.431M69.437 40.921a1.013 1.013 0 1 0-1.433 1.432 1.013 1.013 0 0 0 1.433-1.432M69.437 54.463a1.013 1.013 0 1 0-1.433 1.431 1.013 1.013 0 0 0 1.433-1.431M69.437 68.004a1.013 1.013 0 1 0-1.433 1.432 1.013 1.013 0 0 0 1.433-1.432M69.437 81.546a1.013 1.013 0 1 0-1.433 1.431 1.013 1.013 0 0 0 1.433-1.431M69.437 95.088a1.013 1.013 0 1 0-1.433 1.431 1.013 1.013 0 0 0 1.433-1.431M69.437 108.63a1.013 1.013 0 1 0-1.433 1.43 1.013 1.013 0 0 0 1.433-1.43M69.437 122.17a1.013 1.013 0 1 0-1.433 1.432 1.013 1.013 0 0 0 1.433-1.431M69.437 135.712a1.013 1.013 0 1 0-1.433 1.432 1.013 1.013 0 0 0 1.433-1.432M69.437 149.254a1.013 1.013 0 1 0-1.433 1.431 1.013 1.013 0 0 0 1.433-1.431M69.437 162.795a1.013 1.013 0 1 0-1.433 1.432 1.013 1.013 0 0 0 1.433-1.432M69.437 176.337a1.013 1.013 0 1 0-1.433 1.431 1.013 1.013 0 0 0 1.433-1.431M69.437 189.878a1.013 1.013 0 1 0-1.433 1.432 1.013 1.013 0 0 0 1.433-1.432M69.437 203.42a1.013 1.013 0 1 0-1.433 1.431 1.013 1.013 0 0 0 1.433-1.431M69.437 216.961a1.013 1.013 0 1 0-1.433 1.432 1.013 1.013 0 0 0 1.433-1.432M69.437 230.503a1.013 1.013 0 1 0-1.433 1.431 1.013 1.013 0 0 0 1.433-1.431M69.437 244.044a1.013 1.013 0 1 0-1.433 1.432 1.013 1.013 0 0 0 1.433-1.432M69.437 257.586a1.013 1.013 0 1 0-1.433 1.431 1.013 1.013 0 0 0 1.433-1.431M69.437 271.127a1.013 1.013 0 1 0-1.433 1.432 1.013 1.013 0 0 0 1.433-1.432M68.004 284.669a1.013 1.013 0 1 0 1.432 1.433 1.013 1.013 0 0 0-1.432-1.433M55.896 27.38a1.013 1.013 0 1 0-1.433 1.431 1.013 1.013 0 0 0 1.433-1.431M55.896 40.921a1.013 1.013 0 1 0-1.433 1.432 1.013 1.013 0 0 0 1.433-1.432M55.896 54.463a1.013 1.013 0 1 0-1.433 1.431 1.013 1.013 0 0 0 1.433-1.431M55.896 68.004a1.013 1.013 0 1 0-1.433 1.432 1.013 1.013 0 0 0 1.433-1.432M55.896 81.546a1.013 1.013 0 1 0-1.433 1.431 1.013 1.013 0 0 0 1.433-1.431M55.896 95.088a1.013 1.013 0 1 0-1.433 1.431 1.013 1.013 0 0 0 1.433-1.431M55.896 108.63a1.013 1.013 0 1 0-1.433 1.43 1.013 1.013 0 0 0 1.433-1.43M55.896 122.17a1.013 1.013 0 1 0-1.433 1.432 1.013 1.013 0 0 0 1.433-1.431M55.896 135.712a1.013 1.013 0 1 0-1.433 1.432 1.013 1.013 0 0 0 1.433-1.432M55.896 149.254a1.013 1.013 0 1 0-1.433 1.431 1.013 1.013 0 0 0 1.433-1.431M55.896 162.795a1.013 1.013 0 1 0-1.433 1.432 1.013 1.013 0 0 0 1.433-1.432M55.896 176.337a1.013 1.013 0 1 0-1.433 1.431 1.013 1.013 0 0 0 1.433-1.431M55.896 189.878a1.013 1.013 0 1 0-1.433 1.432 1.013 1.013 0 0 0 1.433-1.432M55.896 203.42a1.013 1.013 0 1 0-1.433 1.431 1.013 1.013 0 0 0 1.433-1.431M55.896 216.961a1.013 1.013 0 1 0-1.433 1.432 1.013 1.013 0 0 0 1.433-1.432M55.896 230.503a1.013 1.013 0 1 0-1.433 1.431 1.013 1.013 0 0 0 1.433-1.431M55.896 244.044a1.013 1.013 0 1 0-1.433 1.432 1.013 1.013 0 0 0 1.433-1.432M55.896 257.586a1.013 1.013 0 1 0-1.433 1.431 1.013 1.013 0 0 0 1.433-1.431M54.463 271.127a1.013 1.013 0 1 0 1.431 1.433 1.013 1.013 0 0 0-1.431-1.433M42.354 40.921a1.013 1.013 0 1 0-1.433 1.432 1.013 1.013 0 0 0 1.433-1.432M42.354 54.463a1.013 1.013 0 1 0-1.433 1.431 1.013 1.013 0 0 0 1.433-1.431M42.354 68.004a1.013 1.013 0 1 0-1.433 1.432 1.013 1.013 0 0 0 1.433-1.432M42.354 81.546a1.013 1.013 0 1 0-1.433 1.431 1.013 1.013 0 0 0 1.433-1.431M42.354 95.088a1.013 1.013 0 1 0-1.433 1.431 1.013 1.013 0 0 0 1.433-1.431M42.354 108.63a1.013 1.013 0 1 0-1.433 1.43 1.013 1.013 0 0 0 1.433-1.43M42.354 122.17a1.013 1.013 0 1 0-1.433 1.432 1.013 1.013 0 0 0 1.433-1.431M42.354 135.712a1.013 1.013 0 1 0-1.433 1.432 1.013 1.013 0 0 0 1.433-1.432M42.354 149.254a1.013 1.013 0 1 0-1.433 1.431 1.013 1.013 0 0 0 1.433-1.431M42.354 162.795a1.013 1.013 0 1 0-1.433 1.432 1.013 1.013 0 0 0 1.433-1.432M42.354 176.337a1.013 1.013 0 1 0-1.433 1.431 1.013 1.013 0 0 0 1.433-1.431M42.354 189.878a1.013 1.013 0 1 0-1.433 1.432 1.013 1.013 0 0 0 1.433-1.432M42.354 203.42a1.013 1.013 0 1 0-1.433 1.431 1.013 1.013 0 0 0 1.433-1.431M42.354 216.961a1.013 1.013 0 1 0-1.433 1.432 1.013 1.013 0 0 0 1.433-1.432M42.354 230.503a1.013 1.013 0 1 0-1.433 1.431 1.013 1.013 0 0 0 1.433-1.431M40.921 244.044a1.013 1.013 0 1 0 1.432 1.433 1.013 1.013 0 0 0-1.432-1.433M42.354 259.019a1.013 1.013 0 1 0-1.432-1.433 1.013 1.013 0 0 0 1.432 1.433M27.38 54.463a1.013 1.013 0 1 0 1.431 1.433 1.013 1.013 0 0 0-1.431-1.433M28.813 69.437a1.013 1.013 0 1 0-1.432-1.433 1.013 1.013 0 0 0 1.431 1.433M27.38 82.979a1.013 1.013 0 1 0 1.433-1.432 1.013 1.013 0 0 0-1.433 1.432M27.38 96.52a1.013 1.013 0 1 0 1.433-1.431 1.013 1.013 0 0 0-1.433 1.431M27.38 110.062a1.013 1.013 0 1 0 1.433-1.432 1.013 1.013 0 0 0-1.433 1.432M27.38 123.603a1.013 1.013 0 1 0 1.433-1.431 1.013 1.013 0 0 0-1.433 1.431M27.38 137.145a1.013 1.013 0 1 0 1.433-1.432 1.013 1.013 0 0 0-1.433 1.432M27.38 150.686a1.013 1.013 0 1 0 1.433-1.431 1.013 1.013 0 0 0-1.433 1.431M27.38 164.228a1.013 1.013 0 1 0 1.433-1.432 1.013 1.013 0 0 0-1.433 1.432M27.38 177.77a1.013 1.013 0 1 0 1.433-1.432 1.013 1.013 0 0 0-1.433 1.431M27.38 191.31a1.013 1.013 0 1 0 1.433-1.43 1.013 1.013 0 0 0-1.433 1.43M27.38 204.852a1.013 1.013 0 1 0 1.433-1.431 1.013 1.013 0 0 0-1.433 1.431M27.38 218.394a1.013 1.013 0 1 0 1.433-1.432 1.013 1.013 0 0 0-1.433 1.432M27.38 231.936a1.013 1.013 0 1 0 1.433-1.432 1.013 1.013 0 0 0-1.433 1.432M27.38 245.477a1.013 1.013 0 1 0 1.433-1.431 1.013 1.013 0 0 0-1.433 1.431M13.838 69.437a1.013 1.013 0 1 0 1.433-1.433.997.997 0 0 0-.648-.283c-.317.491-.627.988-.939 1.484.045.08.085.163.154.232M15.271 81.546a1.013 1.013 0 1 0-1.433 1.431 1.013 1.013 0 0 0 1.433-1.431M15.271 95.088a1.013 1.013 0 1 0-1.433 1.431 1.013 1.013 0 0 0 1.433-1.431M15.271 108.63a1.013 1.013 0 1 0-1.433 1.43 1.013 1.013 0 0 0 1.433-1.43M15.271 122.17a1.013 1.013 0 1 0-1.433 1.432 1.013 1.013 0 0 0 1.433-1.431M15.271 135.712a1.013 1.013 0 1 0-1.433 1.432 1.013 1.013 0 0 0 1.433-1.432M15.271 149.254a1.013 1.013 0 1 0-1.433 1.431 1.013 1.013 0 0 0 1.433-1.431M15.271 162.795a1.013 1.013 0 1 0-1.433 1.432 1.013 1.013 0 0 0 1.433-1.432M15.271 176.337a1.013 1.013 0 1 0-1.433 1.431 1.013 1.013 0 0 0 1.433-1.431M15.271 189.878a1.013 1.013 0 1 0-1.433 1.432 1.013 1.013 0 0 0 1.433-1.432M15.271 203.42a1.013 1.013 0 1 0-1.433 1.431 1.013 1.013 0 0 0 1.433-1.431M15.271 216.961a1.013 1.013 0 1 0-1.433 1.432 1.013 1.013 0 0 0 1.433-1.432M13.838 230.503a1.013 1.013 0 1 0 1.432 1.433 1.013 1.013 0 0 0-1.432-1.433M.297 96.52a1.013 1.013 0 1 0 .334-1.655c-.18.452-.354.907-.53 1.361.05.105.109.207.196.294"/>
        <g transform="translate(0 107.94)">
            <mask id="p" fill="#fff">
                <use xlink:href="#o"/>
            </mask>
            <path fill="#1A1A1A" d="M1.73.69A1.013 1.013 0 1 0 .296 2.12 1.013 1.013 0 0 0 1.73.69" mask="url(#p)"/>
        </g>
        <g transform="translate(0 120.94)">
            <mask id="r" fill="#fff">
                <use xlink:href="#q"/>
            </mask>
            <path fill="#1A1A1A" d="M1.73 1.23A1.013 1.013 0 1 0 .296 2.663 1.013 1.013 0 0 0 1.73 1.231" mask="url(#r)"/>
        </g>
        <g transform="translate(0 134.94)">
            <mask id="t" fill="#fff">
                <use xlink:href="#s"/>
            </mask>
            <path fill="#1A1A1A" d="M1.73.772A1.013 1.013 0 1 0 .296 2.204 1.013 1.013 0 0 0 1.73.772" mask="url(#t)"/>
        </g>
        <g transform="translate(0 148.94)">
            <mask id="v" fill="#fff">
                <use xlink:href="#u"/>
            </mask>
            <path fill="#1A1A1A" d="M1.73.314A1.013 1.013 0 1 0 .296 1.745 1.013 1.013 0 0 0 1.73.314" mask="url(#v)"/>
        </g>
        <g transform="translate(0 161.94)">
            <mask id="x" fill="#fff">
                <use xlink:href="#w"/>
            </mask>
            <path fill="#1A1A1A" d="M1.73.855A1.013 1.013 0 1 0 .296 2.287 1.013 1.013 0 0 0 1.73.855" mask="url(#x)"/>
        </g>
        <g transform="translate(0 175.94)">
            <mask id="z" fill="#fff">
                <use xlink:href="#y"/>
            </mask>
            <path fill="#1A1A1A" d="M1.73.397A1.013 1.013 0 1 0 .296 1.828 1.013 1.013 0 0 0 1.73.397" mask="url(#z)"/>
        </g>
        <g transform="translate(0 188.94)">
            <mask id="B" fill="#fff">
                <use xlink:href="#A"/>
            </mask>
            <path fill="#1A1A1A" d="M.297.938a1.013 1.013 0 1 0 1.431 1.433A1.013 1.013 0 0 0 .297.938" mask="url(#B)"/>
        </g>
        <g transform="translate(0 202.94)">
            <mask id="D" fill="#fff">
                <use xlink:href="#C"/>
            </mask>
            <path fill="#1A1A1A" d="M1.73 1.912A1.013 1.013 0 1 0 .298.48a1.013 1.013 0 0 0 1.431 1.433" mask="url(#D)"/>
        </g>
        <path fill="#FFFF52" d="M219.542 144.382a4.7 4.7 0 1 1 9.399 0 4.7 4.7 0 0 1-9.399 0M332.087 165.228a4.7 4.7 0 1 1 9.4 0 4.7 4.7 0 0 1-9.4 0"/>
        <path stroke="#000" stroke-width="3.537" d="M216.042 132.29c-13.66-23.28-17.294-44.316-7.357-54.252M266.8 188.23c-7.22-5.43-14.468-11.705-21.495-18.73a207.996 207.996 0 0 1-14.242-15.75M336.793 206.109c-10.298 10.295-32.52 6.02-56.807-8.878M301.8 142.143c0 16.104-13.055 29.16-29.158 29.16-16.104 0-29.159-13.056-29.159-29.16s13.055-29.158 29.16-29.158c16.102 0 29.157 13.054 29.157 29.158zM279.158 87.399c24.606-15.322 47.215-19.816 57.629-9.4M231.287 130.128a208.253 208.253 0 0 1 14.037-15.509c6.926-6.928 14.067-13.128 21.185-18.505M208.716 206.109c-9.713-9.716-6.458-30.045 6.453-52.708"/>
        <path stroke="#000" stroke-width="3.537" d="M318.844 148.078c-5.414 7.193-11.668 14.411-18.666 21.41-35.365 35.376-76.314 51.772-91.462 36.62M336.787 78c10.263 10.265 6.05 32.377-8.735 56.574M340.17 175.86c3.78 13.065 2.96 23.913-3.377 30.25M208.685 78.037c15.152-15.147 56.113 1.243 91.49 36.608 12.298 12.296 22.302 25.266 29.485 37.592M342.431 163.429a6.75 6.75 0 0 1-6.75 6.75 6.75 6.75 0 1 1 0-13.5 6.75 6.75 0 0 1 6.75 6.75zM265.962 149.526l6.68 6.139 6.82-6.14"/>
        <path stroke="#000" stroke-width="3.537" d="M248.79 157.746l17.172-8.22v-4.501l-4.57-5.063v-9.945c0-1.305.567-2.547 1.554-3.401l4.164-3.606a4.502 4.502 0 0 1 2.946-1.098h5.186c1.074 0 2.113.384 2.929 1.084l4.22 3.618a4.5 4.5 0 0 1 1.573 3.417v9.93l-4.501 5.064v4.5l17.332 8.596M230.074 142.053a6.75 6.75 0 0 1-6.75 6.75 6.75 6.75 0 1 1 0-13.5 6.75 6.75 0 0 1 6.75 6.75z"/>
    </g>
</svg>
