<svg xmlns="http://www.w3.org/2000/svg" xmlns:xlink="http://www.w3.org/1999/xlink" width="240" height="343" viewBox="0 0 240 343">
    <defs>
        <path id="a" d="M0 342.102h155.132V0H0z"/>
    </defs>
    <g fill="none" fill-rule="evenodd">
        <g transform="translate(37)">
            <path fill="#F1F1F1" d="M40.022 83.7l-27.427 30.864-1.68 195.352 4.807-.9-3.604 17.693h3.32l-2.843 13.993h21.27l-3.248-13.044 3.843-.949-3.727-16.32 9.289-.473.324-26.944 6.953 8.14 12.486 1.436h45.542l9.784-6.762-1.071 23.23 12.25.671 1.5.23-2.5 15.654h2.5l-1.5 15.131h22.406l-3.733-13.993h3.733l-4.48-16.793h9.517V117.571l-38.704-45.25v-18.75L93.098 9.087a28.494 28.494 0 0 0-29.793 14.956L54.823 40.31a110.87 110.87 0 0 0-9.685 24.275L40.022 83.7z"/>
            <path fill="#05131E" d="M102.6 73.03a1.934 1.934 0 0 1-1.816-2.588l2.633 2.407a1.924 1.924 0 0 1-.817.181zm1.932 16.722a1.935 1.935 0 0 1-1.932 1.932 1.934 1.934 0 0 1-1.931-1.932c0-1.065.867-1.93 1.93-1.93 1.066 0 1.933.865 1.933 1.93zm-8.242-24.09v1.59h4.89l2.778 2.473c.37.366.574.852.574 1.374 0 .188-.028.37-.078.543l-3.868-3.535-.537.565a3.51 3.51 0 0 0 .252 5.088l-.01.011.63.574a2.88 2.88 0 0 0-1.842 2.684c0 .783.325 1.543.892 2.084l.137-.134-.128.141.943.86a2.881 2.881 0 0 0-1.844 2.683c0 .795.317 1.534.89 2.083l.14-.134-.13.142 1.747 1.591a3.524 3.524 0 0 0-2.647 3.407c0 1.075.485 2.038 1.247 2.684l-.002.002.509.465v-.002l2.727 2.482-.001.002.395.358c.373.367.578.855.578 1.378a1.935 1.935 0 0 1-1.932 1.932 1.934 1.934 0 0 1-1.931-1.932c0-.744.436-1.43 1.11-1.748l.055-.025-1.233-1.123a3.538 3.538 0 0 0-1.522 2.896 3.525 3.525 0 0 0 3.52 3.522 3.525 3.525 0 0 0 3.523-3.522c0-.97-.387-1.877-1.09-2.548l-.114.111.106-.116-1.547-1.409a3.524 3.524 0 0 0 2.645-3.407 3.507 3.507 0 0 0-1.16-2.604l.004-.004-3.916-3.566a1.291 1.291 0 0 1 .908-2.205h.496l3.569 3.25v-2.15l-4.973-4.529a1.291 1.291 0 0 1 .908-2.205h.496l3.569 3.251v-2.152l-1.037-.945v.001l-1.522-1.385a3.525 3.525 0 0 0 2.658-3.41c0-.972-.387-1.877-1.09-2.548l-.196.191.18-.203-1.565-1.396a3.524 3.524 0 0 0 2.67-3.413h-1.59a1.934 1.934 0 0 1-1.931 1.931h-1.995v-1.93h-1.591v1.93H96.29zM104.53 62.157a.796.796 0 1 0 1.593 0 .796.796 0 0 0-1.592 0M97.918 59.217a2.309 2.309 0 0 0 0 1.053 2.351 2.351 0 0 0-1.049 0 2.306 2.306 0 0 0 0-1.053c.345.08.704.08 1.05 0zm.481-.913a1.673 1.673 0 0 1-2.01 0l-.158-.117c-.206-.156-.455.017-.455.225 0 .056.02.115.06.17l.118.156a1.672 1.672 0 0 1 0 2.012l-.118.156a.284.284 0 0 0-.06.17c0 .207.25.38.455.225l.157-.118a1.673 1.673 0 0 1 2.011 0l.157.118c.206.155.455-.018.455-.226a.279.279 0 0 0-.06-.169l-.118-.156a1.672 1.672 0 0 1 0-2.012l.117-.156a.28.28 0 0 0 .061-.17c0-.208-.249-.38-.455-.225l-.157.117z"/>
            <path fill="#F1F1F1" d="M55.135 309.016l-5.597 17.693h56.535l-5.598-17.693"/>
            <path stroke="#000" stroke-linejoin="round" stroke-width="2.799" d="M55.135 309.016l-5.597 17.693h56.535l-5.598-17.693"/>
            <path fill="#F1F1F1" d="M55.135 292.004l-5.597 17.692h56.535l-5.598-17.692"/>
            <path stroke="#000" stroke-linecap="round" stroke-linejoin="round" stroke-width="2.799" d="M55.135 292.004l-5.597 17.692h56.535l-5.598-17.692"/>
            <path fill="#FFF" d="M144.217 323.91l4.48 16.792h-27.429l3.834-16.792z"/>
            <path stroke="#000" stroke-linecap="round" stroke-linejoin="round" stroke-width="2.799" d="M144.217 323.91l4.48 16.792h-27.429l3.834-16.792zM115.11 274.974v34.942h38.623V114.564h-30.226"/>
            <path fill="#FFF" d="M144.217 309.916l4.48 16.792h-28.025l3.835-16.792z"/>
            <path stroke="#000" stroke-linecap="round" stroke-linejoin="round" stroke-width="2.799" d="M144.217 309.916l4.48 16.792h-28.025l3.835-16.792z"/>
            <path fill="#FFF" d="M134.702 336.784a2.799 2.799 0 0 0 2.798-2.799v-48.597a2.799 2.799 0 0 0-5.597 0v48.597a2.799 2.799 0 0 0 2.799 2.8"/>
            <path stroke="#000" stroke-linecap="round" stroke-linejoin="round" stroke-width="2.799" d="M134.702 336.784a2.799 2.799 0 0 0 2.798-2.799v-48.597a2.799 2.799 0 0 0-5.597 0v48.597a2.799 2.799 0 0 0 2.799 2.8zM153.733 114.564l-32.465-37.286"/>
            <path fill="#FFF" d="M10.915 323.91l-4.479 16.792h27.428L30.03 323.91z"/>
            <path stroke="#000" stroke-linecap="round" stroke-linejoin="round" stroke-width="2.799" d="M10.915 323.91l-4.479 16.792h27.428L30.03 323.91zM40.022 274.974v34.942H1.4V114.564h30.226"/>
            <path fill="#FFF" d="M10.915 309.916l-4.479 16.792H34.46l-3.835-16.792z"/>
            <path stroke="#000" stroke-linecap="round" stroke-linejoin="round" stroke-width="2.799" d="M10.915 309.916l-4.479 16.792H34.46l-3.835-16.792z"/>
            <path fill="#FFF" d="M20.431 336.784a2.799 2.799 0 0 1-2.799-2.799v-48.597a2.799 2.799 0 0 1 5.598 0v48.597a2.799 2.799 0 0 1-2.799 2.8"/>
            <path stroke="#000" stroke-linecap="round" stroke-linejoin="round" stroke-width="2.799" d="M20.431 336.784a2.799 2.799 0 0 1-2.799-2.799v-48.597a2.799 2.799 0 0 1 5.598 0v48.597a2.799 2.799 0 0 1-2.799 2.8zM103.257 292.004H51.793c-6.5 0-11.77-5.27-11.77-11.77V51.871h75.005v228.361c0 6.501-5.27 11.771-11.77 11.771z"/>
            <path fill="#FFF" d="M51.947 189.57H47.55L12.595 254.3l5.038 18.672h119.786l4.345-18.709-34.572-64.693h-4.678"/>
            <path stroke="#000" stroke-linejoin="round" stroke-width="2.799" d="M51.947 189.57H47.55L12.595 254.3l5.038 18.672h119.786l4.345-18.709-34.572-64.693h-4.678"/>
            <path fill="#FFF" d="M65.333 300.85c0-6.888 5.584-12.472 12.472-12.472s12.472 5.584 12.472 12.473H65.333z"/>
            <path stroke="#000" stroke-linecap="round" stroke-linejoin="round" stroke-width="2.799" d="M65.333 300.85c0-6.888 5.584-12.472 12.472-12.472s12.472 5.584 12.472 12.473H65.333zM12.595 254.3h128.319"/>
            <path fill="#FFF" d="M60.243 207.325H47.3l10.145-40.36h39.112l10.636 40.36h-12.42"/>
            <path stroke="#000" stroke-linejoin="round" stroke-width="2.799" d="M60.243 207.325H47.3l10.145-40.36h39.112l10.636 40.36h-12.42"/>
            <path fill="#FFF" d="M65.333 293.62c0-6.887 5.584-12.471 12.472-12.471s12.472 5.584 12.472 12.471H65.333z"/>
            <path stroke="#000" stroke-linecap="round" stroke-linejoin="round" stroke-width="2.799" d="M65.333 293.62c0-6.887 5.584-12.471 12.472-12.471s12.472 5.584 12.472 12.471H65.333z"/>
            <path fill="#FFF" d="M63.532 285.786l-4.478-12.813 2.094-115.575a61.507 61.507 0 0 1 2.298-15.573l6.177-21.906c2.22-7.876 13.402-7.826 15.552.07l6.087 22.361a61.465 61.465 0 0 1 2.136 14.482l3.159 116.141-3.919 12.813H63.531z"/>
            <path stroke="#000" stroke-linecap="round" stroke-linejoin="round" stroke-width="2.799" d="M63.532 285.786l-4.478-12.813 2.094-115.575a61.507 61.507 0 0 1 2.298-15.573l6.177-21.906c2.22-7.876 13.402-7.826 15.552.07l6.087 22.361a61.465 61.465 0 0 1 2.136 14.482l3.159 116.141-3.919 12.813H63.531zM87.644 129.061h-20.6"/>
            <mask id="b" fill="#fff">
                <use xlink:href="#a"/>
            </mask>
            <path fill="#FF9274" d="M31.626 272.973h17.912v-9.516H31.626z" mask="url(#b)"/>
            <path stroke="#000" stroke-linecap="round" stroke-linejoin="round" stroke-width="2.799" d="M31.626 272.973h17.912v-9.516H31.626z" mask="url(#b)"/>
            <path fill="#FF9274" d="M106.073 272.973h17.912v-9.516h-17.912z" mask="url(#b)"/>
            <path stroke="#000" stroke-linecap="round" stroke-linejoin="round" stroke-width="2.799" d="M106.073 272.973h17.912v-9.516h-17.912z" mask="url(#b)"/>
            <path fill="#FFF" d="M80.427 289.765h-5.804v-32.563a2.903 2.903 0 0 1 5.804 0v32.563z" mask="url(#b)"/>
            <path stroke="#000" stroke-linecap="round" stroke-linejoin="round" stroke-width="2.799" d="M80.427 289.765h-5.804v-32.563a2.903 2.903 0 0 1 5.804 0v32.563z" mask="url(#b)"/>
            <path stroke="#000" stroke-linejoin="round" stroke-width="7" d="M68.983 155.986a7.65 7.65 0 0 1 7.65-7.651M86.365 155.986a7.651 7.651 0 0 0-7.65-7.651" mask="url(#b)"/>
            <path stroke="#000" stroke-linecap="round" stroke-linejoin="round" stroke-width="2.799" d="M61.985 281.36a10.592 10.592 0 0 0-4.4 8.593v2.051M93.939 281.36a10.592 10.592 0 0 1 4.4 8.593v2.051M115.029 51.872L95.037 12.186c-7.245-14.381-27.778-14.381-35.023 0L40.022 51.872M1.4 114.564l32.465-37.286M40.582 253.07v-16.003M115.029 253.07v-16.003M66.032 171.938h23.594M65.227 249.567h25.108M77.624 187.144v49.42M61.985 192.107h5.58M61.985 212.24h5.58M60.568 232.373h6.997M93.125 192.107h-5.58M93.125 212.24h-5.58M94.542 232.373h-6.997" mask="url(#b)"/>
        </g>
        <path stroke="#000" stroke-linecap="round" stroke-linejoin="round" stroke-width="2.799" d="M238 341H1.997"/>
    </g>
</svg>
