<svg xmlns="http://www.w3.org/2000/svg" width="64" height="64" viewBox="0 0 64 64">
    <g fill="none" fill-rule="evenodd">
        <path fill="#CFECDD" d="M23.178 15.935L18.09 20.8l18.166 19.683 1.846-1.66 2.692 2.9s-.457 10.86 2.029 13.226l15.342-14.718s-3.811-5.954-13.887-2.23l-3.484 1.445-1.728-2.272 2.914-2.352-18.802-18.887z"/>
        <path stroke="#000" stroke-width="2" d="M41.194 57.202c-4.687-4.687-4.687-12.285 0-16.97 4.687-4.687 12.284-4.687 16.971 0l-16.97 16.97zM29.87 21.924l-8.47-8.47-8.01 7.456L34.2 41.723l2.055-2.055M39.836 36.089l2.144-2.143-7.757-7.756"/>
        <path stroke="#000" stroke-linecap="round" stroke-width="2" d="M49.694 49.948l1 1"/>
        <path stroke="#000" stroke-width="2" d="M25.362 38.542l-7.778-7.78-16.17 16.17 7.778 7.779zM5.304 50.822l18.998-18.998M5.304 42.822l8 8M9.304 38.822l8 8M13.304 34.822l8 8M54.71 9.193l-7.777-7.778-15.63 15.629 7.779 7.777zM29.558 26.567L50.822 5.303M34.822 13.303l8 8M38.822 9.303l8 8M42.822 5.303l8 8M16.992 13.944L12.29 9.24l-3 3 4.703 4.704M40.794 40.632l-3.457-3.458M31.702 28.71l-4.31-4.308"/>
        <path stroke="#000" stroke-dasharray="2" stroke-width="2" d="M33.006 30.014l4.198 4.2M21.691 18.7l4.2 4.199"/>
        <path stroke="#000" stroke-width="2" d="M50.694 54.949a4 4 0 0 0 4-4M50.694 58.949a8 8 0 0 0 8-8M50.694 62.949c6.627 0 12-5.373 12-12M54.942 42.826a8 8 0 0 0-11.313 0"/>
    </g>
</svg>
