<svg xmlns="http://www.w3.org/2000/svg" xmlns:xlink="http://www.w3.org/1999/xlink" width="623" height="359" viewBox="0 0 623 359">
    <defs>
        <path id="a" d="M0 239h507.011V.23H0z"/>
        <path id="c" d="M0 88.931h118.063V1H0z"/>
    </defs>
    <g fill="none" fill-rule="evenodd">
        <path stroke="#000" stroke-linecap="round" stroke-linejoin="round" stroke-width="2.799" d="M336.75 278.088h-27.383l-10.344-8.823v-25.253h33.467l7.911 19.167h-26.166M336.544 253.833h-10.848"/>
        <g transform="translate(0 119.77)">
            <path stroke="#000" stroke-linecap="round" stroke-linejoin="round" stroke-width="2.799" d="M351.536 113.89l-4.39-1.83a10.79 10.79 0 0 0-11.665 2.218l-25.646 24.891c-3.87 3.757-1.21 10.318 4.184 10.318h29.911l8.823 8.823"/>
            <path stroke="#000" stroke-linecap="round" stroke-linejoin="round" stroke-width="2.799" d="M362.003 104.466l-12.663 12.663c-6.611 6.61-6.833 17.26-.503 24.14l13.166 14.31"/>
            <mask id="b" fill="#fff">
                <use xlink:href="#a"/>
            </mask>
            <path stroke="#000" stroke-linecap="round" stroke-linejoin="round" stroke-width="2.799" d="M362.002 160.447h24.718v-24.492h-24.718zM417.985 134.778h-19.473l-34.075-36.093V81.038M373.145 107.908l8.634-8.31M399.121 116.94l-8.972 8.972M355.613 17.45l2.434 23.123 8.52 33.467 55.677 55.982 36.814 11.258 22.514 1.825zM481.573 143.105l11.866-10.648L367.175 5.584 355.614 17.45M481.573 120.534l-5.172 5.378M455.547 94.508l-5.172 5.378M403.496 42.457l-5.172 5.378M377.47 16.43l-5.172 5.379M370.817 9.243L391.21 3.15l33.138-1.52 26.026 8.053 17.507 9.436 11.104 11.414 10.192 18.56 6.695 25.252v33.563l-7.138 19.821" mask="url(#b)"/>
            <path stroke="#000" stroke-linecap="round" stroke-linejoin="round" stroke-width="2.799" d="M480.028 45.146l9.15 3.947-6.509 15.587 13.203 9.665-14.3 11.258 14.3 22.306h-26.865l12.565-22.306S486.654 49.7 475.29 35.4M478.986 30.533l-7.453 6.998-10.65-10.345 6.999-8.066" mask="url(#b)"/>
            <path stroke="#000" stroke-linecap="round" stroke-linejoin="round" stroke-width="2.799" d="M464.41 23.122s-9.307-8.319-50.38-6.69l-22.82 13.304" mask="url(#b)"/>
            <path stroke="#000" stroke-linecap="round" stroke-linejoin="round" stroke-width="2.799" d="M452.961 18.775l-2.586-8.018-16.734 5.674L424.35 1.63 412.281 17.45l-21.07-14.3-2.739 25.175M465.978 32.135L424.35 73.86l5.17-5.378M465.978 42.457l-10.431-10.322M388.472 166.837h-79.105v59.469" mask="url(#b)"/>
            <path stroke="#000" stroke-linecap="round" stroke-linejoin="round" stroke-width="2.799" d="M344.232 166.837v7.606h44.24l2.739 19.777h-81.843M336.544 180.528h-27.176" mask="url(#b)"/>
            <path stroke="#000" stroke-linecap="round" stroke-linejoin="round" stroke-width="2.799" d="M350.29 181.745v12.475l-27.334 43.203M417.985 236.51l-26.774-42.291M386.495 199.696l4.716 11.561M376.302 199.696v7.91M505.611 237.6H1.4M402.164 236.51l-4.488-6.403c-13.072-18.65-40.688-18.679-53.798-.056l-3.477 4.938" mask="url(#b)"/>
            <path fill="#FFF" d="M362.003 135.955h24.718v-12.358c0-6.826-5.533-12.359-12.36-12.359-6.825 0-12.358 5.533-12.358 12.36v12.357z" mask="url(#b)"/>
            <path stroke="#000" stroke-linecap="round" stroke-linejoin="round" stroke-width="2.799" d="M362.003 135.955h24.718v-12.358c0-6.826-5.533-12.359-12.36-12.359-6.825 0-12.358 5.533-12.358 12.36v12.357z" mask="url(#b)"/>
        </g>
        <g stroke="#000" stroke-linecap="round" stroke-linejoin="round" stroke-width="2.362">
            <path d="M433.181 49.361c72.47-2.542 131.63 57.403 128.134 129.833M442.744 1.284c96.013-3.368 174.395 76.053 169.763 172.014"/>
        </g>
        <g transform="translate(504 267)">
            <path fill="#000" d="M52.621 68.57h-2.714V44.914l-1.055-2.143v-4.825l1.036-2.071-1.047-16.655 1.111-4.192 1.087-3.336-.245-.203a5.531 5.531 0 0 1-1.64-3.916 5.502 5.502 0 0 1 5.495-5.495h2.596a5.211 5.211 0 0 1 5.21 5.21v6.625l-3.166 1.055v.527l3.02 4.288.585 15.962 11.928 6.462v17.432h-2.715V43.822l-11.87-6.43-.611-16.706-3.051-4.332V13.01l3.166-1.055V7.288a2.493 2.493 0 0 0-2.497-2.496H54.65a2.784 2.784 0 0 0-2.782 2.78c0 .717.283 1.418.782 1.934l1.556 1.224-1.652 5.066-.977 3.693 1.066 16.944-1.078 2.152v3.552l1.056 2.144v24.29z"/>
            <path fill="#000" d="M68.659 59.751h-2.714V48.292l-6.888-2.715.996-2.525 8.606 3.392z"/>
            <path fill="#000" d="M58.563 68.416h-2.714v-1.914l.768-11.254.766-11.421 1.527-3.96 2.532.978-1.451 3.762-.666 10.817-.765 11.17zM54.352 41.996v-2.714a.566.566 0 0 0 .565-.565V23.462c0-1.192-.968-2.16-2.159-2.16h-1.54v-2.715h1.54a4.879 4.879 0 0 1 4.873 4.875v15.255a3.282 3.282 0 0 1-3.279 3.279"/>
            <path fill="#000" d="M2.714 88.931H0V82.14h20.355v-5.427l21.712.001v-6.785H63.78v-8.142h23.07v27.145h-2.715v-24.43h-17.64v8.141H44.78v6.785H23.068v5.426H2.714z"/>
            <mask id="d" fill="#fff">
                <use xlink:href="#c"/>
            </mask>
            <path fill="#000" d="M42.066 88.93h2.714V76.715h-2.714zM63.779 88.93h2.714V69.93h-2.714zM20.35 88.931h2.714v-5.425H20.35zM117.36 4.447L102.257 15.97l-1.646-2.158 15.105-11.523z" mask="url(#d)"/>
            <path fill="#000" d="M116.859 11.157l-2.69-.362.843-6.263-6.263-.842.362-2.69 8.952 1.204zM87.15 27.493l-2.157 1.646-1.646-2.158 2.158-1.646 1.646 2.158zm4.316-3.292l-2.157 1.646-1.646-2.158 2.158-1.646 1.645 2.158zm4.317-3.292l-2.158 1.646-1.647-2.158 2.158-1.646 1.647 2.158zm4.315-3.293l-2.158 1.647-1.645-2.16 2.157-1.645 1.646 2.158z" mask="url(#d)"/>
        </g>
    </g>
</svg>
