<svg xmlns="http://www.w3.org/2000/svg" xmlns:xlink="http://www.w3.org/1999/xlink" width="64" height="64" viewBox="0 0 64 64">
    <defs>
        <path id="a" d="M0 63.108h65.987V.002H0z"/>
    </defs>
    <g fill="none" fill-rule="evenodd">
        <path fill="#F1F1F1" d="M27.615 11.19S35.003.143 45.307 1.948C55.612 3.753 66 16.869 61.5 27.962c0 0-37.197-17.396-33.885-16.771z"/>
        <path fill="#FFFF52" d="M14.696 11.363a3.758 3.758 0 1 1-7.515-.001 3.758 3.758 0 0 1 7.515.001"/>
        <mask id="b" fill="#fff">
            <use xlink:href="#a"/>
        </mask>
        <path fill="#FFD6BD" d="M1.987 54.584h60.879v-8.525H1.987z" mask="url(#b)"/>
        <path fill="#CBE4F3" d="M1.987 63.108h60.879v-8.523H1.987z" mask="url(#b)"/>
        <path stroke="#000" stroke-dasharray="2" stroke-width="2" d="M1.987 46.06h64" mask="url(#b)"/>
        <path stroke="#000" stroke-width="2" d="M13 39.056l2 4h6l2-4M57 39.056H9.25M43 39.056l2 4h6l2-4M10.937 22.974L23 39.056M17 31.056l-4 8M53.997 38.056a3 3 0 0 0-3-3H25.545L18 25.223a3 3 0 0 0-4.185-.697l-1.315.822M23 11.293C27.017 2.05 38.655-1.126 49.3 3.5c10.646 4.625 16.303 15.221 12.252 24.543l-.052-.08a7.171 7.171 0 0 0-7.26-3.204l-.178.031-.091-.144a7.172 7.172 0 0 0-7.191-3.198l-.297.05-.694-.958a7.171 7.171 0 0 0-6.575-2.914l-1.312.142-.094-.146a7.175 7.175 0 0 0-7.266-3.145l-.151.027a7.175 7.175 0 0 0-7.33-3.222l-.061.011z" mask="url(#b)"/>
        <path stroke="#000" stroke-width="2" d="M30.39 14.504C34.44 5.182 42.715.638 49.252 3.478c6.538 2.84 8.863 11.99 4.813 21.312" mask="url(#b)"/>
        <path stroke="#000" stroke-width="2" d="M37.902 17.768c4.05-9.322 8.946-15.334 11.315-14.304 2.371 1.03 1.317 8.71-2.734 18.033M50.636.399L49.29 3.496M42.9 18.203l-7.414 17.064M15 10.056a5 5 0 0 1-5 5 5 5 0 1 1 0-10 5 5 0 0 1 5 5z" mask="url(#b)"/>
        <path stroke="#000" stroke-dasharray="2" stroke-width="2" d="M19 10.056a9 9 0 0 1-9 9 9 9 0 1 1 9-9z" mask="url(#b)"/>
        <path stroke="#000" stroke-width="2" d="M1.084 51.227a4.422 4.422 0 0 0 8.844 0M9.928 51.227a4.422 4.422 0 0 0 8.844 0M18.771 51.227a4.422 4.422 0 0 0 8.844 0M54.151 51.227a4.419 4.419 0 0 0 8.835 0M45.307 51.227a4.419 4.419 0 0 0 8.835 0M27.62 51.227a4.419 4.419 0 0 0 8.835 0M36.464 51.227a4.419 4.419 0 0 0 8.835 0" mask="url(#b)"/>
    </g>
</svg>
