<svg xmlns="http://www.w3.org/2000/svg" xmlns:xlink="http://www.w3.org/1999/xlink" viewBox="0 0 41.08 41.08"><defs><style>.cls-1,.cls-2{fill:none;}.cls-1{clip-rule:evenodd;}.cls-3{clip-path:url(#clip-path);}.cls-4{clip-path:url(#clip-path-2);}.cls-5{clip-path:url(#clip-path-3);}.cls-6{clip-path:url(#clip-path-5);}</style><clipPath id="clip-path" transform="translate(-760.72 -14.75)"><path class="cls-1" d="M783.32,43.35l.05-1,0-1.86a10.36,10.36,0,0,1,.32-2.37l.47-1.39a10,10,0,0,1,2-3h0a16.5,16.5,0,0,0,3.23-5.08,1.64,1.64,0,0,0-2.19-2.08,16.46,16.46,0,0,0-4.89,3.49h0a9.94,9.94,0,0,1-2.9,2.12l-1.37.54a10.33,10.33,0,0,1-2.35.44l-1.85.13-1,.1a2.64,2.64,0,0,0-1.33.76l-.9.95a.3.3,0,0,0,0,.4l.11.14.39.49,1.65,2.11.39.49.41.52-1.95,2.05a.31.31,0,0,0,0,.43L772.93,43a.3.3,0,0,0,.43,0l1.08-1.14.4.38-1.08,1.14a.31.31,0,0,0,0,.43L775.06,45a.3.3,0,0,0,.43,0l1.95-2.05.54.38.51.36,2.19,1.54.51.36.15.1a.3.3,0,0,0,.39,0l.9-.95A2.66,2.66,0,0,0,783.32,43.35ZM774,38.84l-2.72-3.48.51-.54,3.16,3Zm1.37-1.45-3.15-3a2.08,2.08,0,0,1,1.15-.44l2.38-.17a10.77,10.77,0,0,0,4.1-1.13Zm12.1-10.25a1,1,0,0,1,1.35,1.28c-.09.23-.19.45-.29.68l-1.72-1.63Zm-1.21.63,2,1.9a15.89,15.89,0,0,1-2.58,3.7l-3-2.82A15.86,15.86,0,0,1,786.25,27.77ZM773.11,42.33l-.83-.79,1.31-1.38a1.42,1.42,0,0,1,1.78-.21Zm2.13,2-.83-.79,2.26-2.38a1.43,1.43,0,0,1-.11,1.79Zm2.29-2.42a2.11,2.11,0,0,0-.66-1.43.3.3,0,0,0-.43,0l-1.2,1.27-.4-.38,1.2-1.27a.31.31,0,0,0,0-.43,2.11,2.11,0,0,0-1.46-.59l.62-.66,3,2.82Zm1-1.09-3-2.82,6.68-7,3,2.82Zm5.13-4.52a10.83,10.83,0,0,0-.91,4.16l0,2.39a2.1,2.1,0,0,1-.38,1.17l-3.15-3ZM781.46,45l-3.61-2.54,1-1,3.16,3Z"/></clipPath><clipPath id="clip-path-2" transform="translate(-760.72 -14.75)"><rect class="cls-2" width="1440" height="4060"/></clipPath><clipPath id="clip-path-3" transform="translate(-760.72 -14.75)"><path class="cls-1" d="M784.42,30.3a.77.77,0,0,1,1.09,0l.41-.43a1.38,1.38,0,0,0-2,0Z"/></clipPath><clipPath id="clip-path-5" transform="translate(-760.72 -14.75)"><path class="cls-1" d="M785.82,31.62l.45.43a1.39,1.39,0,0,0-.09-2l-.41.43a.78.78,0,0,1,0,1.09"/></clipPath></defs><title>Fichier 1</title><g id="Calque_2" data-name="Calque 2"><g id="Calque_1-2" data-name="Calque 1"><g class="cls-3"><g class="cls-4"><rect x="764.88" y="22.62" width="32.76" height="25.34" transform="translate(-556.85 548.03) rotate(-45)"/></g></g><g class="cls-5"><g class="cls-4"><rect x="779.26" y="24.17" width="11.39" height="11.39" transform="translate(-551.93 549.05) rotate(-45)"/></g></g><g class="cls-6"><g class="cls-4"><rect x="780.55" y="25.36" width="11.34" height="11.44" transform="translate(-552.42 550.3) rotate(-45)"/></g></g></g></g></svg>