<svg xmlns="http://www.w3.org/2000/svg" width="50" height="84" viewBox="0 0 50 84">
    <g fill="none" fill-rule="evenodd">
        <path fill="#CFECDD" d="M5.872 35.436s1.494 10.318 14.843 15.402c13.348 5.085 0 0 0 0l1.236 3.795-5.691 14.878h-3.734v4.798h3.86v8.59h19.778v-8.29l2.505-.36.67-5.76-3.7 1.022-7.594-16.943s16.07-2.624 19.186-17.67l-41.36.538z"/>
        <path stroke="#000" stroke-width="1.967" d="M28.935 14.61a5.942 5.942 0 0 0-8.404 0M33.138 10.408c-4.642-4.642-12.167-4.642-16.81 0M37.34 6.206c-6.962-6.963-18.251-6.963-25.214 0"/>
        <g>
            <path fill="#000" d="M14.116 81.655H35.35v-2.588H14.116v2.588zm0-3.93H35.35v-2.133H14.116v2.134zm-3.319-3.476h27.872V69.83H10.797v4.418zm13.936-20.103a1.116 1.116 0 0 1 0-2.231 1.116 1.116 0 0 1 0 2.23zm-2.79-2.77a3.008 3.008 0 0 1 2.79-1.822c1.228 0 2.297.699 2.79 1.823l7.498 17.113h-9.618V55.392a2.46 2.46 0 0 0 1.787-2.362 2.46 2.46 0 0 0-2.457-2.457 2.46 2.46 0 0 0-2.457 2.457 2.46 2.46 0 0 0 1.786 2.362V68.49h-9.618l7.499-17.113zM3.95 38.423h41.565c-2.943 6.752-9.096 11.777-16.418 13.205l-.346-.788a4.33 4.33 0 0 0-4.018-2.627 4.333 4.333 0 0 0-4.018 2.627l-.346.788C13.028 50.195 6.895 45.2 3.95 38.422zm42.384-2.182c-.089.283-.186.563-.286.84H3.418a21.877 21.877 0 0 1-.286-.84h43.202zM23.058 25.975l-3.27 8.922h-5.654l8.924-8.922zm.559-6.802a1.116 1.116 0 1 1 2.232.002 1.116 1.116 0 0 1-2.232-.002zm6.063 15.724l-3.27-8.921 8.923 8.92H29.68zm-4.946-9.598l3.517 9.598h-7.034l3.517-9.598zm23.937 56.356h-11.98V75.59h2.649c.37 0 .671-.3.671-.671v-5.76a.67.67 0 0 0-.671-.67h-2.855l-6.838-15.605c8.742-1.822 15.866-8.493 18.231-17.14a.672.672 0 0 0-.647-.847H37.229L25.404 23.073v-1.537a2.463 2.463 0 0 0 1.786-2.363 2.46 2.46 0 0 0-2.457-2.457 2.46 2.46 0 0 0-2.457 2.457 2.46 2.46 0 0 0 1.786 2.363v1.536L12.237 34.897H2.235a.671.671 0 0 0-.647.849A24.015 24.015 0 0 0 19.819 52.88L12.98 68.49h-2.853a.67.67 0 0 0-.671.67v5.759c0 .372.301.672.671.672h2.648v6.064H.796a.672.672 0 0 0 0 1.342h47.875a.67.67 0 0 0 0-1.342z"/>
            <path stroke="#000" stroke-width=".25" d="M14.116 81.655H35.35v-2.588H14.116v2.588zm0-3.93H35.35v-2.133H14.116v2.134zm-3.319-3.476h27.872V69.83H10.797v4.418zm13.936-20.103a1.116 1.116 0 0 1 0-2.231 1.116 1.116 0 0 1 0 2.23zm-2.79-2.77a3.008 3.008 0 0 1 2.79-1.822c1.228 0 2.297.699 2.79 1.823l7.498 17.113h-9.618V55.392a2.46 2.46 0 0 0 1.787-2.362 2.46 2.46 0 0 0-2.457-2.457 2.46 2.46 0 0 0-2.457 2.457 2.46 2.46 0 0 0 1.786 2.362V68.49h-9.618l7.499-17.113zM3.95 38.423h41.565c-2.943 6.752-9.096 11.777-16.418 13.205l-.346-.788a4.33 4.33 0 0 0-4.018-2.627 4.333 4.333 0 0 0-4.018 2.627l-.346.788C13.028 50.195 6.895 45.2 3.95 38.422zm42.384-2.182c-.089.283-.186.563-.286.84H3.418a21.877 21.877 0 0 1-.286-.84h43.202zM23.058 25.975l-3.27 8.922h-5.654l8.924-8.922zm.559-6.802a1.116 1.116 0 1 1 2.232.002 1.116 1.116 0 0 1-2.232-.002zm6.063 15.724l-3.27-8.921 8.923 8.92H29.68zm-4.946-9.598l3.517 9.598h-7.034l3.517-9.598zm23.937 56.356h-11.98V75.59h2.649c.37 0 .671-.3.671-.671v-5.76a.67.67 0 0 0-.671-.67h-2.855l-6.838-15.605c8.742-1.822 15.866-8.493 18.231-17.14a.672.672 0 0 0-.647-.847H37.229L25.404 23.073v-1.537a2.463 2.463 0 0 0 1.786-2.363 2.46 2.46 0 0 0-2.457-2.457 2.46 2.46 0 0 0-2.457 2.457 2.46 2.46 0 0 0 1.786 2.363v1.536L12.237 34.897H2.235a.671.671 0 0 0-.647.849A24.015 24.015 0 0 0 19.819 52.88L12.98 68.49h-2.853a.67.67 0 0 0-.671.67v5.759c0 .372.301.672.671.672h2.648v6.064H.796a.672.672 0 0 0 0 1.342h47.875a.67.67 0 0 0 0-1.342z"/>
        </g>
    </g>
</svg>
