<svg xmlns="http://www.w3.org/2000/svg" width="360" height="197" viewBox="0 0 360 197">
    <g fill="none" fill-rule="evenodd">
        <path fill="#000" d="M10.154 32.087l-3.742-2.68.892-1.25 3.742 2.68-.892 1.25zm7.485 5.361l-3.743-2.68.891-1.25 3.743 2.68-.891 1.25zm7.484 5.36l-3.742-2.68.89-1.25 3.743 2.68-.89 1.25zm7.485 5.36l-3.742-2.68.891-1.25L33.5 46.92l-.891 1.25zm7.484 5.361l-3.742-2.68.892-1.25 3.741 2.68-.89 1.25zm7.486 5.361l-3.743-2.68.891-1.25 3.743 2.68-.891 1.25zm7.484 5.36l-3.743-2.68.892-1.25L55.953 63l-.891 1.25zm7.485 5.36l-3.743-2.68.891-1.25 3.743 2.681-.891 1.25zm7.484 5.362l-3.742-2.68.891-1.25 3.742 2.68-.891 1.25zm7.484 5.36l-3.741-2.68.89-1.25 3.743 2.68-.892 1.25zM85 85.692l-3.743-2.68.892-1.25 3.743 2.68-.892 1.25zm7.484 5.36l-3.742-2.68.892-1.25 3.742 2.681-.892 1.25zM88.151 111.873l-.84-1.284 3.846-2.528.841 1.284-3.847 2.528zm-7.692 5.056l-.841-1.285 3.847-2.528.84 1.284-3.846 2.529zm-7.693 5.055l-.84-1.284 3.846-2.528.84 1.285-3.846 2.527zm-7.693 5.055l-.84-1.284 3.846-2.528.84 1.284-3.846 2.528zm-7.692 5.056l-.84-1.285 3.845-2.526.84 1.284-3.845 2.527zm-7.694 5.056l-.84-1.285 3.846-2.528.841 1.285-3.847 2.528zm-7.692 5.055l-.841-1.284 3.847-2.528.84 1.284-3.846 2.528zm-7.693 5.056l-.84-1.284 3.846-2.528.841 1.284-3.847 2.528zm-7.692 5.055l-.841-1.285 3.846-2.527.84 1.285-3.845 2.527zm-7.694 5.056l-.84-1.284 3.846-2.529.841 1.285-3.847 2.528zm-7.692 5.055l-.841-1.284 3.847-2.528.84 1.284-3.846 2.528zm-6.923 4.55l-.84-1.285 3.076-2.021.84 1.284-3.076 2.021zM1.122 100.178h4.372v-1.536H1.122v1.536zm8.744 0h4.371v-1.536H9.866v1.536zm8.743 0h4.372v-1.536H18.61v1.536zm8.744 0h4.372v-1.536h-4.372v1.536zm8.744 0h4.372v-1.536h-4.372v1.536zm8.744 0h4.372v-1.536H44.84v1.536zm8.743 0h4.371v-1.536h-4.371v1.536zm8.743 0h4.372v-1.536h-4.372v1.536zm8.744 0h4.372v-1.536h-4.372v1.536zm8.743 0h4.372v-1.536h-4.372v1.536zM0 66l4.179 1.394.483-1.458-4.179-1.392L0 66zm8.357 2.788l4.178 1.393.484-1.457L8.84 67.33l-.484 1.458zm8.357 2.786l4.18 1.394.484-1.457-4.18-1.394-.484 1.457zm8.358 2.787l4.179 1.394.484-1.457-4.18-1.393-.483 1.456zm8.358 2.789l4.178 1.393.483-1.457-4.178-1.394-.483 1.458zm8.357 2.787l4.179 1.393.483-1.457-4.179-1.393-.483 1.457zm8.357 2.786l4.18 1.394.482-1.456-4.179-1.394-.483 1.456zm8.358 2.788l4.18 1.393.482-1.456-4.179-1.395-.483 1.458zm8.356 2.787l4.18 1.394.483-1.458-4.178-1.393-.485 1.457zm8.359 2.787l4.179 1.393.483-1.456-4.18-1.393-.482 1.456zm8.357 2.787l4.179 1.394.484-1.457-4.18-1.394-.483 1.457zM84.905 105.778l-.49-1.455 4.143-1.4.49 1.454-4.143 1.4zm-8.284 2.8l-.49-1.454 4.141-1.4.49 1.454-4.141 1.4zm-8.285 2.803l-.49-1.455 4.142-1.401.49 1.455-4.142 1.4zm-8.284 2.8l-.49-1.454 4.141-1.401.49 1.455-4.141 1.4zm-8.285 2.803l-.49-1.455 4.142-1.401.49 1.455-4.142 1.4zm-8.284 2.8l-.49-1.454 4.14-1.401.49 1.455-4.14 1.4zm-8.285 2.802l-.49-1.455 4.142-1.4.49 1.455-4.142 1.4zm-8.285 2.802l-.49-1.455 4.142-1.401.49 1.455-4.142 1.4zm-8.285 2.8l-.49-1.454 4.142-1.4.49 1.454-4.142 1.4zm-8.286 2.802l-.49-1.454 4.143-1.401.49 1.454-4.143 1.401zm-8.284 2.801l-.49-1.454 4.143-1.4.49 1.454-4.143 1.4zM269.571 110.378l-3.741-2.68.892-1.25 3.74 2.68-.89 1.25zm7.485 5.36l-3.742-2.68.891-1.25 3.742 2.681-.891 1.25zm7.485 5.362l-3.742-2.68.89-1.25 3.743 2.68-.89 1.25zm7.485 5.36l-3.743-2.68.891-1.25 3.743 2.68-.891 1.25zm7.484 5.36l-3.742-2.68.89-1.25 3.743 2.68-.89 1.25zm7.485 5.36l-3.743-2.68.891-1.25 3.743 2.681-.891 1.25zm7.484 5.362l-3.742-2.68.892-1.25 3.741 2.68-.89 1.25zm7.485 5.36l-3.742-2.68.891-1.25 3.742 2.68-.891 1.25zm7.485 5.361l-3.743-2.68.891-1.25 3.743 2.68-.891 1.25zm7.484 5.36l-3.742-2.68.89-1.25 3.744 2.68-.892 1.25zm7.484 5.36l-3.743-2.68.892-1.25 3.743 2.681-.892 1.25zm7.485 5.361l-3.743-2.68.892-1.25 3.743 2.68-.892 1.25zM352.668 33.83l-.84-1.285 3.076-2.022.84 1.285-3.076 2.021zm-7.693 5.055l-.84-1.284 3.845-2.528.841 1.284-3.846 2.528zm-7.692 5.055l-.841-1.284 3.846-2.528.84 1.285-3.845 2.527zm-7.694 5.056l-.84-1.284 3.846-2.528.841 1.284-3.847 2.528zm-7.692 5.056l-.841-1.285 3.847-2.527.84 1.284-3.846 2.528zm-7.693 5.055l-.84-1.284 3.846-2.528.84 1.285-3.846 2.527zm-7.692 5.056l-.841-1.284 3.846-2.528.84 1.284-3.845 2.528zm-7.693 5.055l-.84-1.284 3.845-2.527.84 1.284-3.845 2.527zm-7.693 5.057l-.84-1.285 3.845-2.529.841 1.285-3.846 2.529zm-7.693 5.054l-.84-1.284 3.846-2.527.84 1.284-3.846 2.527zm-7.693 5.057l-.84-1.284 3.846-2.529.841 1.284-3.847 2.529zm-7.692 5.055l-.841-1.285 3.847-2.527.84 1.284-3.846 2.528zM275.017 98.859h4.372v-1.536h-4.372v1.536zm8.744 0h4.372v-1.536h-4.372v1.536zm8.744 0h4.372v-1.536h-4.372v1.536zm8.744 0h4.37v-1.536h-4.37v1.536zm8.743 0h4.372v-1.536h-4.372v1.536zm8.744 0h4.372v-1.536h-4.372v1.536zm8.743 0h4.372v-1.536h-4.372v1.536zm8.744 0h4.372v-1.536h-4.372v1.536zm8.744 0h4.371v-1.536h-4.37v1.536zm8.743 0h4.373v-1.536h-4.373v1.536zM270.969 103.692l4.179 1.394.484-1.458-4.18-1.392-.483 1.456zm8.357 2.787l4.18 1.394.483-1.457-4.18-1.394-.483 1.457zm8.358 2.787l4.178 1.393.484-1.456-4.178-1.394-.484 1.457zm8.357 2.787l4.179 1.394.483-1.457-4.18-1.393-.482 1.456zm8.358 2.787l4.179 1.394.483-1.457-4.179-1.393-.483 1.456zm8.357 2.788l4.179 1.393.483-1.456-4.178-1.395-.484 1.458zm8.357 2.786l4.18 1.394.482-1.457-4.178-1.393-.484 1.456zm8.357 2.789l4.18 1.393.483-1.457-4.179-1.394-.484 1.458zm8.357 2.787l4.18 1.394.484-1.458-4.18-1.393-.484 1.457zm8.36 2.786l4.177 1.394.484-1.456-4.178-1.394-.484 1.456zm8.356 2.788l4.179 1.393.483-1.456-4.179-1.394-.483 1.457zM353.494 66.564l-.49-1.455 4.143-1.4.49 1.455-4.143 1.4zm-8.284 2.802l-.49-1.455 4.142-1.4.49 1.454-4.142 1.401zm-8.285 2.801l-.49-1.455 4.142-1.4.49 1.455-4.142 1.4zm-8.284 2.802l-.49-1.455 4.14-1.4.49 1.454-4.14 1.401zm-8.285 2.801l-.49-1.455 4.142-1.4.49 1.455-4.142 1.4zm-8.285 2.802l-.49-1.455 4.142-1.4.49 1.454-4.142 1.4zm-8.285 2.801l-.49-1.455 4.142-1.4.49 1.454-4.142 1.401zm-8.284 2.802l-.49-1.455 4.141-1.4.49 1.454-4.14 1.4zm-8.285 2.8l-.49-1.454 4.142-1.4.49 1.454-4.142 1.4zm-8.285 2.803l-.49-1.455 4.142-1.401.49 1.455-4.142 1.4zm-8.285 2.8l-.49-1.454 4.143-1.4.49 1.454-4.143 1.4z"/>
        <path fill="#FFFF52" d="M105.487 101.735c0-3.572 2.89-6.468 6.455-6.468s6.456 2.896 6.456 6.468c0 3.573-2.89 6.469-6.456 6.469-3.565 0-6.455-2.896-6.455-6.469"/>
        <path fill="#000" d="M188.292 24.772l-1.831-2.945c35.723-22.29 66.872-27.152 81.3-12.69l-2.449 2.452c-13.226-13.257-42.74-8.207-77.02 13.183M122.962 83.212l-2.683-2.192a288.159 288.159 0 0 1 19.399-21.477c9.368-9.39 19.219-18.014 29.28-25.63l2.087 2.767c-9.933 7.52-19.663 16.037-28.919 25.316a284.703 284.703 0 0 0-19.164 21.216M89.393 187.925c-13.501-13.531-10.293-41.431 8.584-74.635l3.007 1.718c-18.057 31.763-21.475 58.105-9.143 70.465l-2.448 2.452zM112.507 196.222c-9.73 0-17.6-2.77-23.114-8.296l2.448-2.452c9.542 9.563 27.49 9.741 50.535.494 23.517-9.436 49.318-27.512 72.65-50.9 7.062-7.078 13.726-14.483 19.808-22.01l2.692 2.182c-6.158 7.622-12.904 15.118-20.05 22.28-23.657 23.714-49.871 42.062-73.813 51.669-11.694 4.691-22.21 7.033-31.156 7.033"/>
        <path fill="#000" d="M260.457 81.485l-3.03-1.675c16.912-30.715 19.861-56.219 7.885-68.221l2.449-2.452c13.128 13.157 10.397 40.203-7.304 72.348M110.682 90.972c-4.159 0-7.542 3.39-7.542 7.557 0 4.166 3.383 7.558 7.542 7.558 4.158 0 7.541-3.392 7.541-7.558 0-4.167-3.383-7.557-7.541-7.557m0 18.584c-6.068 0-11.004-4.947-11.004-11.027 0-6.08 4.936-11.026 11.004-11.026 6.067 0 11.003 4.946 11.003 11.026s-4.936 11.027-11.003 11.027"/>
        <path fill="#FFFF52" d="M244.474 101.735c0-3.572 2.89-6.468 6.456-6.468 3.565 0 6.456 2.896 6.456 6.468 0 3.573-2.891 6.469-6.456 6.469-3.566 0-6.456-2.896-6.456-6.469"/>
        <path fill="#000" d="M249.67 90.972c-4.159 0-7.542 3.39-7.542 7.557 0 4.166 3.383 7.558 7.541 7.558s7.542-3.392 7.542-7.558c0-4.167-3.384-7.557-7.542-7.557m0 18.584c-6.067 0-11.003-4.947-11.003-11.027 0-6.08 4.936-11.026 11.003-11.026s11.003 4.946 11.003 11.026-4.936 11.027-11.003 11.027M244.636 196.144c-15.723 0-36.074-7.12-58.175-20.909l1.83-2.945c34.282 21.392 63.795 26.441 77.022 13.184l2.448 2.452c-5.501 5.514-13.435 8.218-23.125 8.218M168.958 163.15c-10.056-7.613-19.907-16.235-29.28-25.63a288.638 288.638 0 0 1-19.399-21.476l2.682-2.194a285.252 285.252 0 0 0 19.165 21.218c9.261 9.281 18.99 17.798 28.918 25.314l-2.086 2.767zM97.976 83.772C79.1 50.57 75.892 22.668 89.392 9.137l2.449 2.452c-12.332 12.36-8.914 38.703 9.143 70.465l-3.008 1.718zM234.193 83.213a285.156 285.156 0 0 0-19.166-21.217c-23.333-23.39-49.134-41.466-72.65-50.902-23.044-9.245-40.992-9.07-50.536.495l-2.448-2.452C99.977-1.471 119.25-1.92 143.663 7.874c23.942 9.606 50.156 27.955 73.812 51.67a288.378 288.378 0 0 1 19.4 21.475l-2.682 2.194z"/>
        <path fill="#000" d="M267.761 187.925l-2.449-2.452c12.256-12.283 8.94-38.445-8.868-69.982l3.013-1.708c18.62 32.975 21.724 60.691 8.304 74.142"/>
        <path fill="#FFFF52" d="M202.457 99.476c0-2.819 2.289-5.112 5.1-5.112.6 0 1.186.104 1.735.303l-6.357 6.97a5.102 5.102 0 0 1-.478-2.161zm-44.17 5.113c-2.813 0-5.102-2.294-5.102-5.113 0-2.819 2.29-5.112 5.101-5.112 2.813 0 5.102 2.293 5.102 5.112 0 2.82-2.289 5.113-5.102 5.113zm63.634-21.813h-4.201v12.943l-6.535 7.35a5.046 5.046 0 0 1-3.627 1.52c-.499 0-.98-.073-1.435-.206l9.338-10.238-1.491-1.422a9.25 9.25 0 0 0-6.412-2.568c-2.808 0-5.324 1.258-7.03 3.235l-.028-.025-1.518 1.67c-1.101-2.85-3.859-4.88-7.088-4.88-2.07 0-4.075.86-5.504 2.36l.354.364-.373-.34-2.269 2.497c-1.102-2.852-3.86-4.881-7.089-4.881-2.1 0-4.054.838-5.504 2.36l.356.367-.375-.343-4.203 4.624c-1.031-4.022-4.669-7.008-9-7.008a9.271 9.271 0 0 0-7.089 3.3l-.006-.005-1.227 1.35.005.003-6.555 7.213-.004-.003-.949 1.043.001.001a5.055 5.055 0 0 1-3.64 1.532c-2.814 0-5.102-2.294-5.102-5.113 0-2.819 2.288-5.112 5.101-5.112a5.126 5.126 0 0 1 4.618 2.937c.018.037.043.091.066.148l2.968-3.265c-1.72-2.485-4.581-4.03-7.652-4.03-5.129 0-9.302 4.182-9.302 9.322 0 5.14 4.173 9.322 9.302 9.322a9.21 9.21 0 0 0 6.73-2.888l-.291-.3.307.281 3.72-4.093c1.034 4.018 4.67 7 8.998 7 2.728 0 5.176-1.189 6.88-3.068l.01.008 9.42-10.365c.643-.65 1.5-1.009 2.417-1.009a3.413 3.413 0 0 1 3.405 3.412v1.313l-8.583 9.446h5.68l11.962-13.162c.645-.65 1.5-1.009 2.417-1.009a3.414 3.414 0 0 1 3.406 3.412v1.31l-8.587 9.449h5.685l2.495-2.745-.002-.001 3.66-4.027c1.02 4.037 4.666 7.036 9.007 7.036a9.213 9.213 0 0 0 6.73-2.888l-.504-.515.536.478 3.685-4.146c1.009 4.054 4.664 7.071 9.017 7.071v-4.21c-2.812 0-5.101-2.293-5.101-5.112v-5.282h5.101v-4.21h-5.101v-7.208z"/>
        <path fill="#05131E" d="M204.004 98.436c0-2.818 2.289-5.112 5.101-5.112.6 0 1.185.105 1.735.303l-6.358 6.97a5.1 5.1 0 0 1-.478-2.16zm-44.17 5.112c-2.812 0-5.102-2.292-5.102-5.112 0-2.818 2.29-5.112 5.102-5.112 2.813 0 5.101 2.294 5.101 5.112 0 2.82-2.288 5.112-5.101 5.112zm63.634-21.812h-4.2V94.68l-6.535 7.35a5.049 5.049 0 0 1-3.628 1.52c-.498 0-.98-.073-1.435-.206l9.337-10.239-1.49-1.42a9.248 9.248 0 0 0-6.412-2.57c-2.809 0-5.324 1.259-7.03 3.237l-.028-.026-1.517 1.67c-1.102-2.851-3.86-4.88-7.089-4.88-2.07 0-4.075.86-5.504 2.361l.354.363-.373-.34-2.268 2.497c-1.103-2.851-3.861-4.881-7.09-4.881-2.1 0-4.054.838-5.504 2.361l.356.366-.375-.343-4.202 4.624c-1.032-4.022-4.67-7.008-9.001-7.008a9.271 9.271 0 0 0-7.09 3.3l-.005-.005-1.226 1.35.003.003-6.554 7.213-.004-.003-.948 1.044a5.054 5.054 0 0 1-3.64 1.531c-2.813 0-5.102-2.292-5.102-5.112 0-2.818 2.289-5.112 5.101-5.112a5.126 5.126 0 0 1 4.685 3.085l2.967-3.265c-1.72-2.485-4.581-4.03-7.652-4.03-5.129 0-9.302 4.183-9.302 9.322 0 5.14 4.173 9.322 9.302 9.322a9.207 9.207 0 0 0 6.73-2.888l-.29-.3.306.28 3.72-4.092c1.034 4.018 4.67 7 8.999 7 2.727 0 5.176-1.19 6.88-3.069l.01.01 9.419-10.365c.643-.651 1.5-1.01 2.417-1.01a3.413 3.413 0 0 1 3.406 3.413v1.312l-8.584 9.445h5.681l11.961-13.16c.644-.651 1.5-1.01 2.417-1.01a3.413 3.413 0 0 1 3.406 3.413v1.31l-8.587 9.447h5.686l2.494-2.743-.002-.002 3.66-4.026c1.02 4.036 4.666 7.035 9.007 7.035a9.21 9.21 0 0 0 6.73-2.888l-.505-.515.537.479 3.686-4.147c1.008 4.054 4.663 7.07 9.016 7.07v-4.209c-2.812 0-5.1-2.292-5.1-5.112v-5.281h5.1v-4.21h-5.1v-7.209z"/>
    </g>
</svg>
