<svg xmlns="http://www.w3.org/2000/svg" width="51" height="51" viewBox="0 0 51 51">
    <g fill="none" fill-rule="evenodd">
        <path fill="#FFFF52" d="M5.666 38.653c-6.686-10.565-2.91-24.179 8.432-30.406 11.342-6.228 25.958-2.71 32.643 7.854 6.687 10.565 2.911 24.178-8.43 30.406-11.344 6.228-25.959 2.711-32.645-7.854"/>
        <path fill="#000" d="M19.37 3.695c-.783 1.674.167 3.527 2.607 5.084 2.013 1.285 4.532 2.097 7.485 2.41a.72.72 0 0 0 .8-.651.758.758 0 0 0-.676-.81c-2.718-.29-5.016-1.023-6.829-2.18-.82-.523-2.66-1.883-2.04-3.208.765-1.643 3.641-1.958 4.842-2.02 2.663-.131 5.131.547 6.604 1.816.428.369.882.907.614 1.374-.31.547-1.204.92-2.512 1.053a.716.716 0 0 0-.642.806.76.76 0 0 0 .827.657c1.84-.187 3.058-.782 3.62-1.768.257-.45.334-.926.24-1.407a2.655 2.655 0 0 0-.44-.992 24.418 24.418 0 0 1 5.947 3.378c-.742.812-1.97 1.494-3.54 1.953a.719.719 0 0 0-.48.912.76.76 0 0 0 .931.499c1.876-.55 3.325-1.377 4.246-2.417a24.086 24.086 0 0 1 6.688 9.498c-1.362-.74-3.368-1.398-6.084-1.241a.717.717 0 0 0-.678.776.762.762 0 0 0 .8.69c3.823-.22 5.963 1.37 6.723 2.086.16.577.296 1.16.412 1.753 1.214 6.198-.068 12.436-3.606 17.566-4.828 6.998-12.915 10.466-20.976 9.847-.16-2.068-.17-4.991.501-8.141a.737.737 0 0 0 .003-.292.765.765 0 0 0-.576-.592.72.72 0 0 0-.875.547c-.682 3.194-.699 6.162-.548 8.317a24.24 24.24 0 0 1-10.45-4.094A24.476 24.476 0 0 1 6.155 38.8c.18.115.364.225.558.327 1.388.724 2.748.78 3.931.16a.72.72 0 0 0 .291-.99.755.755 0 0 0-1.006-.312c-1.653.863-3.674-.643-4.904-2.196-1.147-1.45-2.022-3.284-2.608-5.462a23.529 23.529 0 0 1-.495-7.293c.077-.455.175-.896.298-1.322.34-1.171.794-1.82 1.43-2.041.895-.311 1.824.472 2.182.824 1.872 1.839 2.38 4.585 2.474 6.564a.76.76 0 0 0 .776.718.718.718 0 0 0 .705-.752 15.827 15.827 0 0 0-.269-2.257c-.356-1.816-1.115-3.791-2.657-5.306-1.182-1.162-2.544-1.593-3.73-1.18a2.95 2.95 0 0 0-.31.13 22.786 22.786 0 0 1 2.145-4.888c2.94 1.025 4.577 3.638 5.432 5.65.16.378.596.562.972.412a.715.715 0 0 0 .392-.955c-.945-2.221-2.745-5.09-5.998-6.37.04-.056.077-.115.117-.173 3.461-5.017 8.597-8.22 14.2-9.403a3.595 3.595 0 0 0-.713 1.009M.822 29.903c1.29 6.585 5.074 12.339 10.657 16.2 11.527 7.975 27.218 5.309 34.98-5.942 3.76-5.45 5.12-12.078 3.83-18.662C49 14.913 45.214 9.159 39.631 5.297 28.105-2.677 12.413-.011 4.652 11.239c-3.76 5.45-5.12 12.079-3.83 18.664"/>
        <path fill="#000" d="M9.466 30.444a.737.737 0 0 0 .021-.357.765.765 0 0 0-.508-.574.727.727 0 0 0-.928.462c-.065.21-.437 1.247-1.246 1.033-.528-.14-1.015-.731-1.487-1.81-.526-1.196-.972-3.1-.503-4.518.077-.236.196-.387.316-.403.148-.02.401.105.638.43a.752.752 0 0 0 1.034.184.725.725 0 0 0 .16-1.024c-.549-.756-1.32-1.148-2.065-1.047-.692.094-1.236.594-1.493 1.37-.597 1.81-.103 4.064.556 5.569.43.976 1.152 2.314 2.493 2.669 1.32.349 2.53-.447 3.012-1.984M12.875 36.803c.307-.614.555-1.284.76-2.05a.726.726 0 0 0 .011-.327.764.764 0 0 0-.54-.583.724.724 0 0 0-.905.502 9.274 9.274 0 0 1-.656 1.78.745.745 0 0 0 .34.99.73.73 0 0 0 .99-.312M12.814 22.101c-.002-.009-.175-.87-.317-1.375a.76.76 0 0 0-.912-.531.72.72 0 0 0-.514.894c.2.722.277 1.195.278 1.203a.764.764 0 0 0 .846.633.717.717 0 0 0 .619-.824M15.979 17.3c-.012-.06-.776-1.617-1.172-2.333a.756.756 0 0 0-1.008-.309.721.721 0 0 0-.287.993 41.42 41.42 0 0 1 1.072 2.075c.178.37.62.533.989.367a.718.718 0 0 0 .406-.793M15.597 20.032c3.227 8.12 2.002 14.088.407 17.667a.744.744 0 0 0 .381.976.729.729 0 0 0 .976-.355c1.319-2.958 2.406-7.428 1.263-13.267a31.213 31.213 0 0 0-1.651-5.533.758.758 0 0 0-.962-.433.719.719 0 0 0-.414.945M16.125 40.622a.716.716 0 0 0 .1-.528.758.758 0 0 0-.333-.49.736.736 0 0 0-1.022.208c-.503.784-.882 1.202-.894 1.214a.732.732 0 0 0 .054 1.038.743.743 0 0 0 1.046-.027c.02-.021.465-.504 1.05-1.415M28.655 45.23c.008.304.02.613.037.918a.76.76 0 0 0 .779.712.72.72 0 0 0 .7-.758c-.016-.289-.04-.956-.048-.997a.763.763 0 0 0-.745-.61.718.718 0 0 0-.723.735M30.203 42.601c.201-2.566 1.234-8.773 6.444-10.992a.715.715 0 0 0 .368-.964.756.756 0 0 0-.98-.389c-2.28.971-4.089 2.692-5.373 5.114-1.06 1.996-1.729 4.446-1.937 7.082a.759.759 0 0 0 .681.806.72.72 0 0 0 .797-.657M38.953 30.533a.754.754 0 0 0 .543.902c.434.117.84.306 1.207.561a.737.737 0 0 0 1.03-.17.718.718 0 0 0 .114-.552.766.766 0 0 0-.31-.474 5.376 5.376 0 0 0-1.688-.783.722.722 0 0 0-.896.516M42.084 33.757c.595 1.463.416 3.257-.467 4.68-1.65 2.67-3.955 3.06-4.992 2.484-.984-.548-1.22-1.423-1.245-2.062-.047-1.224.652-2.56 1.664-3.18a.723.723 0 0 0 .225-1.01.755.755 0 0 0-1.024-.246c-1.472.9-2.413 2.69-2.346 4.458.057 1.445.776 2.624 2.026 3.318 2.627 1.462 5.652-.857 6.961-2.97.905-1.463 1.222-3.245.903-4.873a6.12 6.12 0 0 0-.332-1.121.76.76 0 0 0-.966-.426.718.718 0 0 0-.407.948"/>
        <path fill="#000" d="M38.98 35.675c.403.354.419.836.36 1.178-.12.704-.65 1.398-1.235 1.613a.719.719 0 0 0-.416.944.759.759 0 0 0 .96.436c1.062-.392 1.948-1.508 2.153-2.714a2.97 2.97 0 0 0-.008-1.073 2.612 2.612 0 0 0-.848-1.476.744.744 0 0 0-1.045.053.733.733 0 0 0 .08 1.04M26.409 32.9a.741.741 0 0 0 .245 1.016.737.737 0 0 0 1.02-.218c1.413-2.257 4.41-6.23 8.586-7.479a7.867 7.867 0 0 1 6.27.747 7.997 7.997 0 0 1 2.044 1.667.749.749 0 0 0 1.046.095.718.718 0 0 0 .239-.69.748.748 0 0 0-.17-.346 9.503 9.503 0 0 0-2.434-1.99 9.356 9.356 0 0 0-7.454-.892c-4.628 1.384-7.87 5.663-9.393 8.09M26.569 35.689a.708.708 0 0 0 .059-.455.76.76 0 0 0-.408-.532.73.73 0 0 0-.987.323c-.19.388-.37.789-.538 1.19a.748.748 0 0 0 .402.97.73.73 0 0 0 .967-.377c.158-.378.328-.754.505-1.12M25.025 25.175a.731.731 0 0 0 .015 1.04.745.745 0 0 0 1.047.01c.07-.07 7.167-7.014 14.077-5.01a.724.724 0 0 0 .92-.828.759.759 0 0 0-.537-.581c-3.232-.938-6.951-.298-10.753 1.85-2.824 1.597-4.691 3.442-4.77 3.519M32.433 11.288c.358-.015.72-.041 1.074-.078a.715.715 0 0 0 .64-.806c0-.016-.004-.033-.007-.05a.76.76 0 0 0-.82-.606c-.324.033-.656.058-.985.07a.717.717 0 0 0-.69.766.76.76 0 0 0 .788.704M22.204 13.68a.728.728 0 0 0 .965-.383.717.717 0 0 0 .04-.415.756.756 0 0 0-.449-.551c-3.585-1.523-5.88-3.364-7.018-5.63a.756.756 0 0 0-.994-.35.72.72 0 0 0-.328.98c1.305 2.602 3.852 4.679 7.784 6.349M30.292 13.91a.718.718 0 0 0-.736.724.759.759 0 0 0 .745.747c6.968.122 12.222-2.91 12.442-3.04a.715.715 0 0 0 .34-.758.756.756 0 0 0-1.115-.512c-.05.029-5.138 2.955-11.676 2.84"/>
    </g>
</svg>
