<svg xmlns="http://www.w3.org/2000/svg" width="72" height="71" viewBox="0 0 72 71">
    <g fill="none" fill-rule="evenodd">
        <path fill="#FFF" d="M11.856 30.309a24.455 24.455 0 0 1 6.63-12.134 24.452 24.452 0 0 1 12.136-6.63 24.606 24.606 0 0 1 13.432.85 24.338 24.338 0 0 1 4.725 2.27 24.616 24.616 0 0 1 4.419 3.51 24.65 24.65 0 0 1 3.275 4.054c-3.14 5.599-8.595 12.458-15.033 18.899-6.44 6.44-13.301 11.894-18.9 15.034a24.572 24.572 0 0 1-4.053-3.276 24.596 24.596 0 0 1-3.51-4.42 24.331 24.331 0 0 1-2.27-4.724 24.6 24.6 0 0 1-.851-13.433"/>
        <path fill="#CBE4F3" d="M17.432 37.131c0-11.764 9.536-21.3 21.3-21.3 11.764 0 21.3 9.536 21.3 21.3 0 11.764-9.536 21.301-21.3 21.301-11.764 0-21.3-9.537-21.3-21.3"/>
        <path fill="#000" d="M68.372 11.086c-1.699 4.31-4.91 9.682-9.289 15.537-4.184 5.6-9.368 11.53-14.993 17.155-5.624 5.623-11.557 10.81-17.155 14.994-5.854 4.377-11.227 7.59-15.537 9.288-4.14 1.633-7.166 1.787-8.519.434-1.356-1.354-1.2-4.38.432-8.52 1.594-4.042 4.518-9.016 8.484-14.449a25.795 25.795 0 0 0 1.69 3.354c-2.758 5.16-3.294 8.805-1.546 10.552.673.673 1.626 1.01 2.84 1.01 2.014 0 4.745-.927 8.091-2.758 5.787-3.168 12.94-8.818 19.623-15.502 6.685-6.684 12.335-13.836 15.502-19.622 2.935-5.36 3.54-9.14 1.75-10.93-1.749-1.749-5.394-1.213-10.553 1.543a25.928 25.928 0 0 0-3.354-1.69C51.27 7.516 56.245 4.593 60.285 3c4.141-1.633 7.167-1.787 8.522-.434 1.353 1.354 1.198 4.38-.435 8.521m-8.544 29.665a24.455 24.455 0 0 1-6.63 12.134 24.452 24.452 0 0 1-12.136 6.63c-4.014.87-8.163.721-12.085-.419 5.312-4.066 10.876-8.973 16.167-14.264 5.291-5.29 10.2-10.854 14.264-16.167a24.618 24.618 0 0 1 .42 12.086m-45.412 9.573a26.09 26.09 0 0 0 6.631 6.632c-3.965 2.001-6.936 2.538-8.052 1.422-1.117-1.118-.58-4.089 1.421-8.054M57.27 20.735a26.23 26.23 0 0 0-6.632-6.632c3.964-2 6.935-2.538 8.052-1.42 1.118 1.117.58 4.087-1.42 8.052m-45.414 9.573a24.455 24.455 0 0 1 6.631-12.134 24.46 24.46 0 0 1 12.135-6.63 24.61 24.61 0 0 1 13.433.85 24.361 24.361 0 0 1 4.724 2.271 24.707 24.707 0 0 1 7.695 7.563c-3.14 5.6-8.595 12.46-15.034 18.9C35 47.567 28.14 53.02 22.54 56.16a24.604 24.604 0 0 1-4.054-3.276 24.64 24.64 0 0 1-3.51-4.42 24.361 24.361 0 0 1-2.27-4.724 24.618 24.618 0 0 1-.85-13.433M69.86 1.511c-1.852-1.852-5.258-1.818-10.122.1-4.352 1.717-9.729 4.914-15.567 9.25a26.096 26.096 0 0 0-13.866-.775 25.935 25.935 0 0 0-12.873 7.034 25.944 25.944 0 0 0-7.034 12.872 26.095 26.095 0 0 0 .774 13.866c-4.335 5.838-7.53 11.216-9.248 15.568-1.919 4.865-1.953 8.27-.1 10.121.908.911 2.193 1.365 3.84 1.365 1.708 0 3.806-.489 6.281-1.464 4.352-1.717 9.73-4.913 15.566-9.247a26.05 26.05 0 0 0 8.325 1.366 26.17 26.17 0 0 0 5.543-.594 25.946 25.946 0 0 0 12.873-7.033 25.956 25.956 0 0 0 7.033-12.874 26.082 26.082 0 0 0-.774-13.865c4.336-5.838 7.532-11.216 9.25-15.568 1.918-4.864 1.952-8.27.1-10.122"/>
    </g>
</svg>
