<svg xmlns="http://www.w3.org/2000/svg" width="51" height="51" viewBox="0 0 51 51">
    <g fill="none" fill-rule="evenodd">
        <path fill="#C5ECD6" d="M5.463 27.24c0-12.053 9.771-21.825 21.826-21.825 12.054 0 21.825 9.772 21.825 21.826s-9.77 21.825-21.825 21.825S5.463 39.295 5.463 27.24"/>
        <path fill="#000" d="M39.097 42.108c.133-.535.489-1.123.979-1.614.628-.628 1.422-1.033 2.023-1.033.221 0 .386.053.49.16.379.377.08 1.558-.874 2.511-.629.628-1.423 1.034-2.023 1.034-.221 0-.386-.054-.491-.159-.166-.165-.204-.493-.104-.899M1.841 25.374c0-12.96 10.545-23.505 23.505-23.505 3.374 0 6.583.716 9.486 2.002-.02.766-.412 1.5-1.119 2.074-.788.642-1.855 1.005-3.003 1.024-2.308.04-4.202-1.337-4.229-3.062a.734.734 0 1 0-1.469.024c.041 2.504 2.546 4.507 5.607 4.507h.115c1.475-.025 2.863-.505 3.906-1.354.859-.699 1.405-1.58 1.593-2.537 7.493 3.934 12.618 11.792 12.618 20.827 0 5.29-1.757 10.177-4.718 14.11a1.953 1.953 0 0 0-.506-.903c-.384-.385-.913-.589-1.528-.589-1 0-2.144.548-3.061 1.464-.684.684-1.17 1.502-1.366 2.3-.226.916-.047 1.751.491 2.29.222.221.493.38.798.478a23.371 23.371 0 0 1-13.615 4.354c-12.96 0-23.505-10.543-23.505-23.504M25.346.401C11.577.401.374 11.605.374 25.374c0 13.77 11.203 24.972 24.972 24.972 13.771 0 24.973-11.202 24.973-24.972C50.319 11.605 39.117.401 25.346.401"/>
        <path fill="#000" d="M13.715 11.638c.322-.995.197-1.845-.35-2.394-.637-.635-1.678-.698-2.859-.171a.734.734 0 1 0 .6 1.34c.612-.273 1.078-.273 1.22-.13.271.27.007 1.527-1.235 2.77s-2.5 1.506-2.772 1.236c-.106-.108-.145-.428.01-.903a.734.734 0 0 0-1.397-.454c-.322.996-.198 1.846.35 2.394.35.35.82.526 1.372.526.317 0 .66-.058 1.023-.175.826-.268 1.698-.832 2.452-1.586.754-.754 1.316-1.625 1.586-2.453M14.198 29.056a.736.736 0 0 0 .247-1.01.736.736 0 0 0-1.008-.245 5.638 5.638 0 0 0-2.604 5.828.733.733 0 1 0 1.441-.27 4.164 4.164 0 0 1 1.925-4.303M21.145 29.685a5.623 5.623 0 0 0-3.007-2.406.734.734 0 0 0-.468 1.392 4.146 4.146 0 0 1 .829 7.468 4.138 4.138 0 0 1-4.577-.183.734.734 0 0 0-.86 1.19 5.609 5.609 0 0 0 6.197.248 5.618 5.618 0 0 0 1.886-7.71M39.848 23.65c.205 0 .414-.023.623-.07 1.214-.27 2.126-1.288 2.323-2.593a.734.734 0 1 0-1.451-.218c-.105.7-.573 1.241-1.191 1.378-.858.191-1.734-.447-1.951-1.423a1.928 1.928 0 0 1 .194-1.382c.222-.384.565-.646.969-.735.404-.09.826 0 1.189.254a.733.733 0 1 0 .842-1.2 2.941 2.941 0 0 0-2.351-.487c-.81.18-1.493.691-1.922 1.437a3.39 3.39 0 0 0-.354 2.432c.344 1.542 1.654 2.606 3.08 2.606M5.52 31.423a.735.735 0 0 0 .379 1.419c.199-.052.603.258.759.846.08.3.075.606-.013.84-.056.147-.141.249-.226.27a.734.734 0 0 0 .378 1.42c.55-.146.995-.573 1.22-1.172.198-.521.219-1.138.06-1.736-.358-1.344-1.481-2.174-2.556-1.887M32.913 20.165a.733.733 0 1 0 1.038-1.04 6.494 6.494 0 0 0-9.17 0 6.493 6.493 0 0 0 0 9.172 6.465 6.465 0 0 0 4.585 1.896c1.66 0 3.321-.632 4.585-1.896a.733.733 0 1 0-1.038-1.038 5.022 5.022 0 0 1-7.094 0 5.022 5.022 0 0 1 0-7.094 5.022 5.022 0 0 1 7.094 0M35.117 22.977a.734.734 0 0 0-.733.734c0 .299-.029.599-.08.892a.734.734 0 1 0 1.444.26c.069-.379.102-.767.102-1.152a.734.734 0 0 0-.733-.734M21.889 47.244c.25.32.712.376 1.03.126a2.18 2.18 0 0 1 3.058.372.732.732 0 0 0 1.03.125.733.733 0 0 0 .126-1.03 3.65 3.65 0 0 0-5.118-.624.735.735 0 0 0-.126 1.03z"/>
    </g>
</svg>
